<svg id="app_development" xmlns="http://www.w3.org/2000/svg" xmlns:xlink="http://www.w3.org/1999/xlink" width="800" height="622" viewBox="0 0 3031.885 2355.32">
<style xmlns="http://www.w3.org/2000/svg">
#Path_173374 {
	animation: Path_173374 1s linear alternate infinite
}
@keyframes Path_173374 {
    0% {
        transform: translate(1398px, 584.704px) scale(1);
    }
    100% {
        transform: translate(1398px, 584.704px) scale(1.1);
    }
}
#Path_202989,#Path_202993 {
	animation: Path_202989 1s linear alternate infinite
}
@keyframes Path_202989 {
    0% {
        transform: translate(-217.6px, -180px);
    }
    100% {
        transform: translate(-205.6px, -185px);
    }
}
#Group_59962 {
	animation: Group_59962 1s linear alternate infinite
}
@keyframes Group_59962 {
    0% {
        transform: translate(480.768px, 783.321px);
    }
    100% {
        transform: translate(500.768px, 783.321px);
    }
}
#Group_59966 {
	animation: Group_59966 1.3s linear alternate infinite
}
@keyframes Group_59966 {
    0% {
        transform: translate(-10px, 0px);
    }
    100% {
        transform: translate(10px, 0px);
    }
}
</style>
  <defs>
    <linearGradient id="linear-gradient" x1="0.065" y1="10.543" x2="0.927" y2="9.154" gradientUnits="objectBoundingBox">
      <stop offset="0" stop-color="#9a79ff"/>
      <stop offset="0.34" stop-color="#ba76e8"/>
      <stop offset="0.94" stop-color="#fb6fb9"/>
    </linearGradient>
  </defs>
  <g id="App_development-2" data-name="App_development">
    <path id="Path_203047" data-name="Path 203047" d="M1056.789,2332.268c505.614-136.381,505.614-508.984,722.05-816.566,307.109-435.974,862.307,466.311,1249.978,55.078,240.908-255.571,122.561-928.375-301.514-1246.844C2132.836-122.42,1233.585-115.678,664.938,395.093c-498.2,447.6-585.2,1034.755-530.422,1336.472S585.692,2459.345,1056.789,2332.268Z" transform="translate(-120.19 0.003)" fill="#cbeffb"/>
    <g id="Group_48414" data-name="Group 48414" transform="translate(632.512 94.279)">
      <g id="Group_59924" data-name="Group 59924" transform="translate(1207.311 477.658)">
        <path id="Path_202945" data-name="Path 202945" d="M318.8,355.111c12.965,12.559,31.6,19.042,49.832,18.636,21.067-.81,41.324-10.128,57.529-23.5l1.215-1.215a114.483,114.483,0,0,1-11.749-.81c-17.826-1.621-36.462-3.646-51.858-11.749a170,170,0,0,0,81.838-6.887,141.332,141.332,0,0,0,22.283-40.514,60.528,60.528,0,0,1-10.128,5.267c-23.5,10.939-50.237,10.939-75.761,6.887a351.5,351.5,0,0,0,93.182-37.678,137.743,137.743,0,0,0,1.621-36.462,111.255,111.255,0,0,0-8.913,10.534c-5.267,7.293-9.318,15.4-16.205,21.067-9.318,7.7-22.283,8.508-34.437,8.913-6.077,0-12.154.405-18.636,0q10.939-3.646,21.877-8.508a112.137,112.137,0,0,0,18.636-8.913c14.99-8.913,25.929-22.283,36.057-36.868a106.775,106.775,0,0,0-6.077-22.283,173.572,173.572,0,0,1-54.694,35.247c18.231-13.775,35.247-29.575,49.427-47-2.836-6.482-6.482-12.154-10.534-18.231-13.369,16.611-31.2,29.575-50.642,38.083A176.96,176.96,0,0,0,443.988,148.9c-3.646-4.051-7.292-8.1-10.939-11.749a69.821,69.821,0,0,1-10.939,10.939,64.25,64.25,0,0,1-10.939,7.293,140.169,140.169,0,0,0,14.585-25.119A157.858,157.858,0,0,0,409.551,117.7Z" transform="translate(-234.936 -117.7)" fill="#e5f3f9"/>
        <path id="Path_202946" data-name="Path 202946" d="M381.964,354.5c-9.318,2.431-26.334.405-35.247-3.646a81.208,81.208,0,0,1-26.334-19.041c-14.18-15.8-19.852-37.678-21.877-58.745a122.587,122.587,0,0,0,25.119,17.826c9.318,4.862,19.447,8.1,29.575,11.749-10.128-10.128-19.042-21.472-30.385-29.98-4.051-3.241-8.1-6.077-11.749-9.318a61.479,61.479,0,0,1-12.964-15.8,144.891,144.891,0,0,1,11.749-48.617c2.431,7.7,6.077,14.99,9.318,22.283,4.051,8.1,8.508,16.206,14.585,22.283a57.629,57.629,0,0,0,16.611,11.344,71.107,71.107,0,0,1-9.723-12.154c-12.559-19.041-16.205-42.134-19.042-64.822,4.862-6.887,10.939-12.964,17.016-18.636a128.931,128.931,0,0,0,12.154,42.134,117.936,117.936,0,0,0,23.9,32.411c-2.026-3.646-3.646-7.293-5.267-10.939-5.267-11.344-10.128-23.093-13.369-35.247a139.909,139.909,0,0,1-4.051-22.688,106.76,106.76,0,0,1-.81-11.344,16.619,16.619,0,0,1,.405-4.457,148.063,148.063,0,0,1,21.877-12.964c-1.621,10.128-2.026,19.852,0,29.98a87.574,87.574,0,0,0,5.672,17.421,133.351,133.351,0,0,0,19.042,32.816c-12.964-27.144-16.611-59.15-7.292-87.51a134.11,134.11,0,0,1,17.016-4.862,95.925,95.925,0,0,0,.405,35.652,91.807,91.807,0,0,1,10.534-37.273c6.482-.81,13.369-1.621,19.852-2.026a84.638,84.638,0,0,0-.81,22.688,79.309,79.309,0,0,1,8.508-23.093c8.1-.405,16.611-1.215,25.524-2.026Z" transform="translate(-298.1 -117.09)" fill="#e5f3f9"/>
        <path id="Path_202947" data-name="Path 202947" d="M401.674,302.071c4.862.405,9.318.81,14.18.81,9.318.405,19.041.81,28.36.405s19.042-.81,28.36-1.621c9.318-1.215,18.636-2.431,27.954-4.457a221.331,221.331,0,0,1-27.954,4.051c-9.318.81-18.636.81-27.955.81s-18.636-.405-27.954-1.215c-4.862-.405-9.318-.81-14.18-1.215l-10.534-1.215,10.128-27.955a143.129,143.129,0,0,0,18.636.405c6.887-.405,13.775-.81,20.662-1.621a232.464,232.464,0,0,0,40.514-8.508,229.687,229.687,0,0,1-40.514,7.292,176.179,176.179,0,0,1-20.662.81,121.652,121.652,0,0,1-17.421-1.215l9.723-26.334c8.508-.405,16.611-.81,24.713-2.836a185.243,185.243,0,0,0,25.524-7.7,183.719,183.719,0,0,0,23.9-11.344,262.9,262.9,0,0,0,22.283-14.585,159.494,159.494,0,0,1-22.283,14.18,254.57,254.57,0,0,1-23.9,10.939,131.522,131.522,0,0,1-25.524,6.887,115.146,115.146,0,0,1-23.5,2.026l10.128-27.954c6.887-1.62,14.18-3.241,20.662-6.077,6.887-2.836,13.775-5.672,20.257-9.723a147.344,147.344,0,0,0,18.636-12.154,146.765,146.765,0,0,0,17.016-14.585c-5.267,5.267-11.344,9.723-17.421,14.18A185.1,185.1,0,0,1,464.47,194.3a128.218,128.218,0,0,1-20.257,8.913c-6.077,2.431-12.559,3.646-19.042,4.862l10.534-29.17a155.955,155.955,0,0,0,24.308-15.8,142.78,142.78,0,0,0,21.067-20.257A166.292,166.292,0,0,1,459.609,162.7c-7.292,5.672-14.99,10.128-23.093,14.585l18.636-50.642-26.739,66.848a98.476,98.476,0,0,1-6.482-14.99,75.6,75.6,0,0,1-2.836-8.913,76.638,76.638,0,0,1-2.026-9.318,144.653,144.653,0,0,1-1.621-18.636A96.559,96.559,0,0,1,417.069,123a145.562,145.562,0,0,0-2.026,18.636,139.374,139.374,0,0,0,1.215,18.636c.405,3.241,1.215,6.077,1.62,9.318.81,3.241,1.621,6.077,2.431,8.913,1.621,5.672,4.457,11.344,6.887,16.611l-10.534,26.334c-4.862-6.482-9.318-12.964-12.559-20.257a130.6,130.6,0,0,1-9.723-24.713,145.928,145.928,0,0,1-4.862-25.929,118.068,118.068,0,0,1,.405-26.739c-1.62,8.913-1.62,17.826-1.215,26.739a115.539,115.539,0,0,0,4.456,26.334A144.421,144.421,0,0,0,402.484,202c3.646,7.7,8.508,14.99,13.37,21.877l-9.723,24.308-3.241-3.241-2.431-2.836-2.431-2.836-4.862-5.672-4.457-6.077A203.224,203.224,0,0,1,373.314,202a212.255,212.255,0,0,1-11.344-27.954,191.972,191.972,0,0,1-7.292-29.17,183.318,183.318,0,0,0,6.482,29.575,238.5,238.5,0,0,0,10.534,28.36c4.051,9.318,9.318,17.826,14.99,26.334l4.456,6.077L396,241.3l2.431,2.836,2.431,2.836,4.051,4.051-6.077,14.585c-6.887-4.456-13.775-8.913-19.852-14.18-6.887-6.077-13.369-12.154-19.041-19.447A221.741,221.741,0,0,1,343.334,210.1c-4.862-7.7-9.723-15.4-13.775-23.9a200.5,200.5,0,0,0,12.964,24.308,220.4,220.4,0,0,0,15.8,22.283,147.091,147.091,0,0,0,19.042,19.852,127.013,127.013,0,0,0,20.257,15.4l-6.887,16.611c-3.241-1.215-6.482-2.836-9.318-4.051-4.051-2.026-8.1-3.646-11.749-6.077a255.936,255.936,0,0,1-22.688-13.37,204,204,0,0,1-21.067-15.8,162.736,162.736,0,0,1-19.041-18.231,161.91,161.91,0,0,0,18.636,18.636c6.482,5.672,13.775,11.344,21.067,16.611,7.292,4.862,14.585,10.128,22.283,14.18,3.646,2.431,7.7,4.051,11.749,6.482,3.241,1.62,6.482,3.241,9.318,4.457l-13.775,34.437a104.285,104.285,0,0,1-19.446-4.457,100.934,100.934,0,0,1-20.662-10.939,210.444,210.444,0,0,1-18.636-14.585A160.892,160.892,0,0,1,301.2,274.927a165.359,165.359,0,0,0,34.032,33.221A129.509,129.509,0,0,0,355.894,319.9a76.5,76.5,0,0,0,19.447,5.267l-24.308,59.96,8.508,3.241,22.283-61.176a111.373,111.373,0,0,0,14.585,6.077,157.842,157.842,0,0,0,18.636,4.862,163.311,163.311,0,0,0,19.041,2.431,104.208,104.208,0,0,0,19.447-.81,149.233,149.233,0,0,1-19.041,0,154.292,154.292,0,0,1-19.042-2.836c-6.077-1.621-12.559-3.241-18.231-5.672a91.619,91.619,0,0,1-14.18-6.887l8.508-23.9Z" transform="translate(-288.64 -101.528)" fill="#bee1f4"/>
      </g>
      <g id="Group_59925" data-name="Group 59925" transform="translate(0 899.938)">
        <path id="Path_202948" data-name="Path 202948" d="M237.611,378.593c12.559-12.964,18.636-32.006,17.826-49.832-.81-21.067-10.534-41.324-24.713-57.124l-1.215-1.215c0,4.051-.405,7.7-.405,11.749-1.215,17.826-2.836,36.462-10.939,51.858a169.957,169.957,0,0,0-8.1-81.838,159.341,159.341,0,0,0-40.919-21.877,81.559,81.559,0,0,1,5.672,10.128c11.344,23.093,11.749,49.832,8.508,75.761a350.639,350.639,0,0,0-39.3-92.371,137.567,137.567,0,0,0-36.462-1.215,111.25,111.25,0,0,0,10.534,8.913c7.292,5.267,15.8,8.913,21.472,15.8,7.7,9.318,8.913,22.283,9.318,34.437.405,6.077.405,12.154.405,18.636-2.836-7.292-5.672-14.585-8.508-21.472a159.916,159.916,0,0,0-9.318-18.636c-9.318-14.585-23.093-25.524-37.273-35.247a140.449,140.449,0,0,0-22.283,6.482c15.4,15.4,27.549,34.032,36.462,53.883a271.559,271.559,0,0,0-47.806-48.617,131.043,131.043,0,0,0-17.826,10.939c16.611,13.37,30.385,30.385,38.893,50.237a163.667,163.667,0,0,0-51.047-40.109,155.3,155.3,0,0,0-11.749,11.344,90.166,90.166,0,0,1,10.939,10.534,74.868,74.868,0,0,1,7.7,10.939A117.881,117.881,0,0,0,12.354,276.5,153.631,153.631,0,0,0,.2,292.7Z" transform="translate(0.205 -221.931)" fill="#e5f3f9"/>
        <path id="Path_202949" data-name="Path 202949" d="M237.916,325.594c2.836,9.318.81,26.334-3.241,35.247a81.641,81.641,0,0,1-18.636,26.739c-15.8,14.585-37.273,20.662-58.34,22.688a109.511,109.511,0,0,0,17.421-25.524c4.862-9.723,8.1-19.852,10.939-29.98-9.723,10.128-21.067,19.447-29.575,30.79-3.241,4.051-5.672,8.1-8.913,12.154a68.965,68.965,0,0,1-15.4,13.37c-17.016-.81-33.626-4.051-48.617-10.939,7.7-2.431,14.99-6.077,21.877-9.723,8.1-4.051,15.8-8.508,22.283-14.99,4.862-4.862,8.1-10.939,10.939-17.016a88,88,0,0,1-11.749,9.723C108.272,381.1,85.179,385.15,62.491,388.391A121.382,121.382,0,0,1,43.855,371.78a116.534,116.534,0,0,0,41.729-12.964,123.915,123.915,0,0,0,32.006-24.308c-3.646,2.026-7.292,3.646-10.534,5.267-11.344,5.267-22.688,10.534-34.842,14.18a140.464,140.464,0,0,1-22.688,4.456c-3.646.405-7.7,1.215-11.344,1.215a16.616,16.616,0,0,1-4.457-.405,236.626,236.626,0,0,1-13.37-21.472,74.792,74.792,0,0,0,29.98-.81c6.077-1.215,11.749-3.646,17.421-6.077,11.344-5.267,22.688-11.344,32.411-19.447-26.739,13.37-58.745,17.421-87.51,8.913-2.026-5.672-3.646-11.344-5.267-17.016a95.98,95.98,0,0,0,35.652-.81A94.943,94.943,0,0,1,5.367,292.373c-1.215-6.482-1.621-12.964-2.431-19.852a84.813,84.813,0,0,0,22.688.405,68.36,68.36,0,0,1-23.093-8.1c-.81-8.1-1.215-16.611-2.431-25.524Z" transform="translate(-0.1 -168.933)" fill="#e5f3f9"/>
        <path id="Path_202950" data-name="Path 202950" d="M184.266,333.546c.405-4.862.81-9.318.81-14.18.405-9.318.405-19.041,0-28.36s-1.215-18.636-2.026-28.36a226.04,226.04,0,0,0-5.267-27.954c2.026,9.318,3.241,18.636,4.457,27.954.81,9.318,1.215,18.636,1.621,27.955,0,9.318,0,18.636-.81,27.954-.405,4.862-.81,9.318-1.215,14.18l-1.215,10.534-27.955-9.723c.405-6.077.405-12.559.405-18.636a178.311,178.311,0,0,0-2.026-20.662,262.476,262.476,0,0,0-9.318-40.109,230.55,230.55,0,0,1,7.7,40.514,176.692,176.692,0,0,1,1.215,20.662c0,6.077-.405,11.749-.81,17.421l-26.739-9.318a125.1,125.1,0,0,0-3.241-24.713,155.022,155.022,0,0,0-8.1-25.524A186.5,186.5,0,0,0,100,249.277,160.78,160.78,0,0,0,85.007,227.4a210.967,210.967,0,0,1,14.585,22.283,183.72,183.72,0,0,1,11.344,23.9,136.926,136.926,0,0,1,7.292,25.119,115.7,115.7,0,0,1,2.431,23.5L92.7,312.479a199.043,199.043,0,0,0-6.077-20.662A185.966,185.966,0,0,0,76.9,271.56a187.556,187.556,0,0,0-12.559-18.636,115.738,115.738,0,0,0-14.99-16.611A146.751,146.751,0,0,1,63.94,253.329a183.509,183.509,0,0,1,12.154,18.636,130.37,130.37,0,0,1,9.318,20.257,101.93,101.93,0,0,1,5.267,19.041l-29.17-10.128a164.987,164.987,0,0,0-16.206-23.9A142.3,142.3,0,0,0,24.641,256.57,166,166,0,0,1,44.9,277.637a169.008,169.008,0,0,1,14.99,22.688L8.841,282.5l67.253,25.929a71.466,71.466,0,0,1-14.99,6.887,75.6,75.6,0,0,1-8.913,2.836,76.648,76.648,0,0,1-9.318,2.026A145.563,145.563,0,0,1,24.236,322.2,143.943,143.943,0,0,1,5.6,320.987a96.559,96.559,0,0,0,18.636,1.621,93.848,93.848,0,0,0,18.636-1.621,76.648,76.648,0,0,0,9.318-2.026,75.6,75.6,0,0,0,8.913-2.836,147.968,147.968,0,0,0,16.611-7.292l26.739,10.129A151.445,151.445,0,0,1,84.6,331.926a106.374,106.374,0,0,1-24.308,10.128,113.35,113.35,0,0,1-25.929,5.267c-8.913.81-17.826,1.215-26.739,0a147.588,147.588,0,0,0,26.739.81A143.7,143.7,0,0,0,60.7,343.269a146.208,146.208,0,0,0,25.119-9.723c7.7-3.646,14.585-8.508,21.472-13.775L131.6,329.09l-3.241,3.241-2.431,2.836L123.09,337.6l-5.672,4.862-6.077,4.457a166.8,166.8,0,0,1-25.524,15.8,234.385,234.385,0,0,1-27.549,11.749,171.366,171.366,0,0,1-29.17,7.7,218.926,218.926,0,0,0,29.17-6.887,212.289,212.289,0,0,0,27.954-11.344c8.913-4.457,17.826-9.318,25.929-15.4l6.077-4.456,5.672-4.862,2.836-2.431,2.836-2.836,4.051-4.051,14.585,5.672a136.161,136.161,0,0,1-14.18,19.852,172.284,172.284,0,0,1-19.041,19.447,220.027,220.027,0,0,1-21.472,17.016c-7.7,5.267-15.4,9.723-23.5,14.18,8.1-4.051,16.206-8.508,23.9-13.37A218.2,218.2,0,0,0,115.8,376.491a175.643,175.643,0,0,0,19.852-19.042c5.672-6.077,10.534-13.369,14.99-20.257l17.016,6.482c-1.215,3.241-2.836,6.482-4.051,9.318-2.026,4.051-3.646,8.1-5.672,11.749-4.051,7.7-8.508,15.4-12.964,23.093a260.282,260.282,0,0,1-15.4,21.472,202.851,202.851,0,0,1-17.826,19.447c6.887-5.672,12.559-12.154,18.636-19.042,5.672-6.887,10.939-13.775,16.206-21.067a260.246,260.246,0,0,0,13.775-22.688c2.026-3.646,4.051-7.7,6.077-11.749,1.621-3.241,2.836-6.482,4.456-9.723l34.437,13.37c-.81,6.482-2.026,13.37-4.457,19.447a146.049,146.049,0,0,1-10.534,21.067c-4.456,6.482-8.913,12.964-14.18,18.636a220.386,220.386,0,0,1-17.016,16.611,161.316,161.316,0,0,0,17.421-15.8,163.024,163.024,0,0,0,14.99-18.231A116.191,116.191,0,0,0,202.9,378.516a76.041,76.041,0,0,0,4.862-19.447l60.366,23.093,3.241-8.508-61.581-19.446a111.376,111.376,0,0,0,6.077-14.585,157.847,157.847,0,0,0,4.862-18.636,158.261,158.261,0,0,0,2.026-19.447,156.127,156.127,0,0,0-.81-19.447,100.411,100.411,0,0,1,.405,19.041,102.983,102.983,0,0,1-2.836,19.042,134.9,134.9,0,0,1-5.267,18.231,114.8,114.8,0,0,1-6.482,14.585l-23.9-8.1Z" transform="translate(16.683 -205.244)" fill="#bee1f4"/>
      </g>
      <path id="XMLID_1957_" d="M886.152,710.891C694.116,821.9,381.35,821.089,188.1,709.676s-194.466-292.1-2.026-403.112,504.8-110.2,698.052,1.215C1077.377,419.6,1078.592,599.884,886.152,710.891Z" transform="translate(129.124 683.593)" fill="#e5f3f9"/>
      <path id="XMLID_1956_" d="M1009.752,661.991C817.716,773,504.95,772.189,311.7,660.776c-193.251-111.818-194.466-292.1-2.026-403.112s504.8-110.2,698.053,1.215C1200.977,370.7,1201.787,551.389,1009.752,661.991Z" transform="translate(506.274 534.381)" fill="#e5f3f9"/>
      <g id="Group_59926" data-name="Group 59926" transform="translate(156.788)">
        <path id="Path_202951" data-name="Path 202951" d="M295.945,82.744h0a129.78,129.78,0,0,0-17.421-6.887c-.405,0-.81,0-.81-.405l-4.862-1.215c-.405,0-1.215-.405-1.62-.405a14.565,14.565,0,0,0-4.457-.81c-.81,0-1.215-.405-2.026-.405a13.782,13.782,0,0,0-4.051-.405,3.652,3.652,0,0,1-2.026-.405c-1.621,0-2.836-.405-4.457-.405h-8.1a110.2,110.2,0,0,0-62.391,19.041,98.2,98.2,0,0,0-12.559,10.128,98.987,98.987,0,0,0-10.939,11.749,28.389,28.389,0,0,0-3.241,4.051c-2.026,2.836-4.051,5.672-6.077,8.913-.81,1.621-2.026,3.241-2.836,4.862-1.215,2.026-2.026,4.051-3.241,6.482a49.422,49.422,0,0,0-2.836,6.887,65.319,65.319,0,0,0-3.646,11.749,105.778,105.778,0,0,0-3.646,27.955v6.887a11.215,11.215,0,0,0,.405,3.646v2.026c0,1.215.405,2.431.405,3.241a2.435,2.435,0,0,0,.405,1.621c.405,1.215.405,2.836.81,4.051a1.488,1.488,0,0,0,.405,1.215,17.23,17.23,0,0,1,.81,4.457c0,.81.405,1.215.405,2.026.405.81.405,2.026.81,2.836s.405,1.621.81,2.431.405,1.621.81,2.431.405,1.621.81,2.431a5.758,5.758,0,0,1,.81,2.431,21.715,21.715,0,0,0,2.026,4.456c.405.81.405,1.215.81,2.026l1.215,2.431c.405.405.405,1.215.81,1.621l1.215,2.431c.405.405.405,1.215.81,1.621a17.613,17.613,0,0,1,1.62,2.836c.405.405.405.81.81,1.215,1.215,2.026,2.836,4.051,4.051,6.077h0a111.82,111.82,0,0,0,201.759-66.443C358.336,139.058,332.812,101.38,295.945,82.744Z" transform="translate(253.827 218.679)" fill="#e5f3f9"/>
        <path id="Path_202952" data-name="Path 202952" d="M258.385,76.9h0a166.749,166.749,0,0,0-23.5-9.318c-.405,0-.81-.405-1.215-.405a37.933,37.933,0,0,0-6.482-1.621,17.547,17.547,0,0,1-2.026-.405c-2.026-.405-4.051-.81-5.672-1.215-.81,0-1.621-.405-2.836-.405-2.026-.405-3.646-.405-5.672-.81-.81,0-2.026-.405-2.836-.405a30.663,30.663,0,0,0-6.077-.405H199.64c-2.836,0-5.672-.405-8.508-.405C107.268,61.5,38.8,129.563,38.8,213.832v9.723c0,1.621.405,3.241.405,4.862a5.139,5.139,0,0,0,.405,2.431c0,1.621.405,3.241.405,4.457,0,.81.405,1.621.405,2.431a27.358,27.358,0,0,1,.81,5.672c0,.81.405,1.215.405,2.026l1.215,6.077c.405.81.405,2.026.81,2.836l1.215,3.646a9.535,9.535,0,0,1,.81,3.241,27.916,27.916,0,0,0,1.215,3.241c.405,1.215.81,2.026,1.215,3.241s.81,2.026,1.215,3.241l2.431,6.077,1.215,2.431c.405,1.215,1.215,2.431,1.621,3.646l1.215,2.431c.81,1.215,1.215,2.431,2.026,3.646.405.81.81,1.215,1.215,2.026a16.422,16.422,0,0,1,2.026,3.646,2.1,2.1,0,0,1,.81,1.621,152.016,152.016,0,0,0,128.429,70.494c83.864,0,152.332-68.063,152.332-152.332C343.059,153.466,308.622,101.609,258.385,76.9Z" transform="translate(-38.8 188.47)" fill="#e5f3f9"/>
        <path id="Path_202953" data-name="Path 202953" d="M326.98,8.713c-.405,0-1.215-.405-1.62-.405l-8.508-2.431c-.81-.405-2.026-.405-2.836-.81-2.431-.405-4.862-1.215-7.293-1.621a10.068,10.068,0,0,0-3.241-.405L296.19,1.826c-1.215,0-2.431-.405-3.646-.405-2.431-.405-4.862-.405-7.7-.81A8.92,8.92,0,0,1,281.6.205c-3.646,0-7.293-.405-10.939-.405h0A194.517,194.517,0,0,0,169.787,27.755c-2.836,1.621-5.267,3.241-7.7,4.862a192.277,192.277,0,0,0-41.324,37.678C93.216,103.92,76.2,146.865,76.2,193.861a71.722,71.722,0,0,0,.405,9.318v2.836c0,2.026.405,4.051.405,6.077,0,1.215.405,2.026.405,3.241.405,2.026.405,4.051.81,6.077,0,1.215.405,2.026.405,3.241l1.215,7.292c0,.81.405,1.621.405,2.431.405,2.431,1.215,4.862,1.621,7.7a11.829,11.829,0,0,1,.81,3.646L83.9,250.58c.405,1.215.81,2.431,1.215,4.051a19.746,19.746,0,0,0,1.621,4.456,16.93,16.93,0,0,0,1.621,4.051c.405,1.215,1.215,2.836,1.621,4.051,1.215,2.431,2.026,5.267,3.241,7.7a12.129,12.129,0,0,0,1.621,3.241c.81,1.621,1.621,2.836,2.431,4.456a10.155,10.155,0,0,0,1.621,2.836,44.179,44.179,0,0,0,2.431,4.457,8.474,8.474,0,0,0,1.621,2.431,16.729,16.729,0,0,0,2.836,4.457c.405.81.81,1.215,1.215,2.026a194.251,194.251,0,0,0,164.081,90.346c107.362,0,194.466-87.1,194.466-194.466C465.537,107.162,407.2,33.021,326.98,8.713Z" transform="translate(75.322 0.2)" fill="#e5f3f9"/>
        <path id="Path_202954" data-name="Path 202954" d="M418.616,223.045l-145.444,79L264.663,61.8,254.535,349.448,78.3,212.511,253.725,374.566l-7.292,211.887h36.462l-8.913-261.719Z" transform="translate(81.729 189.385)" fill="#bee1f4"/>
      </g>
      <path id="XMLID_1954_" d="M767.143,581.34c-109.792,63.2-288.053,62.8-398.251-.81s-111.008-166.512-1.215-230.118c109.792-63.2,288.053-62.8,398.25.81S876.531,518.138,767.143,581.34Z" transform="translate(871.639 926.178)" fill="#e5f3f9"/>
      <g id="Group_59928" data-name="Group 59928" transform="translate(1631.638 1075.231)">
        <path id="Path_202955" data-name="Path 202955" d="M438.2,403.355c-4.862,8.1-9.723,15.8-14.99,23.5-1.215,2.026-3.646,3.646-3.646,6.077.405,2.836,4.862,6.887,6.482,9.318,2.431,2.836,6.077,9.723,9.318,11.749-4.051-2.026-12.559-8.1-18.231-8.1.405,3.646,2.836,7.7,4.051,11.344-3.646-2.836-6.482-4.457-10.939-5.267.81,3.646-1.621,8.508-2.026,12.154-3.646,18.231-6.482,40.109,1.621,57.125,8.913,18.636,34.032,15.8,50.642,11.749a76.4,76.4,0,0,0,24.308-10.534c2.431-2.026,11.344-10.939,14.99-8.1a54.4,54.4,0,0,1-2.836-10.939c2.431,1.621,6.077,1.215,7.7,3.241,4.051-2.836,6.482-8.1,11.344-10.534-3.646-4.051-4.862-10.534-8.1-14.99a45.805,45.805,0,0,1,14.18,3.646,34.752,34.752,0,0,1,5.267-8.1c8.1-10.939,14.99-23.5,21.067-35.652,3.646-7.7,8.1-14.585,12.559-21.472-3.646-2.836-6.482-8.1-10.128-11.344-4.457-4.457-8.913-8.913-12.965-13.37,2.431,0,4.457,1.215,6.887,2.026,7.7,2.026,16.206,4.051,23.9,6.077.405-3.241,15.4-31.2,13.775-32.006-4.862-2.836-10.939-6.077-14.99-9.318,4.862,1.215,10.534,0,15.4,0-2.431-5.672-13.37-10.939-17.421-15.4,4.051-1.215,8.1.81,12.154,1.215,2.836.405,5.672-.405,8.1.81,1.215-8.508,1.215-16.611,1.62-25.119.405-5.267,2.026-14.99,0-19.852-1.62-3.646-7.292-5.267-8.913-8.508,2.431-1.215,4.862-.81,7.292-.405,0-2.026-1.621-29.575-3.241-29.17-17.016,2.431-32.411,5.267-47.4,13.775-2.836,1.621-6.077,2.431-6.887,5.267-1.621,5.672,2.836,13.775,3.241,19.447-4.862-5.267-11.749-8.913-17.421-13.369-6.077,5.672-11.749,10.128-16.611,17.421-4.051,6.077-8.913,11.749-12.559,17.826-1.215,2.431-4.456,6.077-5.267,8.508-1.215,6.482,11.344,19.852,15.8,24.713-6.887-.405-13.37-6.887-20.662-8.1-7.7-1.215-7.7,7.292-12.559,9.723,2.836.405,6.482,5.267,8.508,7.7-3.241-.405-6.887-2.431-10.128-1.215a82.046,82.046,0,0,0,10.534,18.231c-4.457,0-8.508-3.241-12.559-4.051-2.026-.405-4.457-.405-6.077-.81-3.241,8.1-8.913,14.99-13.369,22.283C438.6,402.545,438.6,402.95,438.2,403.355Z" transform="translate(-397.426 -265.199)" fill="#e5f3f9"/>
        <g id="Group_59927" data-name="Group 59927" transform="translate(0 16.664)">
          <path id="Path_202956" data-name="Path 202956" d="M576.088,272.5c-9.318,8.913-14.585,25.119-19.852,36.462-5.672,12.559-11.344,25.524-17.016,38.083-10.939,23.5-22.282,46.186-37.273,67.658-29.98,43.35-57.125,89.941-93.587,128.429-2.431,2.431-7.292-1.215-4.862-4.051,34.032-42.134,66.848-84.674,97.638-129.239,15.8-22.688,27.549-47.806,39.3-72.925,10.534-22.283,20.257-46.186,33.221-66.848,1.215-2.026,4.051.4,2.431,2.431Z" transform="translate(-402.836 -269.312)" fill="#bee1f4"/>
        </g>
      </g>
      <path id="XMLID_1953_" d="M583.043,624.14c-109.792,63.2-288.053,62.8-398.251-.81S73.785,456.818,183.577,393.211c109.792-63.2,288.053-62.8,398.25.81S692.43,560.938,583.043,624.14Z" transform="translate(309.881 1056.777)" fill="#e5f3f9"/>
      <path id="XMLID_1952_" d="M442.185,451.538c-24.308,14.18-63.607,13.775-87.915,0-24.308-14.18-24.308-36.868-.405-50.642,24.308-14.18,63.607-13.775,87.915,0S466.088,437.358,442.185,451.538Z" transform="translate(1024.82 1192.106)" fill="#e5f3f9"/>
      <path id="XMLID_1951_" d="M456.253,298.215c-10.534,6.077-27.955,6.077-38.488,0s-10.939-16.206,0-22.283c10.534-6.077,27.954-6.077,38.488,0S466.787,292.138,456.253,298.215Z" transform="translate(1249.782 828.878)" fill="#e5f3f9"/>
      <g id="Group_59930" data-name="Group 59930" transform="translate(150.257 1391.13)">
        <path id="Path_202957" data-name="Path 202957" d="M233.323,350.578c9.318.405,18.636.81,27.955.81,2.431,0,5.267-.81,6.887.405,2.431,1.621,3.241,7.7,4.051,10.534,1.215,3.646,4.456,10.534,4.051,14.18.405-4.457.405-14.99,3.646-19.852,2.836,2.836,4.862,6.887,7.293,9.723a23.124,23.124,0,0,1,1.621-11.749c2.431,2.836,7.7,3.646,11.344,4.862,17.016,6.887,36.462,17.421,46.186,33.626,10.534,17.826-6.077,36.868-19.041,48.616a80.153,80.153,0,0,1-22.283,14.18c-2.836,1.215-15.4,2.836-15.4,7.7-2.431-2.836-4.456-6.077-7.293-8.508,0,2.836-2.431,5.672-1.621,8.1-4.862,1.621-10.128.81-14.99,3.241-1.215-5.267-6.077-9.723-7.7-14.99a50.489,50.489,0,0,0-4.862,13.775c-3.241-.81-6.482-.405-9.723-.405a233.607,233.607,0,0,1-41.324-2.836c-8.508-1.215-16.611-1.215-24.713-1.621-.405-4.862-2.836-10.128-4.051-14.585-1.215-6.077-2.431-12.154-4.051-18.231-1.621,2.026-1.621,4.457-2.431,6.887-2.431,7.7-5.672,15.8-8.508,23.093-2.836-1.621-34.437-4.862-34.032-6.887.405-5.267,1.215-12.559.405-17.421-2.026,4.862-5.672,8.508-8.913,12.964-3.241-5.267-1.215-17.016-2.431-23.093-3.241,2.431-4.051,7.292-6.077,10.534-1.215,2.431-3.646,4.457-3.646,7.292-7.7-3.646-14.585-8.508-21.472-12.964-4.457-2.836-13.37-6.482-16.206-11.344-2.026-3.241-.405-8.913-2.026-12.154-2.431,1.215-3.241,3.646-4.457,5.672-1.621-1.215-23.5-17.826-22.283-19.447,11.344-12.559,22.688-23.9,38.083-31.6,2.836-1.215,5.672-3.646,8.508-2.836,5.672,2.026,9.723,10.128,14.18,13.37-1.621-6.887-.81-14.99-1.215-21.877,8.1-2.026,14.99-3.646,23.5-4.051,7.292,0,14.99-.81,21.877-.405,2.431.405,7.7-.405,10.128.81,6.077,2.431,10.128,20.662,11.749,27.144,3.241-6.077,2.026-14.99,5.267-21.877,3.646-6.887,10.128-2.431,14.99-4.456-1.621,2.836.81,8.508,1.621,11.344,1.621-2.836,1.621-7.292,4.456-9.318,3.646,6.077,6.887,12.154,8.913,19.042,2.431-3.646,2.026-8.508,3.646-12.559.81-2.026,2.026-3.646,2.836-5.672,8.508,1.62,17.421,1.215,25.929,1.62C232.513,350.578,232.918,350.578,233.323,350.578Z" transform="translate(-37.188 -343.172)" fill="#e5f3f9"/>
        <g id="Group_59929" data-name="Group 59929" transform="translate(21.711 46.676)">
          <path id="Path_202958" data-name="Path 202958" d="M44.788,357.558c12.559-2.836,28.765,2.026,41.324,4.457,13.775,2.431,27.144,4.862,40.919,7.292,25.524,4.456,51.047,7.7,76.571,7.7,52.668,0,106.551,3.646,158.814-4.862,3.646-.405,3.241-6.887-.405-6.482-53.883,4.051-107.767,7.292-161.65,7.7-27.549,0-55.1-4.051-82.243-8.508-24.308-4.051-49.427-9.318-74.14-10.128-2.026-.4-2.026,3.646.81,2.836Z" transform="translate(-42.547 -354.693)" fill="#bee1f4"/>
        </g>
      </g>
      <g id="Group_59933" data-name="Group 59933" transform="translate(306.284 465.503)">
        <rect id="Rectangle_22301" data-name="Rectangle 22301" width="6.077" height="83.864" transform="translate(0 82.243)" fill="#2b2e31"/>
        <rect id="Rectangle_22302" data-name="Rectangle 22302" width="6.077" height="47.401" transform="translate(0 194.871)" fill="#2b2e31"/>
        <path id="Path_202959" data-name="Path 202959" d="M116.5,114.7H303.272a39.768,39.768,0,0,1,39.7,39.7V653.938a39.768,39.768,0,0,1-39.7,39.7H116.5a39.768,39.768,0,0,1-39.7-39.7V154.809A39.856,39.856,0,0,1,116.5,114.7Z" transform="translate(-72.344 -114.7)" fill="#2b2e31"/>
        <path id="Path_202960" data-name="Path 202960" d="M116.5,121.4H303.272a39.768,39.768,0,0,1,39.7,39.7V608.781a39.768,39.768,0,0,1-39.7,39.7H116.5a39.768,39.768,0,0,1-39.7-39.7V161.509A39.856,39.856,0,0,1,116.5,121.4Z" transform="translate(-72.344 -94.256)" fill="#64bb46"/>
        <path id="Path_202961" data-name="Path 202961" d="M107.283,117.9h38.083a2.769,2.769,0,0,1,2.836,2.836h0a2.769,2.769,0,0,1-2.836,2.836H107.283a2.769,2.769,0,0,1-2.836-2.836h0C104.042,119.115,105.663,117.9,107.283,117.9Z" transform="translate(11.827 -104.936)" fill="#f9fbfc"/>
        <circle id="Ellipse_170" data-name="Ellipse 170" cx="4.051" cy="4.051" r="4.051" transform="translate(171.373 12.154)" fill="#f9fbfc"/>
        <g id="Group_59932" data-name="Group 59932" transform="translate(66.037 215.128)">
          <g id="Group_59931" data-name="Group 59931" transform="translate(0.405 86.7)">
            <path id="Path_202962" data-name="Path 202962" d="M107.5,194.641a7.72,7.72,0,0,0-6.077-2.836c-4.862,0-9.318,3.646-9.318,9.723,0,5.672,4.051,9.723,8.913,9.723a7.72,7.72,0,0,0,6.077-2.836v1.215a1.294,1.294,0,0,0,1.215,1.215h2.836V191.4H107.09v3.241Zm-5.672,13.37c-2.836,0-5.672-2.026-5.672-6.077,0-3.646,2.431-6.077,5.672-6.077,4.051,0,5.672,3.241,5.672,6.077A5.419,5.419,0,0,1,101.823,208.011Z" transform="translate(-92.1 -182.487)" fill="#fff"/>
            <path id="Path_202963" data-name="Path 202963" d="M108.228,191.5c-2.836,0-4.862,1.215-5.672,2.836v-2.431H98.1v17.826a1.074,1.074,0,0,0,1.215,1.215h2.836V200.818c0-2.836,1.621-5.672,4.862-5.672,2.836,0,4.051,2.431,4.051,4.457v9.723a1.294,1.294,0,0,0,1.215,1.215h2.836V197.982C115.521,195.551,112.685,191.5,108.228,191.5Z" transform="translate(-73.792 -182.182)" fill="#fff"/>
            <path id="Path_202964" data-name="Path 202964" d="M118.29,201.354a7.72,7.72,0,0,0-6.077-2.836c-4.862,0-8.913,3.646-8.913,9.723,0,5.672,4.051,9.723,8.913,9.723a7.72,7.72,0,0,0,6.077-2.836v1.215a1.294,1.294,0,0,0,1.215,1.215h2.836V189.2h-4.456l.405,12.154Zm-5.672,13.37c-2.836,0-5.672-2.026-5.672-6.077,0-3.646,2.431-6.077,5.672-6.077,4.051,0,5.672,3.241,5.672,6.077C118.29,211.888,116.264,214.724,112.618,214.724Z" transform="translate(-57.925 -189.2)" fill="#fff"/>
            <path id="Path_202965" data-name="Path 202965" d="M113.556,195.451V192.21H109.1v17.826a1.074,1.074,0,0,0,1.215,1.215h2.836v-9.723c0-2.836,1.621-5.672,4.862-5.672a4.915,4.915,0,0,1,2.026.405v-4.457a4.19,4.19,0,0,0-1.621-.405A8.3,8.3,0,0,0,113.556,195.451Z" transform="translate(-40.227 -182.487)" fill="#fff"/>
            <path id="Path_202966" data-name="Path 202966" d="M118.305,209.831a1.074,1.074,0,0,0,1.215,1.215h2.836V191.6H117.9l.405,18.231Z" transform="translate(-13.374 -181.877)" fill="#fff"/>
            <path id="Path_202967" data-name="Path 202967" d="M134.89,189.605v12.154a7.72,7.72,0,0,0-6.077-2.836c-4.862,0-8.913,3.646-8.913,9.723,0,5.672,4.051,9.723,8.913,9.723a7.72,7.72,0,0,0,6.077-2.836v1.215a1.294,1.294,0,0,0,1.215,1.215h3.241V189.2H134.89Zm-5.267,25.119c-2.836,0-5.672-2.026-5.672-6.077,0-3.646,2.431-6.077,5.672-6.077,4.051,0,5.672,3.241,5.672,6.077A5.887,5.887,0,0,1,129.623,214.724Z" transform="translate(-7.272 -189.2)" fill="#fff"/>
            <circle id="Ellipse_171" data-name="Ellipse 171" cx="2.836" cy="2.836" r="2.836" transform="translate(104.12)" fill="#fff"/>
            <path id="Path_202968" data-name="Path 202968" d="M121.923,191.5a9.723,9.723,0,1,0,0,19.447,9.9,9.9,0,0,0,10.128-9.723C132.457,195.957,128,191.5,121.923,191.5Zm0,15.8a6.092,6.092,0,1,1,5.672-6.077C128,204.87,125.57,207.3,121.923,207.3Z" transform="translate(-30.767 -182.182)" fill="#fff"/>
          </g>
          <path id="Path_202969" data-name="Path 202969" d="M190.854,189.677l10.534-18.636a2.436,2.436,0,0,0,.405-1.62c-.405-.405-.405-1.215-1.215-1.215-.405-.405-.405-.405-1.215-.405h-.405c-.405.405-1.215.405-1.215,1.215l-10.534,19.041a71.115,71.115,0,0,0-57.53,0l-10.534-19.041c-.405-1.215-2.026-1.215-2.836-.81a2.093,2.093,0,0,0-1.215,2.836l10.534,18.636C105.37,200.211,92,220.063,92,242.751H224.075C224.48,219.658,211.111,199.806,190.854,189.677Zm-62.8,25.929a2.836,2.836,0,1,1,2.836-2.836A2.769,2.769,0,0,1,128.057,215.606Zm60.771,0a2.836,2.836,0,1,1,2.836-2.836C192.069,214.391,190.854,215.606,188.828,215.606Z" transform="translate(-92 -167.8)" fill="#fff"/>
        </g>
      </g>
      <g id="Group_59975" data-name="Group 59975" transform="translate(287.012 262.935)">
        <g id="Group_59974" data-name="Group 59974">
          <g id="Group_59934" data-name="Group 59934" transform="translate(489.03 1071.488)">
            <path id="Path_202970" data-name="Path 202970" d="M199.55,371.816c-10.534,6.077-10.534,15.8,0,21.877l346.8,201.759c10.534,6.077,27.144,6.077,37.678,0l81.433-38.083c10.534-6.077,10.534-15.8,0-21.877l-346.8-201.759c-10.534-6.077-27.144-6.077-37.678,0Z" transform="translate(-191.65 -329.175)" fill="#707070"/>
          </g>
          <g id="Group_59939" data-name="Group 59939" transform="translate(272.078 241.392)">
            <g id="Group_59935" data-name="Group 59935" transform="translate(129.239)">
              <path id="Path_202971" data-name="Path 202971" d="M170,154.738v8.508c0,5.267,5.672,8.1,10.128,5.672l40.919-23.9a6.466,6.466,0,0,0,3.241-5.672v-8.508c0-5.267-5.672-8.1-10.128-5.672l-40.919,23.9C171.215,149.876,170,152.307,170,154.738Z" transform="translate(-170 -124.283)" fill="#83bdf0"/>
            </g>
            <g id="Group_59936" data-name="Group 59936" transform="translate(0 42.945)">
              <path id="Path_202972" data-name="Path 202972" d="M138.1,239.883v8.508c0,5.267,5.672,8.1,10.128,5.672l170.158-98.448a6.466,6.466,0,0,0,3.241-5.672v-8.508c0-5.267-5.672-8.1-10.128-5.672L141.341,234.211A6.466,6.466,0,0,0,138.1,239.883Z" transform="translate(-138.1 -134.883)" fill="#83bdf0"/>
            </g>
            <g id="Group_59937" data-name="Group 59937" transform="translate(70.494 129.239)">
              <path id="Path_202973" data-name="Path 202973" d="M155.5,220.669v8.508c0,5.267,5.672,8.1,10.128,5.672L265.7,176.915a6.466,6.466,0,0,0,3.241-5.672v-8.508c0-5.267-5.672-8.1-10.128-5.672L158.741,215A6.466,6.466,0,0,0,155.5,220.669Z" transform="translate(-155.5 -156.183)" fill="#83bdf0"/>
            </g>
            <g id="Group_59938" data-name="Group 59938" transform="translate(26.739 86.294)">
              <path id="Path_202974" data-name="Path 202974" d="M144.7,235.188V243.7c0,5.267,5.672,8.1,10.128,5.672l143.824-83.053a6.466,6.466,0,0,0,3.241-5.672v-8.508c0-5.267-5.672-8.1-10.128-5.672L147.941,229.516A6.466,6.466,0,0,0,144.7,235.188Z" transform="translate(-144.7 -145.583)" fill="#83bdf0"/>
            </g>
          </g>
          <g id="Group_59944" data-name="Group 59944" transform="translate(1110.714 359.452)">
            <g id="Group_59941" data-name="Group 59941" opacity="0.37">
              <g id="Group_59940" data-name="Group 59940">
                <path id="Path_202975" data-name="Path 202975" d="M423.292,197.084a6.981,6.981,0,0,1,3.241,5.672v59.15a2.1,2.1,0,0,1-3.241,2.026l-74.951-43.35a6.982,6.982,0,0,1-3.241-5.672V155.76a2.1,2.1,0,0,1,3.241-2.026Z" transform="translate(-345.1 -153.423)" fill="#8ed2ff"/>
              </g>
            </g>
            <g id="Group_59943" data-name="Group 59943" transform="translate(27.549 105.336)">
              <g id="Group_59942" data-name="Group 59942">
                <path id="Path_202976" data-name="Path 202976" d="M429.686,222.678a6.981,6.981,0,0,1,3.241,5.672V287.5a2.1,2.1,0,0,1-3.241,2.026l-74.545-42.945a6.982,6.982,0,0,1-3.241-5.672V181.76a2.1,2.1,0,0,1,3.241-2.026Z" transform="translate(-351.9 -179.423)" fill="#83bdf0"/>
              </g>
            </g>
          </g>
          <g id="Group_59949" data-name="Group 59949" transform="translate(406.584 535.266)">
            <g id="Group_59946" data-name="Group 59946" opacity="0.37">
              <g id="Group_59945" data-name="Group 59945">
                <path id="Path_202977" data-name="Path 202977" d="M221.537,225.1a4.834,4.834,0,0,1,2.026,3.646v38.083c0,1.215-.81,2.026-2.026,1.215L173.326,240.09a4.834,4.834,0,0,1-2.026-3.646V198.361c0-1.215.81-2.026,2.026-1.215Z" transform="translate(-171.3 -196.82)" fill="#8ed2ff"/>
              </g>
            </g>
            <g id="Group_59948" data-name="Group 59948" transform="translate(17.421 67.658)" opacity="0.47">
              <g id="Group_59947" data-name="Group 59947">
                <path id="Path_202978" data-name="Path 202978" d="M225.837,241.8a4.834,4.834,0,0,1,2.026,3.646v38.083c0,1.215-.81,2.026-2.026,1.215L177.626,256.79a4.834,4.834,0,0,1-2.026-3.646V215.061c0-1.215.81-2.026,2.026-1.215Z" transform="translate(-175.6 -213.52)" fill="#83bdf0"/>
              </g>
            </g>
          </g>
          <g id="Group_59960" data-name="Group 59960" transform="translate(526.91)">
            <g id="Group_59955" data-name="Group 59955">
              <path id="Path_202979" data-name="Path 202979" d="M620.23,304.541l.81.81c2.431,2.026,4.456,4.051,6.887,6.077l.81.81c2.431,2.026,4.456,4.457,6.482,6.482l.405.405c2.431,2.431,4.457,4.862,6.887,7.7h0c2.431,2.836,4.457,5.672,6.482,8.508h0c2.026,2.431,3.646,5.267,5.672,8.1a59.918,59.918,0,0,1,3.241,5.267,27.259,27.259,0,0,0,2.836,4.457c.405.81.81,1.215,1.215,2.026,1.215,2.431,2.836,4.862,4.051,7.293,0,.405.405.405.405.81,1.62,3.241,2.836,6.077,4.456,9.318a.4.4,0,0,0,.405.405c8.508,19.447,13.369,40.109,13.369,59.15L720.3,411.5c0-16.611-4.051-34.842-10.534-52.263h0a42.069,42.069,0,0,1-1.621-4.051c-.405-.81-.81-2.026-1.215-2.836a15210.363,15210.363,0,0,0-.81-.81,42.03,42.03,0,0,1-1.621-4.051c-.81-1.215-1.215-2.836-2.026-4.051,0-.405-.405-.405-.405-.81s-.405-.405-.405-.81a24.053,24.053,0,0,0-1.621-3.241c-.81-1.215-1.62-2.836-2.431-4.051-.405-.81-.81-1.215-1.215-2.026,0-.405-.405-.405-.405-.81a16.416,16.416,0,0,1-2.026-3.646c-1.215-1.62-2.026-3.646-3.241-5.267,0-.405-.405-.405-.405-.81l-4.862-7.293h0l-3.646-4.862c-.81-1.215-2.026-2.431-2.836-3.646h0c-1.215-1.215-2.026-2.431-3.241-3.646s-2.026-2.431-3.241-3.646l-.405-.405-.405-.405a10.741,10.741,0,0,1-2.026-2.431l-3.241-3.241c-.405-.405-.81-.81-1.215-.81l-.81-.81-1.621-1.621c-1.215-1.215-2.431-2.026-3.646-3.241-.405-.405-1.215-.81-1.621-1.215l-.81-.81c-.405-.405-.81-.81-1.215-.81a22.265,22.265,0,0,1-3.646-2.836c-.81-.81-1.621-1.215-2.431-2.026L649,277.8l-.405-.405a22.47,22.47,0,0,1-3.241-2.431,22.617,22.617,0,0,1-3.241-2.026c-.405,0-.405-.405-.81-.405L299.766,75.234a8.476,8.476,0,0,1-2.431-1.621c-1.215-.405-2.026-1.215-3.241-1.621-.81-.405-1.215-.81-2.026-.81a.4.4,0,0,1-.405-.405c-.405,0-.405,0-.81-.405-1.215-.405-2.026-.81-3.241-1.215s-2.026-.81-3.241-1.215h-.81c-.81-.405-1.621-.405-2.026-.81a9.535,9.535,0,0,0-3.241-.81c-.405,0-1.215-.405-1.621-.405h-.81a1.488,1.488,0,0,1-1.215-.405A11.217,11.217,0,0,0,271,65.105a3.652,3.652,0,0,1-2.026-.405h-9.318a14.565,14.565,0,0,0-4.457.81h0c-.405,0-.81,0-.81.405-1.621.405-3.241.81-4.457,1.215a.4.4,0,0,0-.405.405c-.405,0-.405,0-.81.405-1.621.81-3.646,1.621-5.267,2.431L207.8,91.034c1.62-.81,3.241-1.621,5.267-2.431.405,0,.405-.405.81-.405,1.62-.405,3.241-1.215,4.862-1.621.405,0,.81,0,.81-.405a31.274,31.274,0,0,1,6.077-.81h8.1c2.026.405,4.457.405,6.482,1.215h.81a44.266,44.266,0,0,1,6.887,2.026h.405c2.431.81,4.862,2.026,7.7,3.241a.4.4,0,0,1,.405.405c2.431,1.215,5.267,2.431,8.1,4.051L606.051,293.6a91.681,91.681,0,0,1,8.1,5.267l.405.405C615.369,300.9,617.8,302.516,620.23,304.541Z" transform="translate(-180.251 -64.7)" fill="#636363"/>
              <path id="Path_202980" data-name="Path 202980" d="M380.276,185.917v-4.051a15.2,15.2,0,0,0-.405-4.051c0-1.215-.405-2.431-.405-4.051,0-1.215-.405-2.836-.405-4.051-.405-1.215-.405-2.836-.81-4.051s-.405-2.836-.81-4.051a14.394,14.394,0,0,1-.81-4.051c-.405-1.215-.81-2.836-1.215-4.051s-.81-2.836-1.215-4.051-.81-2.836-1.215-4.051a16.941,16.941,0,0,0-1.621-4.051,27.922,27.922,0,0,0-1.621-4.051L334.09,157.962a27.931,27.931,0,0,0,1.621,4.051,16.932,16.932,0,0,0,1.62,4.051c.405,1.215.81,2.836,1.215,4.051s.81,2.836,1.215,4.051.81,2.836,1.215,4.051a14.394,14.394,0,0,1,.81,4.051c.405,1.215.405,2.836.81,4.051s.405,2.836.81,4.051a13.782,13.782,0,0,1,.405,4.051c0,1.215.405,2.431.405,4.051,0,1.215.405,2.431.405,4.051v7.7l-2.431,819.594a62.726,62.726,0,0,1-.405,8.913v.81c-.405,2.431-.81,5.267-1.215,7.292v.81c-.405,2.431-1.215,4.457-1.62,6.482,0,.405-.405.81-.405,1.215-.81,2.026-1.215,4.051-2.431,5.672a.4.4,0,0,1-.405.405,25.834,25.834,0,0,1-3.241,5.672c0,.405-.405.405-.405.81a15.863,15.863,0,0,1-3.241,4.051l-1.215,1.215a18.731,18.731,0,0,1-2.836,2.836l-1.215,1.215a30.921,30.921,0,0,1-4.456,3.241l35.652-20.662a17.988,17.988,0,0,0,4.457-3.241l1.215-1.215a18.723,18.723,0,0,0,2.836-2.836l1.215-1.215c1.215-1.215,2.026-2.836,3.241-4.051,0-.405.405-.405.405-.81h0a24.758,24.758,0,0,0,2.836-5.672h0a1.255,1.255,0,0,1,.405-.81c.405-1.215,1.215-2.431,1.62-3.646.405-.81.405-1.215.81-2.026,0-.405.405-.81.405-1.215s.405-.811.405-1.215c.405-1.215.81-2.836,1.215-4.052a3.061,3.061,0,0,1,.405-1.62v-.81c0-.405.405-.81.405-1.621a11.216,11.216,0,0,0,.405-3.646,3.036,3.036,0,0,1,.405-2.026v-1.621a11.217,11.217,0,0,1,.405-3.646v-4.456l2.431-819.594C380.276,188.347,380.276,187.132,380.276,185.917Z" transform="translate(159.368 156.83)" fill="#707070"/>
              <g id="Group_59950" data-name="Group 59950" transform="translate(0 20.652)">
                <path id="Path_202981" data-name="Path 202981" d="M625.179,278.048c44.16,25.524,79.812,87.51,79.812,138.152l-2.431,819.594c0,50.642-36.057,71.3-80.217,45.78l-341.531-197.3C236.652,1058.749,201,996.763,201,946.12l2.431-819.594c0-50.642,36.057-71.3,80.217-45.781Z" transform="translate(-201 -69.798)" fill="#707070"/>
              </g>
              <g id="Group_59954" data-name="Group 59954" transform="translate(29.17 156.314)">
                <g id="Group_59951" data-name="Group 59951" transform="translate(171.373 26.439)">
                  <path id="Path_202982" data-name="Path 202982" d="M348.138,162.035c5.267,3.241,9.723,10.534,9.723,16.611s-4.457,8.508-9.723,5.672l-87.915-51.047c-5.267-3.241-9.723-10.534-9.723-16.611s4.457-8.508,9.723-5.672Z" transform="translate(-250.5 -109.809)" fill="#f9fbfc"/>
                </g>
                <g id="Group_59952" data-name="Group 59952" transform="translate(196.492 855.888)">
                  <path id="Path_202983" data-name="Path 202983" d="M283.034,318.02c14.585,8.508,25.929,28.36,25.929,44.97s-11.749,23.093-26.334,14.99c-14.585-8.508-25.929-28.36-25.929-44.97C257.105,316.4,268.854,309.917,283.034,318.02Z" transform="translate(-256.7 -314.541)" fill="#fff"/>
                </g>
                <g id="Group_59953" data-name="Group 59953">
                  <path id="Path_202984" data-name="Path 202984" d="M648.18,352.512c4.457,2.431,8.1,8.913,8.1,13.775l-2.026,684.683c0,5.267-3.646,7.292-8.1,4.457L216.3,807.481c-4.457-2.431-8.1-8.913-8.1-13.775l2.026-684.683c0-5.267,3.646-7.292,8.1-4.457Z" transform="translate(-208.2 -103.283)" fill="#f9fbfc"/>
                </g>
              </g>
              <path id="Path_202985" data-name="Path 202985" d="M333.967,346.165h0A5.363,5.363,0,0,1,328.7,340.9V188.567a5.363,5.363,0,0,1,5.267-5.267h0a5.363,5.363,0,0,1,5.267,5.267V340.9A5.363,5.363,0,0,1,333.967,346.165Z" transform="translate(188.661 297.193)" fill="#fff"/>
              <path id="Path_202986" data-name="Path 202986" d="M333.967,392.865h0A5.363,5.363,0,0,1,328.7,387.6V235.267A5.363,5.363,0,0,1,333.967,230h0a5.363,5.363,0,0,1,5.267,5.267V388A5.024,5.024,0,0,1,333.967,392.865Z" transform="translate(188.661 439.693)" fill="#fff"/>
              <path id="Path_202987" data-name="Path 202987" d="M333.967,394.83h0a5.363,5.363,0,0,1-5.267-5.267v-78.6a5.363,5.363,0,0,1,5.267-5.267h0a5.363,5.363,0,0,1,5.267,5.267v79A5.3,5.3,0,0,1,333.967,394.83Z" transform="translate(188.661 670.682)" fill="#fff"/>
            </g>
            <g id="Group_59956" data-name="Group 59956" transform="translate(208.646 448.122)">
              <path id="Path_202988" data-name="Path 202988" d="M293.014,180.942c21.877,12.559,39.7,43.35,40.109,68.873v.81c-.81.405-18.636,7.292-40.919-5.267-.405,0-.405-.405-.81-.405-17.421-10.128-31.6-29.98-36.868-37.678-1.215-2.026-2.026-3.241-2.026-3.241C252.905,178.106,270.731,167.977,293.014,180.942Z" transform="translate(-252.5 -175.31)" fill="#fff"/>
            </g>
            <g id="Group_59957" data-name="Group 59957" transform="translate(67.253 469.582)">
              <path id="Path_202989" data-name="Path 202989" d="M580.2,385.579c5.267,2.836,9.318,10.128,9.318,15.8v38.488c0,5.672-4.051,8.1-9.318,5.267L226.918,241.35c-5.267-2.836-9.318-10.128-9.318-15.8V187.062c0-5.672,4.051-8.1,9.318-5.267Z" transform="translate(-217.6 -180.607)" fill="#4ba6f7"/>
            </g>
            <path id="Path_202990" data-name="Path 202990" d="M373.213,242.2a125.568,125.568,0,0,1,4.456,20.662c.405,4.051.81,8.1.81,12.154v4.051a8.919,8.919,0,0,1-.405,3.241v.81c0,1.215-.405,2.026-.405,3.241a10.069,10.069,0,0,0-.405,3.241c-.405,1.215-.405,2.026-.81,3.241v.405a25.817,25.817,0,0,0-.81,2.836v.405c-.405.81-.405,1.62-.81,2.431a180401.933,180401.933,0,0,0-2.431,4.862.4.4,0,0,1-.405.405,8.865,8.865,0,0,1-1.215,2.026.4.4,0,0,1-.405.405,7.115,7.115,0,0,1-1.62,2.026c-.405.81-1.215,1.215-1.621,2.026l-.405.405-1.621,1.621a.4.4,0,0,0-.405.405l-1.621,1.62-.405.405c-.405.405-1.215.81-1.621,1.215-.81.405-1.215.81-2.026,1.215a.4.4,0,0,0-.405.405c-.81.405-1.215.81-2.026,1.215H356.2c-.81.405-1.215.81-2.026.81a1.488,1.488,0,0,1-1.215.405c-.405-25.524-18.231-55.909-40.109-68.468-22.283-12.964-40.109-2.431-40.514,23.093,0,0,.81,1.215,2.026,2.836a8.84,8.84,0,0,0-1.621-2.026,28.417,28.417,0,0,0-2.431-3.646l-.405-.405c-.81-1.215-1.215-2.026-2.026-3.241,0-.405-.405-.405-.405-.81a22.609,22.609,0,0,0-2.026-3.241c-.81-1.215-1.215-2.431-2.026-3.646,0-.405-.405-.405-.405-.81a14.391,14.391,0,0,1-1.621-3.646c0-.405-.405-.405-.405-.81-.405-1.215-1.215-2.026-1.621-3.241a27.931,27.931,0,0,1-1.62-4.051c0-.405-.405-.405-.405-.81-.405-1.215-1.215-2.431-1.621-3.646-.81-1.621-1.215-2.836-1.62-3.646a.4.4,0,0,0-.405-.405l-1.215-3.646c0-.405,0-.405-.405-.81l-2.431-7.293v-.81a11.827,11.827,0,0,1-.81-3.646v-.81c-.405-1.215-.405-2.431-.81-3.241-.405-1.621-.405-2.836-.81-4.051v-.81c0-1.215-.405-2.431-.405-3.646,0-1.62-.405-2.836-.405-3.646v-.405A11.216,11.216,0,0,0,246,203.3v-4.457a86.3,86.3,0,0,1,.81-10.939,57.072,57.072,0,0,1,4.457-15.4l1.215-2.431c10.534-19.447,33.221-23.9,59.555-8.508,23.5,13.37,44.16,39.7,55.909,67.658a31.745,31.745,0,0,1,2.026,5.672C371.593,236.525,372.4,239.361,373.213,242.2Zm-59.555,1.621c13.369,7.7,24.713,1.621,24.713-14.18,0-15.4-10.939-34.437-24.308-42.134s-24.713-1.621-24.713,14.18c0,15.4,10.939,34.437,24.308,42.134" transform="translate(-63.688 202.645)" fill="url(#linear-gradient)"/>
            <path id="Path_202991" data-name="Path 202991" d="M373.213,242.2a125.568,125.568,0,0,1,4.456,20.662c.405,4.051.81,8.1.81,12.154v4.051a8.919,8.919,0,0,1-.405,3.241v.81c0,1.215-.405,2.026-.405,3.241a10.069,10.069,0,0,0-.405,3.241c-.405,1.215-.405,2.026-.81,3.241v.405a25.817,25.817,0,0,0-.81,2.836v.405c-.405.81-.405,1.62-.81,2.431a180401.933,180401.933,0,0,0-2.431,4.862.4.4,0,0,1-.405.405,8.865,8.865,0,0,1-1.215,2.026.4.4,0,0,1-.405.405,7.115,7.115,0,0,1-1.62,2.026c-.405.81-1.215,1.215-1.621,2.026l-.405.405-1.621,1.621a.4.4,0,0,0-.405.405l-1.621,1.62-.405.405c-.405.405-1.215.81-1.621,1.215-.81.405-1.215.81-2.026,1.215a.4.4,0,0,0-.405.405c-.81.405-1.215.81-2.026,1.215H356.2c-.81.405-1.215.81-2.026.81a1.488,1.488,0,0,1-1.215.405c-.405-25.524-18.231-55.909-40.109-68.468-22.283-12.964-40.109-2.431-40.514,23.093,0,0,.81,1.215,2.026,2.836a8.84,8.84,0,0,0-1.621-2.026,28.417,28.417,0,0,0-2.431-3.646l-.405-.405c-.81-1.215-1.215-2.026-2.026-3.241,0-.405-.405-.405-.405-.81a22.609,22.609,0,0,0-2.026-3.241c-.81-1.215-1.215-2.431-2.026-3.646,0-.405-.405-.405-.405-.81a14.391,14.391,0,0,1-1.621-3.646c0-.405-.405-.405-.405-.81-.405-1.215-1.215-2.026-1.621-3.241a27.931,27.931,0,0,1-1.62-4.051c0-.405-.405-.405-.405-.81-.405-1.215-1.215-2.431-1.621-3.646-.81-1.621-1.215-2.836-1.62-3.646a.4.4,0,0,0-.405-.405l-1.215-3.646c0-.405,0-.405-.405-.81l-2.431-7.293v-.81a11.827,11.827,0,0,1-.81-3.646v-.81c-.405-1.215-.405-2.431-.81-3.241-.405-1.621-.405-2.836-.81-4.051v-.81c0-1.215-.405-2.431-.405-3.646,0-1.62-.405-2.836-.405-3.646v-.405A11.216,11.216,0,0,0,246,203.3v-4.457a86.3,86.3,0,0,1,.81-10.939,57.072,57.072,0,0,1,4.457-15.4l1.215-2.431c10.534-19.447,33.221-23.9,59.555-8.508,23.5,13.37,44.16,39.7,55.909,67.658a31.745,31.745,0,0,1,2.026,5.672C371.593,236.525,372.4,239.361,373.213,242.2Zm-59.555,1.621c13.369,7.7,24.713,1.621,24.713-14.18,0-15.4-10.939-34.437-24.308-42.134s-24.713-1.621-24.713,14.18c0,15.4,10.939,34.437,24.308,42.134" transform="translate(-63.688 202.645)" fill="#2eb2e7"/>
            <g id="Group_59958" data-name="Group 59958" transform="translate(225.662 386.899)">
              <path id="Path_202992" data-name="Path 202992" d="M281.413,163.447c13.37,7.7,24.308,26.739,24.308,42.134s-10.939,21.877-24.713,14.18c-13.37-7.7-24.308-26.739-24.308-42.134S267.639,155.749,281.413,163.447Z" transform="translate(-256.7 -160.198)" fill="#fff"/>
            </g>
            <g id="Group_59959" data-name="Group 59959" transform="translate(67.253 553.445)">
              <path id="Path_202993" data-name="Path 202993" d="M580.2,406.279c5.267,2.836,9.318,10.128,9.318,15.8v38.488c0,5.672-4.051,8.1-9.318,5.267L226.918,262.05c-5.267-2.836-9.318-10.128-9.318-15.8V207.762c0-5.672,4.051-8.1,9.318-5.267Z" transform="translate(-217.6 -201.307)" fill="#4ba6f7"/>
            </g>
            <path id="Path_202994" data-name="Path 202994" d="M375.626,319.346c12.154,6.887,21.877,23.9,21.877,37.678v8.913c0,13.775-9.723,19.447-21.877,12.559L261.377,312.458c-12.154-6.887-21.877-23.9-21.877-37.678v-8.913c0-13.775,9.723-19.447,21.877-12.559Z" transform="translate(-83.522 501.868)" fill="#0a81ed"/>
          </g>
          <ellipse id="Ellipse_172" data-name="Ellipse 172" cx="129.644" cy="76.976" rx="129.644" ry="76.976" transform="translate(442.641 1280.235)" fill="#b8dff8"/>
          <g id="Group_59962" data-name="Group 59962" transform="translate(491.768 783.321)">
            <path id="Path_202995" data-name="Path 202995" d="M255.48,306.517s7.7-5.267,9.723-7.7,4.457-17.421,2.026-18.231-4.457,9.723-4.457,9.723-.81-27.144-4.051-31.2-13.37,15.4-14.18,18.636-3.241,16.611-3.241,16.611S244.946,306.517,255.48,306.517Z" transform="translate(-42.888 -256.47)" fill="#ffc8af"/>
            <path id="Path_202996" data-name="Path 202996" d="M204.371,358.962s-20.257,20.257-6.077,44.97S309.3,367.875,319.836,358.557c10.534-8.913,78.192-69.684,82.243-77.381s-4.457-15.4-14.99-14.18-51.858,45.376-83.864,66.037C303.225,332.628,226.249,350.049,204.371,358.962Z" transform="translate(-189.487 -231.129)" fill="#83bdf0"/>
            <path id="Path_202997" data-name="Path 202997" d="M199.462,409.1s-1.62,12.154.405,17.421c2.026,4.457,10.939,7.7,17.421,3.241,6.077-4.456,16.611-15.4,16.611-15.4s17.826-9.318,19.447-14.585c1.62-4.862-4.457-9.318-9.318-8.508-4.862,1.215-19.447,10.128-25.929,10.128C210.806,401.4,201.488,403.021,199.462,409.1Z" transform="translate(-172.423 148.181)" fill="#2a5172"/>
            <path id="Path_202998" data-name="Path 202998" d="M194.4,331.4s15.4,256.857,17.421,264.15,22.283,11.749,25.929,0c2.431-7.7,8.1-245.108,8.1-245.108Z" transform="translate(-185.998 -34.219)" fill="#043059"/>
            <path id="Path_202999" data-name="Path 202999" d="M212.615,412.365A4.377,4.377,0,0,0,211.4,415.2c0,3.646,0,11.344,2.026,14.585,2.431,4.051,10.939,8.1,19.447,3.646,7.293-4.051,29.17-20.662,34.032-24.308a11.225,11.225,0,0,0,4.457-6.887,4.133,4.133,0,0,0-2.431-4.862c-3.241-1.215-8.508-3.241-13.37-1.62-7.293,2.431-16.611,10.534-26.739,10.128C221.123,405.478,215.046,409.934,212.615,412.365Z" transform="translate(-134.124 160.31)" fill="#2a5172"/>
            <path id="Path_203000" data-name="Path 203000" d="M283.377,340.968c-1.215-10.534-13.775-14.18-25.524-10.534-22.283-1.215-57.124-.405-58.34,17.016-1.621,25.929,10.128,44.16,21.877,56.719,8.508,9.318,14.18,27.144,16.611,35.652,2.026,68.063,6.482,164.081,9.318,173.4,4.457,14.99,26.739,14.18,27.955-.405C280.136,564.2,283.377,340.968,283.377,340.968Z" transform="translate(-170.854 -41.356)" fill="#043059"/>
            <path id="Path_203001" data-name="Path 203001" d="M303.2,475.942c-2.836,13.37-40.109,19.852-61.986,16.206s-45.781-14.18-44.97-39.7c0,0,4.051-60.771,2.431-71.709S193,350.754,193,330.9s12.559-34.842,12.559-34.842,12.154-14.18,51.047-6.077c0,0,31.6,6.887,45.781,29.98,0,0,10.128,25.524,6.482,79C305.628,452.444,303.2,475.942,303.2,475.942Z" transform="translate(-190.27 -168.227)" fill="#0569bd"/>
            <path id="Path_203002" data-name="Path 203002" d="M201.2,282.477s3.241,19.447,0,28.36c-.405,4.457,19.041,19.447,36.057,15.4,10.128-2.026,9.318-7.292,9.318-7.292s-8.508-13.775-7.293-27.144S212.549,279.641,201.2,282.477Z" transform="translate(-165.253 -189.08)" fill="#e2a58d"/>
            <g id="Group_59961" data-name="Group 59961" transform="translate(9.213 8.318)">
              <circle id="Ellipse_173" data-name="Ellipse 173" cx="45.781" cy="45.781" r="45.781" fill="#ff9d6f"/>
              <path id="Path_203003" data-name="Path 203003" d="M267.373,282.27s.405,45.781-9.318,55.1c-10.128,9.318-25.524-8.508-49.832-14.585C183.509,316.3,228.074,268.9,228.074,268.9Z" transform="translate(-175.811 -233.248)" fill="#ffc8af"/>
            </g>
            <path id="Path_203004" data-name="Path 203004" d="M244.7,314.127s-4.457-17.826-2.836-19.447,7.293,6.482,7.293,6.482,2.836-18.231,5.267-20.257,12.154,7.7,13.37,12.964c1.62,5.267-5.672,26.739-8.913,27.144C256.452,321.42,246.324,323.04,244.7,314.127Z" transform="translate(-42.24 -189.13)" fill="#ffc8af"/>
            <path id="Path_203005" data-name="Path 203005" d="M227.021,311.87s-20.257,9.723-11.749,34.842c8.913,25.119,73.735,34.842,81.433,27.144s41.729-47.4,51.452-77.381c0,0-4.051-11.749-19.447-6.887,0,0-36.868,46.591-42.539,51.453S236.744,309.845,227.021,311.87Z" transform="translate(-128.678 -165.4)" fill="#83bdf0"/>
            <path id="Path_203006" data-name="Path 203006" d="M208.021,277.3a58.364,58.364,0,0,1,38.893-19.042c24.713-1.62,36.462,6.482,46.186,5.672s18.231,7.292,14.99,19.042-10.128,23.9-26.334,23.9c-15.8,0-19.852-2.431-19.852-2.431s12.559,5.672,14.18,16.611,1.621,27.955,1.621,27.955h-4.051s-3.241-18.231-9.723-18.231-6.482,19.852-.81,23.093l5.672,3.241s-10.534,19.852-16.611,20.662c-5.672.81-24.713-13.37-24.713-13.37s-31.6-14.99-34.842-39.7C189.79,299.586,208.021,277.3,208.021,277.3Z" transform="translate(-192.326 -258.047)" fill="#2a5172"/>
          </g>
          <g id="Group_59973" data-name="Group 59973" transform="translate(0 651.692)">
            <g id="Group_59967" data-name="Group 59967" transform="translate(0 33.842)">
              <ellipse id="Ellipse_174" data-name="Ellipse 174" cx="129.644" cy="76.976" rx="129.644" ry="76.976" transform="translate(33.452 467.084)" fill="#b8dff8"/>
              <g id="Group_59966" data-name="Group 59966">
                <g id="Group_59963" data-name="Group 59963" transform="translate(95.876 239.961)">
                  <path id="Path_203007" data-name="Path 203007" d="M95,327.451s8.913,55.1,15.8,85.889c0,0,1.621,51.047,2.836,68.468,1.621,17.421,5.672,55.1,5.672,55.1s5.267,4.457,10.939,1.621c0,0,7.292-108.172,8.913-125.593s6.482-96.018,6.482-96.018S129.032,301.522,95,327.451Z" transform="translate(-93.412 -234.428)" fill="#ffc8af"/>
                  <path id="Path_203008" data-name="Path 203008" d="M108.5,321.79s8.913,55.1,15.8,85.889c0,0,1.621,51.047,2.836,68.468,1.621,17.421,5.672,55.1,5.672,55.1s5.267,4.457,10.939,1.621c0,0,7.293-108.172,8.913-125.593s2.026-95.207,2.026-95.207S142.532,295.862,108.5,321.79Z" transform="translate(-52.219 -250.646)" fill="#ffc8af"/>
                  <path id="Path_203009" data-name="Path 203009" d="M107.135,311.616S86.473,334.3,98.222,410.47c.81,10.939,8.1,38.893,8.1,38.893s26.739,4.457,58.745-8.1c32.006-12.154,32.816-19.042,32.816-19.042s1.621-95.612-5.672-120.326C184.921,277.585,107.135,311.616,107.135,311.616Z" transform="translate(-94.608 -293.139)" fill="#043059"/>
                  <path id="Path_203010" data-name="Path 203010" d="M126.622,361.5s-.81,5.267,5.267,9.723c5.672,4.456,16.611,12.154,18.636,17.016,0,3.646-13.775-.405-19.852-3.646s-12.154-10.939-12.154-10.939l.405,3.241a7.1,7.1,0,0,1-4.051-1.621c-1.621-1.62.405-12.964.405-12.964Z" transform="translate(-34.689 -84.545)" fill="#06325b"/>
                  <path id="Path_203011" data-name="Path 203011" d="M113.222,367.7s-.81,5.267,5.267,9.723c5.672,4.456,16.611,12.154,18.636,17.016,0,3.646-13.775-.405-19.852-3.646s-12.154-10.939-12.154-10.939l.405,3.241a7.1,7.1,0,0,1-4.051-1.621c-1.621-1.62.405-12.964.405-12.964Z" transform="translate(-75.577 -65.626)" fill="#06325b"/>
                </g>
                <path id="Path_203012" data-name="Path 203012" d="M134.074,262.038s19.041,2.836,31.2,44.16c7.292,27.144,17.826,29.575,30.385,32.006,12.154,2.431,63.607,0,67.658,0s8.913,8.913,3.241,15.4-76.976,12.964-90.751,12.964-45.781-26.334-58.745-47.4C103.689,298.1,116.653,260.418,134.074,262.038Z" transform="translate(52.925 -148.235)" fill="#0569bd"/>
                <path id="Path_203013" data-name="Path 203013" d="M248.624,245.619s18.636,23.9,14.585,51.047S235.255,322.595,231.2,337.18s11.344,36.057-9.723,49.832-31.2,10.534-36.868,40.109-26.334,44.97-61.176,48.211c-35.247,3.241-59.555-39.3-50.642-70.089,8.913-31.2,40.109-21.067,46.591-46.591s4.051-45.375,26.334-55.1c21.877-9.723,13.775-47,36.057-58.34C204.464,233.464,232.419,226.982,248.624,245.619Z" transform="translate(-70.943 -233.91)" fill="#2a5172"/>
                <g id="Group_59964" data-name="Group 59964" transform="translate(79.768 12.742)">
                  <path id="Path_203014" data-name="Path 203014" d="M139.929,260.143s-40.514,28.765-44.565,38.488-9.723,39.3,3.646,54.288c22.688,25.524,8.913,68.874,12.154,81.838,2.836,12.964,34.032,14.585,55.1,10.128,21.472-4.051,41.324-14.99,40.514-40.109s5.672-59.15,7.293-70.494c1.215-11.344,0-39.3-5.267-58.34-1.215-4.051-14.585-8.1-14.585-8.1S179.632,258.522,139.929,260.143Z" transform="translate(-90.632 -167.184)" fill="#83bdf0"/>
                  <path id="Path_203015" data-name="Path 203015" d="M139.473,273.042v1.215c.405,2.836,2.026,10.534,2.026,13.775.405,2.836-3.241,8.1-11.344,8.1s-22.283-3.646-26.739-13.37c.405-1.62-.405-19.852-1.215-28.765Z" transform="translate(-55.334 -185.35)" fill="#e2a58d"/>
                  <path id="Path_203016" data-name="Path 203016" d="M177.216,270.053c-4.457-23.5-23.093-36.868-43.755-32.006,0,0-22.688,2.431-32.816,22.283s4.862,36.868,14.18,47.4c4.051,4.457,6.887,7.7,8.913,9.723.81.81,1.215,1.62,2.026,2.431l.405.405h0a46.183,46.183,0,0,0,19.447,11.749c9.318,2.836,19.852,1.215,25.929-5.267C177.216,321.1,181.672,293.551,177.216,270.053Z" transform="translate(-70.39 -237.055)" fill="#ffc8af"/>
                </g>
                <path id="Path_203017" data-name="Path 203017" d="M185.435,289.683s-16.611,1.62-26.739-9.723c-9.723-11.344-23.5,0-35.247-9.723,0,0,4.862,12.154,0,24.713-4.862,12.154-6.482,31.2-6.482,31.2L95.9,292.519V262.944l27.144-25.524L159.1,235.8l17.016,16.206C175.712,252.411,187.056,277.529,185.435,289.683Z" transform="translate(5.21 -228.143)" fill="#2a5172"/>
                <path id="Path_203018" data-name="Path 203018" d="M95.815,284.4l50.642,15.8,47.4-13.37c-.81,2.026-13.37,40.514-40.514,47.4-19.447,4.862-42.539-12.154-53.883-22.283-.81-6.887-2.026-14.18-4.862-20.662Z" transform="translate(1.243 -79.846)" fill="#4190d7"/>
                <g id="Group_59965" data-name="Group 59965" transform="translate(81.145 155.904)">
                  <path id="Path_203019" data-name="Path 203019" d="M109.317,272.831s-27.144-6.482-15.4,30.385c11.344,36.868,49.832,63.607,63.607,61.986s70.089-61.176,70.089-68.468A10.512,10.512,0,0,0,214.653,286.2c-6.482,1.621-49.832,48.211-53.883,46.591S131.194,288.631,109.317,272.831Z" transform="translate(-90.972 -272.392)" fill="#0569bd"/>
                  <path id="Path_203020" data-name="Path 203020" d="M127.124,298.343s-7.7-2.431-5.267-10.534,17.016-14.585,19.447-14.99,24.308,4.051,25.119,6.887-4.051,4.051-9.318,2.836a96.219,96.219,0,0,0-13.37-1.62s5.672,6.482,5.267,8.913c-.405,2.836-3.646,8.1-8.1,10.534s-9.723-2.836-9.723-2.836Z" transform="translate(1.823 -271.165)" fill="#ffc8af"/>
                </g>
                <path id="Path_203021" data-name="Path 203021" d="M147.308,290.76s17.826-14.99,18.636-12.559c.81,2.836-6.077,10.129-6.077,10.129s23.9-9.318,24.308-6.077-12.559,12.964-15.8,14.99c-3.241,2.431-15.4,5.672-15.4,5.672S146.093,294.406,147.308,290.76Z" transform="translate(161.637 -99.575)" fill="#ff9d6f"/>
              </g>
            </g>
            <g id="Group_59968" data-name="Group 59968" transform="translate(217.79 0)">
              <path id="Path_203022" data-name="Path 203022" d="M135.234,315.267c-5.672,3.241-10.534,11.749-10.534,18.636l.81,250.375c0,15.8,11.344,22.688,25.119,14.585L299.72,512.569c5.672-3.241,10.534-11.749,10.534-18.636l-.81-250.375c0-15.8-11.344-22.688-25.119-14.585Z" transform="translate(-124.7 -225.557)" fill="#83bdf0"/>
            </g>
            <g id="Group_59972" data-name="Group 59972" transform="translate(247.77 109.396)">
              <g id="Group_59971" data-name="Group 59971">
                <g id="Group_59969" data-name="Group 59969">
                  <path id="Path_203023" data-name="Path 203023" d="M135.341,323.624a7.4,7.4,0,0,0-3.241,5.267v13.37c0,2.026,1.621,2.836,3.241,1.621l121.541-70.089c1.62-.81,3.241-3.646,3.241-5.672v-13.37c0-2.026-1.621-2.836-3.241-1.621Z" transform="translate(-132.1 -252.559)" fill="#fff"/>
                </g>
                <g id="Group_59970" data-name="Group 59970" transform="translate(0.405 29.575)">
                  <path id="Path_203024" data-name="Path 203024" d="M135.441,330.114c-1.62.81-3.241,3.646-3.241,5.672v13.37c0,2.026,1.621,2.836,3.241,1.621l121.541-70.089a7.4,7.4,0,0,0,3.241-5.267v-13.37c0-2.026-1.621-2.836-3.241-1.62Z" transform="translate(-132.2 -259.859)" fill="#fff"/>
                </g>
              </g>
              <path id="Path_203025" data-name="Path 203025" d="M150.216,300.464c-4.051,2.431-7.7,8.1-7.292,12.965v3.241c0,4.862,3.241,6.887,7.7,4.457l39.3-22.688c4.051-2.431,7.7-8.1,7.7-12.965v-3.241c0-4.862-3.241-6.887-7.7-4.457Z" transform="translate(-99.168 -178.756)" fill="#fff"/>
            </g>
          </g>
        </g>
      </g>
    </g>
    <path id="Path_173373" data-name="Path 173373" d="M315.9,145.6c5.672,5.672,136.937,94.8,136.937,94.8l-31.2,134.911L260.393,304.819,237.3,185.3Z" transform="translate(1356.199 539.369)" fill="#f9fbfc"/>
    <path id="Path_173374" data-name="Path 173374" d="M337.3,231.125c-4.457,18.636,10.534,31.6,10.534,31.6a67.137,67.137,0,0,1-12.964,14.18c-6.887,5.267-14.18,10.939-22.688,7.293-8.1-3.241-9.723-9.318-19.042-13.37s-13.37-.405-21.472-3.241-12.154-13.775-15.8-23.5c-6.887-19.852-8.1-51.047,7.293-65.227,7.7-7.293,18.636-9.318,29.17-4.862,8.1,3.241,14.18,11.749,19.042,13.775s15.8-.81,25.119,4.051A35.188,35.188,0,0,1,355.936,213.3s-14.99,2.431-18.636,17.826m-4.456-52.263a25.391,25.391,0,0,0,11.344-17.016,23.835,23.835,0,0,0-20.257,2.026,22.146,22.146,0,0,0-11.344,16.611,20.965,20.965,0,0,0,20.257-1.621" transform="translate(1397.998 584.704)" fill="#7d807c"/>
  </g>
  <g id="Group_59984" data-name="Group 59984" transform="translate(-3001.479 -5701.759) rotate(25)">
    <path id="Path_203043" data-name="Path 203043" d="M303.991,216.989q24.257-3.709,48.558-7.049v42.574c-16.186.059-32.372.305-48.568.359V217.011Z" transform="translate(7042.231 4044.988)" fill="#91c31f"/>
    <path id="Path_203044" data-name="Path 203044" d="M218.431,229.446c12.177-1.879,24.4-3.5,36.622-5.026v35.326c-12.214,0-24.429.177-36.643.145V229.446Z" transform="translate(7082 4038.259)" fill="#eb6733"/>
    <path id="Path_203045" data-name="Path 203045" d="M218.441,310.885c12.2-.043,24.407.15,36.611.134,0,11.8.032,23.6,0,35.407-12.193-1.8-24.407-3.388-36.622-5.037V310.879Z" transform="translate(7081.991 3998.077)" fill="#28b1e7"/>
    <path id="Path_203046" data-name="Path 203046" d="M303.9,311.77h48.627q.032,21.228,0,42.472c-16.164-2.425-32.361-4.673-48.558-6.867Q303.97,329.572,303.9,311.77Z" transform="translate(7042.269 3997.662)" fill="#f9c21a"/>
  </g>
</svg>
