<svg xmlns="http://www.w3.org/2000/svg" viewBox="0 0 500 500" width="650" height="650"><style>@keyframes womenStand{0%{transform:translateX(-10px)}to{transform:translateX(5px)}}@keyframes freepik{0%{transform:translateX(-5px)}to{transform:translateX(5px)}}</style><g style="animation:freepik 2s linear alternate infinite"><path d="m407.5 145.08-19.36-.08a4.81 4.81 0 0 0-4.73 4.89v3.51a4.81 4.81 0 0 1-4.72 4.9l-37.75-.18a4.81 4.81 0 0 1-4.68-4.93v-3.52a4.82 4.82 0 0 0-4.68-4.94h-6.81l-16.95-.07a15.24 15.24 0 0 0-15.31 15.17l-1 244.41a15.23 15.23 0 0 0 15.17 15.3l99.68.46a15.24 15.24 0 0 0 15.31-15.17l1-244.41a15.23 15.23 0 0 0-15.17-15.34Z" style="fill:#f5f5f5"/><path d="M394.09 387.36 320 387c-.76 0-1.38-.84-1.38-1.87l.08-19.39c0-1 .63-1.86 1.4-1.85l74.12.34c.77 0 1.39.84 1.39 1.86l-.09 19.4c-.04 1.04-.67 1.87-1.43 1.87Z" style="fill:#e0e0e0"/><path d="m340.46 377.28.23-.47a2.72 2.72 0 0 0 1.83.71c1 0 1.49-.45 1.5-1 0-1.6-3.42-.63-3.41-2.78 0-.86.64-1.59 2.05-1.59a3.12 3.12 0 0 1 1.72.52l-.2.49a2.78 2.78 0 0 0-1.52-.48c-1 0-1.47.46-1.47 1 0 1.6 3.41.65 3.4 2.77 0 .85-.65 1.58-2.07 1.57a2.9 2.9 0 0 1-2.06-.74ZM345.89 372.2h.59v5.81h-.59ZM352.93 372.23v5.81h-.49l-3.55-4.73v4.71h-.58v-5.81h.48l3.56 4.73v-4.71ZM358.64 375.16h.57v2.22a3 3 0 0 1-2 .73 3 3 0 0 1 0-5.91 2.66 2.66 0 0 1 2.06.85l-.37.39a2.18 2.18 0 0 0-1.67-.69 2.41 2.41 0 0 0 0 4.81 2.37 2.37 0 0 0 1.46-.44ZM362.9 375.6v-3.32h.59v3.3c0 1.38.61 2 1.69 2s1.7-.63 1.71-2v-3.31h.58v3.33c0 1.66-.87 2.52-2.29 2.52s-2.29-.85-2.28-2.52ZM373.59 374.32c0 1.23-.87 2-2.28 2h-1.49v1.84h-.59v-5.81h2.08c1.43-.03 2.28.72 2.28 1.97Zm-.59 0c0-.93-.58-1.46-1.69-1.46h-1.48v2.9h1.48c1.1 0 1.69-.53 1.69-1.45Z" style="fill:#fafafa"/><path transform="rotate(.26 326.655 224.035)" style="fill:#e0e0e0" d="M309 216.85h25.72v4.72H309z"/><path d="M410.15 245.86a2.4 2.4 0 0 0 .58-.14 1.55 1.55 0 0 0 1-1.34v-13.27a1.94 1.94 0 0 0-.28-1.31 1.46 1.46 0 0 0-1.18-.61H394.26l-83.65-.31a1.36 1.36 0 0 0-1.1.56 2 2 0 0 0-.26 1.3v12a9.1 9.1 0 0 0 0 1.41 1.38 1.38 0 0 0 .78.9 1.55 1.55 0 0 0 .62.1h5.09l22.21.12 37.6.23 25.35.2 6.89.08h2.41H375.55l-37.6-.11-22.21-.09h-5.14a2.2 2.2 0 0 1-.82-.15 1.89 1.89 0 0 1-1.08-1.24 2.85 2.85 0 0 1-.06-.8v-12.74a7.59 7.59 0 0 1 0-.8 1.86 1.86 0 0 1 .33-.81 1.88 1.88 0 0 1 1.53-.77l83.64.46 14.44.11h1.57a1.77 1.77 0 0 1 1.4.73 2.18 2.18 0 0 1 .32 1.47v1.4c0 1.82 0 3.48-.05 5 0 3-.06 5.3-.08 6.9a1.63 1.63 0 0 1-1.06 1.38 1.16 1.16 0 0 1-.53.14Z" style="fill:#e0e0e0"/><path transform="rotate(.26 346.528 241.62)" style="fill:#e0e0e0" d="M315.9 235.04h47.04v4.41H315.9z"/><path transform="rotate(.26 326.75 265.905)" style="fill:#e0e0e0" d="M308.82 259.91h25.72v4.72h-25.72z"/><path d="M409.49 288.92a4.87 4.87 0 0 0 .59-.11 2.1 2.1 0 0 0 1.27-1.13 2.69 2.69 0 0 0 .17-1.27V274.5a2.16 2.16 0 0 0-.3-1.32 2 2 0 0 0-1.08-.84 6.17 6.17 0 0 0-1.51-.09h-14.4l-83.35-.3a1.82 1.82 0 0 0-1.82 1.6v12a6.85 6.85 0 0 0 .06 1.39 1.88 1.88 0 0 0 .73 1 2 2 0 0 0 1.25.32h4.34l22.13.12 37.47.23 25.27.2 6.86.08h2.4-9.27L375 289l-37.47-.12-22.13-.09H311a2.46 2.46 0 0 1-1.53-.41 2.33 2.33 0 0 1-.93-1.31 6.81 6.81 0 0 1-.09-1.53v-12.06a2.36 2.36 0 0 1 2.34-2.07l83.35.47 14.4.1a6.15 6.15 0 0 1 1.59.11 2.21 2.21 0 0 1 1.23 1 2.41 2.41 0 0 1 .32 1.46v11.98a2.74 2.74 0 0 1-.21 1.31 2.13 2.13 0 0 1-1.34 1.14 1.58 1.58 0 0 1-.64-.06Z" style="fill:#e0e0e0"/><path transform="rotate(.26 324.651 312.188)" style="fill:#e0e0e0" d="M308.63 304.82h25.72v4.72h-25.72z"/><path d="M409.3 333.83a2.38 2.38 0 0 0 .59-.11 2.1 2.1 0 0 0 1.27-1.13 2.67 2.67 0 0 0 .17-1.27v-11.91a2.17 2.17 0 0 0-.3-1.32 2 2 0 0 0-1.08-.84 6.19 6.19 0 0 0-1.51-.08h-14.4l-83.35-.31a1.83 1.83 0 0 0-1.82 1.61v12a7 7 0 0 0 .06 1.4 1.89 1.89 0 0 0 .73 1 2 2 0 0 0 1.25.32h4.34l22.13.12 37.47.23 25.26.2 6.87.08h2.4-34.64l-37.47-.12-22.13-.09h-4.35a2.58 2.58 0 0 1-1.53-.41 2.36 2.36 0 0 1-.93-1.32 6.78 6.78 0 0 1-.09-1.53V318.3a2.35 2.35 0 0 1 2.34-2.07l83.35.46 14.4.1a6.62 6.62 0 0 1 1.67.21 2.3 2.3 0 0 1 1.23 1 2.42 2.42 0 0 1 .32 1.47v11.98a2.74 2.74 0 0 1-.21 1.31 2.07 2.07 0 0 1-1.34 1.14 1.58 1.58 0 0 1-.7-.07Z" style="fill:#e0e0e0"/><path transform="rotate(.26 344.424 285.698)" style="fill:#e0e0e0" d="M315.72 278.11h47.04v4.41h-47.04z"/><path d="M320 325.67a2.06 2.06 0 1 1-2-2.2 2.12 2.12 0 0 1 2 2.2ZM326.38 325.7a2.06 2.06 0 1 1-2.05-2.2 2.13 2.13 0 0 1 2.05 2.2ZM332.75 325.73a2.06 2.06 0 1 1-2.05-2.2 2.12 2.12 0 0 1 2.05 2.2ZM339.12 325.76a2.06 2.06 0 1 1-2-2.2 2.12 2.12 0 0 1 2 2.2ZM345.5 325.79a2.06 2.06 0 1 1-2.05-2.2 2.13 2.13 0 0 1 2.05 2.2ZM351.87 325.82a2.06 2.06 0 1 1-2.05-2.21 2.13 2.13 0 0 1 2.05 2.21ZM358.24 325.85a2.06 2.06 0 1 1-2.05-2.21 2.12 2.12 0 0 1 2.05 2.21ZM364.61 325.88a2.06 2.06 0 1 1-4.11 0 2.06 2.06 0 1 1 4.11 0ZM371 325.91a2.06 2.06 0 1 1-2.05-2.21 2.13 2.13 0 0 1 2.05 2.21ZM361.94 181.54a3.88 3.88 0 0 0 2.31-3.59 3.65 3.65 0 1 0-7.28 0 3.89 3.89 0 0 0 2.32 3.62c-5.6.84-5.34 6.93-5.34 6.93l13.23.06s.3-6.18-5.24-7.02Z" style="fill:#e0e0e0"/><path transform="rotate(.26 366.26 197.501)" style="fill:#e0e0e0" d="M336.24 192.4h47.19v5.64h-47.19z"/><path d="M174.9 91.33a36.29 36.29 0 0 1 6.9 6.77l8.81-1.61 5.82 13.63-7.26 5.25a36.37 36.37 0 0 1 .11 9.67l7.37 5.09-5.53 13.76-8.84-1.42a36.59 36.59 0 0 1-6.77 6.9l1.61 8.81-13.63 5.82-5.25-7.26a36.37 36.37 0 0 1-9.67.11l-5.09 7.37-13.76-5.53 1.42-8.84a36.29 36.29 0 0 1-6.9-6.77l-8.82 1.61-5.81-13.63 7.26-5.25a36.37 36.37 0 0 1-.11-9.67l-7.37-5.09 5.53-13.76 8.84 1.42a36.29 36.29 0 0 1 6.77-6.9L128.92 83l13.63-5.81 5.25 7.26a36.37 36.37 0 0 1 9.67-.11l5.09-7.34 13.75 5.53-1.41 8.84Zm-15.33 14.75a15.91 15.91 0 1 0 8.83 20.69 15.9 15.9 0 0 0-8.83-20.69Z" style="fill:#e0e0e0;fill-rule:evenodd"/><path d="m201.29 137.46-19.79-.09a4.91 4.91 0 0 0-4.83 5v3.58a4.91 4.91 0 0 1-4.83 5l-38.58-.18a4.92 4.92 0 0 1-4.79-5v-3.58a4.91 4.91 0 0 0-4.78-5h-7L99.41 137a15.55 15.55 0 0 0-15.64 15.47l-1.06 249.1a15.55 15.55 0 0 0 15.5 15.59l101.88.47a15.55 15.55 0 0 0 15.65-15.46l1-249.11a15.55 15.55 0 0 0-15.45-15.6Z" style="fill:#fafafa"/><path style="fill:#e0e0e0" d="M98.82 306.96h100.81v6.74H98.82zM196 333.52c0 .24-21.52.44-48.05.44s-48.06-.2-48.06-.44 21.51-.45 48.06-.45 48.05.2 48.05.45ZM196 173.56c0 .24-21.52.44-48.05.44s-48.06-.2-48.06-.44 21.51-.44 48.06-.44 48.05.19 48.05.44ZM196 345.79c0 .25-21.52.44-48.05.44s-48.06-.19-48.06-.44 21.51-.44 48.06-.44 48.05.2 48.05.44ZM196 358.07c0 .24-21.52.44-48.05.44s-48.06-.2-48.06-.44 21.51-.44 48.06-.44 48.05.19 48.05.44ZM196 370.34c0 .25-21.52.44-48.05.44s-48.06-.19-48.06-.44 21.51-.44 48.06-.44 48.05.2 48.05.44ZM196 382.62c0 .24-21.52.44-48.05.44s-48.06-.2-48.06-.44 21.51-.44 48.06-.44 48.05.19 48.05.44ZM197.4 396.54c0 .24-21.51.44-48.05.44s-48.06-.2-48.06-.44 21.51-.44 48.06-.44 48.05.19 48.05.44Z"/><path style="fill:#ebebeb" d="M99.92 187.56h101.06v97.78H99.92z"/><path style="fill:#e0e0e0" d="m107.75 276.97 27.96-50.32 22.87 32.16 13.89-17.08 20.67 35.24h-85.39zM168.32 216.86a7.28 7.28 0 1 1-7.28-7.27 7.28 7.28 0 0 1 7.28 7.27Z"/><path d="M193.14 277.24v-5.94c0-3.88-.06-9.49-.11-16.61-.05-14.28-.12-34.62-.21-59l.41.42-85.38.06c-.12.11.9-.9.47-.46v81.62l-.42-.42 61.74.21 17.42.11 4.62.05H193.29a2.21 2.21 0 0 1-.37 0H187.23l-17.32.11-62 .22h-.42V195.57c-.43.42.58-.61.49-.5l85.38.07h.42v.41c-.09 24.53-.16 45-.21 59.3 0 7.08-.09 12.66-.11 16.52 0 1.85 0 3.3-.05 4.32v1.09a1.44 1.44 0 0 1-.27.46Z" style="fill:#e0e0e0"/><rect x="305.69" y="60.11" width="118.15" height="30.86" rx="3.93" style="fill:#e0e0e0"/><path d="M324.51 76.46a3.86 3.86 0 0 0 2.31-3.58 3.64 3.64 0 1 0-7.27 0 3.85 3.85 0 0 0 2.31 3.62 5.83 5.83 0 0 0-4.92 4.24 8.3 8.3 0 0 0 5.06 2.68h2.24a8.26 8.26 0 0 0 5.12-2.75 5.73 5.73 0 0 0-4.85-4.21ZM339.1 68.13h29.09v2.18H339.1zM339.1 80.46h50.96v2.18H339.1zM339.1 74.14h73.85v2.18H339.1z" style="fill:#fafafa"/></g><path d="M447.71 428.21c0 .14-91.36.26-204 .26s-204-.12-204-.26S131 428 243.68 428s204.03.06 204.03.21Z" style="fill:#263238" id="freepik--Floor--inject-2"/><g style="animation:womenStand 2s linear alternate infinite"><path d="M419.86 409.57c-.68-2.67 1.08-5.33 3.05-7.25s4.32-3.64 5.35-6.19c1.67-4.13-.51-9.5 2.32-12.93 1.67-2 4.64-2.69 6.12-4.85a11 11 0 0 0 1.35-3.87 39.32 39.32 0 0 1 9.9-18.27 34.14 34.14 0 0 1-3.95 17.64c-1.15 2.17-2.56 4.27-2.95 6.69-.64 3.93 1.54 8 .55 11.85-1.13 4.42-6.11 7.34-6.37 11.89-.22 3.84 3.11 7.23 2.84 11.07a10.45 10.45 0 0 1-1.74 4.55c-3 4.93-7.39 8.31-14 8.16l-8.11.24Z" style="fill:#407bff"/><path d="M419.86 409.57c-.68-2.67 1.08-5.33 3.05-7.25s4.32-3.64 5.35-6.19c1.67-4.13-.51-9.5 2.32-12.93 1.67-2 4.64-2.69 6.12-4.85a11 11 0 0 0 1.35-3.87 39.32 39.32 0 0 1 9.9-18.27 34.14 34.14 0 0 1-3.95 17.64c-1.15 2.17-2.56 4.27-2.95 6.69-.64 3.93 1.54 8 .55 11.85-1.13 4.42-6.11 7.34-6.37 11.89-.22 3.84 3.11 7.23 2.84 11.07a10.45 10.45 0 0 1-1.74 4.55c-3 4.93-7.39 8.31-14 8.16l-8.11.24Z" style="opacity:.30000000000000004"/><path d="M412.58 428.5a6.67 6.67 0 0 1-2.23-.06 13.46 13.46 0 0 1-2.63-.68 11.21 11.21 0 0 1-3.25-1.8 4.6 4.6 0 0 1-1.33-1.79 8.35 8.35 0 0 1-.36-2.43 24 24 0 0 0-.18-2.62 7.35 7.35 0 0 0-1-2.61c-.95-1.68-2.53-3.28-3-5.57s-.13-4.67.26-7.1.77-5.08-.14-7.62-2.62-4.83-3.49-7.7-.44-6-.61-9a12.2 12.2 0 0 0-1-4.51c-.65-1.44-1.55-2.8-2.25-4.31-1.43-3.06-1.66-6.53-2-9.92-.19-1.71-.37-3.44-.56-5.18a25.25 25.25 0 0 0-.87-5.19 45.39 45.39 0 0 0-1.91-5 16.88 16.88 0 0 1-.92-2.62 24.49 24.49 0 0 1-.25-2.79 32.94 32.94 0 0 1 .25-5.61c.23-1.87.58-3.73.79-5.6v-.7l.33.17a12.46 12.46 0 0 1 4.34 3.71 19.64 19.64 0 0 1 2.66 5c1.33 3.49 1.8 7.14 2.46 10.62a29 29 0 0 0 3.31 9.71c.88 1.45 1.94 2.77 2.88 4.18a11.55 11.55 0 0 1 2 4.63c.46 3.44-1.45 6.44-1.07 9.48a10.33 10.33 0 0 0 1.46 4.21c.72 1.3 1.58 2.51 2.4 3.72a24.19 24.19 0 0 1 2.15 3.75 11.76 11.76 0 0 1 1 4.07c.19 2.73-.22 5.32 0 7.77a18 18 0 0 0 2 6.68c1 2 2.05 3.81 3 5.56.45.88.87 1.73 1.21 2.59a13.31 13.31 0 0 1 .7 2.57 16.29 16.29 0 0 1 0 4.62 11.74 11.74 0 0 1-2.35 5.89 6.77 6.77 0 0 1-.66.71 3.28 3.28 0 0 1-.54.45c-.3.22-.46.32-.46.32a10.53 10.53 0 0 0 1.58-1.54 11.84 11.84 0 0 0 2.23-5.85 16 16 0 0 0-.08-4.56 12 12 0 0 0-.7-2.51 26.75 26.75 0 0 0-1.22-2.55c-.91-1.74-2-3.55-3-5.56a18.26 18.26 0 0 1-2-6.79c-.2-2.5.19-5.1 0-7.77a11.32 11.32 0 0 0-.95-3.93 24 24 0 0 0-2.13-3.68c-.81-1.2-1.68-2.42-2.43-3.74a10.89 10.89 0 0 1-1.52-4.39c-.38-3.24 1.52-6.26 1.05-9.45a11 11 0 0 0-1.92-4.43c-.92-1.38-2-2.71-2.9-4.19a29.34 29.34 0 0 1-3.35-10c-.67-3.51-1.14-7.12-2.45-10.54a19.54 19.54 0 0 0-2.58-4.83 12.08 12.08 0 0 0-4.16-3.55l.37-.21v.33c-.22 1.9-.57 3.75-.8 5.6a33 33 0 0 0-.24 5.52 26 26 0 0 0 .23 2.71 15.29 15.29 0 0 0 .9 2.53 46.61 46.61 0 0 1 1.92 5.09 24.81 24.81 0 0 1 .88 5.27c.19 1.75.37 3.48.55 5.19.37 3.41.6 6.81 2 9.77.68 1.47 1.58 2.83 2.24 4.32a12.4 12.4 0 0 1 1.06 4.67c.16 3.13-.26 6.18.57 9s2.58 5.07 3.46 7.69.53 5.39.13 7.81-.81 4.81-.3 7 2 3.76 2.95 5.49a7.58 7.58 0 0 1 1 2.72 22.36 22.36 0 0 1 .15 2.66 8.33 8.33 0 0 0 .34 2.35 4.43 4.43 0 0 0 1.24 1.72 11.1 11.1 0 0 0 3.17 1.8 12.93 12.93 0 0 0 2.59.72 9.57 9.57 0 0 0 1.65.17Z" style="fill:#263238"/><path d="M387.51 332.86a1 1 0 0 1 .07.25c.05.19.11.43.18.73.16.64.34 1.6.64 2.81s1 2.56 1.66 4.24 1.29 3.59 1.89 5.76 1.14 4.57 1.7 7.14a30.29 30.29 0 0 0 2.55 7.94c.66 1.32 1.4 2.65 2 4.11a19.25 19.25 0 0 1 1.14 4.66 96.74 96.74 0 0 0 1.7 9.82c1.58 6.65 3.1 13 4.47 18.75s2.69 10.93 3.76 15.3 1.89 7.85 2.48 10.33c.28 1.19.5 2.13.65 2.81l.16.73a1.27 1.27 0 0 1 0 .26.91.91 0 0 1-.09-.24l-.21-.73c-.18-.67-.43-1.6-.74-2.78l-2.65-10.29-3.87-15.27-4.52-18.76a92.52 92.52 0 0 1-1.69-9.86 18.61 18.61 0 0 0-1.1-4.54c-.56-1.43-1.29-2.76-2-4.09a30.29 30.29 0 0 1-2.54-8.05c-.54-2.59-1.05-5-1.63-7.14s-1.2-4.09-1.81-5.76-1.3-3.05-1.59-4.29-.42-2.19-.54-2.84c-.05-.3-.09-.55-.13-.74a1 1 0 0 1 .06-.26Z" style="fill:#263238"/><path d="M411.15 428.52c-5.28-3.18-6.75-12.74-4.5-18.48s6.13-11 6.76-17.1c.49-4.7-1-9.55.1-14.15 1.51-6.21 7.61-11 7.58-17.38 0-3.58-2-7-1.86-10.55.22-4.39 3.61-7.86 5.72-11.71 3.24-5.91 3.49-12.91 4.62-19.55s3.7-13.73 9.6-17c.84 5.64 2.3 9.51 1.79 17.15-.18 2.74-3.4 8-3.86 14-.28 3.6-.48 7.19-.72 10.79s-.48 7.06-1.76 10.33c-1 2.5-2.53 4.77-3.26 7.36-1.37 4.86.36 10.15-.75 15.08-.94 4.18-3.86 7.76-4.47 12-.87 6 3 12.17.95 17.84-1 2.82-3.33 5.07-4 8-.53 2.26 0 4.65-.46 6.92-.77 3.65-7.76 6.45-11.48 6.21" style="fill:#407bff"/><path d="M437.68 308.23a1.44 1.44 0 0 1 0 .31c0 .24-.08.55-.13.93-.12.81-.27 2-.55 3.55s-1.12 3.3-1.77 5.41-1.37 4.52-2 7.24-1.14 5.72-1.69 8.95a37.79 37.79 0 0 1-2.77 10.11c-.76 1.69-1.6 3.38-2.24 5.18a23.31 23.31 0 0 0-1.14 5.72 116.79 116.79 0 0 1-1.63 12.37c-1.67 8.35-3.26 16.3-4.7 23.53s-2.9 13.7-4.05 19.17-2.11 9.83-2.78 12.91c-.33 1.49-.59 2.67-.78 3.5-.09.38-.16.68-.21.91a1.31 1.31 0 0 1-.09.31 1.11 1.11 0 0 1 0-.32c0-.23.09-.54.16-.92.16-.84.39-2 .68-3.52.63-3.09 1.52-7.51 2.62-12.95s2.46-12 3.94-19.19 3-15.18 4.66-23.52a118 118 0 0 0 1.63-12.28 23.14 23.14 0 0 1 1.19-5.83c.65-1.84 1.51-3.54 2.26-5.21a37.61 37.61 0 0 0 2.78-10c.57-3.22 1.11-6.23 1.76-9a73.61 73.61 0 0 1 2.07-7.25c.68-2.12 1.52-3.85 1.84-5.36s.49-2.72.65-3.53c.07-.38.13-.68.17-.91a1.87 1.87 0 0 1 .12-.31Z" style="fill:#263238"/></g><g id="freepik--Gears--inject-2"><path d="M237.06 74.52a20.84 20.84 0 0 1 3.94 3.85l5-.91 3.32 7.78-4.15 3a20.8 20.8 0 0 1 .07 5.52l4.2 2.9-3.15 7.85-5-.81a20.6 20.6 0 0 1-3.86 3.94l.92 5-7.8 3.36-3-4.14a20.73 20.73 0 0 1-5.51.06l-2.91 4.2-7.85-3.12.81-5a20.84 20.84 0 0 1-3.94-3.85l-5 .91-3.32-7.78 4.15-3a20.8 20.8 0 0 1-.07-5.52l-4.2-2.9 3.15-7.85 5 .81a20.6 20.6 0 0 1 3.86-3.94l-.92-5 7.78-3.32 3 4.14a20.73 20.73 0 0 1 5.51-.06l2.91-4.2 7.85 3.15-.81 5Zm-8.75 8.41a9.07 9.07 0 1 0 5 11.81 9.07 9.07 0 0 0-5-11.81Z" style="fill:none"/><path d="M228.31 82.93a6.88 6.88 0 0 1 2 1 9 9 0 0 1 3.53 5 9.15 9.15 0 0 1 .19 4.26 9.3 9.3 0 0 1-2.17 4.4 8.8 8.8 0 0 1-2.05 1.72 8.91 8.91 0 0 1-2.57 1.1A9.25 9.25 0 0 1 217 96.27a8.77 8.77 0 0 1-1.09-2.57 9 9 0 0 1-.29-2.66 9.2 9.2 0 0 1 4.56-7.63 9.05 9.05 0 0 1 6-1.14 6.94 6.94 0 0 1 2.14.66 21.84 21.84 0 0 0-2.17-.46 9.08 9.08 0 0 0-5.76 1.26 8.87 8.87 0 0 0-4.27 7.32 8 8 0 0 0 .29 2.52 8.14 8.14 0 0 0 1 2.43 8.81 8.81 0 0 0 9.67 3.89 8.85 8.85 0 0 0 4.39-2.65 9 9 0 0 0 2.11-4.16 8.82 8.82 0 0 0-.13-4.08 9.07 9.07 0 0 0-3.28-4.9 21.75 21.75 0 0 0-1.86-1.17Z" style="fill:#263238"/><path d="M237.06 74.52a1.29 1.29 0 0 1 0-.32c0-.24.08-.55.13-1q.19-1.32.57-3.78l.05.09-7.81-3.07h.16l-2.89 4.22-.05.07h-.1a21 21 0 0 0-5.47.08h-.1l-.06-.08-3-4.13.22.06L210.9 70l.12-.23c.29 1.56.61 3.27.93 5v.13l-.11.08a20.48 20.48 0 0 0-3.81 3.9L208 79h-.14l-5-.8.25-.15-3.14 7.86-.09-.29 4.21 2.9.12.08v.15a20.79 20.79 0 0 0 .06 5.45v.15l-.13.09-4.14 3 .09-.31 3.32 7.78-.28-.15 5-.92h.15l.1.13a20.29 20.29 0 0 0 3.88 3.8 2.47 2.47 0 1 0 .1.25V108v.24l-.05.32-.1.63-.21 1.27c-.13.84-.27 1.68-.4 2.51l-.16-.28 7.85 3.16-.31.09 2.91-4.21.08-.12h.16a20.7 20.7 0 0 0 5.45-.06h.15l.09.12 3 4.15-.3-.09 7.78-3.31-.14.27c-.31-1.71-.61-3.39-.91-5v-.14l.11-.08a20.66 20.66 0 0 0 3.82-3.89l.08-.11h.14l5 .82-.23.13c1.11-2.76 2.16-5.36 3.17-7.84l.07.24-4.2-2.92-.09-.06v-.11a20.77 20.77 0 0 0 0-5.47v-.11l.08-.06 4.16-3v.19c-1.28-3-2.36-5.6-3.29-7.8l.13.07-5 .89a21.61 21.61 0 0 0-2.83-3l-.78-.66a1.84 1.84 0 0 1-.26-.22 1.64 1.64 0 0 1 .28.18c.19.14.46.34.81.64a19.71 19.71 0 0 1 2.91 3h-.08l5-1h.09v.09l3.35 7.77v.11l-.1.07-4.13 3 .06-.16a20.55 20.55 0 0 1 .08 5.56l-.08-.18 4.21 2.9.13.09-.05.15c-1 2.48-2 5.09-3.14 7.85l-.07.16h-.17l-5.05-.8.22-.09a21.31 21.31 0 0 1-3.9 4l.09-.23c.3 1.65.61 3.32.92 5v.19l-.18.07-7.77 3.33-.19.08-.11-.16-3-4.14.24.1a20.84 20.84 0 0 1-5.58.06l.24-.1-2.91 4.2-.11.17-.19-.08-7.86-3.15-.19-.07v-.21c.14-.84.27-1.67.41-2.52l.2-1.26.1-.64.05-.31V107.93c.21.5.06.14.11.25a21.06 21.06 0 0 1-4-3.9l.25.09-5 .92h-.21l-.08-.19-3.31-7.79-.08-.18.16-.12 4.15-3-.1.24a20.92 20.92 0 0 1-.06-5.58l.1.24-4.25-2.91-.16-.11.08-.18c1.09-2.73 2.17-5.39 3.16-7.85l.07-.17h.18l5 .82-.22.08a21.05 21.05 0 0 1 3.91-4l-.08.21c-.32-1.76-.63-3.48-.91-5v-.16l.15-.06 7.79-3.3.14-.06.08.12 3 4.15-.17-.07a20.75 20.75 0 0 1 5.56 0l-.14.06 2.92-4.19.06-.09h.1l7.83 3.2h.06v.06c-.28 1.62-.49 2.87-.64 3.74q-.12.61-.18 1a2.45 2.45 0 0 1-.07.32Z" style="fill:#263238"/><path d="M353.47 271.49a26.18 26.18 0 0 1 5 4.88l6.36-1.16 4.2 9.84-5.24 3.79a26.64 26.64 0 0 1 .08 7l5.31 3.68-4 9.93-6.38-1a25.89 25.89 0 0 1-4.88 5l1.16 6.37-9.84 4.2-3.79-5.24a26.21 26.21 0 0 1-7 .07l-3.68 5.32-9.93-4 1-6.38a25.94 25.94 0 0 1-5-4.88l-6.3 1.09-4.2-9.84 5.24-3.79a26.29 26.29 0 0 1-.07-7l-5.32-3.67 4-9.93 6.38 1a26.18 26.18 0 0 1 4.88-5l-1.16-6.36 9.84-4.2 3.79 5.24a26.29 26.29 0 0 1 7-.08l3.67-5.31 9.93 4-1 6.39Zm-11.06 10.64a11.48 11.48 0 1 0 6.37 14.93 11.47 11.47 0 0 0-6.37-14.93Z" style="fill:#fafafa;fill-rule:evenodd"/><path d="M353.47 271.49a26.18 26.18 0 0 1 5 4.88l6.36-1.16 4.2 9.84-5.24 3.79a26.64 26.64 0 0 1 .08 7l5.31 3.68-4 9.93-6.38-1a25.89 25.89 0 0 1-4.88 5l1.16 6.37-9.84 4.2-3.79-5.24a26.21 26.21 0 0 1-7 .07l-3.68 5.32-9.93-4 1-6.38a25.94 25.94 0 0 1-5-4.88l-6.3 1.09-4.2-9.84 5.24-3.79a26.29 26.29 0 0 1-.07-7l-5.32-3.67 4-9.93 6.38 1a26.18 26.18 0 0 1 4.88-5l-1.16-6.36 9.84-4.2 3.79 5.24a26.29 26.29 0 0 1 7-.08l3.67-5.31 9.93 4-1 6.39Zm-11.06 10.64a11.48 11.48 0 1 0 6.37 14.93 11.47 11.47 0 0 0-6.37-14.93Z" style="fill:none"/><path d="M342.41 282.13a9.1 9.1 0 0 1 2.52 1.3 11.4 11.4 0 0 1 4.43 6.26 11.56 11.56 0 0 1 .23 5.37 11.73 11.73 0 0 1-2.74 5.53 11.1 11.1 0 0 1-2.58 2.17 11.22 11.22 0 0 1-3.23 1.38 11.64 11.64 0 0 1-12.87-5.14 11.23 11.23 0 0 1-1.38-3.24 10.94 10.94 0 0 1-.36-3.34 11.68 11.68 0 0 1 1.84-5.89 11.59 11.59 0 0 1 11.42-5.18 8.94 8.94 0 0 1 2.72.81 26.1 26.1 0 0 0-2.75-.61 11.48 11.48 0 0 0-7.32 1.58 11.26 11.26 0 0 0-5.43 9.3 11.23 11.23 0 0 0 1.69 6.3 11.2 11.2 0 0 0 12.31 4.94 11.27 11.27 0 0 0 5.58-3.37 11.2 11.2 0 0 0 2.51-10.51 11.43 11.43 0 0 0-4.19-6.2 27.07 27.07 0 0 0-2.4-1.46Z" style="fill:#263238"/><path d="M353.47 271.49a3.14 3.14 0 0 1 0-.41c0-.29.1-.69.17-1.21.17-1.1.41-2.7.73-4.78v.09l-9.95-3.94.16-.05-3.58 5.33-.05.08h-.09a26.06 26.06 0 0 0-6.93.09h-.11l-.06-.08-3.8-5.23.22.06-9.83 4.22.12-.23c.36 2 .76 4.14 1.17 6.36v.13l-.11.08a25.85 25.85 0 0 0-4.83 4.95l-.08.11h-.14l-6.38-1 .25-.14c-1.25 3.12-2.59 6.48-4 9.93l-.08-.29 5.32 3.67.12.08v.15a26.3 26.3 0 0 0 .08 6.91v.15l-.12.09-5.24 3.79.09-.3 4.2 9.84-.29-.16 6.37-1.16h.15l.1.13a26.29 26.29 0 0 0 4.93 4.83l.13.1v.15q-.51 3.21-1 6.38l-.16-.28 9.93 4-.31.09c1.24-1.79 2.46-3.56 3.68-5.31l.08-.13h.16a26.1 26.1 0 0 0 6.9-.07h.16l.09.12 3.78 5.24-.3-.08 9.85-4.19-.14.26c-.4-2.16-.78-4.28-1.16-6.36v-.14l.12-.09a25.94 25.94 0 0 0 4.84-4.93l.08-.11h.14l6.38 1-.24.14 4-9.93.07.24-5.32-3.68-.09-.07v-.11a25.81 25.81 0 0 0-.06-6.93v-.1l.09-.06 5.25-3.78-.05.19c-1.62-3.82-3-7.07-4.17-9.86l.13.07-6.37 1.13a27.53 27.53 0 0 0-3.59-3.82c-.44-.38-.77-.65-1-.84a4 4 0 0 1-.32-.27l.35.24c.23.17.58.43 1 .81a24.74 24.74 0 0 1 3.67 3.78h-.08l6.36-1.2h.09v.09c1.19 2.78 2.59 6 4.23 9.83l.05.11-.1.07-5.26 3.72.07-.17a26.5 26.5 0 0 1 .09 7l-.08-.18 5.33 3.67.13.09-.06.14c-1.26 3.14-2.58 6.44-4 9.94l-.07.16h-.17l-6.38-1 .21-.08a26.28 26.28 0 0 1-4.92 5l.09-.23q.57 3.14 1.17 6.36v.19l-.17.08-9.84 4.2-.18.08-.12-.16c-1.25-1.72-2.51-3.46-3.79-5.24l.24.11a26.81 26.81 0 0 1-7.05.08l.25-.11c-1.22 1.75-2.44 3.53-3.68 5.32l-.11.17-.2-.08-9.93-4-.19-.07v-.21c.34-2.11.69-4.24 1-6.38l.1.25a26.41 26.41 0 0 1-5-4.92l.25.09-6.36 1.16h-.21l-.08-.19c-1.44-3.39-2.86-6.73-4.19-9.84l-.08-.19.16-.12 5.25-3.79-.11.24a26.84 26.84 0 0 1-.07-7l.1.24c-1.84-1.28-3.65-2.54-5.31-3.68l-.16-.11.07-.18c1.39-3.45 2.75-6.81 4-9.93l.07-.17h.18l6.39 1-.22.09a26.42 26.42 0 0 1 4.93-5l-.08.21c-.4-2.22-.79-4.39-1.15-6.36v-.17l.15-.06 9.85-4.18.13-.06.09.12 3.78 5.25-.16-.07a26.62 26.62 0 0 1 7-.06l-.14.07 3.69-5.31.06-.09h.1l9.91 4h.06v.07c-.35 2.06-.62 3.64-.8 4.73-.1.53-.17.93-.22 1.22Z" style="fill:#263238"/></g><g id="freepik--Device--inject-2"><path d="m305.42 428.21-110.92-.07A24.16 24.16 0 0 1 170.35 404l.05-278.09a24.16 24.16 0 0 1 24.18-24.16l110.93.06A24.16 24.16 0 0 1 329.65 126v278.1a24.17 24.17 0 0 1-24.23 24.11Z" style="fill:#263238"/><path d="M305.39 111.62h-21.51a5.34 5.34 0 0 0-5.22 5.45V121a5.34 5.34 0 0 1-5.23 5.46h-41.92a5.36 5.36 0 0 1-5.22-5.47V117a5.35 5.35 0 0 0-5.22-5.46H194.68a16.93 16.93 0 0 0-16.93 16.92l-.05 271.45a16.91 16.91 0 0 0 16.91 16.92l110.7.07a16.94 16.94 0 0 0 16.94-16.9l.05-271.44a16.93 16.93 0 0 0-16.91-16.94Z" style="fill:#fff"/><path d="M217 177.76a6.47 6.47 0 0 1 .69.49l1.93 1.49.08.06-.07.08-3.89 4.55v-.21l9 9h-.32l3.84-4.21.12-.14.16.08a16.94 16.94 0 0 1 3.54 2.31 7.53 7.53 0 0 1 2.52 3.64 4.19 4.19 0 0 1 .11 1.17v.59l-.18.57a3.66 3.66 0 0 1-.5 1.08 4.87 4.87 0 0 1-.67 1 7.11 7.11 0 0 1-4 2.46 7.67 7.67 0 0 1-4.69-.51 8.27 8.27 0 0 1-2-1.21c-.6-.5-1.1-1-1.63-1.55l-6.06-6c-1.93-1.91-3.76-3.72-5.47-5.43l-1.26-1.25a7.94 7.94 0 0 1-1.16-1.3 4.25 4.25 0 0 1-.75-3.2 6.25 6.25 0 0 1 3.34-4.36 6.72 6.72 0 0 1 4.14-.64 6.63 6.63 0 0 1 2.48.94 5.53 5.53 0 0 1 .56.41c.12.09.18.15.17.15a8 8 0 0 0-3.24-1.3 6.57 6.57 0 0 0-4 .7 5.91 5.91 0 0 0-3.1 4.16 3.89 3.89 0 0 0 .71 2.91 8.54 8.54 0 0 0 1.12 1.24l1.27 1.24 5.51 5.39 6.07 6c.53.51 1 1.07 1.61 1.52a8.28 8.28 0 0 0 1.87 1.14 7.21 7.21 0 0 0 4.38.47 6.62 6.62 0 0 0 3.73-2.28 4.56 4.56 0 0 0 .63-.9 3.41 3.41 0 0 0 .45-1l.16-.5v-.52a3.56 3.56 0 0 0-.09-1 7 7 0 0 0-2.35-3.38 16.09 16.09 0 0 0-3.41-2.25l.28-.06-3.87 4.2-.16.17-.16-.17-8.95-9.06-.11-.1.1-.11 4-4.48v.14l-1.87-1.56a5.08 5.08 0 0 1-.61-.67Z" style="fill:#263238"/><path d="M237.13 210.22a8.22 8.22 0 0 0 1.62-.32 5.37 5.37 0 0 0 3.27-3.15 5.15 5.15 0 0 0 .34-1.56v-1.79c0-1.26 0-2.63-.06-4.09 0-2.94-.08-6.29-.12-10s-.08-7.74-.13-12.09v-3.31a9.07 9.07 0 0 0-.35-3.3 5.16 5.16 0 0 0-2.11-2.55 5.5 5.5 0 0 0-3.33-.78l-31.79.29a5.12 5.12 0 0 0-5.1 5v8.11c0 5.31.08 10.44.12 15.33v7.14a13 13 0 0 0 .23 3.34 5.18 5.18 0 0 0 1.75 2.59 5.25 5.25 0 0 0 2.82 1.11h8.87l17.5-.06h6a1.91 1.91 0 0 1 .42 0 2.24 2.24 0 0 1-.42 0h-1.24l-4.75.09-17.51.23-5.8.07h-3.1a5.65 5.65 0 0 1-3.06-1.19 5.74 5.74 0 0 1-1.91-2.8 6.41 6.41 0 0 1-.24-1.74v-1.72q0-3.48-.07-7.15c-.05-4.88-.1-10-.15-15.33q0-4-.06-8.12a5.6 5.6 0 0 1 1.65-3.9 5.69 5.69 0 0 1 4-1.67l31.79-.24a6 6 0 0 1 3.59.86 5.61 5.61 0 0 1 2.28 2.79 5.31 5.31 0 0 1 .36 1.75v5.02c0 4.34.05 8.39.07 12.09s0 7 0 10v5.91a5.91 5.91 0 0 1-.38 1.62 5.47 5.47 0 0 1-3.43 3.17 4.5 4.5 0 0 1-1.57.35Z" style="fill:#263238"/><rect x="256.77" y="166.71" width="43.16" height="43.16" rx="5.4" transform="rotate(-.47 280.826 190.108)" style="fill:#407bff"/><path d="M293.1 188.24a24.8 24.8 0 0 0-.58-3.5 14.39 14.39 0 0 0-5.33-7.78 14.17 14.17 0 0 0-6-2.59 14.42 14.42 0 0 0-7.46.7 14.16 14.16 0 0 0-6.54 5 14.14 14.14 0 0 0 .14 16.76 14.16 14.16 0 0 0 6.62 4.89 14.29 14.29 0 0 0 7.47.58 14.12 14.12 0 0 0 6-2.69 14.44 14.44 0 0 0 5.2-7.87 25.21 25.21 0 0 0 .52-3.5.82.82 0 0 1 0 .23v.69a7 7 0 0 1-.08 1.12 8.87 8.87 0 0 1-.26 1.51 13.44 13.44 0 0 1-1.53 3.91 14.56 14.56 0 0 1-17.46 6.48 13.9 13.9 0 0 1-3.73-2 13.73 13.73 0 0 1-3.14-3.09 14.6 14.6 0 0 1-.14-17.36 14.66 14.66 0 0 1 6.79-5.15 14.65 14.65 0 0 1 7.69-.67 14.6 14.6 0 0 1 9.87 6.86 13.42 13.42 0 0 1 1.59 3.88 9.2 9.2 0 0 1 .29 1.51 8.7 8.7 0 0 1 .1 1.11v.69a.87.87 0 0 1-.03.28Z" style="fill:#fff"/><path d="M293.18 187.26c0 .14-6.57.31-14.68.38s-14.67 0-14.67-.14 6.56-.31 14.67-.38 14.67 0 14.68.14Z" style="fill:#fff"/><path d="M279.31 202.7a2.46 2.46 0 0 1 .26-.59l.82-1.65a23.85 23.85 0 0 0 1.24-2.63 30.5 30.5 0 0 0 1.34-3.61 22.91 22.91 0 0 0 1.13-9.85 17 17 0 0 0-1.78-5.58 13.77 13.77 0 0 0-4.11-4.7h.3c-.22.18-.47.4-.7.62a21.38 21.38 0 0 0-6.44 10.61 14.64 14.64 0 0 0 1.36 10c.3.66.7 1.24 1 1.82s.72 1.06 1.08 1.52l1 1.27c.33.37.64.7.93 1 .55.62 1 1 1.34 1.35a3.23 3.23 0 0 1 .45.5 3.83 3.83 0 0 1-.53-.42c-.32-.29-.83-.69-1.41-1.29l-1-1-1.07-1.26c-.38-.45-.73-1-1.13-1.52s-.76-1.16-1.08-1.84a14.87 14.87 0 0 1-1.5-10.22 21.57 21.57 0 0 1 6.55-10.89c.25-.23.49-.45.74-.65l.15-.12.15.1a14.34 14.34 0 0 1 4.27 4.91 17.21 17.21 0 0 1 1.81 5.76 22.66 22.66 0 0 1-1.26 10 27.94 27.94 0 0 1-1.42 3.62 23.18 23.18 0 0 1-1.32 2.61c-.38.65-.68 1.19-.91 1.6a4.17 4.17 0 0 1-.26.53Z" style="fill:#fff"/><path d="M238 383.23a7.63 7.63 0 0 0 1.62-.31 5.43 5.43 0 0 0 3.27-3.15 5.15 5.15 0 0 0 .34-1.56v-1.8c0-1.26 0-2.62-.05-4.09 0-2.94-.08-6.28-.12-10s-.09-7.75-.13-12.09v-3.31a9.07 9.07 0 0 0-.35-3.3 5.18 5.18 0 0 0-2.11-2.56 5.5 5.5 0 0 0-3.33-.77l-31.79.28a5.17 5.17 0 0 0-3.6 1.51 5.07 5.07 0 0 0-1.5 3.55c0 2.74 0 5.44.05 8.1 0 5.32.08 10.45.11 15.34q0 3.66.05 7.14a12.9 12.9 0 0 0 .23 3.33 5.16 5.16 0 0 0 4.57 3.7h8.87l17.5-.06h6.42-1.66l-4.75.09-17.51.23-5.8.06c-1 0-2 .05-3.1 0a5.71 5.71 0 0 1-3.06-1.18 5.63 5.63 0 0 1-1.91-2.81A6 6 0 0 1 200 378v-1.72q0-3.48-.07-7.14c0-4.89-.09-10-.14-15.33 0-2.67 0-5.37-.06-8.12a5.65 5.65 0 0 1 5.61-5.57l31.79-.24a5.94 5.94 0 0 1 3.59.85 5.59 5.59 0 0 1 2.28 2.8 5.26 5.26 0 0 1 .36 1.75v5.02c0 4.34 0 8.39.07 12.08s0 7 0 10v5.9a5.56 5.56 0 0 1-.37 1.62 5.46 5.46 0 0 1-3.43 3.18 4.32 4.32 0 0 1-1.63.15Z" style="fill:#263238"/><path d="M207.87 351.71a2.56 2.56 0 0 1 .47 0h1.43l5.44-.11 19.34-.28h.23v.24c.06 5.76.12 12.22.19 19l-.27.27h-14.33L208 371h-.22v-18.98a1 1 0 0 1 0-.32v1.37c0 .93.05 2.23.09 3.86.05 3.34.13 8.07.22 13.79l-.21-.21 12.39-.14 7-.07H234.6l-.26.26c0-6.81-.09-13.28-.13-19l.24.24h-26.16Z" style="fill:#263238"/><path d="M221.31 363.77a1.33 1.33 0 0 1 .24-.27l.72-.71 2.69-2.57c2.34-2.22 5.59-5.28 9.43-8.9l.16.41-13.34.13-13.34.09.15-.41 9.58 8.74 2.73 2.53.73.69a1.66 1.66 0 0 1 .25.27s-.34-.26-1-.81l-2.77-2.41-9.84-8.66-.46-.41h.61l13.35-.14 13.34-.09h.61l-.45.41-9.7 8.83-2.74 2.45c-.61.56-.95.85-.95.83Z" style="fill:#263238"/><path d="M217.58 360.42a48.15 48.15 0 0 1-4.59 5.34 47.51 47.51 0 0 1-5 5 48.15 48.15 0 0 1 4.59-5.34 46.35 46.35 0 0 1 5-5ZM234.7 370.53a98.67 98.67 0 0 1-9.7-10.17 45.91 45.91 0 0 1 5.05 4.9 46 46 0 0 1 4.65 5.27Z" style="fill:#263238"/><rect x="200.15" y="282.75" width="43.16" height="43.16" rx="5.4" style="fill:#407bff"/><path d="M234.31 313.62a3.18 3.18 0 0 1 0-.38v-1c0-.95-.05-2.26-.09-3.92 0-3.39-.13-8.17-.22-13.93l.21.21-25 .25.25-.26V304.65c0 3.23 0 6.31.06 9.19l-.24-.23H234.29a2.23 2.23 0 0 1-.44 0h-1.33l-5.09.1-18.14.27h-.23v-.23c0-2.89-.06-6-.1-9.2v-10.06l.26-.27 25-.16h.22v19.16a1.12 1.12 0 0 1-.13.4Z" style="fill:#fafafa"/><path d="M217.51 290.77a13.08 13.08 0 0 1 2.18-.15c1.39-.06 3.37-.1 5.72-.15h.13l.07.12 2.23 3.68.23.38H214.79l.17-.27c1.41-2.35 2.41-3.76 2.55-3.64s-.24.34-.63 1-1 1.71-1.6 2.82l-.16-.28c2.61-.06 6.19-.12 10.13-.15h2.37l-.22.39-2.19-3.71.2.12c-2.35 0-4.32 0-5.71-.05a13 13 0 0 1-2.19-.11ZM226.88 305.78s.13-.5.18-1.39a5.76 5.76 0 0 0-1-3.56 5.52 5.52 0 1 0-2.86 8.36 5.7 5.7 0 0 0 3-2.2c.51-.74.66-1.23.71-1.21s0 .13-.09.36a4.27 4.27 0 0 1-.45 1 5.72 5.72 0 0 1-3 2.44 5.95 5.95 0 0 1-7.59-3.82A6 6 0 0 1 218 299a6 6 0 0 1 3.31-1.06 5.89 5.89 0 0 1 5 2.68 5.68 5.68 0 0 1 .9 3.77 4.18 4.18 0 0 1-.23 1c.02.28-.08.39-.1.39Z" style="fill:#fafafa"/><rect x="257.41" y="225.01" width="43.16" height="43.16" rx="5.4" transform="rotate(-.47 280.586 248.623)" style="fill:#455a64"/><path d="M292.77 245.85a25 25 0 0 0-.57-3.47 14.31 14.31 0 0 0-5.29-7.73 14.06 14.06 0 0 0-13.37-1.87 13 13 0 0 0-3.55 1.95 13.39 13.39 0 0 0-2.95 3 14 14 0 0 0 .14 16.64 13.41 13.41 0 0 0 3 3 13.06 13.06 0 0 0 3.57 1.89 14.1 14.1 0 0 0 13.35-2.1 14.36 14.36 0 0 0 5.16-7.81 23.59 23.59 0 0 0 .51-3.48.6.6 0 0 1 0 .23v.69a6.85 6.85 0 0 1-.08 1.11 8.93 8.93 0 0 1-.26 1.5 13.36 13.36 0 0 1-1.51 3.88 14.46 14.46 0 0 1-17.34 6.43 13.5 13.5 0 0 1-3.72-1.94 13.88 13.88 0 0 1-3.11-3.06 14.48 14.48 0 0 1-.14-17.25 13.9 13.9 0 0 1 3.06-3.11 13.62 13.62 0 0 1 3.68-2 14.43 14.43 0 0 1 13.76 2 14.22 14.22 0 0 1 3.68 4.11 13.62 13.62 0 0 1 1.59 3.86 10 10 0 0 1 .28 1.49 7 7 0 0 1 .09 1.11v.69a.6.6 0 0 1 .02.24Z" style="fill:#fff"/><path d="M275 239.11a6.52 6.52 0 0 1 .81.4l2.39 1.26c2.05 1.09 5 2.66 8.43 4.56l.38.21-.37.22-5.64 3.29-5.77 3.33-.37.21v-.42c0-3.88 0-7.2.06-9.5v-2.66a5.06 5.06 0 0 1 0-.9s0 .38.05 1 .05 1.64.09 2.74c.07 2.33.16 5.54.21 9.29l-.37-.21 5.76-3.36 5.65-3.27v.43c-3.29-1.86-6.09-3.51-8.12-4.7l-2.38-1.4c-.54-.31-.81-.5-.81-.52Z" style="fill:#fff"/><path d="M234.47 268.06c0-.14.67-.26 1.51-.27s1.51.1 1.51.25-.67.26-1.51.27-1.51-.1-1.51-.25ZM228.42 268.11c0-.14.67-.26 1.51-.27s1.51.1 1.51.25-.67.26-1.51.27-1.51-.1-1.51-.25ZM222.37 268.16c0-.14.68-.26 1.51-.27s1.51.1 1.52.25-.68.26-1.52.27-1.51-.1-1.51-.25ZM216.32 268.21c0-.14.68-.26 1.51-.27s1.51.1 1.52.25-.68.26-1.51.27-1.52-.1-1.52-.25ZM210.27 268.26c0-.14.68-.26 1.51-.27s1.52.1 1.52.25-.68.26-1.51.27-1.52-.1-1.52-.25ZM204.23 268.24c0-.17.66-.16 1.5-.2s1.52.1 1.52.25-.68.26-1.51.27-1.56-.2-1.51-.32ZM199.91 264.44c.15 0 .42.57.85 1.24s.86 1.17.76 1.28-.72-.25-1.2-1-.54-1.49-.41-1.52ZM199.65 258.41c.15 0 .27.68.27 1.51s-.1 1.52-.24 1.52-.27-.68-.28-1.51.11-1.51.25-1.52ZM199.6 252.37c.15 0 .27.67.27 1.51s-.1 1.51-.24 1.51-.27-.68-.28-1.51.11-1.51.25-1.51ZM199.55 246.32c.15 0 .27.67.27 1.51s-.1 1.51-.24 1.51-.27-.67-.28-1.51.11-1.51.25-1.51ZM199.5 240.27c.15 0 .27.67.27 1.51s-.1 1.51-.24 1.51-.27-.67-.28-1.51.11-1.51.25-1.51ZM199.45 234.22c.15 0 .27.67.27 1.51s-.1 1.51-.24 1.51-.27-.67-.28-1.51.11-1.51.25-1.51ZM199.94 228.24c.13.07-.07.7-.19 1.49s-.16 1.47-.32 1.46-.33-.66-.2-1.55.58-1.47.71-1.4ZM204.77 225.15c0 .14-.66.24-1.42.47s-1.36.5-1.44.38.44-.63 1.29-.88 1.58-.12 1.57.03ZM210.82 225.1c0 .14-.68.26-1.51.27s-1.52-.11-1.52-.25.68-.27 1.51-.27 1.52.15 1.52.25ZM216.87 225.05c0 .14-.68.26-1.51.27s-1.52-.11-1.52-.25.68-.27 1.51-.27 1.52.1 1.52.25ZM222.92 225c0 .14-.68.26-1.51.27s-1.52-.11-1.52-.25.68-.27 1.51-.27 1.51.1 1.52.25ZM229 225c0 .14-.67.26-1.51.27s-1.51-.11-1.51-.25.67-.27 1.51-.27 1.51.05 1.51.25ZM235 224.9c0 .14-.67.26-1.51.27s-1.51-.11-1.51-.25.67-.27 1.51-.27 1.51.1 1.51.25ZM240.74 226.22c-.1.1-.65-.26-1.37-.6s-1.35-.53-1.33-.68.75-.17 1.55.21 1.25.97 1.15 1.07ZM242.6 231.73c-.15 0-.27-.67-.28-1.51s-.1-1.44 0-1.49.48.6.48 1.49-.06 1.51-.2 1.51ZM242.65 237.78c-.15 0-.27-.67-.28-1.51s.11-1.51.25-1.51.27.67.27 1.51-.1 1.51-.24 1.51ZM242.7 243.83c-.15 0-.27-.67-.28-1.51s.11-1.51.25-1.51.27.67.27 1.51-.1 1.51-.24 1.51ZM242.75 249.88c-.15 0-.27-.67-.28-1.51s.11-1.51.25-1.51.27.67.27 1.51-.1 1.51-.24 1.51ZM242.8 255.93c-.15 0-.27-.67-.28-1.51s.11-1.51.25-1.51.27.67.27 1.51-.1 1.51-.24 1.51ZM242.85 262c-.15 0-.27-.68-.28-1.51s.11-1.51.25-1.52.27.68.27 1.51-.09 1.52-.24 1.52ZM240.37 267.18c-.07-.13.43-.56.95-1.16s.88-1.15 1-1.09 0 .77-.63 1.43-1.25.94-1.32.82ZM291.46 381.2c0-.15.67-.27 1.51-.28s1.51.11 1.51.25-.67.27-1.51.27-1.51-.1-1.51-.24ZM285.41 381.25c0-.15.67-.27 1.51-.28s1.51.11 1.51.25-.67.27-1.51.27-1.51-.1-1.51-.24ZM279.36 381.3c0-.15.67-.27 1.51-.28s1.51.11 1.51.25-.67.27-1.51.27-1.51-.1-1.51-.24ZM273.31 381.35c0-.15.67-.27 1.51-.28s1.51.11 1.51.25-.67.27-1.51.27-1.51-.1-1.51-.24ZM267.26 381.4c0-.15.68-.27 1.51-.28s1.51.11 1.52.25-.68.27-1.51.27-1.52-.1-1.52-.24ZM261.21 381.37c.05-.16.67-.16 1.51-.2s1.52.11 1.52.25-.68.27-1.51.27-1.56-.2-1.52-.32ZM256.9 377.58c.14 0 .42.56.85 1.23s.86 1.17.76 1.28-.72-.25-1.2-1-.55-1.49-.41-1.51ZM256.64 371.55c.14 0 .27.67.27 1.51s-.1 1.51-.25 1.51-.26-.67-.27-1.51.11-1.51.25-1.51ZM256.59 365.5c.14 0 .27.67.27 1.51s-.1 1.51-.25 1.51-.26-.67-.27-1.51.11-1.51.25-1.51ZM256.54 359.45c.14 0 .27.67.27 1.51s-.1 1.51-.25 1.51-.26-.67-.27-1.51.11-1.51.25-1.51ZM256.49 353.4c.14 0 .27.68.27 1.51s-.1 1.51-.24 1.51-.27-.67-.28-1.51.11-1.51.25-1.51ZM256.44 347.35c.14 0 .27.68.27 1.51s-.1 1.51-.25 1.52-.26-.68-.27-1.51.11-1.52.25-1.52ZM256.92 341.38c.14.06-.06.7-.18 1.48s-.16 1.47-.32 1.47-.33-.67-.2-1.55.58-1.47.7-1.4ZM261.76 338.28c0 .15-.66.24-1.42.47s-1.36.51-1.44.38.44-.63 1.29-.88 1.58-.11 1.57.03ZM267.81 338.23c0 .14-.68.26-1.51.27s-1.52-.1-1.52-.25.68-.26 1.51-.27 1.51.1 1.52.25ZM273.86 338.18c0 .14-.68.26-1.51.27s-1.52-.1-1.52-.25.68-.26 1.51-.27 1.51.07 1.52.25ZM279.9 338.13c0 .14-.67.26-1.51.27s-1.51-.1-1.51-.25.67-.26 1.51-.27 1.51.12 1.51.25ZM286 338.08c0 .14-.67.26-1.51.27s-1.51-.1-1.51-.25.67-.26 1.51-.27 1.51.1 1.51.25ZM292 338c0 .14-.67.26-1.51.27s-1.51-.1-1.51-.25.67-.26 1.51-.27 1.51.13 1.51.25ZM297.73 339.35c-.1.11-.66-.26-1.38-.59s-1.34-.54-1.33-.68.75-.17 1.56.21 1.25.96 1.15 1.06ZM299.58 344.87c-.14 0-.26-.68-.27-1.51s-.1-1.45 0-1.5.47.6.48 1.49-.06 1.52-.21 1.52ZM299.63 350.92c-.14 0-.26-.68-.27-1.51s.1-1.52.25-1.52.26.68.27 1.51-.1 1.51-.25 1.52ZM299.68 357c-.14 0-.26-.67-.27-1.51s.1-1.51.25-1.51.26.68.27 1.51-.1 1.51-.25 1.51ZM299.73 363c-.14 0-.26-.67-.27-1.51s.1-1.51.25-1.51.26.67.27 1.51-.1 1.51-.25 1.51ZM299.78 369.06c-.14 0-.26-.67-.27-1.51s.1-1.51.25-1.51.26.67.27 1.51-.1 1.51-.25 1.51ZM299.83 375.11c-.14 0-.26-.67-.27-1.51s.1-1.51.25-1.51.26.67.27 1.51-.08 1.51-.25 1.51ZM297.36 380.31c-.07-.13.43-.56.95-1.16s.88-1.15 1-1.09 0 .77-.63 1.44-1.25.93-1.32.81ZM291.46 325.87c0-.15.67-.27 1.51-.28s1.51.11 1.51.25-.67.27-1.51.27-1.51-.11-1.51-.24ZM285.41 325.92c0-.15.67-.27 1.51-.28s1.51.11 1.51.25-.67.27-1.51.27-1.51-.1-1.51-.24ZM279.36 326c0-.15.67-.27 1.51-.28s1.51.11 1.51.25-.67.27-1.51.27-1.51-.13-1.51-.24ZM273.31 326c0-.15.67-.27 1.51-.28s1.51.11 1.51.25-.67.27-1.51.27-1.51-.08-1.51-.24ZM267.26 326.07c0-.15.68-.27 1.51-.28s1.51.11 1.52.25-.68.27-1.51.27-1.52-.1-1.52-.24ZM261.21 326c.05-.16.67-.16 1.51-.2s1.52.11 1.52.25-.68.27-1.51.27-1.56-.16-1.52-.32ZM256.9 322.25c.14 0 .42.56.85 1.23s.86 1.17.76 1.28-.72-.25-1.2-1-.55-1.49-.41-1.51ZM256.64 316.22c.14 0 .27.67.27 1.51s-.1 1.51-.25 1.51-.26-.67-.27-1.51.11-1.51.25-1.51ZM256.59 310.17c.14 0 .27.67.27 1.51s-.1 1.51-.25 1.51-.26-.67-.27-1.51.11-1.51.25-1.51ZM256.54 304.12c.14 0 .27.67.27 1.51s-.1 1.51-.25 1.51-.26-.67-.27-1.51.11-1.51.25-1.51ZM256.49 298.07c.14 0 .27.68.27 1.51s-.1 1.51-.24 1.51-.27-.67-.28-1.51.11-1.51.25-1.51ZM256.44 292c.14 0 .27.68.27 1.51s-.1 1.51-.25 1.52-.26-.68-.27-1.51.11-1.52.25-1.52ZM256.92 286.05c.14.06-.06.7-.18 1.48s-.16 1.47-.32 1.47-.33-.67-.2-1.55.58-1.45.7-1.4ZM261.76 283c0 .15-.66.24-1.42.47s-1.36.51-1.44.38.44-.63 1.29-.88 1.58-.16 1.57.03ZM267.81 282.9c0 .14-.68.26-1.51.27s-1.52-.1-1.52-.25.68-.26 1.51-.27 1.51.1 1.52.25ZM273.86 282.85c0 .14-.68.26-1.51.27s-1.52-.1-1.52-.25.68-.26 1.51-.27 1.51.1 1.52.25ZM279.9 282.8c0 .14-.67.26-1.51.27s-1.51-.1-1.51-.25.67-.26 1.51-.27 1.51.1 1.51.25ZM286 282.75c0 .14-.67.26-1.51.27s-1.51-.1-1.51-.25.67-.26 1.51-.27 1.51.1 1.51.25ZM292 282.7c0 .14-.67.26-1.51.27s-1.51-.1-1.51-.25.67-.26 1.51-.27 1.51.1 1.51.25ZM297.73 284c-.1.11-.66-.26-1.38-.59s-1.34-.54-1.33-.68.75-.17 1.56.21 1.25.98 1.15 1.06ZM299.58 289.54c-.14 0-.26-.68-.27-1.51s-.1-1.45 0-1.5.47.6.48 1.49-.06 1.52-.21 1.52ZM299.63 295.59c-.14 0-.26-.68-.27-1.51s.1-1.52.25-1.52.26.68.27 1.51-.1 1.51-.25 1.52ZM299.68 301.64c-.14 0-.26-.68-.27-1.51s.1-1.52.25-1.52.26.68.27 1.51-.1 1.51-.25 1.52ZM299.73 307.68c-.14 0-.26-.67-.27-1.51s.1-1.51.25-1.51.26.67.27 1.51-.1 1.51-.25 1.51ZM299.78 313.73c-.14 0-.26-.67-.27-1.51s.1-1.51.25-1.51.26.67.27 1.51-.1 1.51-.25 1.51ZM299.83 319.78c-.14 0-.26-.67-.27-1.51s.1-1.51.25-1.51.26.67.27 1.51-.08 1.51-.25 1.51ZM297.36 325c-.07-.13.43-.56.95-1.16s.88-1.15 1-1.09 0 .77-.63 1.44-1.25.91-1.32.81Z" style="fill:#e0e0e0"/><circle cx="239.93" cy="167.73" r="8.32" transform="rotate(-25.38 239.956 167.746)" style="fill:#407bff"/><path d="M243 169.06c0 1.22-.87 2.17-2.63 2.18a3.82 3.82 0 0 1-2.65-.92l.36-.6a3.21 3.21 0 0 0 2.28.83c1.21 0 1.88-.58 1.87-1.49s-.63-1.44-2-1.43h-.52v-.55l2-2.56h-3.74v-.67h4.71v.54l-2 2.62c1.5.06 2.32.88 2.32 2.05Z" style="fill:#fff"/><path d="M239.72 396.16a2.13 2.13 0 1 1-2.15-2.11 2.12 2.12 0 0 1 2.15 2.11ZM251.62 396.06a2.13 2.13 0 1 1-2.14-2.1 2.12 2.12 0 0 1 2.14 2.1ZM263.53 396a2.13 2.13 0 1 1-2.14-2.1 2.13 2.13 0 0 1 2.14 2.1ZM306 139c0 .08-2.79.18-6.24.21s-6.25 0-6.25-.11 2.79-.18 6.24-.21 6.25.05 6.25.11ZM306.06 142.23c0 .08-2.8.17-6.25.2s-6.24 0-6.25-.1a61.52 61.52 0 0 1 6.25-.21 59.8 59.8 0 0 1 6.25.11ZM306.09 145.42a61.52 61.52 0 0 1-6.25.21c-3.45 0-6.25 0-6.25-.1a61.52 61.52 0 0 1 6.25-.21c3.45-.03 6.25.02 6.25.1ZM192.39 149.07h.99L196 149v-3.05a1.06 1.06 0 0 1 .91-.84h1.28a1.07 1.07 0 0 1 .9 1.05v2.83l-.15-.15h3.37l-.15.15V143.73a1 1 0 0 0-.47-.78l-1.47-1.45-1.42-1.4-.68-.68c-.24-.23-.42-.46-.69-.51a.87.87 0 0 0-.75.14c-.2.17-.42.41-.63.61l-1.2 1.22c-.76.79-1.56 1.51-2.13 2.19a2.35 2.35 0 0 0-.17 1.24v4.32a2.3 2.3 0 0 1 0 .44 3.55 3.55 0 0 1 0-.4v-1.2c0-.47 0-1.2-.05-1.93v-1.21a2.62 2.62 0 0 1 .18-1.38c.63-.77 1.37-1.44 2.13-2.25l1.2-1.23c.22-.21.39-.42.65-.65a1.16 1.16 0 0 1 1-.19 1.8 1.8 0 0 1 .82.58l.69.68 1.43 1.39 1.47 1.45a1.37 1.37 0 0 1 .56 1V149.15H198.97V146.18a.8.8 0 0 0-.67-.8h-1.21a.82.82 0 0 0-.71.64v3.08h-3.8a.94.94 0 0 1-.19-.03Z" style="fill:#263238"/><rect x="305.06" y="341.37" width="43.16" height="43.16" rx="5.4" transform="translate(-2.99 2.71)" style="fill:#455a64"/><path d="m316.13 361.1.45.35 1.21 1 4.43 3.64.06.05v.08c-.21 2.2-.46 4.85-.75 7.82l-.32-.2 6.68-4.14.11-.07.11.06 7.2 3.16-.35.29c-.6-2.46-1.22-5-1.86-7.63 0-.11-.06.23.06-.24v-.05l.09-.1.17-.18.33-.38.67-.74 1.32-1.48 2.59-2.88.17.43-7.83-.62h-.13l-.06-.11-3.92-6.81h.37l-3 7.25v.08h-.08l-5.63 1.11-1.53.29a4.17 4.17 0 0 1-.56.1l.48-.12 1.47-.35 5.7-1.33-.11.09 2.95-7.29.15-.39.22.37 4 6.78-.19-.12 7.84.59h.51l-.34.38-2.58 2.89-1.32 1.47-.67.75-.34.37-.16.19-.09.1c.12-.47 0-.13.06-.23.63 2.61 1.25 5.17 1.84 7.63l.12.51-.47-.21-7.18-3.2h.22l-6.71 4.09-.36.22.05-.42c.32-3 .61-5.62.85-7.81l.06.13-4.4-3.87-1.13-1Z" style="fill:#fafafa"/></g><g style="animation:womenStand 1s linear alternate infinite"><path style="fill:#ffbe9d" d="m139.5 347.48 7.89 75.39h-13.7l-13.68-65.19 19.49-10.2zM114.14 310.3h-23.9l5.08 43.9L59.58 404l7.29 9.32 39.69-41.26 8.27-8.88a9.37 9.37 0 0 0 2.49-7Z"/><path d="M115.19 340.32a2.07 2.07 0 0 1 .18.5c.1.33.24.82.4 1.46.32 1.28.75 3.14 1.13 5.47a42.9 42.9 0 0 1 .64 8.26 14.68 14.68 0 0 1-.94 4.86 15.84 15.84 0 0 1-3 4.33c-5 5.2-9.49 9.86-12.77 13.23l-3.92 4-1.08 1.06c-.25.24-.39.36-.4.34a2.33 2.33 0 0 1 .33-.41l1-1.13 3.79-4.08c3.29-3.47 7.74-8.15 12.65-13.34a15.32 15.32 0 0 0 3-4.18 14.26 14.26 0 0 0 .93-4.67 46 46 0 0 0-.52-8.19c-.34-2.32-.71-4.19-1-5.47l-.3-1.49a1.87 1.87 0 0 1-.12-.55Z" style="fill:#eb996e"/><path d="m161.63 251.33.42-.06a93.26 93.26 0 0 0 10.1-2c4.09-1.26 4-1.64 3.77-2.09-.58-1.23-7.26 1.94-6.2.42s8.6-2.92 7.94-4.18c-.86-1.63-7.8 1.82-8.41 2.07s-1-.63-.4-.83c.8-.28 9.18-3.42 8.35-5-.46-.89-2 .13-2 .13s-7.64 3.52-8 2.75 4.05-3 5.59-3.66 1.85-1.62 1-2.07c-.56-.31-5.32 1.55-6.83 2.22s-5.62 2.59-4.32 0c0 0 0-.09.05-.13 1.35-2.53 1.56-4.93 1.14-5.67a1 1 0 0 0-1.77.26 1 1 0 0 0-.1.4 1.66 1.66 0 0 0 0 .22 14.88 14.88 0 0 1-1.1 2.75 8 8 0 0 1-1.56 2.13c-.72.7-1.37 1.28-1.93 1.75L151.7 243l5.14 9.72 3.67-.71" style="fill:#ffbe9d"/><path d="m139.4 245.41 19-6.26 4.35 13.85-25.88 9.12a9.45 9.45 0 0 1-11.7-4.91l-4.38-16.86 13.3-10.06Z" style="fill:#407bff"/><path d="M99.57 208.11s-21.78-2.9-20 19.09c.58 7.33 3.85 17.8 6.22 23.63A9 9 0 0 1 86 257c-2.08 6.51-7.31 16.12-8.2 21.5l44.93 3.76-.13-37.26 7.74-3.17 6.53-2.57c-8.6-36.28-24.6-31.6-24.6-31.6l-12.7.41" style="fill:#407bff"/><path d="M86.43 252.65c.43 3.33-1 6.28-2.46 9.67 0 0 6.33 14.82 12.25 15.48 5 .57 16.08 1.61 26.49 2.59l.35-8.4-42.54-38.92c.78 5.14 3.19 11.7 5.91 19.58Z" style="opacity:.2"/><path d="M143 348.21c-10.72-22.22-19.59-46-20.26-70.67l.28-41.7-17.29 2-7.19 40.23-21 .45c-4.22 10-3.36 20.91-.49 30.89 3.36 11.71 10.59 23.05 8.68 35.08-.46 2.85-1.32 6.13.51 8.35 1.22 1.49 3.27 2 5.15 2.34 14.91 3 30.62 5.95 45.08 1.22a5.6 5.6 0 0 0 2.67-1.61c2.63-3.18 4.72-4.88 3.86-6.58Z" style="fill:#263238"/><path d="M97.94 280.89a3.93 3.93 0 0 1-.35 2 7.67 7.67 0 0 1-7.81 5 4 4 0 0 1-2-.52c0-.08.77.14 2 .15a8 8 0 0 0 7.45-4.76c.52-1.12.62-1.89.71-1.87Z" style="fill:#455a64"/><path d="M121.76 223.2a3.5 3.5 0 0 1-.16 1c-.14.64-.35 1.57-.63 2.72v-.14c.55.93 1.16 2.06 1.77 3.33a21 21 0 0 1 1.63 4.32 5.64 5.64 0 0 1 .11.92v.87c0 .57-.07 1.13-.13 1.67a28.63 28.63 0 0 1-.52 3 25.07 25.07 0 0 1-1.31 4.18V245a5 5 0 0 1-.12 1.38 6.29 6.29 0 0 1-.12-1.38 35.23 35.23 0 0 0 1.1-4.18c.18-.91.34-1.9.45-3 0-.53.09-1.08.11-1.64v-.85a5.92 5.92 0 0 0-.1-.82 22.34 22.34 0 0 0-1.55-4.22c-.59-1.27-1.16-2.4-1.67-3.35v-.14c.33-1.13.6-2.05.8-2.68a3.62 3.62 0 0 1 .34-.92ZM112.76 240.48s-.13.53-.65 1.2a7.1 7.1 0 0 1-5.8 2.65A2.49 2.49 0 0 1 105 244a11.9 11.9 0 0 0 4.32-.82 11.91 11.91 0 0 0 3.44-2.7ZM86.76 210.28s12.8 9 19.34 27.54l2.9-.37s-4.9-18.45-20.12-28.12a8.09 8.09 0 0 0-2.12.95Z" style="fill:#263238"/><path d="M114.2 207.79s8 13.68 8.27 28.62h-2.74s-3.19-23.14-9-28.91Z" style="fill:#263238"/><path d="M109.38 237.4c.05 0 .31.38.54 1.13a2.92 2.92 0 0 1 .08 1.41 2 2 0 0 1-1.09 1.42 1.64 1.64 0 0 1-1.77-.38 2.44 2.44 0 0 1-.67-1.26c-.16-.77-.11-1.24 0-1.25s.16.46.4 1.15a2.33 2.33 0 0 0 .65 1 1.17 1.17 0 0 0 1.23.27 1.61 1.61 0 0 0 .83-1.06 3 3 0 0 0 0-1.22c-.15-.72-.28-1.18-.2-1.21Z" style="fill:#455a64"/><path d="M107.83 238.56v.29a.18.18 0 0 0 .08.12.24.24 0 0 0 .1 0c.06 0 .08 0 .09-.07a.23.23 0 0 0 0-.14c-.07-.1-.17-.13-.2-.19s.11-.23.39-.12a.51.51 0 0 1 .32.41.57.57 0 0 1-.34.59.58.58 0 0 1-.67-.13.52.52 0 0 1-.09-.52c.07-.3.31-.3.32-.24ZM121.27 238.05c0 .07-.16.15-.43.12a1.49 1.49 0 0 1-1.25-1.49c0-.27.13-.41.19-.4s.15.57.56 1 .92.63.93.77ZM118 246.51a14.91 14.91 0 0 1-3.83.86 15 15 0 0 1-3.9.34 14.9 14.9 0 0 1 3.82-.86 15 15 0 0 1 3.91-.34ZM112.62 292.24a26.1 26.1 0 0 0 1.22 3.19c.79 1.94 1.88 4.63 3 7.62s2.17 5.71 2.9 7.69a25.15 25.15 0 0 0 1.26 3.17 3.71 3.71 0 0 0-.21-.9c-.15-.57-.4-1.38-.73-2.38-.65-2-1.61-4.76-2.78-7.75s-2.31-5.67-3.18-7.59c-.44-1-.81-1.73-1.07-2.25a3.6 3.6 0 0 0-.41-.8Z" style="fill:#455a64"/><path d="m67.48 414.21.91-.8L60 403.08l-3.79 3.31.51.65c2.26 2.87 11.7 14.44 13.87 15.78 2.41 1.49-3.11-8.61-3.11-8.61Z" style="fill:#407bff"/><g style="opacity:.5"><path d="M59.46 409.92a4.55 4.55 0 0 0 1-3.13 4.45 4.45 0 0 0-1.32-3l-2.78 2.45Z" style="fill:#fff"/></g><g style="opacity:.5"><path d="M70 419.28s1.76 3.7 1 3.76-10.8-11.27-14.77-16.65l.24-.18L68 419.53s1.5-.81 2-.25Z" style="fill:#fff"/></g><path d="M56.32 406.05a.89.89 0 0 0 .13.19l.4.51 1.51 1.88c1.29 1.57 3.1 3.71 5.15 6s3.95 4.4 5.34 5.87l1.67 1.74.46.47a1 1 0 0 0 .16.15s0-.06-.14-.17l-.44-.49-1.63-1.77c-1.37-1.5-3.26-3.58-5.3-5.9s-3.87-4.46-5.18-6l-1.55-1.84-.42-.49a1.45 1.45 0 0 0-.16-.15Z" style="fill:#263238"/><path d="M67.83 419.66a3.46 3.46 0 0 1 2.39-.41 2.12 2.12 0 0 0-2.39.41ZM66.73 415.42c0 .05.3 0 .66 0a1.53 1.53 0 0 0 .63-.18 1.56 1.56 0 0 0-.66 0 1.53 1.53 0 0 0-.63.18ZM66.45 414.25s.24.1.54.14.56 0 .56 0-.24-.1-.54-.14-.56-.05-.56 0ZM66.94 412.91s.14.29.39.58.48.5.51.47-.14-.29-.39-.58-.45-.5-.51-.47ZM67.44 412.16a1.33 1.33 0 0 0 .35.72 1.43 1.43 0 0 0 .6.53s-.22-.28-.48-.63-.42-.64-.47-.62Z" style="fill:#263238"/><path d="M67.89 415a2.79 2.79 0 0 0 .57.63 4.87 4.87 0 0 0 .75.55 3.32 3.32 0 0 0 .5.25.5.5 0 0 0 .34 0 .33.33 0 0 0 .17-.32 1.56 1.56 0 0 0-1.62-1.15 1.54 1.54 0 0 0-.61.17c-.13.07-.19.13-.18.14a2 2 0 0 1 .8-.19 1.44 1.44 0 0 1 .83.23 1.38 1.38 0 0 1 .62.8c0 .17-.14.24-.31.18a2.23 2.23 0 0 1-.47-.22 5.41 5.41 0 0 1-.75-.51c-.4-.34-.62-.56-.64-.56Z" style="fill:#263238"/><path d="M68 415.19s.24 0 .51-.32a1.51 1.51 0 0 0 .31-.58.87.87 0 0 0-.14-.82.35.35 0 0 0-.47.06.9.9 0 0 0-.19.36 2.44 2.44 0 0 0-.12.64 1.25 1.25 0 0 0 .06.6s0-.23 0-.58a2.7 2.7 0 0 1 .15-.61c.06-.2.24-.48.41-.34a.72.72 0 0 1 .1.66 1.5 1.5 0 0 1-.25.54c-.16.28-.37.36-.37.39ZM59.21 403.86s.28.26.62.76a4.19 4.19 0 0 1 .75 2.18 4.24 4.24 0 0 1-.53 2.24c-.29.53-.56.79-.54.81s.08-.05.2-.17a3.73 3.73 0 0 0 .44-.58 4.12 4.12 0 0 0 .59-2.31 4 4 0 0 0-.82-2.24 2.93 2.93 0 0 0-.49-.53c-.13-.12-.21-.17-.22-.16ZM61.52 410.32a7.75 7.75 0 0 0 1.15 1.57 7.28 7.28 0 0 0 1.4 1.34s-.58-.64-1.28-1.45-1.23-1.48-1.27-1.46Z" style="fill:#263238"/><path d="M59.82 408.37s-.09.17-.18.37-.19.35-.16.38.2-.09.31-.32.07-.43.03-.43ZM60.09 406.83c-.05 0-.09.15-.11.35s0 .35.06.35.09-.15.1-.34-.01-.36-.05-.36ZM59.58 405.41s.09.17.17.36.09.37.14.37.1-.19 0-.43-.29-.33-.31-.3ZM59.12 404.49v.23c0 .11.11.19.15.17s0-.11 0-.22-.11-.19-.15-.18Z" style="fill:#263238"/><path d="M147 423.21v-1.22l-13.31-.06.16 5h.82c3.66.07 18.59.11 21-.72 2.6-.87-8.67-3-8.67-3Z" style="fill:#407bff"/><g style="opacity:.5"><path d="M138.55 426.68a4.61 4.61 0 0 0-1.79-2.76 4.47 4.47 0 0 0-3.12-.85l.13 3.7Z" style="fill:#fff"/></g><g style="opacity:.5"><path d="M152.49 424.45s4 1 3.51 1.66-15.56 1.19-22.24.85v-.3l17.61-.47s.35-1.68 1.12-1.74Z" style="fill:#fff"/></g><path d="M133.57 426.66h3.28c2 0 4.84 0 7.94-.14s5.9-.27 7.93-.41l2.4-.18.65-.06h.23-.88l-2.41.13c-2 .11-4.83.25-7.92.36s-5.91.16-7.94.19h-3.06a.89.89 0 0 0-.22.11Z" style="fill:#263238"/><path d="M151.39 426.39a5.11 5.11 0 0 1 .41-1.16 5.49 5.49 0 0 1 .78-1 2.15 2.15 0 0 0-1.19 2.11ZM147.42 424.55s.21-.21.4-.52a1.57 1.57 0 0 0 .26-.6s-.22.21-.4.52-.3.58-.26.6ZM146.33 424s.23-.12.45-.33.38-.41.35-.44-.24.11-.46.32-.37.45-.34.45ZM145.61 422.8c0 .05.31.07.69.06a1.55 1.55 0 0 0 .69-.09s-.31-.07-.7-.07a1.53 1.53 0 0 0-.68.1ZM145.34 421.93a1.38 1.38 0 0 0 .78.2 1.31 1.31 0 0 0 .79-.14 5.63 5.63 0 0 0-.78 0 4.54 4.54 0 0 0-.79-.06Z" style="fill:#263238"/><path d="M147.82 423.38a2.35 2.35 0 0 0 .85 0 4.77 4.77 0 0 0 .9-.23 3.23 3.23 0 0 0 .51-.23.47.47 0 0 0 .2-.28.33.33 0 0 0-.14-.33 1.57 1.57 0 0 0-2.17 1.1v.23a2.51 2.51 0 0 1 .36-.74 1.58 1.58 0 0 1 .71-.49 1.34 1.34 0 0 1 1 0c.13.09.09.25-.06.35a2.86 2.86 0 0 1-.47.22 6.8 6.8 0 0 1-.87.26c-.49.11-.82.12-.82.14Z" style="fill:#263238"/><path d="M148.05 423.42a.82.82 0 0 0 .07-.59 1.33 1.33 0 0 0-.25-.62.86.86 0 0 0-.72-.4.33.33 0 0 0-.25.4.89.89 0 0 0 .16.37 2.17 2.17 0 0 0 .42.5 1.42 1.42 0 0 0 .49.33s-.17-.15-.41-.41a2.61 2.61 0 0 1-.38-.5c-.12-.17-.21-.49 0-.54s.44.18.57.34a1.44 1.44 0 0 1 .26.55 3.3 3.3 0 0 1 .04.57ZM133.71 423h1a4.3 4.3 0 0 1 2.16.81 4.23 4.23 0 0 1 1.39 1.83c.23.56.26.94.29.94a.82.82 0 0 0 0-.27 3.5 3.5 0 0 0-.17-.71 4 4 0 0 0-1.41-1.92 4.09 4.09 0 0 0-2.25-.79 3.52 3.52 0 0 0-.72 0 .76.76 0 0 0-.29.11ZM140.17 425.35a8 8 0 0 0 1.94.11 7.74 7.74 0 0 0 1.92-.24c0-.05-.86 0-1.93.08s-1.93 0-1.93.05Z" style="fill:#263238"/><path d="m137.58 425.42.17.38c.09.2.15.36.2.36s.06-.21-.06-.44-.28-.33-.31-.3ZM136.56 424.24s.06.17.2.3.28.22.31.18-.06-.16-.2-.3-.28-.21-.31-.18ZM135.14 423.73s.19 0 .39.1.34.16.37.13-.08-.21-.33-.28-.44.01-.43.05ZM134.14 423.51s.06.1.17.14.22 0 .23 0-.06-.11-.17-.15-.22-.03-.23.01ZM116.38 171l2.62 17.68 4-.76a2.68 2.68 0 0 0 1.83-.87c.58-.85 0-2-.72-2.76s-1.66-1.37-1.93-2.37.26-2.11.26-3.17a5.52 5.52 0 0 0-1.13-3c-.61-.9-1.35-1.46-1.35-4.34" style="fill:#263238"/><path d="M112.71 208.19c-.22-4.42-.37-9.07-.37-9.07s5.65-1.24 6.44-8.72c.76-7.14-1.25-23.43-1.25-23.43a21.35 21.35 0 0 0-23.45 6.67l2.34 35.84a7.71 7.71 0 0 0 8.52 6.92 8.15 8.15 0 0 0 7.77-8.21Z" style="fill:#ffbe9d"/><path d="M117.33 179.85a1 1 0 0 1-.87 1 .91.91 0 0 1-1-.81 1 1 0 0 1 .87-1 .91.91 0 0 1 1 .81ZM117.57 178.7c-.11.13-.86-.36-1.89-.31s-1.74.61-1.86.49.05-.28.36-.54a2.65 2.65 0 0 1 1.49-.54 2.47 2.47 0 0 1 1.51.4c.33.22.44.44.39.5ZM106.55 180.57a1 1 0 0 1-.87 1 .91.91 0 0 1-1-.81 1 1 0 0 1 .87-1 .91.91 0 0 1 1 .81Z" style="fill:#263238"/><path d="M106.9 179.63c-.11.13-.86-.37-1.89-.31s-1.74.6-1.86.48 0-.28.36-.53a2.58 2.58 0 0 1 1.49-.55 2.54 2.54 0 0 1 1.51.4c.33.23.49.45.39.51ZM111 187a6.5 6.5 0 0 1 1.65-.38c.26 0 .5-.11.54-.29a1.32 1.32 0 0 0-.22-.77l-.87-2a34.87 34.87 0 0 1-2-5.12 34.87 34.87 0 0 1 2.41 4.95c.3.68.58 1.34.85 2a1.57 1.57 0 0 1 .19 1 .69.69 0 0 1-.41.41 1.58 1.58 0 0 1-.44.08 6.58 6.58 0 0 1-1.7.12Z" style="fill:#263238"/><path d="M112.34 199.12a18.88 18.88 0 0 1-10.07-2.12s2.67 5 10.07 3.9ZM107.86 189a3 3 0 0 1 1.11-.72 1 1 0 0 1 1.15.42c.07.16.13.36.29.38s.21-.07.33-.09.32.14.35.31a.84.84 0 0 1-.12.51 4.77 4.77 0 0 1-.5.84 2.15 2.15 0 0 1-.92.8 1.67 1.67 0 0 1-1.06 0 1.78 1.78 0 0 1-1.06-.75 1.37 1.37 0 0 1-.1-1.27 1.11 1.11 0 0 1 1-.67" style="fill:#eb996e"/><path d="M108 187.9c.17 0 .23 1.09 1.22 1.83s2.17.56 2.19.71-.26.23-.76.27a2.8 2.8 0 0 1-1.82-.53 2.43 2.43 0 0 1-1-1.54c.02-.46.17-.75.17-.74Z" style="fill:#263238"/><path d="M97.23 181.68a4.49 4.49 0 0 0-2.38.28 3.09 3.09 0 0 0-1.67 1.68 3.24 3.24 0 0 0 .1 2.37 5.52 5.52 0 0 0 1.46 1.93 3.76 3.76 0 0 0 1.49.88 1.79 1.79 0 0 0 1.64-.34" style="fill:#ffbe9d"/><path d="M97 186.52c.09 0-.23.52-1 .36a1.52 1.52 0 0 1-.94-.73 3.53 3.53 0 0 1-.47-1.3 2.09 2.09 0 0 1 .27-1.42 1.4 1.4 0 0 1 1-.67c.74 0 1 .45.92.47s-.36-.18-.84 0a1.33 1.33 0 0 0-.75 1.57c.13.82.48 1.55.93 1.71s.88-.06.88.01Z" style="fill:#eb996e"/><path d="M115.68 165.05a5.4 5.4 0 0 1-2.09 6.13c-2 1.27-4.49 1.1-6.81 1.4s-5 1.55-5.22 3.87c-.16 1.41.62 2.91 0 4.21-.67 1.52-2.8 1.88-3.62 3.32-1.31 2.32 1.7 5.08 1.13 7.68l-15.33-2.78a4.86 4.86 0 0 1 2-3.62 9.32 9.32 0 0 0-3.53 3.19l-4.54-1.54a11.53 11.53 0 0 1 7.14-6.54c2.45-.79-1-5.16.17-7.44 1.35-2.58 6.11-1.33 7.46-3.91.49-.94.32-2.08.59-3.11.61-2.34 3.35-3.47 5.77-3.51s4.84.66 7.25.42c1.32-.13 2.59-.55 3.9-.76a6 6 0 0 1 3.88.44 2.94 2.94 0 0 1 1.5 3.35" style="fill:#263238"/><path d="M113.81 170c1 2.58 2.49 6.05 5.14 6.82 1-1.18 1.15-5.07.94-6.89a8.73 8.73 0 0 0-2.13-5 5.46 5.46 0 0 0-5-1.71" style="fill:#263238"/><path d="M86.81 189.17a1.06 1.06 0 0 1-.19-.42 3 3 0 0 1 0-1.34 5.74 5.74 0 0 1 .77-2c.42-.71 1-1.44 1.47-2.32a5.48 5.48 0 0 0 .53-3.15 9.32 9.32 0 0 1 .22-3.89 2.9 2.9 0 0 1 1.49-1.63 8.74 8.74 0 0 1 2.15-.56 3.64 3.64 0 0 0 1.91-.79 4.21 4.21 0 0 0 1-1.89 17.5 17.5 0 0 1 .72-2.23 6.71 6.71 0 0 1 1.3-1.92 6.16 6.16 0 0 1 3.88-1.9 11.78 11.78 0 0 1 3.86.54 14.56 14.56 0 0 0 3.24.57 4.41 4.41 0 0 0 2.54-.65 3.75 3.75 0 0 0 1.32-1.48 3.81 3.81 0 0 0 .33-1.69 1 1 0 0 1 .09.45 2.89 2.89 0 0 1-.23 1.32 4 4 0 0 1-1.35 1.65 4.72 4.72 0 0 1-2.7.76 13.56 13.56 0 0 1-3.34-.51 11.42 11.42 0 0 0-3.72-.48 5.81 5.81 0 0 0-3.56 1.77 6.53 6.53 0 0 0-1.19 1.78 17.82 17.82 0 0 0-.69 2.17 4.62 4.62 0 0 1-1.16 2.12 4.2 4.2 0 0 1-2.17.92 8.16 8.16 0 0 0-2 .5 2.37 2.37 0 0 0-1.33 1.38 8.93 8.93 0 0 0-.24 3.7 8.06 8.06 0 0 1-.08 1.78 4.82 4.82 0 0 1-.56 1.56c-.51.92-1.11 1.63-1.54 2.3a5.86 5.86 0 0 0-.82 1.86 3.72 3.72 0 0 0 .05 1.72Z" style="fill:#455a64"/><path d="M115.9 165.38a2.08 2.08 0 0 1-.12.4 6.06 6.06 0 0 1-.53 1.08 8.11 8.11 0 0 1-3.24 3 7.88 7.88 0 0 1-3 .83 21.79 21.79 0 0 1-3.49-.11 11.4 11.4 0 0 0-3.72.16 4.36 4.36 0 0 0-3 2.22c-.53 1.21-.37 2.63-.65 4a3.42 3.42 0 0 1-1 1.84 4.83 4.83 0 0 1-1.74.9 5 5 0 0 0-1.55.71 2.89 2.89 0 0 0-.92 1.24 8.47 8.47 0 0 0-.44 2.89 7.17 7.17 0 0 1-.93 4.27 2.49 2.49 0 0 1-.91.8 1.14 1.14 0 0 1-.4.14 3.5 3.5 0 0 0 1.14-1.05 7.35 7.35 0 0 0 .73-4.17 8.61 8.61 0 0 1 .41-3 3.34 3.34 0 0 1 1-1.45 6.26 6.26 0 0 1 1.67-.8 4.36 4.36 0 0 0 1.56-.8 3 3 0 0 0 .8-1.58c.26-1.24.07-2.69.67-4.1a4.84 4.84 0 0 1 3.37-2.49 11.7 11.7 0 0 1 3.89-.15 22.68 22.68 0 0 0 3.42.16 7.51 7.51 0 0 0 2.83-.73 8.33 8.33 0 0 0 3.23-2.74c.68-.95.87-1.49.92-1.47ZM121.68 176.32a15.29 15.29 0 0 0-.58-1.73 3.93 3.93 0 0 0-1.19-1.47 18.81 18.81 0 0 1-2-1.54 4.24 4.24 0 0 1-1.25-2.26c-.15-.77-.18-1.46-.26-2a14.86 14.86 0 0 0-.41-1.78 2.89 2.89 0 0 1 .78 1.72c.26 1.12.21 2.82 1.5 4 .61.59 1.31 1.05 1.91 1.53a4 4 0 0 1 1.23 1.71 2.8 2.8 0 0 1 .27 1.82Z" style="fill:#455a64"/><path d="M106.91 177.33c-.14.26-.93.11-1.9.06s-1.77 0-1.88-.29.75-.82 1.94-.75 1.99.74 1.84.98ZM117.24 176.71c0 .29-.75.51-1.66.5s-1.65-.26-1.65-.55.75-.51 1.66-.49 1.65.25 1.65.54Z" style="fill:#263238"/><rect x="118.08" y="229.69" width="43.54" height="43.54" rx="5.4" transform="rotate(-71.36 139.855 251.465)" style="fill:#455a64"/><path d="M154 255.92a25.8 25.8 0 0 0 .6-3.51 14.47 14.47 0 0 0-2.5-9.14 14.28 14.28 0 0 0-12.16-6.22 13.24 13.24 0 0 0-4 .69 13.46 13.46 0 0 0-3.81 1.9 14.15 14.15 0 0 0-5.38 16 14.2 14.2 0 0 0 4.67 6.83 14.38 14.38 0 0 0 21-3.35 27.51 27.51 0 0 0 1.65-3.15 1.35 1.35 0 0 1-.06.23l-.23.65a6.89 6.89 0 0 1-.45 1 9.34 9.34 0 0 1-.74 1.35 14 14 0 0 1-2.73 3.21 14.71 14.71 0 0 1-4.84 2.79 14.54 14.54 0 0 1-6.73.67 14.82 14.82 0 0 1-7.14-3.06 14 14 0 0 1-2.9-3.08 13.82 13.82 0 0 1-2-4 14.65 14.65 0 0 1 5.57-16.52 14 14 0 0 1 4-2 13.81 13.81 0 0 1 4.18-.69 14.61 14.61 0 0 1 12.48 6.5 14.44 14.44 0 0 1 2.15 5.15 13.68 13.68 0 0 1 .24 4.21 9.79 9.79 0 0 1-.23 1.52 6.41 6.41 0 0 1-.27 1.09l-.21.66a.73.73 0 0 1-.16.27Z" style="fill:#fafafa"/><path d="M154.85 255.65a10.14 10.14 0 0 1-3.1-.78 9.68 9.68 0 0 1-2.93-1.26 9.94 9.94 0 0 1 3.1.77 9.69 9.69 0 0 1 2.93 1.27ZM135 264.82a19.64 19.64 0 0 1 2-6 9.94 9.94 0 0 1-.77 3.1 10.14 10.14 0 0 1-1.23 2.9ZM142.27 243.34a9.94 9.94 0 0 1 .77-3.1 9.55 9.55 0 0 1 1.27-2.93 10.29 10.29 0 0 1-.77 3.1 10 10 0 0 1-1.27 2.93ZM132.74 248.19a10.23 10.23 0 0 1-3.1-.77 10.14 10.14 0 0 1-2.94-1.27 10.25 10.25 0 0 1 3.11.77 9.69 9.69 0 0 1 2.93 1.27ZM149.11 246.21a27.4 27.4 0 0 1-4.73 2.63 27.56 27.56 0 0 1-5 2.17 28.39 28.39 0 0 1 4.73-2.63 28.25 28.25 0 0 1 5-2.17Z" style="fill:#fafafa"/><path d="M145.6 253a10.59 10.59 0 0 1-3.13-.78 10.12 10.12 0 0 1-3-1.28 10.59 10.59 0 0 1 3.13.78 10.12 10.12 0 0 1 3 1.28Z" style="fill:#fafafa"/><path d="m139.85 273.47 3.33 1.82c3.17 1.4 4.88 2.29 6.17 2 1.73-.45.77-2.37.77-2.37s2.6.48 3.14-1a1.53 1.53 0 0 0-.61-1.67s2.35.33 3.17-.25c1.14-.8.11-2.15.11-2.15 3.52-.14 4.18-1.87 3.67-2.37s-3.09-.71-3.09-.71c-2-.47-7.52-1.68-4.31-3.3s5.05-4.06 5.09-5.07a1.12 1.12 0 0 0-2-.57 12.81 12.81 0 0 1-2.86 2.21 8.56 8.56 0 0 1-2.69 1.11c-1.11.24-2.06.4-2.87.52l-4.54 1.19Z" style="fill:#ffbe9d"/><path d="M81.23 229.21c1.6 6.63 7 18.56 12.23 28.34s13.3 12.07 13.3 12.07l36.32 7.38 2.78-16.05s-31.52-8.31-34.13-9l-17-33.12" style="fill:#407bff"/><path d="M82.45 214.23a3.45 3.45 0 0 1 .66-.28 8.23 8.23 0 0 1 2-.48 8.67 8.67 0 0 1 3.25.27 11 11 0 0 1 3.82 2 25.35 25.35 0 0 1 6.74 8.87c1.78 3.81 3.82 7.93 5.9 12.29l7.13 14.91-.15-.13 12.92 3.54 3.62 1 1 .29a1.13 1.13 0 0 1 .32.12 1.63 1.63 0 0 1-.34-.05l-1-.23-3.66-.9-13-3.35h-.1v-.1c-2.11-4.38-4.57-9.47-7.19-14.88-2.07-4.36-4.11-8.51-5.85-12.3A25.44 25.44 0 0 0 92 216a11 11 0 0 0-3.68-2 8.77 8.77 0 0 0-3.15-.35 17.71 17.71 0 0 0-2.72.58Z" style="fill:#263238"/></g></svg>