<svg xmlns="http://www.w3.org/2000/svg" width="650" height="650" viewBox="0 0 1080 1080"><style>@keyframes manStand{0%{transform:translateY(-10px)}to{transform:translateY(5px)}}@keyframes womenStand{0%{transform:translateX(-10px)}to{transform:translateX(5px)}}@keyframes iosicon{0%{transform:scale(1)}to{transform:scale(1.02)}}@keyframes setting{0%{transform:scale(1)}to{transform:scale(1.01)}}</style><path fill="#F4F7FA" d="M1016.321 480.123C990.098 308.484 882.587 97.616 670.185 75.547c0 0-161.266-19.615-320.237 10.114-94.351 17.645-177.081 70.168-229.431 145.656-52.35 75.489-69.835 167.537-48.612 255.294C85.687 543.61 95.001 602.6 92.444 661.168c-3.223 73.866-9.294 151.53 23.359 220.412 47.844 100.922 164.581 130.65 266.441 140.131 37.535 3.494 75.211 4.902 112.779 7.873 72.073 5.698 152.897-3.523 222.361-22.287 354.004-95.626 325.16-355.536 298.937-527.174z"/><g style="animation:setting 1s linear alternate infinite"><path fill="#BFC8D6" d="M445.863 372.813v17.325c0 6.514 5.113 11.858 11.44 11.938l24.543.306a171.94 171.94 0 0 0 12.222 44.322l-21.983 12.438c-5.522 3.125-7.411 10.32-4.228 16.091l8.491 15.391c3.203 5.804 10.315 8.021 15.896 4.933l22.733-12.58a179.24 179.24 0 0 0 32.302 33.178l-13.63 23.223c-3.293 5.609-1.34 13.084 4.373 16.71l15.276 9.693c5.775 3.665 13.185 2.076 16.54-3.567l14.041-23.619a180.777 180.777 0 0 0 45.065 13.935v28.665c0 6.827 5.616 12.698 12.564 13.113l18.6 1.112c7.039.422 12.763-4.832 12.763-11.734v-28.98A179.508 179.508 0 0 0 720 544.935l15.134 25.997c3.648 6.267 11.752 8.791 18.112 5.62l17.009-8.483c6.432-3.207 8.641-10.939 4.92-17.25l-15.26-25.884a176.483 176.483 0 0 0 36.523-32.646l26.468 15.35c6.598 3.825 15.063 2.012 18.896-4.075l10.229-16.238c3.859-6.126 1.567-14.181-5.105-17.967l-26.168-14.852a170.32 170.32 0 0 0 14.473-47.726l29.648.369c7.771.097 14.094-5.705 14.094-12.958V374.9c0-7.253-6.323-13.146-14.094-13.158L836 361.688a171.945 171.945 0 0 0-13.147-49.088l24.076-13.323c6.673-3.693 8.965-11.714 5.105-17.896l-10.229-16.384c-3.834-6.14-12.299-8.074-18.896-4.342l-23.268 13.164a179.621 179.621 0 0 0-37.328-35.382l12.864-21.641c3.721-6.257 1.512-14.02-4.92-17.318l-17.01-8.725c-6.359-3.261-14.463-.851-18.111 5.365l-12.415 21.151a180.938 180.938 0 0 0-49.848-11.392v-23.396c0-6.901-5.724-12.235-12.763-11.914l-18.6.849c-6.948.316-12.564 6.107-12.564 12.935v23.142a178.775 178.775 0 0 0-47.603 14.517l-11.504-19.516c-3.355-5.69-10.765-7.384-16.54-3.801l-15.276 9.479c-5.713 3.545-7.666 10.989-4.373 16.646l11.478 19.717a175.67 175.67 0 0 0-32.928 34.843l-19.955-11.325c-5.581-3.168-12.693-1.053-15.896 4.708l-8.491 15.27c-3.184 5.725-1.295 12.948 4.228 16.151l20.208 11.718a170.276 170.276 0 0 0-11.09 45.179l-23.899-.041c-6.328-.011-11.442 5.261-11.442 11.775zm82.91 6.557c0-66.139 53.701-121.063 122.017-122.725 70.719-1.72 129.899 53.922 129.899 124.334 0 70.414-59.181 125.3-129.899 122.675-68.315-2.535-122.017-58.143-122.017-124.284z"/><path fill="#BFC8D6" d="m729.921 189.849 17.022-.586 5.87 15.26zM561.134 196.893l-19.628.195v14.479zM486.33 266.733l-19.565.79 4.891 10.957zM455.612 361.242l-19.76 1.566 6.456 9.588zM488.483 496.832l-19.175 2.738-2.348-15.651zM561.854 567.463l-17.219 3.131-1.368-12.718zM647.941 597.984l15.457-2.739-13.304-19.76zM731.682 581.354l18-3.716-13.891-16.827zM832.835 258.915l-18.782.588 7.434 13.695zM870.205 406.243l-17.218 2.544 1.37-14.088zM833.228 509.354l-16.828 2.739-1.369-11.153z"/><path fill="#EAEDF3" d="M426.461 374.462v17.465c0 6.568 5.154 11.956 11.533 12.036l24.747.308a173.318 173.318 0 0 0 12.323 44.684l-22.166 12.538c-5.568 3.151-7.473 10.405-4.262 16.222l8.561 15.517c3.229 5.853 10.401 8.086 16.027 4.973l22.922-12.683a180.86 180.86 0 0 0 32.57 33.449l-13.743 23.41c-3.32 5.657-1.351 13.19 4.41 16.846L534.786 569c5.822 3.695 13.294 2.094 16.676-3.596l14.158-23.812a182.259 182.259 0 0 0 45.438 14.048v28.899c0 6.883 5.663 12.801 12.67 13.22l18.754 1.12c7.096.425 12.869-4.871 12.869-11.83v-29.216a181.084 181.084 0 0 0 47.518-9.851l15.26 26.208c3.679 6.318 11.85 8.864 18.262 5.667l17.15-8.552c6.485-3.234 8.711-11.028 4.961-17.391l-15.387-26.096a177.934 177.934 0 0 0 36.826-32.912l26.688 15.475c6.651 3.857 15.188 2.028 19.053-4.108l10.314-16.37c3.892-6.177 1.58-14.297-5.146-18.113l-26.387-14.974a171.637 171.637 0 0 0 14.593-48.113l29.894.372c7.837.098 14.211-5.752 14.211-13.064v-19.449c0-7.313-6.374-13.251-14.211-13.266l-29.12-.05a173.323 173.323 0 0 0-13.257-49.488l24.277-13.432c6.727-3.723 9.038-11.81 5.146-18.041l-10.314-16.517c-3.865-6.19-12.401-8.142-19.053-4.379l-23.462 13.272a181.055 181.055 0 0 0-37.637-35.67l12.972-21.816c3.75-6.309 1.524-14.136-4.961-17.461l-17.15-8.795c-6.412-3.287-14.583-.858-18.262 5.408l-12.518 21.324a182.422 182.422 0 0 0-50.26-11.484V182.58c0-6.958-5.773-12.336-12.869-12.011l-18.754.855c-7.007.318-12.67 6.156-12.67 13.04v23.33a180.37 180.37 0 0 0-47.997 14.634l-11.6-19.674c-3.382-5.736-10.854-7.444-16.676-3.832l-15.403 9.557c-5.761 3.573-7.73 11.08-4.41 16.782l11.573 19.877a177.054 177.054 0 0 0-33.2 35.128l-20.122-11.419c-5.626-3.193-12.798-1.061-16.027 4.746l-8.561 15.395c-3.211 5.771-1.307 13.054 4.262 16.282l20.374 11.813a171.74 171.74 0 0 0-11.181 45.547l-24.098-.041c-6.377-.01-11.531 5.305-11.531 11.873zm83.596 6.609c0-66.678 54.146-122.049 123.028-123.724 71.304-1.735 130.976 54.36 130.976 125.347s-59.672 126.318-130.976 123.675c-68.882-2.556-123.028-58.619-123.028-125.298z"/></g><linearGradient id="SVGID_1_" gradientUnits="userSpaceOnUse" x1="92.742" y1="545.634" x2="-55.074" y2="561.759" gradientTransform="translate(312.712)"><stop offset="0" style="stop-color:#444b8c"/><stop offset=".996" style="stop-color:#26264f"/></linearGradient><path fill="url(#SVGID_1_)" d="m581.954 173.219 90.052 748.492c1.35 11.223-6.385 21.283-17.221 22.358l-375.076 41.178c-22.978 1.429-35.558-10.311-36.976-22.244l-94.545-795.771c-1.409-11.867 9.863-22.615 32.938-22.615l378.489 7.972c10.957.182 20.995 9.466 22.339 20.63z"/><linearGradient id="SVGID_2_" gradientUnits="userSpaceOnUse" x1="222.982" y1="173.035" x2="-142.523" y2="1417.367" gradientTransform="translate(312.712)"><stop offset="0" style="stop-color:#444b8c"/><stop offset=".996" style="stop-color:#26264f"/></linearGradient><path fill="url(#SVGID_2_)" d="m598.835 171.931 90.546 752.235c1.357 11.279-6.402 21.392-17.278 22.475l-388.85 38.715c-12.191 1.213-23.363-7.605-24.79-19.602L163.389 165.87c-1.417-11.929 7.536-21.517 19.861-21.31l393.159 6.634c10.998.186 21.075 9.517 22.426 20.737z"/><path fill="#D8DEE8" d="m591.456 213.423 83.925 697.473c1.269 10.537-6 19.968-16.181 20.957l-365.698 35.549c-11.334 1.101-21.72-7.131-23.047-18.296l-87.864-738.908c-1.32-11.107 6.993-20.095 18.441-19.973l369.452 3.934c10.287.11 19.711 8.777 20.972 19.264z"/><linearGradient id="SVGID_3_" gradientUnits="userSpaceOnUse" x1="86.019" y1="142.386" x2="-343.561" y2="1305.832" gradientTransform="translate(312.712)"><stop offset="0" style="stop-color:#ffc444"/><stop offset=".996" style="stop-color:#f36f56"/></linearGradient><path fill="url(#SVGID_3_)" d="M395.349 171.414c.479 4.004-2.395 7.209-6.423 7.159-4.033-.052-7.695-3.346-8.175-7.358s2.405-7.218 6.438-7.158c4.03.058 7.681 3.352 8.16 7.357z"/><path fill="#FFF" d="M528.231 681.61c-74.868-138.418-186.707-179.85-220.38-322.506-18.2-77.11-5.799-150.916 15.087-212.187L183.25 144.56c-12.325-.207-21.278 9.381-19.861 21.31l95.074 799.884c1.426 11.996 12.599 20.814 24.79 19.602l305.674-30.434c2.26-124.027-27.324-211.611-60.696-273.312z"/><path fill="#BFC8D6" d="M321.255 316.098c3.015 26.517-13.635 48.568-37.333 49.218-23.853.654-45.723-20.599-48.699-47.432-2.973-26.788 14.042-48.744 37.857-49.082 23.661-.333 45.165 20.824 48.175 47.296zM579.58 310.736c3.116 25.562-12.104 46.801-34.125 47.404-22.162.608-42.736-19.888-45.823-45.744-3.083-25.814 12.467-46.965 34.598-47.277 21.993-.309 42.239 20.097 45.35 45.617zM428.461 265.422l-45.251.632c-8.91.123-15.202 8.444-14.031 18.59l6.138 53.216c1.174 10.187 9.378 18.256 18.3 18.02l45.313-1.202c8.788-.234 14.934-8.595 13.746-18.671l-6.2-52.639c-1.183-10.036-9.24-18.068-18.015-17.946zM471.057 468.466c3.1 26.287-12.833 48.544-35.725 49.678-23.039 1.141-44.315-19.524-47.382-46.124-3.061-26.556 13.223-48.726 36.228-49.554 22.858-.824 43.785 19.756 46.879 46zM598.149 463.031c3.147 25.81-12.086 47.645-34.156 48.737-22.211 1.1-42.852-19.201-45.97-45.313-3.11-26.066 12.454-47.818 34.635-48.617 22.041-.793 42.35 19.426 45.491 45.193zM314.206 425.199l-47.075 1.688c-9.271.332-15.866 9.061-14.706 19.502l6.082 54.774c1.165 10.484 9.653 18.621 18.939 18.17l47.146-2.291c9.141-.446 15.579-9.214 14.401-19.581l-6.153-54.163c-1.173-10.326-9.507-18.426-18.634-18.099zM357.366 633.703c3.076 27.054-13.62 50.4-37.439 52.116-23.977 1.726-45.999-19.102-49.037-46.486-3.033-27.339 14.034-50.604 37.975-51.998 23.781-1.385 45.43 19.359 48.501 46.368zM465.011 577.021l-45.468 2.64c-8.953.521-15.262 9.327-14.067 19.677l6.261 54.29c1.199 10.391 9.456 18.302 18.423 17.665l45.529-3.234c8.829-.627 14.989-9.471 13.778-19.747l-6.324-53.688c-1.205-10.237-9.316-18.114-18.132-17.603zM592.971 569.59l-43.833 2.545c-8.629.502-14.659 9.139-13.445 19.296l6.366 53.284c1.219 10.198 9.228 17.972 17.869 17.357l43.888-3.118c8.512-.604 14.399-9.276 13.171-19.364l-6.423-52.705c-1.224-10.047-9.092-17.788-17.593-17.295zM508.172 783.294c3.162 26.814-12.807 50.341-35.806 52.521-23.15 2.194-44.568-18.052-47.696-45.189-3.122-27.094 13.2-50.547 36.317-52.415 22.966-1.857 44.03 18.314 47.185 45.083zM350.47 745.885l-47.318 3.815c-9.319.752-15.934 9.997-14.75 20.653l6.208 55.903c1.188 10.701 9.737 18.671 19.07 17.795l47.389-4.446c9.187-.862 15.644-10.142 14.441-20.719l-6.278-55.269c-1.198-10.535-9.588-18.472-18.762-17.732zM611.808 724.809l-43.929 3.543c-8.649.697-14.684 9.574-13.459 19.834l6.43 53.812c1.23 10.299 9.265 17.994 17.926 17.181l43.984-4.127c8.53-.8 14.423-9.711 13.183-19.896l-6.484-53.222c-1.238-10.148-9.132-17.813-17.651-17.125z"/><linearGradient id="SVGID_4_" gradientUnits="userSpaceOnUse" x1="381.815" y1="541.571" x2="715.194" y2="188.312"><stop offset="0" style="stop-color:#444b8c"/><stop offset=".996" style="stop-color:#26264f"/></linearGradient><path fill="url(#SVGID_4_)" d="M558.037 291.427h-238.75c-4.576 0-8.986.784-13.179 1.721-.129.028-.254.214-.383.242.039-.262.078-.452.119-.729-26.994 5.968-45.111 30.099-42.146 58.863l.074.736 25.069 243.163.072.719c3.421 33.171 33.759 58.507 67.441 56.621l236.929-13.262c10.42-.584 19.854-4.004 27.66-9.49 15.39-10.787 24.486-29.578 22.379-50.415l-23.321-230.898c-3.179-31.46-30.795-57.271-61.964-57.271z"/><linearGradient id="SVGID_5_" gradientUnits="userSpaceOnUse" x1="563.525" y1="170.451" x2="318.105" y2="941.774"><stop offset=".004" style="stop-color:#e38ddd"/><stop offset="1" style="stop-color:#9571f6"/></linearGradient><path fill="#68bdff" d="m635.161 348.558 23.245 230.185c2.1 20.786-6.529 39.582-21.841 50.34-7.766 5.472-16.728 8.896-27.093 9.477l-235.671 13.21c-33.5 1.876-64.611-23.335-68.021-56.42l-25.054-243.231c-2.956-28.692 15.723-53.021 42.569-58.977 4.17-.935 9.021-1.715 13.57-1.715h237.48c31.009 0 57.645 25.749 60.816 57.131z"/><linearGradient id="SVGID_6_" gradientUnits="userSpaceOnUse" x1="280.342" y1="471.667" x2="636.54" y2="471.667"><stop offset=".004" style="stop-color:#e38ddd"/><stop offset="1" style="stop-color:#9571f6"/></linearGradient><path opacity=".3" fill="#92cfff" d="M636.541 628.184c-7.765 5.471-17.189 8.588-27.556 9.166l-235.7 13.146c-33.504 1.869-64.17-22.745-67.577-55.828L280.652 351.42c-2.955-28.689 15.532-52.729 42.381-58.681-.354 2.451-.445 4.288-.514 5.233-1.388 19.398 2.086 39.887 12.63 57.743 20.562 34.837 57.854 43.402 92.195 55.88 36.718 13.327 75.932 43.206 88.865 80.705 5.64 16.35 5.834 33.714 9.935 50.312 12.297 49.842 46.282 90.634 99.604 86.866 3.506-.252 7.122-.774 10.793-1.294z"/><g style="animation:manStand 1s linear alternate infinite"><linearGradient id="SVGID_7_" gradientUnits="userSpaceOnUse" x1="4711.158" y1="4368.701" x2="4738.917" y2="4368.701" gradientTransform="scale(-1 1) rotate(-64.411 -392.482 6521.97)"><stop offset="0" style="stop-color:#444b8c"/><stop offset=".996" style="stop-color:#26264f"/></linearGradient><path fill="url(#SVGID_7_)" d="M125.027 963.121c-1.743-.888-4.673.107-6.588.758-.855.29-1.283.436-1.532.657-1.822 1.609-.221 5.817 1.98 12.554 3.479 10.643 4.022 14.029 5.892 14.153 1.751.117 3.274-2.723 3.439-3.04.894-1.705.799-3.271.501-6.246-.551-5.505-1.126-9.135-1.3-10.234-1.085-6.866-1.247-8.019-2.392-8.602z"/><linearGradient id="SVGID_8_" gradientUnits="userSpaceOnUse" x1="5323.313" y1="3886.863" x2="5335.49" y2="3861.659" gradientTransform="scale(-1 1) rotate(-59.031 27.735 7241.116)"><stop offset="0" style="stop-color:#ffc444"/><stop offset=".996" style="stop-color:#f36f56"/></linearGradient><path fill="url(#SVGID_8_)" d="m137.018 965.047-11.151 6.17c-.688-.041-3.899-2.744-3.675-6.124l10.244-7.679 4.582 7.633z"/><linearGradient id="SVGID_9_" gradientUnits="userSpaceOnUse" x1="-3441.486" y1="882.464" x2="-3537.171" y2="861.052" gradientTransform="translate(3736.165)"><stop offset="0" style="stop-color:#444b8c"/><stop offset=".996" style="stop-color:#26264f"/></linearGradient><path fill="url(#SVGID_9_)" d="M252.263 750.01a305.485 305.485 0 0 1 9.684 61.213c1.168 21.181.219 44.565-2.334 57.279-12.794 63.707-113.669 97.179-125.56 100.979l-7.486-10.054c12.563-9.34 73.935-56.381 74.546-108.767.098-8.435-1.267-26.648-4.805-46.103a306.765 306.765 0 0 0-13.323-49.409c23.093-1.711 46.185-3.425 69.278-5.138z"/><linearGradient id="SVGID_10_" gradientUnits="userSpaceOnUse" x1="-3494.2" y1="635.643" x2="-3470.095" y2="609.634" gradientTransform="translate(3736.165)"><stop offset="0" style="stop-color:#ffc444"/><stop offset=".996" style="stop-color:#f36f56"/></linearGradient><path fill="#fba34b" d="m239.496 567.681 8.996 1.8s47.229 60.273 40.482 83.213c-6.747 22.94-40.482 5.398-40.482 5.398l-8.996-90.411z"/><linearGradient id="SVGID_11_" gradientUnits="userSpaceOnUse" x1="2934.627" y1="908.396" x2="2962.385" y2="908.396" gradientTransform="scale(-1 1) rotate(1.656 -1891.005 -107691.57)"><stop offset="0" style="stop-color:#444b8c"/><stop offset=".996" style="stop-color:#26264f"/></linearGradient><path fill="url(#SVGID_11_)" d="M180.221 996.835c-1.518 1.233-1.796 4.315-1.979 6.329-.082.899-.122 1.35-.021 1.667.732 2.318 5.229 2.563 12.278 3.282 11.14 1.139 14.456 2.016 15.327.358.817-1.555-1.159-4.098-1.383-4.379-1.197-1.508-2.666-2.057-5.506-2.99-5.257-1.731-8.808-2.678-9.883-2.964-6.715-1.792-7.835-2.114-8.833-1.303z"/><linearGradient id="SVGID_12_" gradientUnits="userSpaceOnUse" x1="3231.108" y1="609.111" x2="3243.287" y2="583.905" gradientTransform="scale(-1 1) rotate(7.036 -1681.82 -27016.803)"><stop offset="0" style="stop-color:#ffc444"/><stop offset=".996" style="stop-color:#f36f56"/></linearGradient><path fill="url(#SVGID_12_)" d="m186.846 986.658 1.116 12.694c-.318.613-4.09 2.451-7.088.874l-2.865-12.478 8.837-1.09z"/><linearGradient id="SVGID_13_" gradientUnits="userSpaceOnUse" x1="-3831.471" y1="568.398" x2="-3910.126" y2="391.091" gradientTransform="rotate(-7.036 1354.228 -32412.78)"><stop offset="0" style="stop-color:#444b8c"/><stop offset=".996" style="stop-color:#26264f"/></linearGradient><path fill="url(#SVGID_13_)" d="M200.434 720.265a7081.302 7081.302 0 0 0-6.803 154.763 7067.817 7067.817 0 0 0-2.894 116.703l-13.93 1.719c-4.487-8.354-10.445-21.124-14.528-37.492-4.957-19.88-3.809-31.687-5.984-52.291-2.438-23.108-5.981-28.145-12.261-57.296-12.74-59.162-19.111-88.744-4.898-107.146 4.613-5.974 19.077-20.959 61.298-18.96z"/><linearGradient id="SVGID_14_" gradientUnits="userSpaceOnUse" x1="-3598.804" y1="739.238" x2="-3507.643" y2="640.881" gradientTransform="translate(3736.165)"><stop offset="0" style="stop-color:#ffc444"/><stop offset=".996" style="stop-color:#f36f56"/></linearGradient><path fill="#ffe474" d="M136.132 569.231a238.884 238.884 0 0 1 51.169-8.545c31.784-1.797 47.683-2.592 57.013 4.714 28.938 22.661 1.515 103.659 11.825 146.218 8.677 35.811 8.996 36.435 8.996 36.435 2.051 4.003 5.375 9.566 4.048 16.192-1.043 5.213-4.986 11.201-10.346 13.045-11.135 3.831-17.518-13.974-35.983-19.341-19.303-5.612-40.898 5.535-68.205 19.632-17.379 8.972-23.313 14.693-29.402 11.854-11.726-5.467-8.506-35.441-7.197-47.679 5.2-48.632 11.053-105.57 18.082-172.525z"/><linearGradient id="SVGID_15_" gradientUnits="userSpaceOnUse" x1="-3521.307" y1="651.561" x2="-3485.968" y2="651.561" gradientTransform="translate(3736.165)"><stop offset="0" style="stop-color:#ffc444"/><stop offset=".996" style="stop-color:#f36f56"/></linearGradient><path fill="url(#SVGID_15_)" d="M215.882 651.795c-.841-.188-2.338-5.778 1.349-7.422 16.644-7.422 29.521 7.271 31.244 11.794l1.723 4.521s-8.265.645-13.391-1.077c-5.126-1.722-14.091-6.293-20.925-7.816z"/><linearGradient id="SVGID_16_" gradientUnits="userSpaceOnUse" x1="-1878.195" y1="2674.638" x2="-1887.918" y2="2660.831" gradientTransform="scale(1 -1) rotate(76.756 1279.483 2356.697)"><stop offset="0" style="stop-color:#444b8c"/><stop offset=".996" style="stop-color:#26264f"/></linearGradient><path fill="url(#SVGID_16_)" d="m261.354 672.84-29.281 1.478c-1.121.057-2.462-1.333-2.186-2.277l13.678-44.262c.216-.736.965-1.228 1.798-1.181l28.08.615c.916.054 1.417 1.856 1.168 2.747l-11.634 41.619c-.193.686-.884 1.224-1.623 1.261z"/><linearGradient id="SVGID_17_" gradientUnits="userSpaceOnUse" x1="-1897.001" y1="2699.86" x2="-1873.849" y2="2652.834" gradientTransform="scale(1 -1) rotate(76.756 1279.483 2356.697)"><stop offset="0" style="stop-color:#311944"/><stop offset="1" style="stop-color:#893976"/></linearGradient><path fill="url(#SVGID_17_)" d="m260.823 671.896-29.44 1.382c-1.129.053-1.907-.755-1.632-1.701l13.151-45.026c.217-.738.969-1.229 1.808-1.179l28.12 1.662c.92.055 1.54.939 1.289 1.834l-11.666 41.768c-.19.688-.887 1.226-1.63 1.26z"/><linearGradient id="SVGID_18_" gradientUnits="userSpaceOnUse" x1="-1910.107" y1="2668.859" x2="-1859.615" y2="2668.859" gradientTransform="scale(1 -1) rotate(76.756 1279.483 2356.697)"><stop offset="0" style="stop-color:#311944"/><stop offset="1" style="stop-color:#893976"/></linearGradient><path opacity=".3" fill="url(#SVGID_18_)" d="M245.96 645.05c.871 4.095 4.555 3.212 7.56 8.169 3.814 6.292.158 11.848 3.654 14.152 1.067.703 2.871 1.126 6.114.276l-.835 2.988c-.19.688-.887 1.227-1.63 1.261l-29.44 1.382c-1.129.053-1.907-.755-1.632-1.701l13.151-45.026c.217-.738.969-1.229 1.808-1.179l4.225.249c.496 1.548.852 3.333.813 5.312-.134 6.79-4.81 9.32-3.788 14.117z"/><linearGradient id="SVGID_19_" gradientUnits="userSpaceOnUse" x1="-3480.939" y1="632.851" x2="-3454.419" y2="666.468" gradientTransform="translate(3736.165)"><stop offset="0" style="stop-color:#ffc444"/><stop offset=".996" style="stop-color:#f36f56"/></linearGradient><path fill="url(#SVGID_19_)" d="M274.24 641.743c.164-.708-.186-1.437-.712-1.475-2.143-.154-7.111-.217-9.855 2.159-3.563 3.087-8.172 8.722-4.29 11.564l3.623 2.655c.166.122.348.16.53.103 1.287-.399 6.706-2.101 7.3-2.522.539-.383 2.605-9.056 3.404-12.484z"/><linearGradient id="SVGID_20_" gradientUnits="userSpaceOnUse" x1="-3592.761" y1="744.839" x2="-3501.6" y2="646.482" gradientTransform="translate(3736.165)"><stop offset="0" style="stop-color:#ffc444"/><stop offset=".996" style="stop-color:#f36f56"/></linearGradient><path opacity=".3" fill="url(#SVGID_20_)" d="M249.841 760.197c-3.14-5.443-3.008-13.664-9.895-17.542-4.016-2.262-7.146-1.204-12.595-1.35-16.242-.433-19.352-10.651-30.587-11.244-17.401-.921-25.76 22.751-35.534 19.341-6.382-2.227-10.49-14.989-7.197-24.74 4.591-13.591 20.323-11.729 40.932-30.136 8.816-7.875 21.466-22.086 17.993-28.338-3.649-6.568-20.959 3.069-33.736-6.748-7.455-5.728-6.503-12.806-12.595-25.638-3.3-6.954-15.385-25.033-33.36-37.223-5.778 55.269-10.741 103.31-15.218 145.176-1.309 12.237-4.528 42.212 7.197 47.679 6.089 2.84 12.023-2.882 29.402-11.854 27.307-14.097 48.902-25.244 68.205-19.632 18.466 5.367 24.849 23.172 35.983 19.341 3.479-1.197 6.344-4.146 8.224-7.49-9.931-1.785-14.852-5.501-17.219-9.602z"/><linearGradient id="SVGID_21_" gradientUnits="userSpaceOnUse" x1="-2877.805" y1="1607.491" x2="-2874.602" y2="1522.174" gradientTransform="rotate(23.504 1077.443 8440.728)"><stop offset="0" style="stop-color:#ffc444"/><stop offset=".996" style="stop-color:#f36f56"/></linearGradient><path fill="url(#SVGID_21_)" d="M192.234 537.311c.021 2.417 2.595 13.472-5.51 19.339-8.178 5.923-15.773 5.836-18.84 6.597-7.107 1.761-8.021 1.714-8.178 2.419-.766 3.441 18.615 15.168 38.639 12.342 12.256-1.729 23.405-8.721 22.721-12.393-.688-3.695-12.931-1.714-16.578-8.396-2.538-4.651.307-11.253 3.67-16.72-3.258-6.103-12.667 2.914-15.924-3.188z"/><linearGradient id="SVGID_22_" gradientUnits="userSpaceOnUse" x1="1441.973" y1="145.796" x2="1418.788" y2="86.911" gradientTransform="scale(-1 1) rotate(.848 -28463.942 -109312.492)"><stop offset="0" style="stop-color:#311944"/><stop offset="1" style="stop-color:#6b3976"/></linearGradient><path fill="url(#SVGID_22_)" d="M214.882 533.309c2.849-3.873 2.953-10.582-.427-14.784-2.907-3.616-7.426-4.086-10.131-4.369-7.84-.816-17.682 2.562-21.036 9.805-1.988 4.292 2.514 13.115 3.222 14.702.801 1.795 2.223 2.398 3.548 3.747 1.836 1.871 4.711 4.847 9.405 9.825a32.187 32.187 0 0 1 1.721-5.332c.326-.771 1.639-3.778 3.647-6.283 4.024-5.022 7.349-3.64 10.051-7.311z"/><linearGradient id="SVGID_23_" gradientUnits="userSpaceOnUse" x1="-2871.735" y1="-33.578" x2="-2872.801" y2="52.315" gradientTransform="matrix(.9972 -.076 .076 .9972 3067.218 348.87)"><stop offset="0" style="stop-color:#ffc444"/><stop offset=".996" style="stop-color:#f36f56"/></linearGradient><path fill="url(#SVGID_23_)" d="M192.8 548.078s5.24 8.386 15.479 7.605c9.168-.698 10.283-21.288 4.374-25.589-1.971-1.435-5.893-1.996-9.066-1.068-1.873.548-2.503 1.337-5.583 2.171-2.842.771-3.648.465-4.501 1.197-1.066.918-1.829 3.146.034 9.142-1.771-1.753-3.879-2.409-5.36-1.69-.235.114-.861.55-1.208 1.204-1.257 2.364.923 5.341 5.831 7.028z"/><linearGradient id="SVGID_24_" gradientUnits="userSpaceOnUse" x1="1434.89" y1="148.614" x2="1411.681" y2="89.668" gradientTransform="scale(-1 1) rotate(.848 -28463.942 -109312.492)"><stop offset="0" style="stop-color:#311944"/><stop offset="1" style="stop-color:#6b3976"/></linearGradient><path fill="url(#SVGID_24_)" d="M193.074 531.168c.445.326-.888 1.991-.962 4.329-.146 4.538 4.504 9.931 9.191 10.34 2.772.241 3.515-1.435 8.086-1.97 2.829-.33 5.193.004 6.681.312 1.493 4.957.195 9.932-3.104 12.269-3.551 2.519-8.14 1.065-10.058.458-1.284-.406-5.396-1.698-7.58-5.433-2.275-3.891-.111-6.275-2.7-8.896-1.307-1.322-3.009-1.881-4.688-4.45a12.925 12.925 0 0 1-.951-1.731c2.34-2.536 5.439-5.698 6.085-5.228z"/><linearGradient id="SVGID_25_" gradientUnits="userSpaceOnUse" x1="-3585.447" y1="688.073" x2="-3572.252" y2="575.322" gradientTransform="translate(3736.165)"><stop offset="0" style="stop-color:#ffc444"/><stop offset=".996" style="stop-color:#f36f56"/></linearGradient><path fill="#fba34b" d="M160.781 582.974c-4.854-7.36-14.511-14.583-23.392-13.943-25.934 1.873-57.903 71.735-35.984 99.407 16.733 21.123 68.424 22.148 115.601-14.394v-12.145c-23.215 4.06-42.46 6.755-56.676 8.546-8.866 1.116-17.697 2.122-19.341-1.35-2.488-5.254 15.27-12.77 22.04-32.386.933-2.703 6.869-19.903-2.248-33.735z"/></g><linearGradient id="SVGID_26_" gradientUnits="userSpaceOnUse" x1="568.655" y1="870.094" x2="689.291" y2="870.094"><stop offset="0" style="stop-color:#ff9085"/><stop offset="1" style="stop-color:#fb6fbb"/></linearGradient><path fill="url(#SVGID_26_)" d="m633.786 982.06-.252.041c-13.633 2.176-30.72.655-41.762-8.419-5.817-4.78-9.759-11.086-10.968-18.553-.718-4.43-1.108-9.104-.414-13.56.726-4.665 2.528-9.17 4.851-13.263 1.298-2.284 2.776-4.49 4.346-6.597 4.497-6.033 15.12-14.51 10.194-23.063-2.978-5.169-9.842-8.353-14.376-11.979-9.69-7.749-16.651-18.924-16.749-31.684-.077-10.023 6.208-19.945 13.299-26.686 28.854-27.424 7.596-74.589 48.463-70.885 40.865 3.704 49.732 44.487 34.426 82.565-5.124 12.748-11.361 25.779-14.841 39.103-2.74 10.488 1.133 17.742 9.674 23.939 4.596 3.335 11.312 5.607 15.305 9.536 8.916 8.776 16.061 21.076 13.931 33.951-2.11 12.771-12.997 22.151-24.469 27.004-9.923 4.197-20.048 6.85-30.658 8.55z"/><path fill="#FFF" d="M628.974 971.104a.842.842 0 0 1-.789-1.129c.172-.473 17.106-47.751 2.279-85.641-15.068-38.507 1.788-79.731 1.96-80.143a.84.84 0 1 1 1.55.648c-.169.405-16.761 41.021-1.944 78.884 15.061 38.487-2.092 86.35-2.268 86.828a.84.84 0 0 1-.788.553z" opacity=".8"/><linearGradient id="SVGID_27_" gradientUnits="userSpaceOnUse" x1="462.136" y1="839.808" x2="654.443" y2="839.808"><stop offset="0" style="stop-color:#ffc444"/><stop offset=".996" style="stop-color:#f36f56"/></linearGradient><path fill="#69d1fd" d="M642.403 911.047c-3.421-5.415-7.337-10.51-11.423-15.117-13.809-15.568-23.501-32.097-29.704-52.037-4.884-15.707-4.779-33.665-7.811-49.884-2.197-11.753-6.176-23.126-10.312-34.315-8.804-23.824-22.019-51.466-44.2-65.773-10.27-6.624-25.497-7.276-36.824-2.531-14.674 6.147-27.648 18.125-28.589 34.779-1.295 22.903 18.71 48.577 2.166 69.638-25.333 32.248-13.49 68.074 21.336 85.61 11.351 5.715 24.65 11.012 34.133 19.788 9.512 8.803 3.843 23.822 2.785 34.972-.99 10.463-2.084 22.62 4.583 31.564 11.25 15.093 38.415 21.67 56.072 23.162 17.086 1.442 36.499-.444 48.466-14.124 18.035-20.614 12.148-45.429-.678-65.732z"/><path fill="#FFF" d="M614.597 976.702a.84.84 0 0 1-.786-.542c-.554-1.467-55.803-147.268-87.326-206.023a.84.84 0 1 1 1.48-.794c31.576 58.852 86.863 204.756 87.417 206.222a.837.837 0 0 1-.785 1.137z" opacity=".8"/><linearGradient id="SVGID_28_" gradientUnits="userSpaceOnUse" x1="435.121" y1="940.584" x2="628.035" y2="940.584"><stop offset="0" style="stop-color:#ff9085"/><stop offset="1" style="stop-color:#fb6fbb"/></linearGradient><path fill="#74c3ff" d="M590.717 997.325c3.678-.521 7.342-1.124 10.991-1.71 10.202-1.637 22.838-4.813 26.046-16.196.914-3.243-.659-9.029-1.037-12.398-.386-3.433-.876-6.863-1.674-10.227-1.103-4.647-2.87-9.016-5.164-13.198-3.973-7.246-8.514-12.699-16.969-14.34-6.164-1.196-12.994-1.476-19.26-1.271-34.157 1.121-38.357-11.198-57.116-37.517s-142.229 16.238-67.755 62.995c0 0 11.199 7.279 52.075 2.521 7.477-.871 16.933-1.45 23.271 3.387 11.181 8.529-.062 26.604 11.228 33.696 6.582 4.136 17.161 5.351 24.723 5.641 6.908.267 13.796-.413 20.641-1.383z"/><path fill="#FFF" d="M613.516 983.235a.84.84 0 0 1-.681-.347c-.216-.297-21.838-29.693-52.516-36.632-12-2.714-22.371-8.788-32.401-14.662-16.913-9.903-32.888-19.26-56.465-14.452a.84.84 0 1 1-.336-1.645c24.206-4.937 41.208 5.021 57.649 14.648 9.92 5.81 20.177 11.816 31.923 14.474 31.306 7.081 53.287 36.981 53.506 37.283a.841.841 0 0 1-.679 1.333z" opacity=".8"/><linearGradient id="SVGID_29_" gradientUnits="userSpaceOnUse" x1="1404.932" y1="525.924" x2="892.365" y2="743.956" gradientTransform="matrix(1 .0219 0 1 0 16.997)"><stop offset=".004" style="stop-color:#e38ddd"/><stop offset="1" style="stop-color:#9571f6"/></linearGradient><path fill="#74c3ff" d="m795.024 1010.182-191.435-12.22V706.599l191.435 5.506z"/><linearGradient id="SVGID_30_" gradientUnits="userSpaceOnUse" x1="863.396" y1="797.878" x2="1021.57" y2="1058.272" gradientTransform="matrix(1 .0219 0 1 0 16.997)"><stop offset=".004" style="stop-color:#e38ddd"/><stop offset="1" style="stop-color:#9571f6"/></linearGradient><path fill="#69d1fd" d="m962.476 995.927-167.452 14.255V712.105l167.452-3.496z"/><linearGradient id="SVGID_31_" gradientUnits="userSpaceOnUse" x1="710.172" y1="586.062" x2="799.565" y2="735.183"><stop offset=".004" style="stop-color:#e38ddd"/><stop offset="1" style="stop-color:#ac79ef"/><stop offset="1" style="stop-color:#9571f6"/></linearGradient><path fill="#69d1fd" d="m603.589 706.599 182.076-7.89 176.811 9.9-169.447 6.274z"/><g style="animation:womenStand .8s linear alternate infinite"><linearGradient id="SVGID_32_" gradientUnits="userSpaceOnUse" x1="-4837.173" y1="475.554" x2="-4600.261" y2="636.475" gradientTransform="translate(5641.08)"><stop offset="0" style="stop-color:#311944"/><stop offset="1" style="stop-color:#6b3976"/></linearGradient><path fill="url(#SVGID_32_)" d="M816.922 561.15c-4.456-2.891-.396-11.296-.155-29.351.294-22.126-5.582-26.249-.862-34.93 5.771-10.614 20.3-15.008 29.926-15.215 2.123-.046 2.618-1.205 20.404 3.401 32.042 8.299 40.063-.598 54.413 8.288 13.863 8.586 7.793 17.988 21.256 28.058 21.821 16.32 44.769-1.324 60.363 12.327 14.752 12.912 15.091 45.813-.425 63.767-17.589 20.353-49.308 14.237-70.566 10.202-4.473-.849-27.064-5.594-50.587-22.956-13.013-9.604-21.948-19.86-27.633-27.419-1.334-1.501-3.416-3.32-6.164-3.613-3.298-.353-5.949 1.667-7.227 2.551-6.706 4.645-18.364 7.728-22.743 4.89z"/><linearGradient id="SVGID_33_" gradientUnits="userSpaceOnUse" x1="2220.428" y1="554.695" x2="2226.54" y2="652.933" gradientTransform="matrix(-1 0 0 1 3001.365 0)"><stop offset="0" style="stop-color:#ff9085"/><stop offset="1" style="stop-color:#fb6fbb"/></linearGradient><path fill="#fba34b" d="M832.032 535.43c-5.731-5.222-26.181 4.842-39.734 18.196-15.921 15.689-14.697 28.411-28.592 47.902-6.907 9.69-18.75 22.735-39.734 34.163l4.457 11.14c10.145.61 30.063.252 48.646-11.883 12.908-8.429 19.55-19.597 32.306-41.59 12.801-22.073 29.813-51.402 22.651-57.928z"/><linearGradient id="SVGID_34_" gradientUnits="userSpaceOnUse" x1="-4944.748" y1="833.857" x2="-4912.841" y2="833.857" gradientTransform="translate(5641.08)"><stop offset="0" style="stop-color:#311944"/><stop offset="1" style="stop-color:#6b3976"/></linearGradient><path fill="url(#SVGID_34_)" d="m702.873 833.849 15.963-9.593h7.205s2.454 9.136 2.176 9.593c-3.21 5.259-18.155 9.262-27.481 9.593-1.55.055-3.71.063-4.269-1.061-.946-1.901 3.28-5.887 6.406-8.532z"/><linearGradient id="SVGID_35_" gradientUnits="userSpaceOnUse" x1="-4929.7" y1="846.431" x2="-4882.101" y2="703.632" gradientTransform="translate(5641.08)"><stop offset="0" style="stop-color:#ffc444"/><stop offset=".996" style="stop-color:#f36f56"/></linearGradient><path fill="url(#SVGID_35_)" d="M719.119 813.788c1.025 5.938-.272 9.034-1.672 10.77-.984 1.221-1.859 1.568-7.704 6.62-1.933 1.671-2.916 2.566-2.692 3.034.256.535 1.962.245 5.645-.64 8.027-1.931 12.061-2.936 13.045-4.868.893-1.748.104-2.537.155-7.304a24.84 24.84 0 0 1 1.174-7.242l-7.951-.37z"/><linearGradient id="SVGID_36_" gradientUnits="userSpaceOnUse" x1="-4939.669" y1="775.273" x2="-4920.156" y2="775.273" gradientTransform="translate(5641.08)"><stop offset="0" style="stop-color:#311944"/><stop offset="1" style="stop-color:#6b3976"/></linearGradient><path fill="url(#SVGID_36_)" d="M707.578 766.726s-7.212 8.606-6.038 18.041c1.174 9.434 13.805-4.359 15.565-9.021s3.818-11.303 3.818-11.303-8.857-5.51-13.345 2.283z"/><linearGradient id="SVGID_37_" gradientUnits="userSpaceOnUse" x1="-4950.977" y1="828.852" x2="-4919.115" y2="733.265" gradientTransform="translate(5641.08)"><stop offset="0" style="stop-color:#ffc444"/><stop offset=".996" style="stop-color:#f36f56"/></linearGradient><path fill="url(#SVGID_37_)" d="M710.33 753.261s1.957 10.025-1.775 15.317c-1.858 2.636-4.366 4.872-3.629 7.017.495 1.438 2.37 2.471 3.959 2.307 3.043-.312 4.729-4.976 5.919-8.266 1.758-4.859 2.737-15.257 2.737-15.257l-7.211-1.118z"/><linearGradient id="SVGID_38_" gradientUnits="userSpaceOnUse" x1="-4911.717" y1="667.808" x2="-4887.951" y2="805.204" gradientTransform="translate(5641.08)"><stop offset="0" style="stop-color:#ab316d"/><stop offset="1" style="stop-color:#792d3d"/></linearGradient><path fill="url(#SVGID_38_)" d="m716.078 761.713-6.654-2.425c-3.459-7.903-7.684-20.885-6.272-36.664 3.627-40.577 41.157-62.079 45.326-64.381 10.226 5.131 20.583 12.368 20.958 21.493.47 11.454-15.133 17.507-29.8 34.256-8.805 10.052-18.212 25.031-23.558 47.721z"/><linearGradient id="SVGID_39_" gradientUnits="userSpaceOnUse" x1="-4878.154" y1="830.642" x2="-4844.363" y2="723.696" gradientTransform="translate(5641.08)"><stop offset="0" style="stop-color:#ab316d"/><stop offset="1" style="stop-color:#792d3d"/></linearGradient><path fill="url(#SVGID_39_)" d="M718.469 818.43c-7.328-28.628-5.456-51.989-3.341-65.447 3.195-20.342 9.694-61.717 37.318-77.146 6.033-3.369 14.657-6.387 25.167-15.754 8.777-7.821 14.356-16.049 17.723-21.845 36.944-10.837 71.021-6.445 86.058 13.368 1.736 2.29 6.087 7.257 6.929 14.579 1.898 16.521-14.335 36.412-32.551 40.564-23.15 5.28-36.582-18.491-57.094-10.583-5.737 2.212-10.602 7.695-20.329 18.66-12.378 13.948-19.335 26.82-21.966 31.971-7.839 15.335-13.782 26.657-14.649 41.328-.201 3.419-.322 10.324-4.325 17.771-3.073 5.718-7.239 9.529-10.339 11.884-2.868.218-5.735.435-8.601.65z"/><linearGradient id="SVGID_40_" gradientUnits="userSpaceOnUse" x1="-4878.152" y1="830.644" x2="-4844.36" y2="723.698" gradientTransform="translate(5641.08)"><stop offset="0" style="stop-color:#ab316d"/><stop offset="1" style="stop-color:#792d3d"/></linearGradient><path opacity=".3" fill="url(#SVGID_40_)" d="M888.322 666.186c-.842-7.322-5.192-12.289-6.929-14.579-15.037-19.813-49.113-24.205-86.058-13.368-3.366 5.796-8.945 14.023-17.723 21.845-10.51 9.367-19.134 12.385-25.167 15.754-16.868 9.421-25.852 28.516-31.024 46.59 7.675-11.899 14.244-15.063 19.327-15.119 7.277-.081 10.528 6.141 19.217 5.292 9.287-.909 11.41-8.587 18.938-9.47 2.254-.264 5.025.084 8.355 1.856 4.443-4.652 7.756-7.407 11.418-8.819 20.512-7.908 33.943 15.863 57.094 10.583 18.217-4.153 34.451-24.044 32.552-40.565z"/><linearGradient id="SVGID_41_" gradientUnits="userSpaceOnUse" x1="-4830.602" y1="653.942" x2="-4806.892" y2="791.019" gradientTransform="translate(5641.08)"><stop offset="0" style="stop-color:#ab316d"/><stop offset="1" style="stop-color:#792d3d"/></linearGradient><path fill="url(#SVGID_41_)" d="M737.611 688.642a121.607 121.607 0 0 1 18.389.416c36.862 3.643 47.023 21.877 77.491 26.326 7.206 1.053 39.296 5.739 53.193-12.812 9.979-13.317 8.469-36.267-2.445-45.292-4.618-3.819-9.192-3.713-38.772-3.445-11.141.101-22.281.137-33.421.277-47.155.603-56.174-2.664-64.754 5.137-4.002 3.638-9.854 11.453-9.681 29.393z"/><linearGradient id="SVGID_42_" gradientUnits="userSpaceOnUse" x1="-4864.883" y1="568.837" x2="-4654.258" y2="645.967" gradientTransform="translate(5641.08)"><stop offset="0" style="stop-color:#ff9085"/><stop offset="1" style="stop-color:#fb6fbb"/></linearGradient><path fill="#fdc969" d="M837.162 537.344s55.025-16.049 60.733 24.236c5.472 38.611-22.557 56.331-9.805 95.438 1.479 4.534-104.746-16.232-104.746-16.232 14.18-17.689 17.475-32.283 17.813-42.432.371-11.124-2.835-16.18 0-29.332 0 0 3.163-14.673 14.576-27.272 1.639-1.81 3.593-3.693 21.429-4.406z"/><path fill="#F4F7FA" d="M872.507 648.764a.62.62 0 0 1-.163-.022c-.517-.137-51.91-13.813-82.263-15.515a.633.633 0 0 1-.596-.667c.02-.348.274-.61.667-.596 30.483 1.708 82.001 15.419 82.518 15.557a.633.633 0 0 1-.163 1.243z"/><linearGradient id="SVGID_43_" gradientUnits="userSpaceOnUse" x1="3984.427" y1="-137.857" x2="3986.848" y2="-202.353" gradientTransform="scale(-1 1) rotate(10.276 -2336.885 -26659.18)"><stop offset="0" style="stop-color:#ffc444"/><stop offset=".996" style="stop-color:#f36f56"/></linearGradient><path fill="url(#SVGID_43_)" d="M849.112 513.201c-.504 2.354-3.07 14.991 2.101 18.243 1.12.705 3.273 1.108 7.581 1.916 2.82.529 5.186.853 6.855 1.053-.241 2.118-.955 5.567-3.4 8.705-6.855 8.795-20.602 6.52-22.562 6.162-6.915-1.259-13.717-3.396-15.361-4.701-2.502-1.988-4.469-3.479-5.633-4.994 2.677-1.293 8.078-4.703 11.703-5.818a67.226 67.226 0 0 1 7.565-1.856l1.142-7.323c3.336-3.797 6.673-7.592 10.009-11.387z"/><linearGradient id="SVGID_44_" gradientUnits="userSpaceOnUse" x1="3983.243" y1="-193.603" x2="3982.278" y2="-115.828" gradientTransform="scale(-1 1) rotate(10.276 -2336.885 -26659.18)"><stop offset="0" style="stop-color:#ffc444"/><stop offset=".996" style="stop-color:#f36f56"/></linearGradient><path fill="url(#SVGID_44_)" d="M849.264 519.824s-.87 8.625-9.254 10.145c-7.508 1.361-13.159-16.78-9.317-21.473 1.281-1.564 4.445-3.055 7.188-2.976 1.929.057 8.444 2.537 9.354 9.057 1.297-1.367 2.913-1.761 3.712-1.188 1.01.726.469 2.837.346 3.315-.425 1.659-1.508 2.686-2.029 3.12z"/><linearGradient id="SVGID_45_" gradientUnits="userSpaceOnUse" x1="-3361.212" y1="652.15" x2="-3269.159" y2="652.15" gradientTransform="translate(4131.086)"><stop offset="0" style="stop-color:#40447e"/><stop offset=".996" style="stop-color:#3c3b6b"/></linearGradient><path fill="url(#SVGID_45_)" d="m772.129 645.31 84.219 4.099a3.54 3.54 0 0 1 2.831 1.662l2.331 3.741c1.159 1.861-.234 4.262-2.427 4.179l-89.209-3.398 2.255-10.283z"/><linearGradient id="SVGID_46_" gradientUnits="userSpaceOnUse" x1="-3420.08" y1="594.084" x2="-3359.727" y2="653.954" gradientTransform="translate(4131.086)"><stop offset="0" style="stop-color:#40447e"/><stop offset=".996" style="stop-color:#3c3b6b"/></linearGradient><path fill="url(#SVGID_46_)" d="m684.533 598.41 87.009 1.687a7.3 7.3 0 0 1 6.204 3.69l30.13 53.011-91.892-3.661a7.481 7.481 0 0 1-6.12-3.632l-27.915-46.637c-1.188-1.984.271-4.503 2.584-4.458z"/><linearGradient id="SVGID_47_" gradientUnits="userSpaceOnUse" x1="-3420.078" y1="594.086" x2="-3359.726" y2="653.955" gradientTransform="translate(4131.086)"><stop offset="0" style="stop-color:#40447e"/><stop offset=".996" style="stop-color:#3c3b6b"/></linearGradient><path opacity=".3" fill="url(#SVGID_47_)" d="M777.746 603.787a7.298 7.298 0 0 0-6.204-3.69l-1.907-.037c-.284 2.809-1.146 5.378-2.864 7.451-5.366 6.477-14.279 2.482-20.923 9.335-7.299 7.53-.556 16.491-7.081 23.498-6.868 7.374-17.975 1.371-30.74 6.091l1.838 3.07a7.481 7.481 0 0 0 6.12 3.632l91.892 3.661-30.131-53.011z"/><linearGradient id="SVGID_48_" gradientUnits="userSpaceOnUse" x1="2071.439" y1="897.262" x2="2077.073" y2="987.807" gradientTransform="scale(-1 1) rotate(-6.655 -2270.401 26316.168)"><stop offset="0" style="stop-color:#ff9085"/><stop offset="1" style="stop-color:#fb6fbb"/></linearGradient><path fill="#fba34b" d="m849.485 642.495-3.289-8.685c12.116-3.32 28.872-8.229 46.058-14.37 2.692-.962 5.891-2.152 6.938-4.985 2.938-7.945-15.744-16.179-23.007-33.526-6.717-16.045-3.02-38.311 4.775-40.941 16.222-5.475 73.745 66.13 53.201 96.313-11.614 17.063-47.418 19.779-84.676 6.194z"/><linearGradient id="SVGID_49_" gradientUnits="userSpaceOnUse" x1="2173.844" y1="633.999" x2="2143.243" y2="662.836" gradientTransform="matrix(-1 0 0 1 3001.365 0)"><stop offset="0" style="stop-color:#ffc444"/><stop offset=".996" style="stop-color:#f36f56"/></linearGradient><path fill="url(#SVGID_49_)" d="M846.196 633.811c-7.605-4.04-16.71.102-17.296.379-1.671.789-4.104 2.194-6.562 4.704-.277.38-3.576 4.951-2.375 6.416.963 1.174 4.694.2 9.179-2.588a34.786 34.786 0 0 1 8.029-.196c6.156.567 8.977 2.512 11.211.833 1.637-1.229 2.194-3.827 1.605-5.759-.631-2.076-2.503-3.105-3.791-3.789z"/></g><path fill="#FFF" d="M536.184 485.631c-2.939 7.749-4.372 11.22-8.337 18.142-5.553 9.673-13.475 21.812-24.127 22.531-9.481.66-12.311-5.467-25.188-4.576-12.867.841-15.178 7.145-24.683 7.621-10.675.547-19.467-9.418-26.146-18.338-18.682-25.015-22.341-55.445-12.754-72.328 6.784-11.972 18.199-19.455 29.311-20.129 11.321-.685 18.81 5.098 28.161 4.532 9.082-.551 14.229-7.111 27.322-7.904 9.893-.6 20.679 4.157 28.725 13.007-23.651 14.894-17.56 49.587 7.716 57.442zm-47.012-80.245c4.392-6.403 7.487-15.248 5.638-23.955-7.732 1-16.513 6.509-21.428 13.253-4.456 6.148-7.917 15.077-5.857 23.389 8.494-.244 16.961-5.833 21.647-12.687z" style="animation:iosicon .5s linear alternate infinite"/></svg>