<svg version="1.2" baseProfile="tiny-ps" xmlns="http://www.w3.org/2000/svg" width="500" height="500"><style>.s0{fill:#060000}.s2{fill:#03b1eb}.s3{fill:#fff}.s4,.s5{fill:none;stroke:#000;stroke-linecap:round;stroke-linejoin:round;stroke-width:1.3}.s5{stroke:#fff}.s6{fill:#9bd402}</style><g id="OBJECTS"><g id="Layer"><path fill-rule="evenodd" class="s0" d="M342.53 4.71c19.8 0 35.85 16.05 35.85 35.85v418.88c0 19.8-16.05 35.85-35.85 35.85H163.99c-19.8 0-35.85-16.05-35.85-35.85V40.56c0-19.8 16.05-35.85 35.85-35.85h178.54zM163.99 16.98c-13 0-23.57 10.58-23.57 23.57v418.88c0 13 10.58 23.57 23.57 23.57h178.54c13 0 23.57-10.58 23.57-23.57V40.55c0-13-10.58-23.57-23.57-23.57H163.99z"/><path class="s0" d="M309.11 5.95v12.99c0 5.76-4.67 10.43-10.43 10.43h-90.86c-5.76 0-10.43-4.67-10.43-10.43V5.95H309.1z"/><path d="M232.46 15.69h42.84" style="fill:none;stroke:#fff;stroke-linecap:round;stroke-linejoin:round;stroke-width:.8"/><path class="s2" d="M297.87 441.39h-127.6c-5.51 0-9.98-4.47-9.98-9.98V324.84c0-5.51 4.47-9.98 9.98-9.98h127.59c5.51 0 9.98 4.47 9.98 9.98v106.57c0 5.51-4.47 9.98-9.98 9.98z"/><path class="s3" d="M214.23 369.82h-29.32c-2.19 0-3.97-1.78-3.97-3.97v-29.32c0-2.19 1.78-3.97 3.97-3.97h29.32c2.19 0 3.97 1.78 3.97 3.97v29.32c0 2.19-1.78 3.97-3.97 3.97z"/><path class="s4" d="M230.92 344.32h33.68M230.92 356.31h54.31"/><path class="s5" d="M180.94 385.33h37.26M180.94 397.71h104.29M180.94 411.36h104.29"/><path class="s3" d="M339.5 193.04H166.94c-5.51 0-9.98-4.47-9.98-9.98V76.49c0-5.51 4.47-9.98 9.98-9.98H339.5c5.51 0 9.98 4.47 9.98 9.98v106.57c0 5.51-4.47 9.98-9.98 9.98z"/><path class="s2" d="M201.98 129.35h-25.71c-1.92 0-3.48-1.56-3.48-3.48v-25.71c0-1.92 1.56-3.48 3.48-3.48h25.71c1.92 0 3.48 1.56 3.48 3.48v25.71c0 1.92-1.56 3.48-3.48 3.48zM243.6 129.35h-25.71c-1.92 0-3.48-1.56-3.48-3.48v-25.71c0-1.92 1.56-3.48 3.48-3.48h25.71c1.92 0 3.48 1.56 3.48 3.48v25.71c0 1.92-1.56 3.48-3.48 3.48zM285.22 129.35h-25.71c-1.92 0-3.48-1.56-3.48-3.48v-25.71c0-1.92 1.56-3.48 3.48-3.48h25.71c1.92 0 3.48 1.56 3.48 3.48v25.71c0 1.92-1.56 3.48-3.48 3.48z"/><path class="s6" d="M326.84 129.35h-25.71c-1.92 0-3.48-1.56-3.48-3.48v-25.71c0-1.92 1.56-3.48 3.48-3.48h25.71c1.92 0 3.48 1.56 3.48 3.48v25.71c0 1.92-1.56 3.48-3.48 3.48z"/><path class="s2" d="M201.98 173.42h-25.71c-1.92 0-3.48-1.56-3.48-3.48v-25.71c0-1.92 1.56-3.48 3.48-3.48h25.71c1.92 0 3.48 1.56 3.48 3.48v25.71c0 1.92-1.56 3.48-3.48 3.48zM243.6 173.42h-25.71c-1.92 0-3.48-1.56-3.48-3.48v-25.71c0-1.92 1.56-3.48 3.48-3.48h25.71c1.92 0 3.48 1.56 3.48 3.48v25.71c0 1.92-1.56 3.48-3.48 3.48zM285.22 173.42h-25.71c-1.92 0-3.48-1.56-3.48-3.48v-25.71c0-1.92 1.56-3.48 3.48-3.48h25.71c1.92 0 3.48 1.56 3.48 3.48v25.71c0 1.92-1.56 3.48-3.48 3.48zM326.84 173.42h-25.71c-1.92 0-3.48-1.56-3.48-3.48v-25.71c0-1.92 1.56-3.48 3.48-3.48h25.71c1.92 0 3.48 1.56 3.48 3.48v25.71c0 1.92-1.56 3.48-3.48 3.48z"/><path class="s3" d="M342.95 288.01H230.06c-3.61 0-6.53-2.92-6.53-6.53v-69.72c0-3.61 2.92-6.53 6.53-6.53h112.89c3.61 0 6.53 2.92 6.53 6.53v69.72c0 3.61-2.92 6.53-6.53 6.53z"/><path class="s6" d="M332.36 233.44h-89.47c-1.92 0-3.48-1.56-3.48-3.48V218.1c0-1.92 1.56-3.48 3.48-3.48h89.47c1.92 0 3.48 1.56 3.48 3.48v11.86c0 1.92-1.56 3.48-3.48 3.48z"/><path class="s4" d="M240.66 245.77h43.95M240.66 256.47h93.91M240.66 268.27h93.91"/></g></g></svg>