<svg xmlns="http://www.w3.org/2000/svg" xmlns:xlink="http://www.w3.org/1999/xlink" width="88" height="88" viewBox="0 0 88 88">
  <defs>
    <linearGradient id="linear-gradient" x1="0.921" y1="-0.111" x2="0" y2="1.084" gradientUnits="objectBoundingBox">
      <stop offset="0" stop-color="#583e3e"/>
      <stop offset="1" stop-color="#bababa"/>
    </linearGradient>
    <filter id="Rectangle_624" x="0" y="0" width="88" height="88" filterUnits="userSpaceOnUse">
      <feOffset dy="3" input="SourceAlpha"/>
      <feGaussianBlur stdDeviation="3" result="blur"/>
      <feFlood flood-opacity="0.161"/>
      <feComposite operator="in" in2="blur"/>
      <feComposite in="SourceGraphic"/>
    </filter>
  </defs>
  <g id="Group_48024" data-name="Group 48024" transform="translate(-527 -932)">
    <g transform="matrix(1, 0, 0, 1, 527, 932)" filter="url(#Rectangle_624)">
      <rect id="Rectangle_624-2" data-name="Rectangle 624" width="70" height="70" rx="20" transform="translate(9 6)" fill="url(#linear-gradient)"/>
    </g>
    <g id="phonegap" transform="translate(553.137 954.139)">
      <path id="Path_167669" data-name="Path 167669" d="M33.051,6.161A3.623,3.623,0,0,0,30.424,2.7S21.7,1.381,17.876.9a2.953,2.953,0,0,0-3.586,3.225s.868,27.005.958,30.35a3.181,3.181,0,0,0,3.822,3.344L32.217,35.55c2.39-.478,2.509-3.463,2.509-3.463s-1.553-22.8-1.675-25.926C32.941,3.3,33.173,9.287,33.051,6.161ZM30.11,29.1l-9.775,1.013s-2.847.434-2.911-3.024c-.047-2.548-.611-17.144-.611-17.144a2.286,2.286,0,0,1,2.733-2.457c2.99.222,10.153.767,10.153.767a2.76,2.76,0,0,1,2,2.642c.09,2.376.918,15.568.918,15.568s.216,2.168-2.51,2.636ZM6.181,25.166l-1.806.128a1.624,1.624,0,0,1-1.864-1.747c-.03-1.469-.212-9.807-.212-9.807S2.174,12.2,4.048,12.324c.475.031,1.148.074,1.892.118-.026-1.383-.048-2.592-.065-3.511-1.031-.078-2-.162-2.685-.234C.714,8.424.865,10.5.865,10.5s.3,15.292.354,17.166c.068,2.235,2.474,1.872,2.474,1.872l2.569-.275c-.022-1.109-.052-2.522-.081-4.1Zm7.182-13.9a2.107,2.107,0,0,0-.09-.532c-.791-.064-2.775-.581-3.412.091-.4.423-.237,1.315-.227,1.822l1.439.081a1.657,1.657,0,0,1,1.28,1.521c.057,1.372.049,9.054.049,9.054s.138,1.253-1.6,1.518l-.914.068c0,.272.01.492.012.655.038,2.191,2.368,1.489,3.83,1.347.126-2.324-.1-4.718-.149-7.043-.063-2.86-.086-5.725-.216-8.583-.009-.195.079,1.749,0,0Z" transform="translate(0 0)" fill="#fff"/>
      <path id="Path_167670" data-name="Path 167670" d="M52.522,51.1l-2.633.254s-2.456.353-2.509-2.477c-.038-2.088-.285-13.924-.285-13.924s-.17-2.188,2.35-2.013c.647.044,1.538.117,2.508.195-.073-2.271-.131-4.062-.16-4.984-1.327-.13-2.578-.26-3.5-.366-3.33-.378-3.12,2.566-3.12,2.566s.4,21.71.474,24.363c.09,3.171,3.33,2.662,3.33,2.662L52.7,56.9c-.037-1.234-.1-3.308-.179-5.8Zm5.358-19.38a1.693,1.693,0,0,0-1.378.358,1.844,1.844,0,0,0-.35,1.416l2.279.2a2.3,2.3,0,0,1,1.726,2.16c.076,1.945.549,12.514.549,12.514s.185,1.777-2.161,2.161l-1.776.17c.236,2.776,3.826,1.6,5.662,1.415-.189-4.175-.773-17.088-.905-20.119q-1.822-.143-3.646-.274C57.789,31.715,58.8,31.788,57.88,31.723Z" transform="translate(-38.403 -23.312)" fill="#fff"/>
    </g>
  </g>
</svg>
