<svg xmlns="http://www.w3.org/2000/svg" xmlns:xlink="http://www.w3.org/1999/xlink" width="682.223" height="579.251" viewBox="0 0 682.223 579.251">
  <defs>
    <linearGradient id="linear-gradient" x1="0.5" x2="0.5" y2="1" gradientUnits="objectBoundingBox">
      <stop offset="0" stop-color="#8bff07"/>
      <stop offset="1" stop-color="#25bae4"/>
    </linearGradient>
    <clipPath id="clip-path">
      <rect width="103" height="92" fill="none"/>
    </clipPath>
    <clipPath id="clip-path-2">
      <rect width="141.051" height="55.245" fill="none"/>
    </clipPath>
    <linearGradient id="linear-gradient-2" x1="0.989" y1="-0.725" x2="0.509" y2="0.679" gradientUnits="objectBoundingBox">
      <stop offset="0" stop-color="#651aec"/>
      <stop offset="1" stop-color="#1e0233"/>
    </linearGradient>
    <linearGradient id="linear-gradient-3" x1="0.839" y1="-0.874" x2="0.15" y2="2.132" xlink:href="#linear-gradient-2"/>
    <linearGradient id="linear-gradient-4" x1="0.771" y1="-0.548" x2="0.566" y2="0.305" xlink:href="#linear-gradient-2"/>
    <linearGradient id="linear-gradient-5" x1="0.649" y1="-0.311" x2="0.323" y2="0.99" xlink:href="#linear-gradient-2"/>
    <linearGradient id="linear-gradient-6" x1="0.407" y1="0.345" x2="0.759" y2="0.826" gradientUnits="objectBoundingBox">
      <stop offset="0" stop-color="#f9b546"/>
      <stop offset="1" stop-color="#f4642c"/>
    </linearGradient>
    <linearGradient id="linear-gradient-7" x1="0.21" y1="0.34" x2="0.685" y2="0.822" xlink:href="#linear-gradient-6"/>
    <linearGradient id="linear-gradient-8" x1="0.656" y1="1.308" x2="0.497" y2="0.535" gradientUnits="objectBoundingBox">
      <stop offset="0" stop-color="#fccac0"/>
      <stop offset="1" stop-color="#f76f54"/>
    </linearGradient>
    <linearGradient id="linear-gradient-9" x1="0.741" y1="1.69" x2="0.496" y2="0.596" xlink:href="#linear-gradient-8"/>
    <linearGradient id="linear-gradient-10" x1="0.352" y1="-0.004" x2="0.691" y2="1.3" xlink:href="#linear-gradient-8"/>
    <linearGradient id="linear-gradient-11" x1="0.349" y1="-0.012" x2="0.698" y2="1.3" xlink:href="#linear-gradient-8"/>
    <linearGradient id="linear-gradient-12" x1="0.377" y1="0.007" x2="0.73" y2="1.269" xlink:href="#linear-gradient-8"/>
    <linearGradient id="linear-gradient-13" x1="0.429" y1="0.375" x2="0.839" y2="1.179" xlink:href="#linear-gradient-6"/>
    <linearGradient id="linear-gradient-14" x1="0.234" y1="-0.197" x2="1.349" y2="2.079" xlink:href="#linear-gradient-6"/>
    <linearGradient id="linear-gradient-15" x1="0.689" y1="-0.467" x2="0.319" y2="1.185" xlink:href="#linear-gradient-2"/>
    <linearGradient id="linear-gradient-16" x1="0.504" y1="0.157" x2="0.496" y2="0.782" gradientUnits="objectBoundingBox">
      <stop offset="0" stop-color="#b493f9"/>
      <stop offset="1" stop-color="#651aec"/>
    </linearGradient>
    <linearGradient id="linear-gradient-17" x1="0.48" y1="0.082" x2="0.529" y2="1.11" xlink:href="#linear-gradient-16"/>
    <linearGradient id="linear-gradient-18" y1="0.5" x2="1" y2="0.5" gradientUnits="objectBoundingBox">
      <stop offset="0" stop-color="#23d0dc"/>
      <stop offset="1" stop-color="#2790f1"/>
    </linearGradient>
    <linearGradient id="linear-gradient-19" x1="0" y1="0.5" x2="1" y2="0.5" xlink:href="#linear-gradient-18"/>
    <linearGradient id="linear-gradient-20" x1="0" y1="0.5" x2="1" y2="0.5" xlink:href="#linear-gradient-18"/>
    <linearGradient id="linear-gradient-21" x1="0" y1="0.5" x2="1" y2="0.5" xlink:href="#linear-gradient-18"/>
    <linearGradient id="linear-gradient-22" x1="0.49" y1="0.036" x2="0.513" y2="0.91" xlink:href="#linear-gradient-8"/>
    <linearGradient id="linear-gradient-23" x1="0" y1="0.5" x2="1" y2="0.5" xlink:href="#linear-gradient-18"/>
    <linearGradient id="linear-gradient-28" x1="0.5" y1="-1.849" x2="0.5" y2="1.892" gradientUnits="objectBoundingBox">
      <stop offset="0" stop-color="#ede5fc"/>
      <stop offset="1" stop-color="#dcd0f7"/>
    </linearGradient>
    <linearGradient id="linear-gradient-30" x1="0.5" y1="-1.848" x2="0.5" y2="1.891" xlink:href="#linear-gradient-28"/>
    <linearGradient id="linear-gradient-31" x1="0" y1="0.5" x2="1" y2="0.5" xlink:href="#linear-gradient-16"/>
    <linearGradient id="linear-gradient-33" x1="0.92" y1="0.294" x2="0.065" y2="0.987" xlink:href="#linear-gradient-8"/>
    <linearGradient id="linear-gradient-34" x1="0.543" y1="0.158" x2="0.446" y2="0.912" xlink:href="#linear-gradient-6"/>
    <linearGradient id="linear-gradient-35" x1="0.453" y1="0.13" x2="0.554" y2="0.929" xlink:href="#linear-gradient-18"/>
    <linearGradient id="linear-gradient-39" x1="0" y1="0.5" x2="1" y2="0.5" xlink:href="#linear-gradient-28"/>
    <linearGradient id="linear-gradient-41" x1="0" y1="0.499" x2="1" y2="0.499" xlink:href="#linear-gradient-28"/>
    <linearGradient id="linear-gradient-42" x1="0.505" y1="0.003" x2="0.494" y2="1.15" xlink:href="#linear-gradient-28"/>
    <linearGradient id="linear-gradient-43" x1="0.487" y1="0.294" x2="0.504" y2="1.196" xlink:href="#linear-gradient-18"/>
    <linearGradient id="linear-gradient-44" x1="0.468" y1="-0.594" x2="0.565" y2="2.726" gradientUnits="objectBoundingBox">
      <stop offset="0" stop-color="#fc8190"/>
      <stop offset="1" stop-color="#f9394a"/>
    </linearGradient>
    <linearGradient id="linear-gradient-47" x1="0.5" y1="-0.03" x2="0.5" y2="1.208" xlink:href="#linear-gradient-16"/>
    <linearGradient id="linear-gradient-48" x1="7.048" y1="-2.638" x2="8.514" y2="-3.057" xlink:href="#linear-gradient-44"/>
    <linearGradient id="linear-gradient-49" x1="1.907" y1="3.783" x2="2.864" y2="3.414" xlink:href="#linear-gradient-44"/>
    <linearGradient id="linear-gradient-50" x1="0.509" y1="0.082" x2="0.496" y2="0.799" xlink:href="#linear-gradient-44"/>
    <linearGradient id="linear-gradient-51" x1="-2.089" y1="1.322" x2="-1.96" y2="0.117" xlink:href="#linear-gradient-8"/>
    <linearGradient id="linear-gradient-52" x1="-4.305" y1="2.017" x2="-4.092" y2="0.085" xlink:href="#linear-gradient-8"/>
    <linearGradient id="linear-gradient-53" x1="40.517" y1="9.171" x2="40.811" y2="10.664" xlink:href="#linear-gradient-8"/>
    <linearGradient id="linear-gradient-54" x1="59.652" y1="13.583" x2="59.945" y2="15.076" xlink:href="#linear-gradient-8"/>
    <linearGradient id="linear-gradient-55" x1="0.437" y1="0.319" x2="0.742" y2="1.261" xlink:href="#linear-gradient-8"/>
    <linearGradient id="linear-gradient-56" x1="8.761" y1="0.843" x2="9.734" y2="0.25" xlink:href="#linear-gradient-44"/>
    <linearGradient id="linear-gradient-57" x1="-1.401" y1="5.843" x2="-0.445" y2="5.047" xlink:href="#linear-gradient-44"/>
    <linearGradient id="linear-gradient-58" x1="0.464" y1="0.079" x2="0.538" y2="0.685" xlink:href="#linear-gradient-2"/>
    <linearGradient id="linear-gradient-59" x1="-0.098" y1="0.512" x2="1.098" y2="0.512" xlink:href="#linear-gradient-18"/>
    <linearGradient id="linear-gradient-60" x1="0" y1="0.5" x2="1" y2="0.5" xlink:href="#linear-gradient-8"/>
    <linearGradient id="linear-gradient-61" x1="1.042" y1="0.333" x2="-0.119" y2="0.961" xlink:href="#linear-gradient-8"/>
    <linearGradient id="linear-gradient-62" x1="-1.009" y1="1.067" x2="-1.066" y2="0.06" xlink:href="#linear-gradient-8"/>
    <linearGradient id="linear-gradient-63" x1="-1.227" y1="1.746" x2="-1.31" y2="0.075" xlink:href="#linear-gradient-8"/>
    <linearGradient id="linear-gradient-64" x1="0.55" y1="-0.377" x2="0.377" y2="2.378" xlink:href="#linear-gradient-2"/>
    <linearGradient id="linear-gradient-65" x1="0.158" y1="1.305" x2="0.736" y2="-0.086" xlink:href="#linear-gradient-8"/>
    <linearGradient id="linear-gradient-66" x1="-1.025" y1="-0.315" x2="-0.068" y2="0.179" xlink:href="#linear-gradient-16"/>
    <linearGradient id="linear-gradient-67" x1="0.028" y1="0.172" x2="0.127" y2="0.849" xlink:href="#linear-gradient-16"/>
    <linearGradient id="linear-gradient-68" x1="0.029" y1="-0.238" x2="0.136" y2="0.774" gradientUnits="objectBoundingBox">
      <stop offset="0" stop-color="#7330ff"/>
      <stop offset="1" stop-color="#651aec"/>
    </linearGradient>
    <linearGradient id="linear-gradient-69" x1="1.062" y1="0.038" x2="-0.021" y2="0.897" xlink:href="#linear-gradient-16"/>
    <linearGradient id="linear-gradient-70" x1="6.54" y1="0.5" x2="7.54" y2="0.5" xlink:href="#linear-gradient-8"/>
    <linearGradient id="linear-gradient-71" x1="0.068" y1="0.057" x2="1.035" y2="1.083" xlink:href="#linear-gradient-16"/>
    <linearGradient id="linear-gradient-72" x1="0.556" y1="-0.156" x2="0.426" y2="0.958" xlink:href="#linear-gradient-2"/>
    <linearGradient id="linear-gradient-73" x1="-5.734" y1="-0.004" x2="-5.393" y2="1.3" xlink:href="#linear-gradient-8"/>
    <linearGradient id="linear-gradient-74" x1="-8.678" y1="-0.012" x2="-8.329" y2="1.3" xlink:href="#linear-gradient-8"/>
  </defs>
  <g id="Group_389" data-name="Group 389" transform="translate(135 10978.803)">
    <g id="Group_388" data-name="Group 388">
      <path id="Path_1060" data-name="Path 1060" d="M283,0c156.3,0,46.239,181.436,283,263.541S439.3,527.082,283,527.082,0,409.091,0,263.541,126.7,0,283,0Z" transform="translate(-135 -10926.634)" fill="url(#linear-gradient)"/>
      <path id="Path_1059" data-name="Path 1059" d="M298.5,0C463.357,0,347.271,185.47,597,269.4S463.357,538.8,298.5,538.8,0,418.188,0,269.4,133.643,0,298.5,0Z" transform="translate(-132 -10978.803)" fill="#e6f0f2"/>
      <g id="Group_386" data-name="Group 386" transform="matrix(0.719, 0.695, -0.695, 0.719, -7430.856, -2948.328)" opacity="0.24">
        <g id="Repeat_Grid_2" data-name="Repeat Grid 2" transform="translate(34 -10913)" clip-path="url(#clip-path)">
          <g transform="translate(-34 10913)">
            <circle id="Ellipse_88" data-name="Ellipse 88" cx="3" cy="3" r="3" transform="translate(34 -10913)" fill="#00adef"/>
          </g>
          <g transform="translate(-13 10913)">
            <circle id="Ellipse_88-2" data-name="Ellipse 88" cx="3" cy="3" r="3" transform="translate(34 -10913)" fill="#00adef"/>
          </g>
          <g transform="translate(8 10913)">
            <circle id="Ellipse_88-3" data-name="Ellipse 88" cx="3" cy="3" r="3" transform="translate(34 -10913)" fill="#00adef"/>
          </g>
          <g transform="translate(29 10913)">
            <circle id="Ellipse_88-4" data-name="Ellipse 88" cx="3" cy="3" r="3" transform="translate(34 -10913)" fill="#00adef"/>
          </g>
          <g transform="translate(50 10913)">
            <circle id="Ellipse_88-5" data-name="Ellipse 88" cx="3" cy="3" r="3" transform="translate(34 -10913)" fill="#00adef"/>
          </g>
          <g transform="translate(-34 10934)">
            <circle id="Ellipse_88-6" data-name="Ellipse 88" cx="3" cy="3" r="3" transform="translate(34 -10913)" fill="#00adef"/>
          </g>
          <g transform="translate(-13 10934)">
            <circle id="Ellipse_88-7" data-name="Ellipse 88" cx="3" cy="3" r="3" transform="translate(34 -10913)" fill="#00adef"/>
          </g>
          <g transform="translate(8 10934)">
            <circle id="Ellipse_88-8" data-name="Ellipse 88" cx="3" cy="3" r="3" transform="translate(34 -10913)" fill="#00adef"/>
          </g>
          <g transform="translate(29 10934)">
            <circle id="Ellipse_88-9" data-name="Ellipse 88" cx="3" cy="3" r="3" transform="translate(34 -10913)" fill="#00adef"/>
          </g>
          <g transform="translate(50 10934)">
            <circle id="Ellipse_88-10" data-name="Ellipse 88" cx="3" cy="3" r="3" transform="translate(34 -10913)" fill="#00adef"/>
          </g>
          <g transform="translate(-34 10955)">
            <circle id="Ellipse_88-11" data-name="Ellipse 88" cx="3" cy="3" r="3" transform="translate(34 -10913)" fill="#00adef"/>
          </g>
          <g transform="translate(-13 10955)">
            <circle id="Ellipse_88-12" data-name="Ellipse 88" cx="3" cy="3" r="3" transform="translate(34 -10913)" fill="#00adef"/>
          </g>
          <g transform="translate(8 10955)">
            <circle id="Ellipse_88-13" data-name="Ellipse 88" cx="3" cy="3" r="3" transform="translate(34 -10913)" fill="#00adef"/>
          </g>
          <g transform="translate(29 10955)">
            <circle id="Ellipse_88-14" data-name="Ellipse 88" cx="3" cy="3" r="3" transform="translate(34 -10913)" fill="#00adef"/>
          </g>
          <g transform="translate(50 10955)">
            <circle id="Ellipse_88-15" data-name="Ellipse 88" cx="3" cy="3" r="3" transform="translate(34 -10913)" fill="#00adef"/>
          </g>
          <g transform="translate(-34 10976)">
            <circle id="Ellipse_88-16" data-name="Ellipse 88" cx="3" cy="3" r="3" transform="translate(34 -10913)" fill="#00adef"/>
          </g>
          <g transform="translate(-13 10976)">
            <circle id="Ellipse_88-17" data-name="Ellipse 88" cx="3" cy="3" r="3" transform="translate(34 -10913)" fill="#00adef"/>
          </g>
          <g transform="translate(8 10976)">
            <circle id="Ellipse_88-18" data-name="Ellipse 88" cx="3" cy="3" r="3" transform="translate(34 -10913)" fill="#00adef"/>
          </g>
          <g transform="translate(29 10976)">
            <circle id="Ellipse_88-19" data-name="Ellipse 88" cx="3" cy="3" r="3" transform="translate(34 -10913)" fill="#00adef"/>
          </g>
          <g transform="translate(50 10976)">
            <circle id="Ellipse_88-20" data-name="Ellipse 88" cx="3" cy="3" r="3" transform="translate(34 -10913)" fill="#00adef"/>
          </g>
          <g transform="translate(-34 10997)">
            <circle id="Ellipse_88-21" data-name="Ellipse 88" cx="3" cy="3" r="3" transform="translate(34 -10913)" fill="#00adef"/>
          </g>
          <g transform="translate(-13 10997)">
            <circle id="Ellipse_88-22" data-name="Ellipse 88" cx="3" cy="3" r="3" transform="translate(34 -10913)" fill="#00adef"/>
          </g>
          <g transform="translate(8 10997)">
            <circle id="Ellipse_88-23" data-name="Ellipse 88" cx="3" cy="3" r="3" transform="translate(34 -10913)" fill="#00adef"/>
          </g>
          <g transform="translate(29 10997)">
            <circle id="Ellipse_88-24" data-name="Ellipse 88" cx="3" cy="3" r="3" transform="translate(34 -10913)" fill="#00adef"/>
          </g>
          <g transform="translate(50 10997)">
            <circle id="Ellipse_88-25" data-name="Ellipse 88" cx="3" cy="3" r="3" transform="translate(34 -10913)" fill="#00adef"/>
          </g>
        </g>
      </g>
      <g id="Group_387" data-name="Group 387" transform="translate(-2269.527 -21532.09) rotate(167)" opacity="0.4">
        <g id="Repeat_Grid_2-2" data-name="Repeat Grid 2" transform="translate(34 -10913)" clip-path="url(#clip-path-2)">
          <g transform="translate(-34 10913)">
            <circle id="Ellipse_88-26" data-name="Ellipse 88" cx="3" cy="3" r="3" transform="translate(34 -10913)" fill="#fff"/>
          </g>
          <g transform="translate(-13 10913)">
            <circle id="Ellipse_88-27" data-name="Ellipse 88" cx="3" cy="3" r="3" transform="translate(34 -10913)" fill="#fff"/>
          </g>
          <g transform="translate(8 10913)">
            <circle id="Ellipse_88-28" data-name="Ellipse 88" cx="3" cy="3" r="3" transform="translate(34 -10913)" fill="#fff"/>
          </g>
          <g transform="translate(29 10913)">
            <circle id="Ellipse_88-29" data-name="Ellipse 88" cx="3" cy="3" r="3" transform="translate(34 -10913)" fill="#fff"/>
          </g>
          <g transform="translate(50 10913)">
            <circle id="Ellipse_88-30" data-name="Ellipse 88" cx="3" cy="3" r="3" transform="translate(34 -10913)" fill="#fff"/>
          </g>
          <g transform="translate(71 10913)">
            <circle id="Ellipse_88-31" data-name="Ellipse 88" cx="3" cy="3" r="3" transform="translate(34 -10913)" fill="#fff"/>
          </g>
          <g transform="translate(92 10913)">
            <circle id="Ellipse_88-32" data-name="Ellipse 88" cx="3" cy="3" r="3" transform="translate(34 -10913)" fill="#fff"/>
          </g>
          <g transform="translate(-34 10934)">
            <circle id="Ellipse_88-33" data-name="Ellipse 88" cx="3" cy="3" r="3" transform="translate(34 -10913)" fill="#fff"/>
          </g>
          <g transform="translate(-13 10934)">
            <circle id="Ellipse_88-34" data-name="Ellipse 88" cx="3" cy="3" r="3" transform="translate(34 -10913)" fill="#fff"/>
          </g>
          <g transform="translate(8 10934)">
            <circle id="Ellipse_88-35" data-name="Ellipse 88" cx="3" cy="3" r="3" transform="translate(34 -10913)" fill="#fff"/>
          </g>
          <g transform="translate(29 10934)">
            <circle id="Ellipse_88-36" data-name="Ellipse 88" cx="3" cy="3" r="3" transform="translate(34 -10913)" fill="#fff"/>
          </g>
          <g transform="translate(50 10934)">
            <circle id="Ellipse_88-37" data-name="Ellipse 88" cx="3" cy="3" r="3" transform="translate(34 -10913)" fill="#fff"/>
          </g>
          <g transform="translate(71 10934)">
            <circle id="Ellipse_88-38" data-name="Ellipse 88" cx="3" cy="3" r="3" transform="translate(34 -10913)" fill="#fff"/>
          </g>
          <g transform="translate(92 10934)">
            <circle id="Ellipse_88-39" data-name="Ellipse 88" cx="3" cy="3" r="3" transform="translate(34 -10913)" fill="#fff"/>
          </g>
          <g transform="translate(-34 10955)">
            <circle id="Ellipse_88-40" data-name="Ellipse 88" cx="3" cy="3" r="3" transform="translate(34 -10913)" fill="#fff"/>
          </g>
          <g transform="translate(-13 10955)">
            <circle id="Ellipse_88-41" data-name="Ellipse 88" cx="3" cy="3" r="3" transform="translate(34 -10913)" fill="#fff"/>
          </g>
          <g transform="translate(8 10955)">
            <circle id="Ellipse_88-42" data-name="Ellipse 88" cx="3" cy="3" r="3" transform="translate(34 -10913)" fill="#fff"/>
          </g>
          <g transform="translate(29 10955)">
            <circle id="Ellipse_88-43" data-name="Ellipse 88" cx="3" cy="3" r="3" transform="translate(34 -10913)" fill="#fff"/>
          </g>
          <g transform="translate(50 10955)">
            <circle id="Ellipse_88-44" data-name="Ellipse 88" cx="3" cy="3" r="3" transform="translate(34 -10913)" fill="#fff"/>
          </g>
          <g transform="translate(71 10955)">
            <circle id="Ellipse_88-45" data-name="Ellipse 88" cx="3" cy="3" r="3" transform="translate(34 -10913)" fill="#fff"/>
          </g>
          <g transform="translate(92 10955)">
            <circle id="Ellipse_88-46" data-name="Ellipse 88" cx="3" cy="3" r="3" transform="translate(34 -10913)" fill="#fff"/>
          </g>
        </g>
      </g>
      <g id="Group_385" data-name="Group 385" transform="translate(-17 -80.571)">
        <g id="Group_384" data-name="Group 384">
          <g id="Objects" transform="translate(-337.988 -10849.246)">
            <g id="Group_383" data-name="Group 383">
              <g id="Group_382" data-name="Group 382">
                <g id="Group_375" data-name="Group 375">
                  <g id="Group_321" data-name="Group 321" opacity="0.3">
                    <path id="Path_933" data-name="Path 933" d="M591.638,401.329v-11.99a2.458,2.458,0,0,0-2.335-2.455l-5.945-.3a33.394,33.394,0,0,0-3.313-7.979l4.187-4.63a2.163,2.163,0,0,0-.077-2.979l-8.873-8.876a2.164,2.164,0,0,0-2.979-.076l-4.631,4.187a33.312,33.312,0,0,0-7.979-3.312l-.278-5.5a2.934,2.934,0,0,0-2.931-2.785H545.4a2.933,2.933,0,0,0-2.929,2.785l-.278,5.5a33.291,33.291,0,0,0-7.979,3.311l-4.368-3.947a2.531,2.531,0,0,0-3.489.087l-8.379,8.377a2.532,2.532,0,0,0-.088,3.489l3.948,4.369a33.265,33.265,0,0,0-3.311,7.979l-5.748.291a2.666,2.666,0,0,0-2.532,2.663v11.592a2.666,2.666,0,0,0,2.532,2.664l5.748.291a33.252,33.252,0,0,0,3.311,7.979l-4.127,4.568a2.249,2.249,0,0,0,.078,3.1l8.756,8.757a2.251,2.251,0,0,0,3.1.079l4.567-4.128a33.315,33.315,0,0,0,7.98,3.311l.3,6a2.4,2.4,0,0,0,2.4,2.281h12.094a2.4,2.4,0,0,0,2.4-2.281l.3-6a33.323,33.323,0,0,0,7.979-3.31l4.511,4.075a2.333,2.333,0,0,0,3.213-.081l8.646-8.647a2.334,2.334,0,0,0,.081-3.213l-4.077-4.51a33.191,33.191,0,0,0,3.313-7.979l5.945-.3A2.457,2.457,0,0,0,591.638,401.329Zm-39.179,12.843a18.9,18.9,0,1,1,17.315-17.283A18.9,18.9,0,0,1,552.459,414.172Z" fill="#08f"/>
                  </g>
                  <g id="Group_322" data-name="Group 322" opacity="0.3">
                    <path id="Path_934" data-name="Path 934" d="M383.273,381.268l-3.255,2.941a24.6,24.6,0,0,0-5.887-2.433L373.9,377.3a1.719,1.719,0,0,0-1.717-1.633h-9.015a1.719,1.719,0,0,0-1.718,1.633l-.227,4.476a24.6,24.6,0,0,0-5.885,2.433l-3.285-2.968a1.773,1.773,0,0,0-2.441.062l-6.3,6.306a1.772,1.772,0,0,0-.062,2.44l2.969,3.284a24.575,24.575,0,0,0-2.435,5.886l-4.532.229a1.658,1.658,0,0,0-1.575,1.656v9.131a1.659,1.659,0,0,0,1.575,1.657l4.532.229a24.541,24.541,0,0,0,2.435,5.887l-2.844,3.146a1.966,1.966,0,0,0,.067,2.709l6.043,6.043a1.965,1.965,0,0,0,2.709.068l3.148-2.845a24.565,24.565,0,0,0,5.885,2.434l.22,4.337a1.865,1.865,0,0,0,1.864,1.771h8.735a1.866,1.866,0,0,0,1.864-1.771l.219-4.337a24.521,24.521,0,0,0,5.887-2.434l3.008,2.72a2.164,2.164,0,0,0,2.98-.075L391.78,424a2.163,2.163,0,0,0,.076-2.979l-2.721-3.009a24.541,24.541,0,0,0,2.435-5.887l4.6-.231a1.6,1.6,0,0,0,1.514-1.593v-9.254a1.6,1.6,0,0,0-1.514-1.592l-4.6-.232a24.47,24.47,0,0,0-2.435-5.885l2.944-3.257a1.81,1.81,0,0,0-.063-2.5l-6.25-6.251A1.806,1.806,0,0,0,383.273,381.268Zm-6.585,13.775a13.932,13.932,0,1,1-18.037.015A13.933,13.933,0,0,1,376.688,395.043Z" fill="#0080ff"/>
                  </g>
                  <g id="Group_324" data-name="Group 324">
                    <path id="Path_935" data-name="Path 935" d="M368.934,155.379c-.246,5.721,4.259,9.6,7.358,13.707a17.2,17.2,0,0,1,3.453,11.5c-.262,5.427-4.764,11.371-10.6,11.093-3.367-.161-6.519.082-8.691-2.749-2.233-2.909-2.017-6.759-1.367-10.205C360.6,170.7,365.2,162.715,368.934,155.379Z" fill="url(#linear-gradient-2)"/>
                    <path id="Path_936" data-name="Path 936" d="M363.743,141.539s8,2.1,6.055,13.191c-1.848,10.514-14.416-4.325-14.416-4.325Z" fill="url(#linear-gradient-3)"/>
                    <path id="Path_937" data-name="Path 937" d="M333.269,155.583c.387,7.781.756,13.333-4.493,19.45-3.026,3.527-6.151,4.824-10.625,7.248-3.952,2.142-12.384,9.307-8.162,21.911,3.883,11.6,18.848,13.584,29.6,8.349,3.529-1.72,6.7-2.6,9.28-5.658a35.384,35.384,0,0,0,5.539-8.189c2.955-6.654,5.019-15.115,3.637-22.416a25.889,25.889,0,0,0-13.224-17.995,23.178,23.178,0,0,0-6.19-2.394A10.726,10.726,0,0,0,333.269,155.583Z" fill="url(#linear-gradient-4)"/>
                    <path id="Path_938" data-name="Path 938" d="M364.176,142.26s-2.521-7.394-16.252-6.1c-4.528.428-9.847,4.281-12.3,8.323-4.993,8.218-2.593,20.285,6.5,27.186,2.488,4.108,5.406,3.784,5.623,3.134s-2.7-27.03-2.7-27.03Z" fill="url(#linear-gradient-5)"/>
                    <path id="Path_939" data-name="Path 939" d="M363.49,182.735s10.41-2.036,18.088-1.279c3.257.32,44.948,74.478,44.948,74.478L393.58,285.551a193.431,193.431,0,0,1-24.646-22.194c-18.21-19.971-38.221-46.672-38.4-52.027-.288-8.65,15.009-23.909,18.468-24.485S363.49,182.735,363.49,182.735Z" fill="url(#linear-gradient-6)"/>
                    <path id="Path_940" data-name="Path 940" d="M381.578,181.456c-1.209-.12-2.484-.169-3.777-.169a79.693,79.693,0,0,1,.861,18.795c-1.325,18.255-9.112,36.65-23.348,47.519,4.428,5.381,9.079,10.776,13.619,15.756a193.431,193.431,0,0,0,24.646,22.194l32.946-29.617S384.835,181.776,381.578,181.456Z" opacity="0.3" fill="url(#linear-gradient-7)"/>
                    <path id="Path_941" data-name="Path 941" d="M342.7,169.364a32.028,32.028,0,0,1,2.739,20.254c4,4.974,15.029,1.767,19.786-3.1-2.217-3.514-3.136-12.976-3.136-12.976l-16.326-7.352Z" fill="url(#linear-gradient-8)"/>
                    <path id="Path_942" data-name="Path 942" d="M351.277,175.938A26.175,26.175,0,0,0,355.052,183a7.945,7.945,0,0,0,6.794,3.712,21.119,21.119,0,0,0,3.319-.144l.055-.052c-2.217-3.514-3.136-12.976-3.136-12.976l-11.309-5.093A19.413,19.413,0,0,0,351.277,175.938Z" opacity="0.3" fill="url(#linear-gradient-9)"/>
                    <g id="Group_323" data-name="Group 323">
                      <path id="Path_943" data-name="Path 943" d="M345.128,165.977a5.587,5.587,0,0,0-1.986-1.326c-1.491-.536-3.566-.087-4.083,1.647-.919,3.081,2.069,7.9,5.637,8.058s2.865-2.65,2.865-2.65Z" fill="url(#linear-gradient-10)"/>
                      <path id="Path_944" data-name="Path 944" d="M344.663,167.027a3.8,3.8,0,0,0-1.346-.9c-1.01-.364-2.332-.314-2.682.859-.622,2.088,1.317,5.6,3.734,5.711s1.939-1.793,1.939-1.793Z" opacity="0.3" fill="url(#linear-gradient-11)"/>
                    </g>
                    <path id="Path_945" data-name="Path 945" d="M365.653,148.783c2.811,3.749,5.081,15.1,3.946,23.192-1.266,9.025-11.832,10.846-18.894,5.541-4.019-3.019-13.38-16.3-8.623-26.354S362.843,145.035,365.653,148.783Z" fill="url(#linear-gradient-12)"/>
                    <path id="Path_946" data-name="Path 946" d="M329.771,211.129c-3.814,12.25-10.977,51.1-.37,52.064,7,.636,11.219-5.135,13.406-8.866,5.137-8.757,8.128-30.556,9.439-41.872C353.517,201.5,336.929,188.144,329.771,211.129Z" fill="url(#linear-gradient-13)"/>
                    <path id="Path_947" data-name="Path 947" d="M340.456,237.767c-1.6,5.145.932,8.853,4.824,10.962,2.227-6.347,3.927-14.976,5.16-22.87C345.5,226.582,341.733,233.666,340.456,237.767Z" opacity="0.3" fill="url(#linear-gradient-14)"/>
                    <path id="Path_948" data-name="Path 948" d="M345.571,156.447s-2.768,1.49-1.29,5.923c1.411,4.235,1.834,7.124,1.567,7.461-.739.938-3.808-3.483-5.315-7.82-1.441-4.146-4.2-11.263,1.8-17.48s20.345-8.132,22.921-.27C370.541,160.387,345.571,156.447,345.571,156.447Z" fill="url(#linear-gradient-15)"/>
                  </g>
                  <path id="Path_949" data-name="Path 949" d="M620.727,369.5H399.686a15.534,15.534,0,0,1-15.533-15.534V179.485a15.533,15.533,0,0,1,15.533-15.533H620.727a15.532,15.532,0,0,1,15.533,15.533V353.97A15.533,15.533,0,0,1,620.727,369.5Z" fill="url(#linear-gradient-16)"/>
                  <g id="Group_330" data-name="Group 330">
                    <path id="Path_950" data-name="Path 950" d="M523.23,337.683H403.464a9.972,9.972,0,0,1-9.972-9.971V250.076a9.972,9.972,0,0,1,9.972-9.971H523.23a9.969,9.969,0,0,1,9.97,9.971v77.636A9.969,9.969,0,0,1,523.23,337.683Z" opacity="0.5" fill="url(#linear-gradient-17)"/>
                    <path id="Path_951" data-name="Path 951" d="M525.406,336.188H405.64a9.973,9.973,0,0,1-9.972-9.971V248.58a9.973,9.973,0,0,1,9.972-9.971H525.407a9.972,9.972,0,0,1,9.972,9.971v77.637A9.973,9.973,0,0,1,525.406,336.188Z" fill="#fff"/>
                    <g id="Group_329" data-name="Group 329">
                      <g id="Group_327" data-name="Group 327">
                        <g id="Group_326" data-name="Group 326">
                          <path id="Path_956" data-name="Path 956" d="M458.349,253.764H401.377a.884.884,0,0,1-.883-.884v-.452a.885.885,0,0,1,.883-.884h56.972a.885.885,0,0,1,.885.884v.452A.885.885,0,0,1,458.349,253.764Z" fill="#ede5fc"/>
                          <path id="Path_957" data-name="Path 957" d="M458.349,261.675H401.377a.885.885,0,0,1-.883-.884v-.451a.884.884,0,0,1,.883-.884h56.972a.885.885,0,0,1,.885.884v.451A.886.886,0,0,1,458.349,261.675Z" fill="#ede5fc"/>
                          <path id="Path_958" data-name="Path 958" d="M436.934,269.585H401.377a.884.884,0,0,1-.883-.884v-.451a.884.884,0,0,1,.883-.884h35.557a.883.883,0,0,1,.883.884v.451A.883.883,0,0,1,436.934,269.585Z" fill="#ede5fc"/>
                          <path id="Path_959" data-name="Path 959" d="M436.934,277.5H401.377a.885.885,0,0,1-.883-.884v-.452a.885.885,0,0,1,.883-.884h35.557a.883.883,0,0,1,.883.884v.452A.884.884,0,0,1,436.934,277.5Z" fill="#ede5fc"/>
                        </g>
                      </g>
                      <g id="Group_328" data-name="Group 328">
                        <path id="Path_960" data-name="Path 960" d="M459.073,252.341H402.1a.885.885,0,0,1-.885-.884v-.451a.884.884,0,0,1,.885-.884h56.97a.885.885,0,0,1,.886.884v.451A.885.885,0,0,1,459.073,252.341Z" fill="url(#linear-gradient-18)"/>
                        <path id="Path_961" data-name="Path 961" d="M459.073,260.252H402.1a.885.885,0,0,1-.885-.884v-.452a.885.885,0,0,1,.885-.884h56.97a.885.885,0,0,1,.886.884v.452A.885.885,0,0,1,459.073,260.252Z" fill="url(#linear-gradient-19)"/>
                        <path id="Path_962" data-name="Path 962" d="M437.659,268.163H402.1a.885.885,0,0,1-.885-.884v-.452a.885.885,0,0,1,.885-.884h35.556a.885.885,0,0,1,.885.884v.452A.884.884,0,0,1,437.659,268.163Z" fill="url(#linear-gradient-20)"/>
                        <path id="Path_963" data-name="Path 963" d="M437.659,276.073H402.1a.884.884,0,0,1-.885-.884v-.451a.884.884,0,0,1,.885-.884h35.556a.885.885,0,0,1,.885.884v.451A.884.884,0,0,1,437.659,276.073Z" fill="url(#linear-gradient-21)"/>
                      </g>
                    </g>
                  </g>
                  <path id="Path_964" data-name="Path 964" d="M636.72,178.943H383.526v-4.025A11.422,11.422,0,0,1,394.949,163.5H625.3a11.422,11.422,0,0,1,11.422,11.422Z" fill="#fff"/>
                  <path id="Path_965" data-name="Path 965" d="M624.873,390.8H591.035a2.5,2.5,0,0,1-2.5-2.5h0a2.5,2.5,0,0,1,2.5-2.5h33.838a2.5,2.5,0,0,1,2.5,2.5h0A2.5,2.5,0,0,1,624.873,390.8Z" fill="#fff"/>
                  <path id="Path_966" data-name="Path 966" d="M429.862,162.663s12.024-8.484,25.475-.586,1.609,12.7.376,13.813-5.741-5.894-12.774-6.512,2.26,3.627,1.354,5.251S431.783,173.159,429.862,162.663Z" fill="url(#linear-gradient-22)"/>
                  <g id="Group_331" data-name="Group 331" opacity="0.4">
                    <path id="Path_967" data-name="Path 967" d="M653.694,239.766h-41.97a1.111,1.111,0,0,1-1.11-1.11h0a1.11,1.11,0,0,1,1.11-1.11h41.97a1.11,1.11,0,0,1,1.11,1.11h0A1.109,1.109,0,0,1,653.694,239.766Z" fill="url(#linear-gradient-23)"/>
                    <path id="Path_968" data-name="Path 968" d="M653.694,246.474h-41.97a1.11,1.11,0,0,1-1.11-1.111h0a1.111,1.111,0,0,1,1.11-1.111h41.97a1.111,1.111,0,0,1,1.11,1.111h0A1.109,1.109,0,0,1,653.694,246.474Z" fill="url(#linear-gradient-23)"/>
                    <path id="Path_969" data-name="Path 969" d="M653.694,253.181h-41.97a1.11,1.11,0,0,1-1.11-1.11h0a1.11,1.11,0,0,1,1.11-1.11h41.97a1.11,1.11,0,0,1,1.11,1.11h0A1.109,1.109,0,0,1,653.694,253.181Z" fill="url(#linear-gradient-23)"/>
                    <path id="Path_970" data-name="Path 970" d="M641.729,259.89H611.724a1.11,1.11,0,0,1-1.11-1.111h0a1.109,1.109,0,0,1,1.11-1.11h30.005a1.109,1.109,0,0,1,1.11,1.11h0A1.109,1.109,0,0,1,641.729,259.89Z" fill="url(#linear-gradient-18)"/>
                    <path id="Path_971" data-name="Path 971" d="M633.525,266.6h-21.8a1.11,1.11,0,0,1-1.11-1.109h0a1.11,1.11,0,0,1,1.11-1.11h21.8a1.111,1.111,0,0,1,1.111,1.11h0A1.109,1.109,0,0,1,633.525,266.6Z" fill="url(#linear-gradient-18)"/>
                  </g>
                  <g id="Group_332" data-name="Group 332">
                    <circle id="Ellipse_76" data-name="Ellipse 76" cx="4.169" cy="4.169" r="4.169" transform="translate(396.405 167.362)" fill="url(#linear-gradient-28)"/>
                    <circle id="Ellipse_77" data-name="Ellipse 77" cx="4.169" cy="4.169" r="4.169" transform="translate(406.794 167.362)" fill="url(#linear-gradient-28)"/>
                    <circle id="Ellipse_78" data-name="Ellipse 78" cx="4.17" cy="4.17" r="4.17" transform="translate(417.184 167.361)" fill="url(#linear-gradient-30)"/>
                  </g>
                  <g id="Group_336" data-name="Group 336">
                    <g id="Group_333" data-name="Group 333">
                      <path id="Path_972" data-name="Path 972" d="M431.4,231.721h-33a4.44,4.44,0,0,1-4.44-4.441v-33a4.44,4.44,0,0,1,4.44-4.441h33a4.439,4.439,0,0,1,4.44,4.441v33A4.439,4.439,0,0,1,431.4,231.721Z" opacity="0.5" fill="url(#linear-gradient-31)"/>
                      <path id="Path_973" data-name="Path 973" d="M433.762,230.09h-33a4.44,4.44,0,0,1-4.44-4.442v-33a4.439,4.439,0,0,1,4.44-4.441h33a4.441,4.441,0,0,1,4.442,4.441v33A4.442,4.442,0,0,1,433.762,230.09Z" fill="#fff"/>
                    </g>
                    <g id="Group_335" data-name="Group 335">
                      <path id="Path_975" data-name="Path 975" d="M479.674,231.721H446.68a4.441,4.441,0,0,1-4.442-4.441v-33a4.441,4.441,0,0,1,4.442-4.441h32.994a4.441,4.441,0,0,1,4.442,4.441v33A4.442,4.442,0,0,1,479.674,231.721Z" opacity="0.5" fill="url(#linear-gradient-31)"/>
                      <path id="Path_976" data-name="Path 976" d="M482.031,230.09h-33a4.442,4.442,0,0,1-4.44-4.442v-33a4.441,4.441,0,0,1,4.44-4.441h33a4.441,4.441,0,0,1,4.442,4.441v33A4.442,4.442,0,0,1,482.031,230.09Z" fill="#fff"/>
                      <ellipse id="Ellipse_80" data-name="Ellipse 80" cx="8.363" cy="2.084" rx="8.363" ry="2.084" transform="translate(457.17 220.527)" fill="#24bae3"/>
                      <g id="Group_334" data-name="Group 334">
                        <path id="Path_977" data-name="Path 977" d="M472.745,214.588l-7.212,7.269-7.211-7.269a10.342,10.342,0,0,1,0-14.54h0a10.143,10.143,0,0,1,14.423,0h0A10.34,10.34,0,0,1,472.745,214.588Z" fill="#24bae3"/>
                        <ellipse id="Ellipse_81" data-name="Ellipse 81" cx="6.688" cy="6.359" rx="6.688" ry="6.359" transform="translate(458.723 200.669)" fill="#fff"/>
                      </g>
                    </g>
                  </g>
                  <g id="Group_337" data-name="Group 337">
                    <path id="Path_978" data-name="Path 978" d="M377.307,232.245a32.339,32.339,0,0,1,4.64-4.941c6.187-5.371,16.451-12.51,17.734-11.995,1.812.728,1.025,1.755.456,2.57s-9.485,8.422-9.485,8.422,5.061,7.736,5.043,10.165-6.245,8.348-15.6,7.233S377.307,232.245,377.307,232.245Z" fill="url(#linear-gradient-33)"/>
                    <path id="Path_979" data-name="Path 979" d="M330.529,267.791c-4.14-1.646-8.586-9.042-3.73-17.594,5.025-8.846,33.516-14.354,40.751-16.1,3.65-.883,9.781-2.192,9.781-2.192-1.468,4.86,1,8.822,5.207,12.386,0,0-13.935,10.84-26.6,17.454C344.513,267.7,339.855,271.5,330.529,267.791Z" fill="url(#linear-gradient-34)"/>
                  </g>
                  <g id="Group_340" data-name="Group 340">
                    <g id="Group_338" data-name="Group 338">
                      <path id="Path_980" data-name="Path 980" d="M544.486,156.755H511.491a4.441,4.441,0,0,1-4.442-4.441V119.319a4.442,4.442,0,0,1,4.442-4.442h32.995a4.441,4.441,0,0,1,4.442,4.442v32.995A4.44,4.44,0,0,1,544.486,156.755Z" fill="#ede5fc"/>
                      <path id="Path_981" data-name="Path 981" d="M546.843,155.124H513.849a4.442,4.442,0,0,1-4.442-4.441v-33a4.441,4.441,0,0,1,4.442-4.441h32.994a4.44,4.44,0,0,1,4.442,4.441v33A4.442,4.442,0,0,1,546.843,155.124Z" fill="#fff"/>
                    </g>
                    <g id="Group_339" data-name="Group 339">
                      <path id="Path_982" data-name="Path 982" d="M529.393,155.214v51.171a4.486,4.486,0,0,1-4.486,4.487H513.985" fill="none" stroke="#fff" stroke-miterlimit="10" stroke-width="1.088"/>
                      <circle id="Ellipse_82" data-name="Ellipse 82" cx="3.807" cy="3.807" r="3.807" transform="translate(509.995 207.201)" fill="#fff"/>
                    </g>
                  </g>
                  <g id="Group_344" data-name="Group 344">
                    <path id="Path_983" data-name="Path 983" d="M521.424,138.417h-3.017a4.3,4.3,0,0,1-4.294-4.295v-.646a4.293,4.293,0,0,1,4.294-4.293h3.017Z" fill="#54c712"/>
                    <path id="Path_984" data-name="Path 984" d="M534.444,146.372,522.892,138.4v-9.213l11.552-7.965Z" fill="#54c712"/>
                    <g id="Group_343" data-name="Group 343">
                      <g id="Group_341" data-name="Group 341">
                        <path id="Path_985" data-name="Path 985" d="M541.491,142.69l-1.634-1.674a9.974,9.974,0,0,0,.131-14.164l1.663-1.645a12.313,12.313,0,0,1-.16,17.483Z" fill="#54c712"/>
                      </g>
                      <g id="Group_342" data-name="Group 342">
                        <path id="Path_986" data-name="Path 986" d="M537.988,139.031l-1.645-1.663a4.892,4.892,0,0,0,.106-6.867l1.7-1.607a7.229,7.229,0,0,1-.16,10.137Z" fill="#54c712"/>
                      </g>
                    </g>
                  </g>
                  <g id="Group_358" data-name="Group 358">
                    <path id="Path_987" data-name="Path 987" d="M657.6,398.972H554.411a10.244,10.244,0,0,1-10.243-10.244V203.169a10.243,10.243,0,0,1,10.245-10.242H657.6a10.242,10.242,0,0,1,10.243,10.242V388.728A10.243,10.243,0,0,1,657.6,398.972Z" fill="#fff"/>
                    <path id="Path_988" data-name="Path 988" d="M655.659,379.505H556.352a6.8,6.8,0,0,1-6.8-6.793V206.025a6.8,6.8,0,0,1,6.8-6.793h99.307a6.793,6.793,0,0,1,6.793,6.793V372.712A6.793,6.793,0,0,1,655.659,379.505Z" fill="url(#linear-gradient-35)"/>
                    <g id="Group_345" data-name="Group 345">
                      <path id="Path_989" data-name="Path 989" d="M588.6,375.169H559.594a4.894,4.894,0,0,1-4.9-4.895V342.9a4.894,4.894,0,0,1,4.9-4.895H588.6A4.894,4.894,0,0,1,593.5,342.9v27.376A4.895,4.895,0,0,1,588.6,375.169Z" opacity="0.4" fill="url(#linear-gradient-20)"/>
                      <path id="Path_990" data-name="Path 990" d="M589.96,374.217H560.952a4.894,4.894,0,0,1-4.894-4.895V341.947a4.895,4.895,0,0,1,4.894-4.9H589.96a4.9,4.9,0,0,1,4.9,4.9v27.375A4.9,4.9,0,0,1,589.96,374.217Z" fill="#fff"/>
                    </g>
                    <g id="Group_346" data-name="Group 346">
                      <path id="Path_991" data-name="Path 991" d="M633.911,374.671H604.9a4.9,4.9,0,0,1-4.9-4.9V342.4a4.9,4.9,0,0,1,4.9-4.895h29.007A4.893,4.893,0,0,1,638.8,342.4v27.375A4.895,4.895,0,0,1,633.911,374.671Z" opacity="0.4" fill="url(#linear-gradient-20)"/>
                      <path id="Path_992" data-name="Path 992" d="M635.271,374.217H606.263a4.894,4.894,0,0,1-4.9-4.895V341.947a4.9,4.9,0,0,1,4.9-4.9h29.008a4.895,4.895,0,0,1,4.894,4.9v27.375A4.894,4.894,0,0,1,635.271,374.217Z" fill="#fff"/>
                    </g>
                    <g id="Group_351" data-name="Group 351">
                      <g id="Group_349" data-name="Group 349">
                        <path id="Path_993" data-name="Path 993" d="M644.921,326.9h-85.9a4.231,4.231,0,0,1-4.232-4.23v-37.5a4.232,4.232,0,0,1,4.232-4.23h85.9a4.233,4.233,0,0,1,4.232,4.23v37.5A4.231,4.231,0,0,1,644.921,326.9Z" opacity="0.4" fill="url(#linear-gradient-20)"/>
                        <path id="Path_994" data-name="Path 994" d="M646.191,325.993h-85.9a4.229,4.229,0,0,1-4.23-4.231V284.267a4.229,4.229,0,0,1,4.23-4.231h85.9a4.231,4.231,0,0,1,4.23,4.231v37.495A4.23,4.23,0,0,1,646.191,325.993Z" fill="#fff"/>
                        <g id="Group_348" data-name="Group 348">
                          <g id="Group_347" data-name="Group 347">
                            <path id="Path_995" data-name="Path 995" d="M645.265,288.556H603.294a1.111,1.111,0,0,1-1.11-1.11h0a1.11,1.11,0,0,1,1.11-1.11h41.971a1.11,1.11,0,0,1,1.11,1.11h0A1.111,1.111,0,0,1,645.265,288.556Z" fill="url(#linear-gradient-39)"/>
                            <path id="Path_996" data-name="Path 996" d="M645.265,295.264H603.294a1.11,1.11,0,0,1-1.11-1.11h0a1.11,1.11,0,0,1,1.11-1.11h41.971a1.11,1.11,0,0,1,1.11,1.11h0A1.11,1.11,0,0,1,645.265,295.264Z" fill="url(#linear-gradient-39)"/>
                            <path id="Path_997" data-name="Path 997" d="M633.3,301.973H603.294a1.11,1.11,0,0,1-1.11-1.112h0a1.11,1.11,0,0,1,1.11-1.109H633.3a1.109,1.109,0,0,1,1.108,1.109h0A1.11,1.11,0,0,1,633.3,301.973Z" fill="url(#linear-gradient-41)"/>
                          </g>
                        </g>
                      </g>
                      <g id="Group_350" data-name="Group 350">
                        <path id="Path_998" data-name="Path 998" d="M594.115,319.263H566.2a3.24,3.24,0,0,1-3.239-3.241V287.56a3.24,3.24,0,0,1,3.239-3.242h27.919a3.242,3.242,0,0,1,3.242,3.242v28.462A3.242,3.242,0,0,1,594.115,319.263Z" fill="url(#linear-gradient-42)"/>
                        <path id="Path_999" data-name="Path 999" d="M564.95,313.285h30.5l-8.275-18.035a1.121,1.121,0,0,0-1.979-.109l-6.483,10.815-4.734-4.893a1.118,1.118,0,0,0-1.761.2Z" fill="url(#linear-gradient-43)"/>
                        <circle id="Ellipse_83" data-name="Ellipse 83" cx="2.749" cy="2.749" r="2.749" transform="translate(574.284 291.065)" fill="url(#linear-gradient-44)"/>
                      </g>
                    </g>
                    <g id="Group_352" data-name="Group 352">
                      <path id="Path_1000" data-name="Path 1000" d="M652.491,220.569H557.907a3.21,3.21,0,0,1-3.209-3.21v-8.27a3.209,3.209,0,0,1,3.209-3.209h94.584a3.211,3.211,0,0,1,3.212,3.209v8.27A3.21,3.21,0,0,1,652.491,220.569Z" opacity="0.4" fill="url(#linear-gradient-20)"/>
                      <path id="Path_1001" data-name="Path 1001" d="M653.852,219.526H559.268a3.21,3.21,0,0,1-3.209-3.21v-8.269a3.21,3.21,0,0,1,3.209-3.21h94.584a3.21,3.21,0,0,1,3.209,3.21v8.269A3.209,3.209,0,0,1,653.852,219.526Z" fill="#fff"/>
                    </g>
                    <g id="Group_353" data-name="Group 353">
                      <path id="Path_1002" data-name="Path 1002" d="M654.1,238.881H612.133a1.111,1.111,0,0,1-1.111-1.109h0a1.111,1.111,0,0,1,1.111-1.11H654.1a1.11,1.11,0,0,1,1.11,1.11h0A1.11,1.11,0,0,1,654.1,238.881Z" fill="#fff"/>
                      <path id="Path_1003" data-name="Path 1003" d="M654.1,245.59H612.133a1.111,1.111,0,0,1-1.111-1.11h0a1.112,1.112,0,0,1,1.111-1.111H654.1a1.111,1.111,0,0,1,1.11,1.111h0A1.11,1.11,0,0,1,654.1,245.59Z" fill="#fff"/>
                      <path id="Path_1004" data-name="Path 1004" d="M654.1,252.3H612.133a1.111,1.111,0,0,1-1.111-1.11h0a1.111,1.111,0,0,1,1.111-1.11H654.1a1.11,1.11,0,0,1,1.11,1.11h0A1.11,1.11,0,0,1,654.1,252.3Z" fill="#fff"/>
                      <path id="Path_1005" data-name="Path 1005" d="M642.137,259.006h-30a1.111,1.111,0,0,1-1.111-1.112h0a1.111,1.111,0,0,1,1.111-1.109h30a1.11,1.11,0,0,1,1.11,1.109h0A1.11,1.11,0,0,1,642.137,259.006Z" fill="#fff"/>
                      <path id="Path_1006" data-name="Path 1006" d="M633.934,265.712h-21.8a1.111,1.111,0,0,1-1.111-1.109h0a1.111,1.111,0,0,1,1.111-1.11h21.8a1.11,1.11,0,0,1,1.11,1.11h0A1.11,1.11,0,0,1,633.934,265.712Z" fill="#fff"/>
                    </g>
                  </g>
                  <g id="Group_363" data-name="Group 363">
                    <path id="Path_1010" data-name="Path 1010" d="M345.31,366.9h-51.4a6.551,6.551,0,0,1-6.551-6.552v-44.23a6.552,6.552,0,0,1,6.551-6.553h51.4a6.552,6.552,0,0,1,6.552,6.553v44.23A6.551,6.551,0,0,1,345.31,366.9Z" opacity="0.5" fill="url(#linear-gradient-31)"/>
                    <g id="Group_359" data-name="Group 359">
                      <circle id="Ellipse_86" data-name="Ellipse 86" cx="3.807" cy="3.807" r="3.807" transform="translate(372.28 314.006)" fill="#fff"/>
                    </g>
                    <g id="Group_362" data-name="Group 362">
                      <path id="Path_1011" data-name="Path 1011" d="M349.082,363.8H296.3a6.553,6.553,0,0,1-6.552-6.552V311.786a6.553,6.553,0,0,1,6.552-6.551H349.51a6.123,6.123,0,0,1,6.123,6.123v45.885A6.552,6.552,0,0,1,349.082,363.8Z" fill="#fff"/>
                      <g id="Group_361" data-name="Group 361">
                        <g id="Group_360" data-name="Group 360">
                          <path id="Path_1012" data-name="Path 1012" d="M315.2,323.679h-4.573l-11.681,11.083h-.005l0,0,0,0h.005l11.681,11.084H315.2l-11.682-11.087Z" fill="#54c712"/>
                          <path id="Path_1013" data-name="Path 1013" d="M330.131,345.853H334.7l11.68-11.084h.006l0,0,0,0h-.006L334.7,323.679h-4.573l11.682,11.087Z" fill="#54c712"/>
                        </g>
                        <path id="Path_1014" data-name="Path 1014" d="M320.171,350.973h-4.132l9.116-32.415h4.133Z" fill="#54c712"/>
                      </g>
                    </g>
                  </g>
                  <g id="Group_366" data-name="Group 366">
                    <g id="Group_365" data-name="Group 365">
                      <path id="Path_1015" data-name="Path 1015" d="M680.866,187.666H625.933a6.979,6.979,0,0,1-6.979-6.98V130.468a6.979,6.979,0,0,1,6.979-6.979h54.933a6.98,6.98,0,0,1,6.979,6.979v50.218A6.979,6.979,0,0,1,680.866,187.666Z" opacity="0.3" fill="url(#linear-gradient-47)"/>
                      <path id="Path_1016" data-name="Path 1016" d="M682.542,185.4H628.969a7.659,7.659,0,0,1-7.658-7.659V128.881a7.659,7.659,0,0,1,7.658-7.659h53.573a7.661,7.661,0,0,1,7.66,7.659V177.74A7.66,7.66,0,0,1,682.542,185.4Z" fill="#fff"/>
                      <g id="Group_364" data-name="Group 364">
                        <path id="Path_1017" data-name="Path 1017" d="M674.928,167.271H636.584a2.221,2.221,0,0,1-2.222-2.221V136.315a2.221,2.221,0,0,1,2.222-2.221h38.344a2.219,2.219,0,0,1,2.221,2.221V165.05A2.221,2.221,0,0,1,674.928,167.271Z" fill="#24bbe2"/>
                        <path id="Path_1018" data-name="Path 1018" d="M650.849,151.226v-6.507a1.155,1.155,0,0,1,1.81-.951l9.465,6.507a1.154,1.154,0,0,1,0,1.9l-9.465,6.507a1.155,1.155,0,0,1-1.81-.95Z" fill="#fff"/>
                      </g>
                    </g>
                    <path id="Path_1019" data-name="Path 1019" d="M621.129,151.589H602.637a4.531,4.531,0,0,0-4.532,4.532v31" fill="none" stroke="#fff" stroke-miterlimit="10" stroke-width="1.088"/>
                    <circle id="Ellipse_87" data-name="Ellipse 87" cx="3.807" cy="3.807" r="3.807" transform="translate(594.433 183.18)" fill="#fff"/>
                  </g>
                  <g id="Group_371" data-name="Group 371">
                    <g id="Group_369" data-name="Group 369" transform="translate(0 22)">
                      <g id="Group_368" data-name="Group 368">
                        <path id="Path_1020" data-name="Path 1020" d="M391.34,361.716s-19.74,48.67-8.042,57.264c11.064,8.129,18.536-.283,21.41-4.727,6.745-10.435,10.958-34.225,14.761-47.591S403.072,334.05,391.34,361.716Z" fill="url(#linear-gradient-48)"/>
                        <path id="Path_1021" data-name="Path 1021" d="M477.866,348.865s36,51.02,24.936,61.629c-12.962,12.43-42.49-35.191-50.559-48.96S457.429,321.354,477.866,348.865Z" fill="url(#linear-gradient-49)"/>
                        <path id="Path_1022" data-name="Path 1022" d="M420.312,338.1s-16.015,5.771-19.43,10.951c-3.98,6.04,2.885,34.505,2.571,46.123s-.447,50.615-.447,50.615a325.758,325.758,0,0,0,33.336,11.335,279.758,279.758,0,0,0,31.271,6.332c-3.926-22.924,4.838-123.493-4.758-125.494,0,0-10.964-3-19.6-3.159S420.312,338.1,420.312,338.1Z" fill="url(#linear-gradient-50)"/>
                        <path id="Path_1023" data-name="Path 1023" d="M441.471,321.76s-2.539,7.742,3.57,16.216c-7.884,11.166-23.68,6.978-25.882,3.745,1.177-7.537-1.314-17.321-4.383-21.215C421.764,321.84,441.471,321.76,441.471,321.76Z" fill="url(#linear-gradient-51)"/>
                        <path id="Path_1024" data-name="Path 1024" d="M429.078,333.581c4.074,3.593,9.641,3.739,14.587,2.226-4.293-7.58-2.194-14.047-2.194-14.047s-8.276.033-16-.307C425.479,325.742,425.659,330.564,429.078,333.581Z" opacity="0.3" fill="url(#linear-gradient-52)"/>
                        <g id="Group_367" data-name="Group 367">
                          <path id="Path_1025" data-name="Path 1025" d="M409.848,314.54a6.834,6.834,0,0,0-2.833-.713c-1.938-.008-4.157.874-4.043,3.085.2,3.928,5.627,8.737,9.807,7.463S415,320.149,415,320.149Z" fill="url(#linear-gradient-53)"/>
                          <path id="Path_1026" data-name="Path 1026" d="M409.619,316.039a4.61,4.61,0,0,0-1.916-.482c-1.314-.007-2.817.591-2.74,2.089.138,2.659,3.812,5.916,6.642,5.054s1.5-2.86,1.5-2.86Z" opacity="0.3" fill="url(#linear-gradient-54)"/>
                        </g>
                        <path id="Path_1027" data-name="Path 1027" d="M435.317,289.191c5,5.021,8.576,13.424,10.469,23.474,1.137,6.043-1.273,12.568-4.031,15.239-3.108,3.011-7.866,3.664-12.786,2.88-6.418-1.023-12.931-5.538-16.311-9.887-6.721-8.643-8.5-14.49-8.407-22.345C404.406,285.128,425.025,278.857,435.317,289.191Z" fill="url(#linear-gradient-55)"/>
                        <path id="Path_1028" data-name="Path 1028" d="M390.982,422.919c-6.495-.152-13-3.608-8.587-17.678,3.4-10.833,26.683-20.913,33.982-24.874l9.143-3.851c-.358,5.651,3.33,9.326,8.8,12.133,0,0-8.136,8.182-18.118,18.78C406.345,417.893,399.173,423.112,390.982,422.919Z" fill="url(#linear-gradient-56)"/>
                        <path id="Path_1029" data-name="Path 1029" d="M502.8,410.494c3.128-5.7,4.187-18.359-9.632-19.661-10.688-1.009-28.238,14.286-35.967,17.323l-6.2,2.333c4.559,3.363,5,8.551,3.623,14.544,0,0,4.688-.312,20.423-2.868C489.24,419.859,499.385,416.713,502.8,410.494Z" fill="url(#linear-gradient-57)"/>
                      </g>
                      <path id="Path_1030" data-name="Path 1030" d="M443.792,286.806c1.073,2.562-.571,5.194-4.348,8.393-3.233,2.738-15.227,8.948-21.577,7.018-1.071,7.559-4.092,11.141-5.933,11.063-.376,2.622,2.211,6.524.724,7.619-.815.6-4.521-5.8-6.031-6.169-3.66-.9-3.093-4.244-4.95-9.349-1.6-4.408-1.991-10.838.617-14.859a12.577,12.577,0,0,1,9.372-6.013c2.758-7.694,15.026-8.322,20.15-5.65,3.774,1.97,5.6,5.391,6.326,5.648C439.418,284.962,443.228,285.458,443.792,286.806Z" fill="url(#linear-gradient-58)"/>
                    </g>
                    <g id="Group_370" data-name="Group 370" transform="translate(0 14)">
                      <path id="Path_1031" data-name="Path 1031" d="M445.908,426.441l-14.013.527a1.832,1.832,0,0,1-1.214-.412h0a2.511,2.511,0,0,1-.791-2.576l6.844-26.123a2.042,2.042,0,0,1,1.829-1.617l13.995-.527a2.279,2.279,0,0,1,2.007,2.988l-6.825,26.122A2.04,2.04,0,0,1,445.908,426.441Z" fill="url(#linear-gradient-59)"/>
                      <path id="Path_1032" data-name="Path 1032" d="M448.014,426.332l-13.906.523a2.324,2.324,0,0,1-2.046-3.051l6.8-26.024a2.091,2.091,0,0,1,1.87-1.653l13.906-.522a2.325,2.325,0,0,1,2.048,3.05l-6.8,26.024A2.087,2.087,0,0,1,448.014,426.332Z" fill="#fff"/>
                    </g>
                    <path id="Path_1033" data-name="Path 1033" d="M456.666,410.691a7.668,7.668,0,0,0-6.321-2.927c-1.173-.044-2.354,0-3.527,0-1,0-2.271-.45-2.291.844-.022,1.7,2.675,2.146,3.947,2.441.668.154,2.107.452,2.326,1.239.188.675-.458.774-.9.825-1.6.188-3.214-.338-4.8-.451a27.5,27.5,0,0,0-7.119.358,2.653,2.653,0,0,0-2.166,2.606c-.049,2.975,2.05,5.172,4.267,6.865,5.441,4.157,14.086,4.629,15.864,3.107C458.629,423.307,461.08,416.159,456.666,410.691Z" transform="translate(0 18)" fill="url(#linear-gradient-60)"/>
                    <path id="Path_1034" data-name="Path 1034" d="M425.488,376s13.835-6.534,16.2-5.22,12.809,16.289,10.7,17.6c-2.143,1.34-8.867-7.881-8.867-7.881s-3.152,10.9-11.693,7.487S425.488,376,425.488,376Z" transform="translate(0 22)" fill="url(#linear-gradient-61)"/>
                  </g>
                  <g id="Group_374" data-name="Group 374">
                    <path id="Path_1035" data-name="Path 1035" d="M653.663,324.307s4.355,4.724-1.413,20.469c0,0,18.324,7.986,28.8-.45-1.531-7.872-5.538-19.929-3.536-25.635C673.157,317.116,653.663,324.307,653.663,324.307Z" fill="url(#linear-gradient-62)"/>
                    <path id="Path_1036" data-name="Path 1036" d="M675.729,318.232c-.6,5-11.033,15.1-21.412,19.728,2.4-10.334-.653-13.653-.653-13.653S667.987,318.564,675.729,318.232Z" opacity="0.3" fill="url(#linear-gradient-63)"/>
                    <path id="Path_1037" data-name="Path 1037" d="M658.982,282.074c-4.967,3.3-7.174,7.929-4.476,11.991s13.866,6.8,18.835,3.5,9.947-11.278,7.25-15.341S663.95,278.776,658.982,282.074Z" fill="url(#linear-gradient-64)"/>
                    <path id="Path_1038" data-name="Path 1038" d="M662.768,286.8c-6.749,2.587-12.138,12.785-13.614,22.091-.412,2.587-1.632,13.228,1.269,15.677,3.815,3.22,12.531,1.944,16.122.793,4.8-1.541,7.956-4.841,10.6-9.338,7.529-12.773,8.844-18.454,3.443-25.652S667.307,285.058,662.768,286.8Z" fill="url(#linear-gradient-65)"/>
                    <path id="Path_1039" data-name="Path 1039" d="M695.441,361.9s13.466,53.188-.335,59.849c-12.8,6.179-18.941-3.063-21.22-8.045-5.348-11.694-6.1-36.688-7.993-50.945S687.566,331.813,695.441,361.9Z" fill="url(#linear-gradient-66)"/>
                    <path id="Path_1040" data-name="Path 1040" d="M674.479,339.478c6.834,1.764,17.2,5.02,19.34,24.357,2.64,23.829-9.41,45.87-9.678,49.973-1.063,16.249,5.749,39.95,5.749,39.95s-13.6,4.791-28.584,9.778-31.427,9.125-31.427,9.125c-2.143-14.95-8.779-63.73.4-94.607s16.219-33.67,21.474-36.333C658.487,338.309,668.817,338.015,674.479,339.478Z" fill="url(#linear-gradient-67)"/>
                    <path id="Path_1041" data-name="Path 1041" d="M650.244,429.024c-17.049-12.986-17.4-33.113-19.477-52.578-.162.534-.324,1.057-.488,1.607-9.181,30.877-2.546,79.649-.4,94.6l59.925-18.83s-2.069-8.453-3.806-17.866C673.282,437.653,660.715,437,650.244,429.024Z" opacity="0.3" fill="url(#linear-gradient-68)"/>
                    <path id="Path_1042" data-name="Path 1042" d="M653.265,375.169c-10.936,10.213-34.948,37.075-48.269,29.5-5.5-3.129-.327-14.483,2.957-18.869,7.706-10.292,23.165-32.152,35.477-39.593C655.576,338.865,676,353.941,653.265,375.169Z" fill="url(#linear-gradient-69)"/>
                    <g id="Group_372" data-name="Group 372">
                      <path id="Path_1043" data-name="Path 1043" d="M587.55,337.534a37.222,37.222,0,0,0-1.089-7.749c-2.263-9.187-6.111-21.372-7.664-21.74-2.193-.52-2.449,1.085-2.456,2.234s1.866,13.287,1.866,13.287-9.213,3.409-10.813,5.715.336,12.029,9.9,17.2S587.55,337.534,587.55,337.534Z" fill="url(#linear-gradient-70)"/>
                      <path id="Path_1044" data-name="Path 1044" d="M606.006,405.038c6.37,2.152,12.194,2.4,13.43-12.813.951-11.708-21.94-43.043-27.4-49.679l-4.276-5.354c-1.853,5.563-8.063,10.194-14.4,10.761C573.357,347.953,588.043,398.972,606.006,405.038Z" fill="url(#linear-gradient-71)"/>
                    </g>
                    <path id="Path_1045" data-name="Path 1045" d="M658.227,288.136c-.969,2.269.733,6.722,2.467,8.992a29.473,29.473,0,0,0,8.273,7.314c.039,1.306-1.108,6.39,1.2,8.77,1.635,1.682,6.347-4.706,7.054-5.382.856,2.4-1.479,5.373-2.013,7.689-.585,2.52.194,15.392,3.362,12.819,1.008-.817,6.1-6.739,7.216-8.063,5.79-6.9,10.342-12.253,9.159-21.408a20.463,20.463,0,0,0-12.239-15.82C665.521,275.869,659.427,285.324,658.227,288.136Z" fill="url(#linear-gradient-72)"/>
                    <g id="Group_373" data-name="Group 373">
                      <path id="Path_1046" data-name="Path 1046" d="M673.314,309.064a.957.957,0,0,1,.211-.308,6.436,6.436,0,0,1,2.184-1.409c1.742-.627,4.079-.106,4.684,1.921,1.073,3.6-2.331,9.227-6.5,9.415s-3.348-3.1-3.348-3.1Z" fill="url(#linear-gradient-73)"/>
                      <path id="Path_1047" data-name="Path 1047" d="M674.073,310.171a4.407,4.407,0,0,1,1.57-1.047c1.181-.426,2.726-.367,3.133,1,.727,2.438-1.54,6.543-4.361,6.671s-2.268-2.1-2.268-2.1Z" opacity="0.3" fill="url(#linear-gradient-74)"/>
                    </g>
                  </g>
                  <path id="Path_1048" data-name="Path 1048" d="M355.8,334.151h16.5a3.9,3.9,0,0,0,3.9-3.9V317.836" fill="none" stroke="#fff" stroke-miterlimit="10" stroke-width="1.088"/>
                </g>
                <g id="Group_381" data-name="Group 381">
                  <g id="Group_378" data-name="Group 378">
                    <g id="Group_377" data-name="Group 377">
                      <g id="Group_376" data-name="Group 376">
                        <path id="Path_1049" data-name="Path 1049" d="M302.98,137.242a10.01,10.01,0,0,0-10.135-9.88,10.333,10.333,0,0,0-3.261.532,3.435,3.435,0,0,0-1.626.693c-.126.066-.244.145-.366.217-.419-5.578-5.354-9.984-11.4-9.984-6.316,0-11.438,4.813-11.438,10.75a9.735,9.735,0,0,0,.063,1.111,8.15,8.15,0,0,0-8.8,13.718l.123.117h43.548A9.733,9.733,0,0,0,302.98,137.242Z" fill="#ede5fc"/>
                      </g>
                    </g>
                    <path id="Path_1050" data-name="Path 1050" d="M281.384,148.863V135.182H273.9v13.681h-2.946l6.686,5.722,6.684-5.722Z" fill="#ede5fc"/>
                  </g>
                  <g id="Group_380" data-name="Group 380">
                    <g id="Group_379" data-name="Group 379">
                      <path id="Path_1051" data-name="Path 1051" d="M304.068,136.427a10.01,10.01,0,0,0-10.135-9.881,10.356,10.356,0,0,0-3.261.532,3.453,3.453,0,0,0-1.626.693c-.126.068-.244.145-.366.217-.42-5.578-5.354-9.984-11.4-9.984-6.317,0-11.438,4.813-11.438,10.75a10.216,10.216,0,0,0,.061,1.112,8.149,8.149,0,0,0-8.8,13.717c.052.051.09.087.123.118h43.547A9.728,9.728,0,0,0,304.068,136.427Z" fill="#fff"/>
                    </g>
                    <path id="Path_1052" data-name="Path 1052" d="M282.471,148.048V134.365h-7.478v13.683h-2.946l6.685,5.722,6.685-5.722Z" fill="#00adef"/>
                  </g>
                </g>
              </g>
            </g>
          </g>
          <path id="microsoft-windows-22" d="M0,8.407,24.193,5.113l.01,23.336L.022,28.587,0,8.408Zm24.182,22.73L24.2,54.494.019,51.169V30.981l24.164.157ZM27.114,4.682,59.192,0V28.152l-32.078.254V4.682ZM59.2,31.357l-.008,28.025L27.114,54.855,27.069,31.3Z" transform="translate(131 -10595.905)" fill="#00adef"/>
          <g id="androlid" transform="translate(65 -10675.95)">
            <path id="Path_1053" data-name="Path 1053" d="M14.268,50.37a2,2,0,0,1,2.01,1.994v8.555a2.01,2.01,0,0,1-4.021,0V52.364a2,2,0,0,1,2.01-1.994Z" transform="translate(-4.425 -10.963)" fill="#54c712"/>
            <path id="Path_1054" data-name="Path 1054" d="M8.214,34.273c-.007.076-.012.152-.012.229V47.464a2.5,2.5,0,0,0,2.493,2.517H23.982a2.5,2.5,0,0,0,2.493-2.517V34.5c0-.077,0-.154-.009-.229Z" transform="translate(-2.961 -5.153)" fill="#54c712"/>
            <path id="Path_1055" data-name="Path 1055" d="M9.182,20.028a.213.213,0,0,1,.289.077l2.121,3.644a.209.209,0,0,1-.078.287.213.213,0,0,1-.289-.077L9.1,20.315A.209.209,0,0,1,9.182,20.028Zm16.945,0a.209.209,0,0,1,.078.287l-2.121,3.644a.213.213,0,0,1-.289.077.209.209,0,0,1-.077-.287l2.121-3.644A.213.213,0,0,1,26.127,20.028Z" transform="translate(-3.276)" fill="#54c712" fill-rule="evenodd"/>
            <path id="Path_1056" data-name="Path 1056" d="M20.923,41.737a2,2,0,0,0-2.01-1.994h0a2,2,0,0,0-2.01,1.994v8.555a2.01,2.01,0,0,0,4.021,0Zm-16.9-9.132a2.01,2.01,0,0,0-4.021,0V41.16a2.01,2.01,0,0,0,4.021,0Zm24.734,0a2.01,2.01,0,0,0-4.021,0V41.16a2.01,2.01,0,0,0,4.021,0ZM13.367,20.931c-4.5.43-8,3.694-8.055,7.676H23.443c-.056-3.981-3.559-7.245-8.055-7.676ZM10.64,26.049a1.024,1.024,0,0,0,1.037-1.01v-.006a1.041,1.041,0,0,0-2.08.006v.006A1.025,1.025,0,0,0,10.64,26.049Zm7.764,0a1.024,1.024,0,0,0,1.037-1.01v-.006a1.041,1.041,0,0,0-2.08.006v.006A1.025,1.025,0,0,0,18.4,26.049Z" transform="translate(0 -0.336)" fill="#54c712" fill-rule="evenodd"/>
          </g>
          <g id="appple" transform="translate(220.398 -10650.295)">
            <path id="Path_1057" data-name="Path 1057" d="M29.22,25h.323A9.748,9.748,0,0,1,27.1,32.337a7.579,7.579,0,0,1-6.677,3.141,9.455,9.455,0,0,1,2.491-7.11A10.751,10.751,0,0,1,29.22,25Z" transform="translate(-1.993 0)" fill="#fff"/>
            <path id="Path_1058" data-name="Path 1058" d="M36.992,59.169v.09a26.472,26.472,0,0,1-3.778,7.3c-1.441,1.987-3.206,4.66-6.358,4.66-2.724,0-4.533-1.755-7.324-1.8-2.953-.048-4.577,1.468-7.277,1.849h-.921c-1.983-.287-3.582-1.861-4.748-3.278A28.754,28.754,0,0,1,0,51.46V49.426c.209-4.955,2.612-8.984,5.806-10.937a9.79,9.79,0,0,1,6.583-1.527,16.527,16.527,0,0,1,3.226.926,8.9,8.9,0,0,0,3.224.968,7.726,7.726,0,0,0,2.262-.693c2.224-.8,4.4-1.727,7.277-1.294A10.093,10.093,0,0,1,35.8,41.3a9.544,9.544,0,0,0-4.836,9.464A9.768,9.768,0,0,0,36.992,59.169Z" transform="translate(0 -1.149)" fill="#fff"/>
            <path id="Path_1071" data-name="Path 1071" d="M29.22,25h.323A9.748,9.748,0,0,1,27.1,32.337a7.579,7.579,0,0,1-6.677,3.141,9.455,9.455,0,0,1,2.491-7.11A10.751,10.751,0,0,1,29.22,25Z" transform="translate(-113.993 -218)" fill="#fff"/>
            <path id="Path_1072" data-name="Path 1072" d="M36.992,59.169v.09a26.472,26.472,0,0,1-3.778,7.3c-1.441,1.987-3.206,4.66-6.358,4.66-2.724,0-4.533-1.755-7.324-1.8-2.953-.048-4.577,1.468-7.277,1.849h-.921c-1.983-.287-3.582-1.861-4.748-3.278A28.754,28.754,0,0,1,0,51.46V49.426c.209-4.955,2.612-8.984,5.806-10.937a9.79,9.79,0,0,1,6.583-1.527,16.527,16.527,0,0,1,3.226.926,8.9,8.9,0,0,0,3.224.968,7.726,7.726,0,0,0,2.262-.693c2.224-.8,4.4-1.727,7.277-1.294A10.093,10.093,0,0,1,35.8,41.3a9.544,9.544,0,0,0-4.836,9.464A9.768,9.768,0,0,0,36.992,59.169Z" transform="translate(-112 -219.149)" fill="#fff"/>
          </g>
          <path id="microsoft-windows-22-2" data-name="microsoft-windows-22" d="M0,4.829,13.9,2.937l.006,13.4L.013,16.42,0,4.829ZM13.89,17.885,13.9,31.3.011,29.391V17.8l13.88.09Zm1.685-15.2L34,0V16.17l-18.425.146V2.689ZM34,18.011l0,16.1-18.425-2.6-.026-13.527Z" transform="translate(-85.679 -10624)" fill="#fff"/>
        </g>
      </g>
      <rect id="Rectangle_331" data-name="Rectangle 331" width="58.24" height="57.85" rx="5.64" transform="translate(87.753 -10923.083)" fill="#0fb2df"/>
      <path id="Path_1066" data-name="Path 1066" d="M371.12,253.15a4.5,4.5,0,0,0,4.5-4.5V199.8a4.5,4.5,0,0,0-2.68-4.11c-20.27,31.51-42.4,46.28-55.56,52.79v.17a4.49,4.49,0,0,0,4.5,4.5Z" transform="translate(-229.627 -11118.384)" fill="#24bae3"/>
      <rect id="Rectangle_332" data-name="Rectangle 332" width="65.39" height="64.95" rx="5.64" transform="translate(84.173 -10926.634)" fill="none" stroke="#fff" stroke-miterlimit="10" stroke-width="2"/>
      <path id="Path_1070" data-name="Path 1070" d="M386.9,248.85,375,260.74a.75.75,0,0,1-1.27-.36l-3.94-15.86a.76.76,0,0,1,.92-.92l15.85,4a.76.76,0,0,1,.34,1.25Z" transform="translate(-228.627 -11112.695)" fill="#fff"/>
      <rect id="Rectangle_333" data-name="Rectangle 333" width="3.97" height="14.42" rx="0.94" transform="translate(160.488 -10852.51) rotate(135.05)" fill="#fff"/>
      <g id="appple-2" data-name="appple" transform="translate(99.273 -10945.622)">
        <path id="Path_1073" data-name="Path 1073" d="M28.792,25H29.1a9.276,9.276,0,0,1-2.328,6.982,7.212,7.212,0,0,1-6.353,2.988,9,9,0,0,1,2.37-6.765A10.23,10.23,0,0,1,28.792,25Z" transform="translate(-2.885)" fill="#fff"/>
        <path id="Path_1074" data-name="Path 1074" d="M35.2,58.083v.085a25.19,25.19,0,0,1-3.595,6.944c-1.371,1.89-3.051,4.434-6.05,4.434-2.592,0-4.313-1.67-6.97-1.716-2.81-.046-4.355,1.4-6.924,1.759h-.876C8.9,69.317,7.377,67.82,6.268,66.471A27.361,27.361,0,0,1,0,50.748V48.812C.2,44.1,2.486,40.263,5.525,38.4a9.315,9.315,0,0,1,6.264-1.453,15.726,15.726,0,0,1,3.07.882,8.465,8.465,0,0,0,3.068.921,7.351,7.351,0,0,0,2.152-.659c2.116-.766,4.19-1.643,6.924-1.231a9.6,9.6,0,0,1,7.059,4.218,9.081,9.081,0,0,0-4.6,9.005A9.3,9.3,0,0,0,35.2,58.083Z" transform="translate(0 -1.663)" fill="#fff"/>
      </g>
      <rect id="Rectangle_337" data-name="Rectangle 337" width="58.24" height="57.85" rx="5.64" transform="translate(407.068 -10667.542)" fill="#4dbc0d"/>
      <path id="Path_1080" data-name="Path 1080" d="M371.12,253.15a4.5,4.5,0,0,0,4.5-4.5V199.8a4.5,4.5,0,0,0-2.68-4.11c-20.27,31.51-42.4,46.28-55.56,52.79v.17a4.49,4.49,0,0,0,4.5,4.5Z" transform="translate(89.688 -10862.843)" fill="#54c712"/>
      <rect id="Rectangle_338" data-name="Rectangle 338" width="65.39" height="64.95" rx="5.64" transform="translate(403.488 -10671.093)" fill="none" stroke="#fff" stroke-miterlimit="10" stroke-width="2"/>
      <path id="Path_1081" data-name="Path 1081" d="M386.9,248.85,375,260.74a.75.75,0,0,1-1.27-.36l-3.94-15.86a.76.76,0,0,1,.92-.92l15.85,4a.76.76,0,0,1,.34,1.25Z" transform="translate(90.688 -10857.154)" fill="#fff"/>
      <rect id="Rectangle_339" data-name="Rectangle 339" width="3.97" height="14.42" rx="0.94" transform="translate(479.803 -10596.969) rotate(135.05)" fill="#fff"/>
      <g id="androlid-2" data-name="androlid" transform="translate(417.518 -10680.146)">
        <path id="Path_1082" data-name="Path 1082" d="M14.922,50.37a2.654,2.654,0,0,1,2.665,2.643V64.352a2.665,2.665,0,0,1-5.329,0V53.013a2.654,2.654,0,0,1,2.664-2.643Z" transform="translate(-1.876 -4.648)" fill="#fff"/>
        <path id="Path_1083" data-name="Path 1083" d="M8.218,34.273c-.009.1-.016.2-.016.3V51.757a3.314,3.314,0,0,0,3.3,3.336H29.117a3.314,3.314,0,0,0,3.3-3.336V34.577c0-.1,0-.2-.012-.3Z" transform="translate(-1.255 -2.184)" fill="#fff"/>
        <path id="Path_1084" data-name="Path 1084" d="M9.217,20.037a.282.282,0,0,1,.383.1l2.811,4.83a.277.277,0,0,1-.1.38.282.282,0,0,1-.383-.1L9.114,20.418A.277.277,0,0,1,9.217,20.037Zm22.459,0a.277.277,0,0,1,.1.38l-2.811,4.829a.282.282,0,0,1-.383.1.277.277,0,0,1-.1-.38l2.811-4.83A.282.282,0,0,1,31.676,20.037Z" transform="translate(-1.389)" fill="#fff" fill-rule="evenodd"/>
        <path id="Path_1085" data-name="Path 1085" d="M27.732,48.508a2.654,2.654,0,0,0-2.665-2.643h0A2.654,2.654,0,0,0,22.4,48.508V59.847a2.665,2.665,0,0,0,5.329,0ZM5.329,36.4a2.665,2.665,0,0,0-5.329,0V47.744a2.665,2.665,0,0,0,5.329,0Zm32.784,0a2.665,2.665,0,0,0-5.329,0V47.744a2.665,2.665,0,0,0,5.329,0Zm-20.4-15.474c-5.96.57-10.6,4.9-10.677,10.174H31.072C31,25.828,26.355,21.5,20.4,20.931ZM14.1,27.715a1.357,1.357,0,0,0,1.375-1.339v-.008a1.379,1.379,0,0,0-2.757.008v.007A1.358,1.358,0,0,0,14.1,27.715Zm10.29,0a1.357,1.357,0,0,0,1.375-1.339v-.008a1.379,1.379,0,0,0-2.757.008v.007A1.358,1.358,0,0,0,24.392,27.715Z" transform="translate(0 -0.142)" fill="#fff" fill-rule="evenodd"/>
      </g>
      <rect id="Rectangle_340" data-name="Rectangle 340" width="58.24" height="57.85" rx="5.64" transform="translate(-117.222 -10711.799)" fill="#07a7d4"/>
      <path id="Path_1086" data-name="Path 1086" d="M371.12,253.15a4.5,4.5,0,0,0,4.5-4.5V199.8a4.5,4.5,0,0,0-2.68-4.11c-20.27,31.51-42.4,46.28-55.56,52.79v.17a4.49,4.49,0,0,0,4.5,4.5Z" transform="translate(-434.602 -10907.1)" fill="#24bae3"/>
      <rect id="Rectangle_341" data-name="Rectangle 341" width="65.39" height="64.95" rx="5.64" transform="translate(-120.802 -10715.35)" fill="none" stroke="#fff" stroke-miterlimit="10" stroke-width="2"/>
      <path id="Path_1087" data-name="Path 1087" d="M386.9,248.85,375,260.74a.75.75,0,0,1-1.27-.36l-3.94-15.86a.76.76,0,0,1,.92-.92l15.85,4a.76.76,0,0,1,.34,1.25Z" transform="translate(-433.602 -10901.412)" fill="#fff"/>
      <rect id="Rectangle_342" data-name="Rectangle 342" width="3.97" height="14.42" rx="0.94" transform="translate(-44.487 -10641.227) rotate(135.05)" fill="#fff"/>
      <path id="microsoft-windows-22-3" data-name="microsoft-windows-22" d="M0,6.13l17.64-2.4.008,17.016-17.632.1L0,6.13ZM17.632,22.7l.013,17.03L.014,37.31V22.59l17.619.114ZM19.77,3.414,43.16,0V20.527l-23.389.185V3.414Zm23.395,19.45L43.16,43.3,19.77,40l-.033-17.172Z" transform="translate(-109.685 -10704.328)" fill="#fff"/>
    </g>
  </g>
</svg>
