<svg xmlns="http://www.w3.org/2000/svg" width="387.005" height="319.832" viewBox="0 0 387.005 319.832">
  <g id="Group_440" data-name="Group 440" transform="translate(-15112 13747.577)">
    <g id="OBJECTS" transform="translate(14821.089 -13859.038)">
      <g id="Group_439" data-name="Group 439">
        <g id="Group_438" data-name="Group 438">
          <g id="Group_426" data-name="Group 426">
            <path id="Path_1079" data-name="Path 1079" d="M437.689,321.087H423.223a57.671,57.671,0,0,0-3.37-9.031l10.11-10.11a3.152,3.152,0,0,0,0-4.456l-21.238-21.237a3.151,3.151,0,0,0-4.455,0l-9.334,9.333a57.906,57.906,0,0,0-9.665-4.212V268.18a3.15,3.15,0,0,0-3.15-3.15H352.086a3.15,3.15,0,0,0-3.151,3.15v13.168a57.812,57.812,0,0,0-9.566,4.134l-9.576-9.576a3.152,3.152,0,0,0-4.456,0L304.1,297.142a3.152,3.152,0,0,0,0,4.456l10.291,10.291a57.937,57.937,0,0,0-3.285,8.707H296.027a3.151,3.151,0,0,0-3.151,3.151v30.034a3.151,3.151,0,0,0,3.151,3.151h16.454a57.919,57.919,0,0,0,3.246,7.167l-11.974,11.975a3.152,3.152,0,0,0,0,4.456l21.237,21.237a3.152,3.152,0,0,0,4.456,0l12.526-12.525a57.7,57.7,0,0,0,6.472,2.663v17.936a3.15,3.15,0,0,0,3.151,3.15H381.63a3.15,3.15,0,0,0,3.15-3.15v-17.6a57.783,57.783,0,0,0,6.686-2.582l12.457,12.457a3.152,3.152,0,0,0,4.456,0l21.237-21.237a3.152,3.152,0,0,0,0-4.456L418.095,364.9a58.029,58.029,0,0,0,3.477-7.477H437.69a3.15,3.15,0,0,0,3.15-3.15V324.239A3.151,3.151,0,0,0,437.689,321.087Zm-65.794,62.649a44.477,44.477,0,1,1,40.723-40.722A44.484,44.484,0,0,1,371.895,383.736Z" fill="none" stroke="#cecece" stroke-miterlimit="10" stroke-width="1.155"/>
          </g>
          <g id="Group_427" data-name="Group 427">
            <path id="Path_1080" data-name="Path 1080" d="M635.634,168.1H621.168a57.62,57.62,0,0,0-3.37-9.032l10.11-10.11a3.152,3.152,0,0,0,0-4.456L606.67,123.262a3.151,3.151,0,0,0-4.455,0l-9.334,9.333a57.929,57.929,0,0,0-9.664-4.212V115.189a3.151,3.151,0,0,0-3.151-3.151H550.032a3.151,3.151,0,0,0-3.151,3.151v13.167a57.9,57.9,0,0,0-9.566,4.134l-9.575-9.576a3.152,3.152,0,0,0-4.456,0l-21.238,21.238a3.152,3.152,0,0,0,0,4.456L512.337,158.9a57.934,57.934,0,0,0-3.284,8.707H493.974a3.15,3.15,0,0,0-3.15,3.151v30.035a3.15,3.15,0,0,0,3.15,3.151h16.454a57.842,57.842,0,0,0,3.246,7.167L501.7,223.085a3.152,3.152,0,0,0,0,4.456l21.237,21.237a3.152,3.152,0,0,0,4.456,0l12.526-12.526a57.694,57.694,0,0,0,6.472,2.663v17.936a3.15,3.15,0,0,0,3.151,3.15h30.034a3.15,3.15,0,0,0,3.151-3.15v-17.6a57.849,57.849,0,0,0,6.686-2.582l12.456,12.457a3.152,3.152,0,0,0,4.456,0l21.237-21.237a3.152,3.152,0,0,0,0-4.456L616.04,211.91a58.032,58.032,0,0,0,3.477-7.477h16.118a3.15,3.15,0,0,0,3.15-3.15V171.248A3.152,3.152,0,0,0,635.634,168.1Zm-65.794,62.65a44.477,44.477,0,1,1,40.722-40.721A44.485,44.485,0,0,1,569.84,230.747Z" fill="none" stroke="#cecece" stroke-miterlimit="10" stroke-width="1.155"/>
          </g>
          <g id="Group_428" data-name="Group 428">
            <rect id="Rectangle_379" data-name="Rectangle 379" width="4.451" height="225.069" transform="translate(597.92 169.219) rotate(-7.632)" fill="#01183a"/>
            <rect id="Rectangle_380" data-name="Rectangle 380" width="4.451" height="225.07" transform="translate(636.358 164.071) rotate(-7.632)" fill="#01183a"/>
            <rect id="Rectangle_381" data-name="Rectangle 381" width="37.406" height="2.755" transform="matrix(0.991, -0.133, 0.133, 0.991, 603.437, 183.706)" fill="#9ae503"/>
            <rect id="Rectangle_382" data-name="Rectangle 382" width="37.405" height="2.755" transform="matrix(0.991, -0.133, 0.133, 0.991, 606.475, 206.395)" fill="#9ae503"/>
            <rect id="Rectangle_383" data-name="Rectangle 383" width="37.406" height="2.755" transform="matrix(0.991, -0.133, 0.133, 0.991, 609.512, 229.089)" fill="#9ae503"/>
            <rect id="Rectangle_384" data-name="Rectangle 384" width="37.406" height="2.756" transform="matrix(0.991, -0.133, 0.133, 0.991, 612.547, 251.783)" fill="#9ae503"/>
            <rect id="Rectangle_385" data-name="Rectangle 385" width="37.405" height="2.755" transform="matrix(0.991, -0.133, 0.133, 0.991, 615.585, 274.465)" fill="#9ae503"/>
            <rect id="Rectangle_386" data-name="Rectangle 386" width="37.405" height="2.755" transform="matrix(0.991, -0.133, 0.133, 0.991, 618.623, 297.152)" fill="#9ae503"/>
            <rect id="Rectangle_387" data-name="Rectangle 387" width="37.406" height="2.756" transform="matrix(0.991, -0.133, 0.133, 0.991, 621.661, 319.836)" fill="#9ae503"/>
            <rect id="Rectangle_388" data-name="Rectangle 388" width="37.406" height="2.755" transform="matrix(0.991, -0.133, 0.133, 0.991, 624.698, 342.524)" fill="#9ae503"/>
            <rect id="Rectangle_389" data-name="Rectangle 389" width="37.405" height="2.756" transform="matrix(0.991, -0.133, 0.133, 0.991, 627.735, 365.212)" fill="#9ae503"/>
          </g>
          <g id="Group_429" data-name="Group 429">
            <rect id="Rectangle_390" data-name="Rectangle 390" width="4.451" height="225.069" transform="translate(378.616 181.122) rotate(1.18)" fill="#01183a"/>
            <rect id="Rectangle_391" data-name="Rectangle 391" width="4.45" height="225.07" transform="translate(417.362 181.923) rotate(1.169)" fill="#01183a"/>
            <rect id="Rectangle_392" data-name="Rectangle 392" width="37.405" height="2.755" transform="translate(381.799 196.228) rotate(1.175)" fill="#2591ef"/>
            <rect id="Rectangle_393" data-name="Rectangle 393" width="37.405" height="2.755" transform="translate(381.31 219.146) rotate(1.18)" fill="#2591ef"/>
            <rect id="Rectangle_394" data-name="Rectangle 394" width="37.406" height="2.755" transform="translate(380.859 241.996) rotate(1.175)" fill="#2591ef"/>
            <rect id="Rectangle_395" data-name="Rectangle 395" width="37.405" height="2.755" transform="translate(380.391 264.88) rotate(1.175)" fill="#2591ef"/>
            <rect id="Rectangle_396" data-name="Rectangle 396" width="37.405" height="2.754" transform="translate(379.9 287.792) rotate(1.18)" fill="#2591ef"/>
            <rect id="Rectangle_397" data-name="Rectangle 397" width="37.405" height="2.754" transform="translate(379.451 310.648) rotate(1.175)" fill="#2591ef"/>
            <rect id="Rectangle_398" data-name="Rectangle 398" width="37.405" height="2.755" transform="translate(378.983 333.531) rotate(1.175)" fill="#2591ef"/>
            <rect id="Rectangle_399" data-name="Rectangle 399" width="37.405" height="2.755" transform="translate(378.513 356.415) rotate(1.175)" fill="#2591ef"/>
            <rect id="Rectangle_400" data-name="Rectangle 400" width="37.405" height="2.754" transform="translate(378.015 379.327) rotate(1.18)" fill="#2591ef"/>
          </g>
          <g id="Group_431" data-name="Group 431">
            <rect id="Rectangle_401" data-name="Rectangle 401" width="198.373" height="151.791" transform="translate(439.01 190.328)" fill="#01183a"/>
            <rect id="Rectangle_402" data-name="Rectangle 402" width="184.318" height="134.926" transform="translate(446.037 198.761)" fill="#4e6c84"/>
            <path id="Path_1081" data-name="Path 1081" d="M446.037,305.164v28.522H630.355V237.074a91.729,91.729,0,0,1-19.3,14.607C559.626,282.928,503.229,307.709,446.037,305.164Z" fill="#37576d"/>
            <rect id="Rectangle_403" data-name="Rectangle 403" width="184.318" height="6.049" transform="translate(446.037 198.761)" fill="#37576d"/>
            <g id="Group_430" data-name="Group 430">
              <path id="Path_1082" data-name="Path 1082" d="M677.908,393.454l-255.479-.1,16.527-51.2H637.451Z" fill="#a4a3cc"/>
              <path id="Path_1083" data-name="Path 1083" d="M677.908,393.454,651.715,360.24c-68.98,35.681-149.956,23.869-225.725,22.079l-3.562,11.033Z" fill="#8585b5"/>
              <path id="Path_1084" data-name="Path 1084" d="M478.3,350.864H459.846l.93-2.887h18.056Z" fill="#6d6d91" opacity="0.58"/>
              <path id="Path_1085" data-name="Path 1085" d="M502.213,350.866h-18.46l.417-2.888h18.063Z" fill="#6d6d91" opacity="0.58"/>
              <path id="Path_1086" data-name="Path 1086" d="M526.139,350.867H507.67l-.1-2.889h18.072Z" fill="#6d6d91" opacity="0.58"/>
              <path id="Path_1087" data-name="Path 1087" d="M550.074,350.869H531.6l-.612-2.89h18.078Z" fill="#6d6d91" opacity="0.58"/>
              <path id="Path_1088" data-name="Path 1088" d="M574.021,350.871l-18.484,0-1.127-2.89H572.5Z" fill="#6d6d91" opacity="0.58"/>
              <path id="Path_1089" data-name="Path 1089" d="M597.979,350.872H579.486l-1.642-2.892h18.094Z" fill="#6d6d91" opacity="0.58"/>
              <path id="Path_1090" data-name="Path 1090" d="M621.945,350.874h-18.5l-2.158-2.893h18.1Z" fill="#6d6d91" opacity="0.58"/>
              <path id="Path_1091" data-name="Path 1091" d="M477.138,357.128l-19.312,0,1.531-4.748h18.66Z" fill="#6d6d91" opacity="0.58"/>
              <path id="Path_1092" data-name="Path 1092" d="M502.168,357.131l-19.32,0,.685-4.75,18.669,0Z" fill="#6d6d91" opacity="0.58"/>
              <path id="Path_1093" data-name="Path 1093" d="M527.209,357.135l-19.329,0-.159-4.751,18.676,0Z" fill="#6d6d91" opacity="0.58"/>
              <path id="Path_1094" data-name="Path 1094" d="M552.263,357.138l-19.338,0-1.006-4.752,18.685,0Z" fill="#6d6d91" opacity="0.58"/>
              <path id="Path_1095" data-name="Path 1095" d="M577.327,357.141l-19.347,0-1.852-4.753,18.692,0Z" fill="#6d6d91" opacity="0.58"/>
              <path id="Path_1096" data-name="Path 1096" d="M602.4,357.144l-19.356,0-2.7-4.754,18.7,0Z" fill="#6d6d91" opacity="0.58"/>
              <path id="Path_1097" data-name="Path 1097" d="M627.49,357.146H608.126l-3.549-4.756,18.709,0Z" fill="#6d6d91" opacity="0.58"/>
              <path id="Path_1098" data-name="Path 1098" d="M475.847,364.1l-20.269,0,1.684-5.222,19.551,0Z" fill="#6d6d91" opacity="0.58"/>
              <path id="Path_1099" data-name="Path 1099" d="M502.118,364.106l-20.278,0,.755-5.224,19.56,0Z" fill="#6d6d91" opacity="0.58"/>
              <path id="Path_1100" data-name="Path 1100" d="M528.4,364.111l-20.288,0-.176-5.224,19.571,0Z" fill="#6d6d91" opacity="0.58"/>
              <path id="Path_1101" data-name="Path 1101" d="M554.7,364.116l-20.3,0-1.105-5.226,19.579,0Z" fill="#6d6d91" opacity="0.58"/>
              <path id="Path_1102" data-name="Path 1102" d="M581.008,364.121l-20.308,0-2.037-5.227,19.588,0Z" fill="#6d6d91" opacity="0.58"/>
              <path id="Path_1103" data-name="Path 1103" d="M607.33,364.126l-20.318,0-2.97-5.228,19.6,0Z" fill="#6d6d91" opacity="0.58"/>
              <path id="Path_1104" data-name="Path 1104" d="M633.664,364.131l-20.327,0-3.9-5.231,19.606,0Z" fill="#6d6d91" opacity="0.58"/>
              <path id="Path_1105" data-name="Path 1105" d="M474.46,371.593l-21.3-.006,1.856-5.755,20.506,0Z" fill="#6d6d91" opacity="0.58"/>
              <path id="Path_1106" data-name="Path 1106" d="M502.064,371.6l-21.307-.006.832-5.757,20.516.005Z" fill="#6d6d91" opacity="0.58"/>
              <path id="Path_1107" data-name="Path 1107" d="M585.4,371.621l-77.39-.019-.18-5.759,74.515.014Z" fill="#6d6d91" opacity="0.58"/>
              <path id="Path_1108" data-name="Path 1108" d="M581.4,387.822l-67.306.01,2.52-12.353,57.032.028Z" fill="#6d6d91" opacity="0.58"/>
              <path id="Path_1109" data-name="Path 1109" d="M612.623,371.628l-21.352-.006L588,365.858l20.557,0Z" fill="#6d6d91" opacity="0.58"/>
              <path id="Path_1110" data-name="Path 1110" d="M640.3,371.635l-21.361-.006-4.3-5.765,20.566,0Z" fill="#6d6d91" opacity="0.58"/>
            </g>
            <path id="Path_1111" data-name="Path 1111" d="M677.851,400.578H422.43V393.35l255.486.107Z" fill="#5b5b87"/>
          </g>
          <g id="Group_433" data-name="Group 433">
            <g id="Group_432" data-name="Group 432">
              <path id="Path_1112" data-name="Path 1112" d="M487.785,420.11h-77.8a12.841,12.841,0,0,1-12.84-12.841V235.82a12.84,12.84,0,0,1,12.84-12.84h77.795a12.84,12.84,0,0,1,12.84,12.84V407.27A12.84,12.84,0,0,1,487.785,420.11Z" fill="#3f3f63"/>
              <path id="Path_1113" data-name="Path 1113" d="M482.611,404.752H415.163a11.272,11.272,0,0,1-11.272-11.272V241.3a11.273,11.273,0,0,1,11.272-11.273h67.448A11.272,11.272,0,0,1,493.884,241.3V393.48A11.271,11.271,0,0,1,482.611,404.752Z" fill="#fff"/>
              <path id="Path_1114" data-name="Path 1114" d="M430.294,368.491a160.6,160.6,0,0,1-26.4,3.59v21.4a11.272,11.272,0,0,0,11.272,11.272h67.448a11.272,11.272,0,0,0,11.273-11.272V334.188C478.288,352.047,454.067,363.486,430.294,368.491Z" fill="#e3e3e5"/>
              <path id="Path_1115" data-name="Path 1115" d="M493.885,321.82V241.3a11.273,11.273,0,0,0-11.273-11.273H415.164A11.272,11.272,0,0,0,403.892,241.3V321.82Z" fill="#2591ef"/>
              <path id="Path_1116" data-name="Path 1116" d="M433.281,232.3h31.213a3.577,3.577,0,0,0,3.577-3.577h0a3.577,3.577,0,0,0-3.577-3.577H433.281a3.576,3.576,0,0,0-3.577,3.577h0A3.577,3.577,0,0,0,433.281,232.3Z" fill="#3f3f63"/>
            </g>
            <path id="Path_1117" data-name="Path 1117" d="M381.922,351.539H330.058a8.136,8.136,0,0,1-8.135-8.136V329.166a8.136,8.136,0,0,1,8.135-8.135h51.864a8.136,8.136,0,0,1,8.136,8.135V343.4A8.136,8.136,0,0,1,381.922,351.539Z" fill="#2591ef"/>
            <path id="Path_1118" data-name="Path 1118" d="M383.792,305.2H338.877a7.045,7.045,0,0,1-7.045-7.046V285.827a7.045,7.045,0,0,1,7.045-7.046h44.915a7.046,7.046,0,0,1,7.046,7.046v12.329A7.046,7.046,0,0,1,383.792,305.2Z" fill="#9ae503"/>
            <path id="Path_1119" data-name="Path 1119" d="M561.175,321.688h-47.6a7.467,7.467,0,0,1-7.467-7.467V301.154a7.468,7.468,0,0,1,7.467-7.468h47.6a7.469,7.469,0,0,1,7.468,7.468v13.067A7.468,7.468,0,0,1,561.175,321.688Z" fill="#9ae503"/>
            <path id="Path_1120" data-name="Path 1120" d="M429.757,316.962l18.341,22.2,16.411-22.2Z" fill="#2591ef"/>
          </g>
          <circle id="Ellipse_108" data-name="Ellipse 108" cx="6.358" cy="6.358" r="6.358" transform="translate(316.766 418.577)" fill="#fff"/>
          <circle id="Ellipse_109" data-name="Ellipse 109" cx="1.978" cy="1.978" r="1.978" transform="translate(332.59 401.622)" fill="#fff"/>
          <circle id="Ellipse_110" data-name="Ellipse 110" cx="11.568" cy="11.568" r="11.568" transform="translate(290.911 372.111)" fill="#2591ef"/>
          <circle id="Ellipse_111" data-name="Ellipse 111" cx="5.683" cy="5.683" r="5.683" transform="translate(332.386 361.018)" fill="#2591ef"/>
          <circle id="Ellipse_112" data-name="Ellipse 112" cx="5.683" cy="5.683" r="5.683" transform="translate(337.645 256.945)" fill="#2591ef"/>
          <circle id="Ellipse_113" data-name="Ellipse 113" cx="3.677" cy="3.677" r="3.677" transform="translate(300.766 330.697)" fill="#2591ef"/>
          <rect id="Rectangle_404" data-name="Rectangle 404" width="68.665" height="5.086" transform="translate(507.361 214.842)" fill="#9ae503"/>
          <rect id="Rectangle_405" data-name="Rectangle 405" width="52.064" height="5.086" transform="translate(451.977 214.842)" fill="#fff"/>
          <rect id="Rectangle_406" data-name="Rectangle 406" width="47.331" height="5.086" transform="translate(578.569 214.842)" fill="#fff"/>
          <rect id="Rectangle_407" data-name="Rectangle 407" width="68.665" height="5.086" transform="translate(557.235 223.601)" fill="#9ae503"/>
          <rect id="Rectangle_408" data-name="Rectangle 408" width="47.331" height="5.086" transform="translate(507.361 223.601)" fill="#fff"/>
          <rect id="Rectangle_409" data-name="Rectangle 409" width="68.665" height="5.086" transform="translate(507.361 267.259)" fill="#9ae503"/>
          <rect id="Rectangle_410" data-name="Rectangle 410" width="47.331" height="5.086" transform="translate(578.569 267.259)" fill="#fff"/>
          <rect id="Rectangle_411" data-name="Rectangle 411" width="35.251" height="5.086" transform="translate(590.649 258.005)" fill="#fff"/>
          <rect id="Rectangle_412" data-name="Rectangle 412" width="35.251" height="5.086" transform="translate(552.078 258.005)" fill="#2591ef"/>
          <rect id="Rectangle_413" data-name="Rectangle 413" width="35.251" height="5.086" transform="translate(513.437 258.005)" fill="#fff"/>
          <rect id="Rectangle_427" data-name="Rectangle 427" width="50.404" height="2.543" transform="translate(414.437 258.005)" fill="#2424dc"/>
          <rect id="Rectangle_414" data-name="Rectangle 414" width="68.665" height="5.086" transform="translate(507.361 245.925)" fill="#fff"/>
          <rect id="Rectangle_415" data-name="Rectangle 415" width="47.331" height="5.086" transform="translate(578.569 245.925)" fill="#2591ef"/>
          <rect id="Rectangle_416" data-name="Rectangle 416" width="35.251" height="5.086" transform="translate(590.649 236.67)" fill="#fff"/>
          <rect id="Rectangle_417" data-name="Rectangle 417" width="35.251" height="5.086" transform="translate(552.078 236.67)" fill="#9ae503"/>
          <rect id="Rectangle_418" data-name="Rectangle 418" width="35.251" height="5.086" transform="translate(513.437 236.67)" fill="#2591ef"/>
          <rect id="Rectangle_419" data-name="Rectangle 419" width="68.665" height="5.086" transform="translate(557.235 276.019)" fill="#2591ef"/>
          <rect id="Rectangle_420" data-name="Rectangle 420" width="47.331" height="5.086" transform="translate(507.361 276.019)" fill="#9ae503"/>
          <rect id="Rectangle_421" data-name="Rectangle 421" width="54.678" height="14.835" rx="2" transform="translate(410.163 292.235)" fill="#fff"/>
          <rect id="Rectangle_422" data-name="Rectangle 422" width="14.623" height="14.835" rx="2" transform="translate(470.351 292.235)" fill="#fff"/>
          <g id="Group_434" data-name="Group 434">
            <circle id="Ellipse_114" data-name="Ellipse 114" cx="2.896" cy="2.896" r="2.896" transform="translate(446.544 395.115)" fill="#4e6c84"/>
            <circle id="Ellipse_115" data-name="Ellipse 115" cx="2.896" cy="2.896" r="2.896" transform="translate(422.526 395.115)" fill="#4e6c84"/>
            <circle id="Ellipse_116" data-name="Ellipse 116" cx="2.896" cy="2.896" r="2.896" transform="translate(467.596 395.115)" fill="#4e6c84"/>
          </g>
          <g id="Group_435" data-name="Group 435">
            <circle id="Ellipse_117" data-name="Ellipse 117" cx="2.252" cy="2.252" r="2.252" transform="translate(359.321 289.441)" fill="#fff"/>
            <circle id="Ellipse_118" data-name="Ellipse 118" cx="2.253" cy="2.253" r="2.253" transform="translate(340.64 289.44)" fill="#fff"/>
            <circle id="Ellipse_119" data-name="Ellipse 119" cx="2.252" cy="2.252" r="2.252" transform="translate(375.693 289.441)" fill="#fff"/>
          </g>
          <g id="Group_436" data-name="Group 436">
            <circle id="Ellipse_120" data-name="Ellipse 120" cx="2.252" cy="2.252" r="2.252" transform="translate(536.56 304.588)" fill="#fff"/>
            <circle id="Ellipse_121" data-name="Ellipse 121" cx="2.252" cy="2.252" r="2.252" transform="translate(517.881 304.588)" fill="#fff"/>
            <circle id="Ellipse_122" data-name="Ellipse 122" cx="2.252" cy="2.252" r="2.252" transform="translate(552.932 304.588)" fill="#fff"/>
          </g>
          <g id="Group_437" data-name="Group 437">
            <circle id="Ellipse_123" data-name="Ellipse 123" cx="2.253" cy="2.253" r="2.253" transform="translate(354.728 334.395)" fill="#fff"/>
            <circle id="Ellipse_124" data-name="Ellipse 124" cx="2.252" cy="2.252" r="2.252" transform="translate(336.049 334.396)" fill="#fff"/>
            <circle id="Ellipse_125" data-name="Ellipse 125" cx="2.252" cy="2.252" r="2.252" transform="translate(371.101 334.396)" fill="#fff"/>
          </g>
          <rect id="Rectangle_423" data-name="Rectangle 423" width="9.425" height="1.413" transform="translate(477.009 236.363)" fill="#fff"/>
          <rect id="Rectangle_424" data-name="Rectangle 424" width="9.425" height="1.413" transform="translate(477.009 239.755)" fill="#fff"/>
          <rect id="Rectangle_425" data-name="Rectangle 425" width="9.425" height="1.413" transform="translate(477.009 243.147)" fill="#fff"/>
          <path id="Path_1121" data-name="Path 1121" d="M383.01,304.182l9.588,6.042-4.754-12Z" fill="#9ae503"/>
          <path id="Path_1122" data-name="Path 1122" d="M511.992,321.5l-9.587,6.042,4.753-12Z" fill="#9ae503"/>
          <path id="Path_1123" data-name="Path 1123" d="M387.019,341.532l7.887-8.136-12.725,2.178Z" fill="#2591ef"/>
        </g>
      </g>
    </g>
    <rect id="Rectangle_426" data-name="Rectangle 426" width="78" height="39" rx="2" transform="translate(15230 -13609)" fill="#fff"/>
    <rect id="Rectangle_428" data-name="Rectangle 428" width="44" height="2" transform="translate(15235 -13602)" fill="#3f3f63"/>
    <rect id="Rectangle_429" data-name="Rectangle 429" width="35" height="2" transform="translate(15235 -13597)" fill="#3f3f63"/>
    <rect id="Rectangle_430" data-name="Rectangle 430" width="28" height="2" transform="translate(15235 -13592)" fill="#3f3f63"/>
    <rect id="Rectangle_431" data-name="Rectangle 431" width="25" height="2" transform="translate(15235 -13587)" fill="#3f3f63"/>
  </g>
</svg>
