<svg xmlns="http://www.w3.org/2000/svg" width="416" height="416" viewBox="0 0 416 416">
  <g id="_211681_ionic_icon" data-name="211681_ionic_icon" transform="translate(-48 -48)">
    <path id="Path_1619" data-name="Path 1619" d="M425.5,135.4a34.814,34.814,0,0,0-48.9-48.9A207.479,207.479,0,0,0,256,48C141.1,48,48,141.1,48,256s93.1,208,208,208,208-93.1,208-208A207.479,207.479,0,0,0,425.5,135.4ZM391.8,391.8a192.422,192.422,0,1,1-25.2-293,34.889,34.889,0,0,0,31.5,49.7,35.669,35.669,0,0,0,14.9-3.3,193.731,193.731,0,0,1,20,35.9,192,192,0,0,1-41.2,210.7Z" fill="#06bbff"/>
    <circle id="Ellipse_259" data-name="Ellipse 259" cx="96.1" cy="96.1" r="96.1" transform="translate(159.9 159.9)" fill="#06bbff"/>
  </g>
</svg>
