<svg xmlns="http://www.w3.org/2000/svg" width="268.144" height="54.608" viewBox="0 0 268.144 54.608">
  <g id="logo-suruche" transform="translate(0 0.001)">
    <g id="Group_47996" data-name="Group 47996" transform="translate(-14279.121 15105.893)">
      <g id="Group_47994" data-name="Group 47994" transform="translate(-187.933 332.339)">
        <path id="Path_167827" data-name="Path 167827" d="M1799.7,2917.225c-.675-.091-.017,0-.743-.235-1.345-.434-.175-.343-1.149-.047a4.743,4.743,0,0,1-1.856.1c-.875-.291-1.365-.037-1.885-.175-.338-.09-.157.019-.387-.278l1.74-1.453c-.211-.1.045-.173-.3.062l-.346.309-1.753,1.3c-.224.189-.143.009-.236.288l-1.411-1.037c-.023-.01-.053-.021-.076-.03s-.055-.019-.08-.029l-.941-.606c-.022-.022-.076-.093-.1-.113-.318-.267-.324-.051-.654-.324,0,0-.694-1.136-1.418-.575l-.516-.55a16.472,16.472,0,0,0-2.593-1.729c-.77-.359-.626-.659-1.294-.87-.5-.158.309.163-.18-.047-.026-.011-.056-.023-.08-.036-.3-.162.017-.139-.58-.39-.882-.37.134-.217-1.261-.923l-.864-.453c-.212-.176-.088-.267-.462-.367-.247-.066-.354.026-.693.035l-.4-.531a13.848,13.848,0,0,0-3.972,1.562,19.731,19.731,0,0,0-8.019,26.539,12.22,12.22,0,0,0,1.057,1.682,17.9,17.9,0,0,0,3.933,4.431,19.774,19.774,0,0,0,7.406,3.8c3.906,1.016,11.371.639,16.089.664,2.046.011,3.214.048,4.59-1.072a4.81,4.81,0,0,0,.032-7.475c-1.153-1.018-2.543-1.115-4.4-1.115h-5.656c-5.329,0-9.563.687-13.229-3.547a17.007,17.007,0,0,1-1.2-1.641,7.743,7.743,0,0,1-.8-2.006,10.211,10.211,0,0,1,1.452-8.787c3.589-4.788,7.318-4.266,12.477-4.267.069,0,15.756.609,10.759-.07Z" transform="translate(12702.625 -18345.844)" fill="#ed3240" fill-rule="evenodd"/>
        <path id="Path_167828" data-name="Path 167828" d="M1809.752,3134.182a19.623,19.623,0,0,0-5.652-7.834c-6.842-5.541-11.945-4.695-22.3-4.68-2.374,0-4.108-.3-5.826.924a4.858,4.858,0,0,0,1.091,8.391c1.423.547,4.655.337,6.367.334,2.247,0,4.5,0,6.743,0a10.863,10.863,0,0,1,5.7,1.074,10.006,10.006,0,0,1,5.545,7.958,10.136,10.136,0,0,1-6.031,10.363c-2.447,1.049-4.578.849-7.394.841l-24.907,0c-5.768,0-6.925,6.646-2.815,9.057,1.608.943,5.594.619,7.709.616q4.133-.006,8.266,0c3.786,0,12.385.079,15.455-.146,13.982-1.027,23.216-13.861,18.043-26.888Z" transform="translate(12709.222 -18544.9)" fill="#ed3240" fill-rule="evenodd"/>
        <path id="Path_167829" data-name="Path 167829" d="M1977.64,2895.591c.576,4.747,8.347,10.031,21.635,8.867,6.633-.573,7.34-6.171,3.569-8.921-1.716-1.25-4.446-.881-6.895-.882-5.148,0,1.777-.011-3.372,0-2.407,0-13.737-.275-14.938.941Z" transform="translate(12503.883 -18332.836)" fill="#4d5859" fill-rule="evenodd"/>
      </g>
    </g>
    <g id="Group_47995" data-name="Group 47995" transform="translate(-14279.121 15097.354)">
      <path id="Path_167833" data-name="Path 167833" d="M21.652-8.265A7.887,7.887,0,0,1,20.2-3.523,8.634,8.634,0,0,1,16.11-.514a17.965,17.965,0,0,1-6.322.99A20.651,20.651,0,0,1,1.942-.971V-8.455a15.5,15.5,0,0,0,3.79,2.028A11.147,11.147,0,0,0,9.6-5.656a3.816,3.816,0,0,0,2.095-.486,1.589,1.589,0,0,0,.743-1.419,1.923,1.923,0,0,0-.371-1.171,3.646,3.646,0,0,0-1.124-.943,20.927,20.927,0,0,0-2.79-1.2q-6.589-2.533-6.589-8.188A7.651,7.651,0,0,1,4.57-25.394a12.691,12.691,0,0,1,8.074-2.371q1.428,0,2.628.114t2.18.286q.981.171,2.752.647v6.951a14.061,14.061,0,0,0-6.779-1.885,4.184,4.184,0,0,0-2.209.514,1.582,1.582,0,0,0-.838,1.409,1.767,1.767,0,0,0,.676,1.419,12.675,12.675,0,0,0,2.828,1.457A15.681,15.681,0,0,1,19.89-13.1,7.155,7.155,0,0,1,21.652-8.265Z" transform="translate(14349.64 -15056.301)" fill="#4d5859"/>
      <path id="Path_167834" data-name="Path 167834" d="M25.81-12.153q0,6.4-2.922,9.509T13.879.464Q8.2.464,5.26-2.644T2.319-12v-14.6h8.053v14.9a6.89,6.89,0,0,0,.956,3.943,3.126,3.126,0,0,0,2.737,1.382,3.163,3.163,0,0,0,2.737-1.3,6.54,6.54,0,0,0,.937-3.841V-26.607H25.81Z" transform="translate(14375.19 -15057.301)" fill="#4d5859"/>
      <path id="Path_167835" data-name="Path 167835" d="M16.421,0,14.436-5.733a7.129,7.129,0,0,0-1.494-2.653,2.727,2.727,0,0,0-1.995-.965h-.315V0H2.616V-26.607h10.65q5.585,0,8.248,1.828A6.208,6.208,0,0,1,24.177-19.3a6.937,6.937,0,0,1-1.549,4.6A8.83,8.83,0,0,1,18.017-12v.074a6.442,6.442,0,0,1,2.811,1.688,10.445,10.445,0,0,1,2.013,3.47L25.457,0ZM15.66-18.165a2.786,2.786,0,0,0-.816-2.115,3.6,3.6,0,0,0-2.561-.779H10.632v6.086h1.447a3.675,3.675,0,0,0,2.6-.909A2.977,2.977,0,0,0,15.66-18.165Z" transform="translate(14406.229 -15057.301)" fill="#4d5859"/>
      <path id="Path_167836" data-name="Path 167836" d="M25.81-12.153q0,6.4-2.922,9.509T13.879.464Q8.2.464,5.26-2.644T2.319-12v-14.6h8.053v14.9a6.89,6.89,0,0,0,.956,3.943,3.126,3.126,0,0,0,2.737,1.382,3.163,3.163,0,0,0,2.737-1.3,6.54,6.54,0,0,0,.937-3.841V-26.607H25.81Z" transform="translate(14435.453 -15057.301)" fill="#4d5859"/>
      <path id="Path_167837" data-name="Path 167837" d="M22.414-.724A22.49,22.49,0,0,1,14.788.464,15.519,15.519,0,0,1,7.459-1.16a11.116,11.116,0,0,1-4.7-4.62,14.281,14.281,0,0,1-1.624-6.912,15.215,15.215,0,0,1,1.818-7.5,12.576,12.576,0,0,1,5.14-5.075,15.858,15.858,0,0,1,7.645-1.791,26.57,26.57,0,0,1,6.68.835v7.4a9.427,9.427,0,0,0-2.653-1.039,13.261,13.261,0,0,0-3.117-.371,6.977,6.977,0,0,0-5.149,1.874,6.851,6.851,0,0,0-1.883,5.084,6.731,6.731,0,0,0,1.883,5.038,6.885,6.885,0,0,0,5.038,1.846,13.07,13.07,0,0,0,5.882-1.484Z" transform="translate(14466.493 -15057.301)" fill="#ed3240"/>
      <path id="Path_167838" data-name="Path 167838" d="M20.357,0V-10.188H10.912V0H2.685V-27.308h8.227V-17.2h9.445V-27.308h8.227V0Z" transform="translate(14495.638 -15056.301)" fill="#ed3240"/>
      <path id="Path_167839" data-name="Path 167839" d="M2.616,0V-26.607H19.186v6.271H10.632v3.878h8.034v6.271H10.632v3.915H19.8V0Z" transform="translate(14527.467 -15057.301)" fill="#ed3240"/>
    </g>
  </g>
</svg>
