<svg class="animated" id="freepik_stories-memory-storage" xmlns="http://www.w3.org/2000/svg" viewBox="0 0 500 500" version="1.1" xmlns:xlink="http://www.w3.org/1999/xlink" xmlns:svgjs="http://svgjs.com/svgjs"><style>svg#freepik_stories-memory-storage:not(.animated) .animable {opacity: 0;}svg#freepik_stories-memory-storage.animated #freepik--background-complete--inject-38 {animation: 6s Infinite  linear shake;animation-delay: 0s;}svg#freepik_stories-memory-storage.animated #freepik--Cloud--inject-38 {animation: 3s Infinite  linear shake;animation-delay: 0s;}svg#freepik_stories-memory-storage.animated #freepik--Character--inject-38 {animation: 1.5s Infinite  linear floating;animation-delay: 0s;}            @keyframes shake {                10%, 90% {                    transform: translate3d(-1px, 0, 0);                  }                  20%, 80% {                    transform: translate3d(2px, 0, 0);                  }                  30%, 50%, 70% {                    transform: translate3d(-4px, 0, 0);                  }                  40%, 60% {                    transform: translate3d(4px, 0, 0);                  }            }                    @keyframes floating {                0% {                    opacity: 1;                    transform: translateY(0px);                }                50% {                    transform: translateY(-10px);                }                100% {                    opacity: 1;                    transform: translateY(0px);                }            }        </style><g id="freepik--background-complete--inject-38" class="animable" style="transform-origin: 248.98px 241.98px;"><path d="M39,267.51l13.12-.28,6.66-.11c2.23-.05,4.46,0,6.7-.05h.44v.45l.06,11.19v.5h-.5l-13.24-.06c-4.42,0-8.83-.12-13.24-.17h-.28v-.27c0-1.9.09-3.79.13-5.65Zm0,0,.14,5.65c0,1.87.11,3.71.13,5.54l-.27-.27c4.41-.05,8.82-.16,13.24-.17l13.24-.06-.5.5,0-11.19.45.45c-2.19,0-4.36,0-6.55-.06l-6.58-.11Z" style="fill: rgb(235, 235, 235); transform-origin: 52.35px 273.14px;" id="elxdt57xtwm4s" class="animable"></path><g id="elyg1vb6zqd5a"><rect x="287.62" y="170.06" width="26.48" height="11.19" style="fill: rgb(235, 235, 235); transform-origin: 300.86px 175.655px; transform: rotate(180deg);" class="animable" id="el9rhd9xol8h7"></rect></g><path d="M302.39,156l13.13-.28,6.66-.11c2.23-.05,4.46,0,6.7-.06h.44V156l.05,11.19v.5h-.5l-13.25-.07c-4.41,0-8.82-.11-13.24-.16h-.27v-.27c0-1.9.09-3.79.13-5.66Zm0,0,.15,5.65c0,1.86.11,3.7.13,5.54l-.28-.28c4.42-.05,8.83-.16,13.24-.16l13.25-.06-.5.5.05-11.19.45.44c-2.19,0-4.36,0-6.55,0l-6.58-.12Z" style="fill: rgb(235, 235, 235); transform-origin: 315.74px 161.62px;" id="eln5uxtnlkwa" class="animable"></path><path d="M272.85,156l13.13-.28,6.66-.11c2.22-.05,4.46,0,6.69-.06h.45V156l.05,11.19v.5h-.5l-13.24-.07c-4.41,0-8.83-.11-13.24-.16h-.27v-.27c0-1.9.08-3.79.13-5.66Zm0,0,.14,5.65c.05,1.86.12,3.7.13,5.54l-.27-.28c4.41-.05,8.83-.16,13.24-.16l13.24-.06-.5.5.06-11.19.44.44c-2.18,0-4.36,0-6.54,0l-6.58-.12Z" style="fill: rgb(235, 235, 235); transform-origin: 286.205px 161.62px;" id="elgihzfbzqzkj" class="animable"></path><path d="M446.27,59.94l-13.12.28-6.66.11c-2.23.05-4.47,0-6.7.06h-.44v-.45l-.06-11.19v-.5h.5l13.24.07c4.42,0,8.83.11,13.24.16h.28v.27c0,1.9-.09,3.79-.13,5.66Zm0,0-.14-5.65c0-1.86-.11-3.7-.13-5.54l.27.28c-4.41,0-8.82.16-13.24.16l-13.24.06.5-.5-.05,11.19-.45-.44c2.18,0,4.36,0,6.55,0l6.58.12Z" style="fill: rgb(235, 235, 235); transform-origin: 432.92px 54.32px;" id="el97balqexzvm" class="animable"></path><rect x="434.56" y="62.86" width="26.48" height="11.19" style="fill: rgb(235, 235, 235); transform-origin: 447.8px 68.455px;" id="elz7ks0j9mmod" class="animable"></rect><path d="M65.44,60l-13.13.27-6.66.12c-2.23,0-4.46,0-6.69,0h-.45V60l0-11.19v-.51H39l13.24.06c4.41,0,8.82.11,13.24.16h.27v.27c0,1.89-.09,3.78-.13,5.65Zm0,0-.15-5.66c0-1.86-.11-3.7-.13-5.53l.28.27c-4.42.05-8.83.16-13.24.16L39,49.27l.49-.5L39.4,60,39,59.51c2.18,0,4.35,0,6.54.06l6.58.11Z" style="fill: rgb(235, 235, 235); transform-origin: 52.13px 54.345px;" id="el34t1ttu9zxo" class="animable"></path><g id="elmgdqbobv9af"><rect x="337.96" y="345.82" width="26.48" height="11.19" style="fill: rgb(235, 235, 235); transform-origin: 351.2px 351.415px; transform: rotate(180deg);" class="animable" id="elg8sg2a9hk06"></rect></g><path d="M434.56,271.69l13.13-.28,6.66-.11c2.23-.05,4.46,0,6.69-.06h.45v.45l.05,11.19v.5H461l-13.24-.06c-4.41,0-8.82-.12-13.24-.17h-.27v-.27c0-1.9.09-3.79.13-5.65Zm0,0,.15,5.65c0,1.87.11,3.71.13,5.54l-.28-.27c4.42-.05,8.83-.16,13.24-.17l13.24-.06-.49.5.05-11.19.44.45c-2.18,0-4.35,0-6.54-.06l-6.58-.11Z" style="fill: rgb(235, 235, 235); transform-origin: 447.895px 277.31px;" id="eladekyt3osx" class="animable"></path><g id="el0szjc4ixwzn"><rect x="122.82" y="401.59" width="26.48" height="11.19" style="fill: rgb(235, 235, 235); transform-origin: 136.06px 407.185px; transform: rotate(180deg);" class="animable" id="elyxxlinjvoem"></rect></g><path d="M352.73,331.71l13.12-.28,6.67-.11c2.22,0,4.46,0,6.69-.05h.44v.45l0,11.19v.5h-.5L366,343.34c-4.41,0-8.83-.11-13.24-.16h-.28v-.27c0-1.9.08-3.78.13-5.65Zm0,0,.14,5.66c.05,1.86.11,3.7.13,5.53l-.27-.27c4.41-.05,8.83-.16,13.24-.16l13.24-.07-.5.5.05-11.19.45.45c-2.18,0-4.36,0-6.55-.06l-6.57-.11Z" style="fill: rgb(235, 235, 235); transform-origin: 366.065px 337.34px;" id="elprqsi87mm5" class="animable"></path><path d="M55,156.16a3.74,3.74,0,0,1,3.92,0c.33.2.67.39,1,.58s.7.36,1.05.52a3.75,3.75,0,0,1,2.18,3.25l.15,4.82L79,164.87,78.87,160a3.71,3.71,0,0,1,2-3.37,19.63,19.63,0,0,0,2-1.2,3.76,3.76,0,0,1,3.94-.27L91,157.44l7.43-13.87-4.24-2.27a3.77,3.77,0,0,1-2-3.44,21.91,21.91,0,0,0-.08-2.29,3.73,3.73,0,0,1,1.7-3.51L98,129.5l-8.29-13.37-4.12,2.55a3.68,3.68,0,0,1-3.85,0c-.35-.22-.7-.42-1.06-.61s-.73-.38-1.1-.55a3.68,3.68,0,0,1-2.13-3.23l-.15-4.83L61.56,110l.15,4.81a3.68,3.68,0,0,1-1.9,3.36,21,21,0,0,0-2.13,1.32,3.68,3.68,0,0,1-3.85.21l-4.24-2.28-7.44,13.87,4.24,2.28a3.76,3.76,0,0,1,2,3.44,21.91,21.91,0,0,0,.08,2.29,3.74,3.74,0,0,1-1.71,3.52l-4.12,2.55,8.29,13.37Zm3.24-23.3a12.89,12.89,0,1,1,4.55,15A12.91,12.91,0,0,1,58.22,132.86Z" style="fill: rgb(235, 235, 235); transform-origin: 70.29px 137.395px;" id="el6wm9wzc5jm" class="animable"></path><path d="M457.85,246.64l-5.51-9.55-2.92,1.69a2.62,2.62,0,0,1-2.75-.09,15.48,15.48,0,0,0-1.42-.83,2.61,2.61,0,0,1-1.45-2.33v-3.37h-11v3.37a2.63,2.63,0,0,1-1.45,2.33,14.25,14.25,0,0,0-1.42.83,2.62,2.62,0,0,1-2.75.09l-2.92-1.69-5.51,9.55,2.93,1.69a2.62,2.62,0,0,1,1.29,2.43c0,.27,0,.54,0,.81s0,.54,0,.81a2.6,2.6,0,0,1-1.28,2.42l-2.94,1.7,5.51,9.55,2.93-1.69a2.6,2.6,0,0,1,2.74.1,15.55,15.55,0,0,0,1.43.82,2.62,2.62,0,0,1,1.44,2.33V271h11v-3.37a2.62,2.62,0,0,1,1.44-2.33,15.55,15.55,0,0,0,1.43-.82,2.63,2.63,0,0,1,2.74-.1l2.93,1.69,5.51-9.55-2.93-1.69a2.6,2.6,0,0,1-1.28-2.42c0-.27,0-.54,0-.82s0-.54,0-.81a2.62,2.62,0,0,1,1.28-2.43Zm-10.54,4.93a9,9,0,1,1-9-9A9,9,0,0,1,447.31,251.57Z" style="fill: rgb(235, 235, 235); transform-origin: 438.3px 251.58px;" id="eltmlb4tqty9r" class="animable"></path><path d="M153.76,63.85l-5.51-9.55L145.33,56a2.64,2.64,0,0,1-2.75-.09,14.25,14.25,0,0,0-1.42-.83,2.63,2.63,0,0,1-1.45-2.33V49.37h-11v3.37a2.61,2.61,0,0,1-1.45,2.33,15.48,15.48,0,0,0-1.42.83,2.64,2.64,0,0,1-2.75.09l-2.92-1.69-5.51,9.55,2.93,1.69A2.62,2.62,0,0,1,118.85,68c0,.27,0,.54,0,.81s0,.54,0,.81A2.6,2.6,0,0,1,117.57,72l-2.94,1.7,5.51,9.55,2.93-1.69a2.58,2.58,0,0,1,2.74.1c.46.29.94.57,1.43.82a2.62,2.62,0,0,1,1.44,2.33v3.37h11V84.82a2.61,2.61,0,0,1,1.45-2.33c.48-.25,1-.53,1.42-.82a2.58,2.58,0,0,1,2.74-.1l2.93,1.69,5.51-9.55L150.83,72a2.6,2.6,0,0,1-1.28-2.42c0-.27,0-.55,0-.82s0-.54,0-.81a2.62,2.62,0,0,1,1.29-2.43Zm-10.54,4.93a9,9,0,1,1-9-9A9,9,0,0,1,143.22,68.78Z" style="fill: rgb(235, 235, 235); transform-origin: 134.195px 68.775px;" id="el37vjyz9heew" class="animable"></path><path d="M83.09,274V444.69H186.28V274Zm9.37,63.27h84.45v44.44H92.46Zm0-55h84.45v44.44H92.46Z" style="fill: rgb(219, 219, 219); transform-origin: 134.685px 359.345px;" id="el31y29x35mrh" class="animable"></path><g id="elh3qrqutt1ap"><rect x="36.42" y="273.98" width="46.66" height="170.7" style="fill: rgb(235, 235, 235); transform-origin: 59.75px 359.33px; transform: rotate(180deg);" class="animable" id="el4htw2fmpi13"></rect></g><g id="elkfddieqlup"><rect x="156.84" y="282.22" width="20.07" height="44.44" style="fill: rgb(235, 235, 235); transform-origin: 166.875px 304.44px; transform: rotate(180deg);" class="animable" id="el74ncim46s95"></rect></g><path d="M176.63,434.22H92.2V391.35h84.43Zm-83.93-.5h83.43V391.85H92.7Z" style="fill: rgb(235, 235, 235); transform-origin: 134.415px 412.785px;" id="elroof3vequ19" class="animable"></path><g id="eldkx1i8gdy2u"><rect x="126.08" y="403.52" width="16.67" height="6.09" style="fill: rgb(235, 235, 235); transform-origin: 134.415px 406.565px; transform: rotate(180deg);" class="animable" id="ely2f0v2sr2o7"></rect></g><g id="elygkw96ny3gj"><rect x="156.84" y="337.25" width="20.07" height="44.44" style="fill: rgb(235, 235, 235); transform-origin: 166.875px 359.47px; transform: rotate(180deg);" class="animable" id="elyvtai3wa76p"></rect></g><g id="eltejgyas8mpk"><rect x="90.58" y="354.14" width="40.97" height="14.12" style="fill: rgb(166, 166, 166); transform-origin: 111.065px 361.2px; transform: rotate(90deg);" class="animable" id="elnsnzc9vxxjf"></rect></g><g id="eljl7ormwa7f"><rect x="106.65" y="363.63" width="8.84" height="14.12" style="fill: rgb(219, 219, 219); transform-origin: 111.07px 370.69px; transform: rotate(90deg);" class="animable" id="ell893aab2kb"></rect></g><g id="elieam2bb842m"><rect x="108.44" y="349.47" width="5.24" height="14.12" style="fill: rgb(219, 219, 219); transform-origin: 111.06px 356.53px; transform: rotate(90deg);" class="animable" id="elmz1t8ty8d2"></rect></g><g id="elqrh6oouu92"><rect x="75.43" y="239.65" width="35.68" height="34.29" style="fill: rgb(235, 235, 235); transform-origin: 93.27px 256.795px; transform: rotate(180deg);" class="animable" id="elgyuhr3dvz4e"></rect></g><g id="el1zn4rey5zcq"><rect x="61.87" y="239.65" width="13.56" height="34.29" style="fill: rgb(199, 199, 199); transform-origin: 68.65px 256.795px; transform: rotate(180deg);" class="animable" id="elbc8vnkbbvfd"></rect></g><polygon points="111.11 256.79 75.43 256.79 103.3 257.68 111.11 256.79" style="fill: rgb(199, 199, 199); transform-origin: 93.27px 257.235px;" id="elmo26h07035o" class="animable"></polygon><polygon points="75.43 269.8 111.11 269.8 83.24 270.68 75.43 269.8" style="fill: rgb(199, 199, 199); transform-origin: 93.27px 270.24px;" id="eligqkwgfs7u" class="animable"></polygon><polygon points="111.11 247.21 88.51 247.21 108.6 247.93 111.11 247.21" style="fill: rgb(199, 199, 199); transform-origin: 99.81px 247.57px;" id="elmc46ch6u7yh" class="animable"></polygon><polygon points="75.43 264.75 98.03 264.75 77.94 265.47 75.43 264.75" style="fill: rgb(199, 199, 199); transform-origin: 86.73px 265.11px;" id="el7emrdjf4bmq" class="animable"></polygon><polygon points="102.55 243.39 77.06 243.39 81.31 243.82 102.55 243.39" style="fill: rgb(199, 199, 199); transform-origin: 89.805px 243.605px;" id="elxsv0e34h959" class="animable"></polygon><polygon points="107.64 260.47 82.15 260.47 86.4 260.9 107.64 260.47" style="fill: rgb(199, 199, 199); transform-origin: 94.895px 260.685px;" id="el3cutmgkmz8d" class="animable"></polygon><polygon points="91.97 250.47 75.43 250.47 72.47 251.63 91.97 250.47" style="fill: rgb(235, 235, 235); transform-origin: 82.22px 251.05px;" id="elofnkh2mp4ya" class="animable"></polygon><polygon points="115.67 250.47 99.13 250.47 96.18 251.63 115.67 250.47" style="fill: rgb(235, 235, 235); transform-origin: 105.925px 251.05px;" id="elcfei5pdhn5i" class="animable"></polygon><polygon points="94.45 265.88 110.98 265.88 113.94 267.04 94.45 265.88" style="fill: rgb(235, 235, 235); transform-origin: 104.195px 266.46px;" id="elivq62ee6q4" class="animable"></polygon><polygon points="75.43 261.97 62.15 261.97 59.2 263.12 75.43 261.97" style="fill: rgb(199, 199, 199); transform-origin: 67.315px 262.545px;" id="eld7grpdicq0p" class="animable"></polygon><polygon points="70.79 256.79 60.5 256.79 61.87 255.85 70.79 256.79" style="fill: rgb(199, 199, 199); transform-origin: 65.645px 256.32px;" id="el3qz18tfn5g7" class="animable"></polygon><g id="el6ylvta7p6ap"><rect x="116.6" y="292.38" width="35.68" height="34.29" style="fill: rgb(235, 235, 235); transform-origin: 134.44px 309.525px; transform: rotate(180deg);" class="animable" id="el6tivb44afxt"></rect></g><g id="elx1t4bsk4ut"><rect x="103.04" y="292.38" width="13.56" height="34.29" style="fill: rgb(199, 199, 199); transform-origin: 109.82px 309.525px; transform: rotate(180deg);" class="animable" id="elylk0y7nbvlh"></rect></g><polygon points="152.28 309.52 116.6 309.52 144.47 310.41 152.28 309.52" style="fill: rgb(199, 199, 199); transform-origin: 134.44px 309.965px;" id="el7w4vpf4axqj" class="animable"></polygon><polygon points="116.6 322.52 152.28 322.52 124.42 323.41 116.6 322.52" style="fill: rgb(199, 199, 199); transform-origin: 134.44px 322.965px;" id="elc1102oaqy8r" class="animable"></polygon><polygon points="152.28 299.94 129.68 299.94 149.77 300.66 152.28 299.94" style="fill: rgb(199, 199, 199); transform-origin: 140.98px 300.3px;" id="el4iu42zwzh1h" class="animable"></polygon><polygon points="116.6 317.48 139.2 317.48 119.11 318.2 116.6 317.48" style="fill: rgb(199, 199, 199); transform-origin: 127.9px 317.84px;" id="elr9q4yh5v6ql" class="animable"></polygon><polygon points="143.72 296.12 118.23 296.12 122.48 296.56 143.72 296.12" style="fill: rgb(199, 199, 199); transform-origin: 130.975px 296.34px;" id="elhwlzyxeshxt" class="animable"></polygon><polygon points="148.81 313.2 123.32 313.2 127.57 313.63 148.81 313.2" style="fill: rgb(199, 199, 199); transform-origin: 136.065px 313.415px;" id="elilf8yloilmd" class="animable"></polygon><polygon points="133.14 303.2 116.6 303.2 113.65 304.36 133.14 303.2" style="fill: rgb(235, 235, 235); transform-origin: 123.395px 303.78px;" id="elg0u9w5h7se5" class="animable"></polygon><polygon points="156.84 303.2 140.3 303.2 137.35 304.36 156.84 303.2" style="fill: rgb(235, 235, 235); transform-origin: 147.095px 303.78px;" id="elhiio5jwc6b" class="animable"></polygon><polygon points="135.62 318.62 152.16 318.62 155.11 319.77 135.62 318.62" style="fill: rgb(235, 235, 235); transform-origin: 145.365px 319.195px;" id="el5ja2q4uzdb3" class="animable"></polygon><polygon points="116.6 314.7 103.32 314.7 100.37 315.85 116.6 314.7" style="fill: rgb(199, 199, 199); transform-origin: 108.485px 315.275px;" id="eldv77qn9yq9" class="animable"></polygon><polygon points="111.97 309.52 101.67 309.52 103.04 308.58 111.97 309.52" style="fill: rgb(199, 199, 199); transform-origin: 106.82px 309.05px;" id="elukhi4u3k68" class="animable"></polygon><rect x="92.45" y="337.98" width="11.55" height="43.71" style="fill: rgb(235, 235, 235); transform-origin: 98.225px 359.835px;" id="el19n092afsaf" class="animable"></rect><path d="M98.23,346.6a2.41,2.41,0,1,0-2.41-2.4A2.4,2.4,0,0,0,98.23,346.6Z" style="fill: rgb(255, 255, 255); transform-origin: 98.23px 344.19px;" id="elvrn4qekj4l8" class="animable"></path><path d="M98.23,345.57a1.38,1.38,0,1,0-1.38-1.37A1.37,1.37,0,0,0,98.23,345.57Z" style="fill: rgb(166, 166, 166); transform-origin: 98.23px 344.19px;" id="elk5w7qpncec" class="animable"></path><g id="elaxmq0c7qyl7"><rect x="92.91" y="363.71" width="10.63" height="11.55" style="fill: rgb(255, 255, 255); transform-origin: 98.225px 369.485px; transform: rotate(90deg);" class="animable" id="ell2ob7vusny"></rect></g><rect x="118.13" y="372.67" width="43.71" height="9.09" style="fill: rgb(199, 199, 199); transform-origin: 139.985px 377.215px;" id="els814y018h5" class="animable"></rect><path d="M126.75,377.21a2.41,2.41,0,1,0-2.41,2.4A2.41,2.41,0,0,0,126.75,377.21Z" style="fill: rgb(255, 255, 255); transform-origin: 124.34px 377.2px;" id="elo4rpv58hf6s" class="animable"></path><path d="M125.72,377.21a1.38,1.38,0,1,0-2.75,0,1.38,1.38,0,0,0,2.75,0Z" style="fill: rgb(166, 166, 166); transform-origin: 124.345px 377.093px;" id="el0o3jwndvuc8b" class="animable"></path><rect x="144.31" y="372.67" width="10.63" height="9.09" style="fill: rgb(255, 255, 255); transform-origin: 149.625px 377.215px;" id="elrgiematvq1c" class="animable"></rect><polygon points="267.42 103.37 317.78 76.96 298.29 42.8 247.93 69.21 267.42 103.37" style="fill: rgb(199, 199, 199); transform-origin: 282.855px 73.085px;" id="elbt7ov28wcwm" class="animable"></polygon><polygon points="278.48 48.6 296.27 39.27 298.29 42.8 279.47 52.67 278.48 48.6" style="fill: rgb(199, 199, 199); transform-origin: 288.385px 45.97px;" id="elwdvrhv3vmjn" class="animable"></polygon><polygon points="267.48 103.34 317.83 76.94 303.3 43.85 252.95 70.26 267.48 103.34" style="fill: rgb(219, 219, 219); transform-origin: 285.39px 73.595px;" id="eltdh9tsbotz" class="animable"></polygon><polygon points="284.01 49.76 301.8 40.43 303.3 43.85 284.49 53.72 284.01 49.76" style="fill: rgb(219, 219, 219); transform-origin: 293.655px 47.075px;" id="elr9juydv4xa" class="animable"></polygon><polygon points="300.9 116.34 369.46 104.67 359.7 57.56 291.14 69.23 300.9 116.34" style="fill: rgb(219, 219, 219); transform-origin: 330.3px 86.95px;" id="elyrb798wobxd" class="animable"></polygon><polygon points="334.47 56.8 358.69 52.68 359.7 57.56 334.09 61.92 334.47 56.8" style="fill: rgb(219, 219, 219); transform-origin: 346.895px 57.3px;" id="el8mr4uhb1ih7" class="animable"></polygon><polygon points="300.97 116.33 369.53 104.65 365.14 60.68 296.58 72.35 300.97 116.33" style="fill: rgb(235, 235, 235); transform-origin: 333.055px 88.505px;" id="elw2ncthkxbh" class="animable"></polygon><polygon points="340.46 60.25 364.69 56.13 365.14 60.68 339.53 65.04 340.46 60.25" style="fill: rgb(235, 235, 235); transform-origin: 352.335px 60.585px;" id="elrjm9apeczwn" class="animable"></polygon></g><g id="freepik--Floor--inject-38" class="animable" style="transform-origin: 250px 444.69px;"><polygon points="36.42 444.69 89.82 444.44 143.21 444.36 250 444.19 356.79 444.36 410.18 444.44 463.58 444.69 410.18 444.93 356.79 445.02 250 445.19 143.21 445.02 89.82 444.93 36.42 444.69" style="fill: rgb(38, 50, 56); transform-origin: 250px 444.69px;" id="elbt76tf0925d" class="animable"></polygon></g><g id="freepik--Cloud--inject-38" class="animable" style="transform-origin: 387.328px 184.363px;"><path d="M328.18,111a16.43,16.43,0,0,0,15.21,16.38v0h93a19.3,19.3,0,0,0,1.81-38.52,32.52,32.52,0,0,0-63-10.18,19.3,19.3,0,0,0-27.9,16.07,16.78,16.78,0,0,0-2.67-.22A16.44,16.44,0,0,0,328.18,111Z" style="fill: #93DB82; transform-origin: 391.963px 92.413px;" id="eljymmv30kgg" class="animable"></path><g id="elrde904i2bvp"><path d="M328.18,111a16.43,16.43,0,0,0,15.21,16.38v0h93a19.3,19.3,0,0,0,1.81-38.52,32.52,32.52,0,0,0-63-10.18,19.3,19.3,0,0,0-27.9,16.07,16.78,16.78,0,0,0-2.67-.22A16.44,16.44,0,0,0,328.18,111Z" style="opacity: 0.1; transform-origin: 391.963px 92.413px;" class="animable" id="elbom49fofg7h"></path></g><path d="M318.91,111a16.43,16.43,0,0,0,15.2,16.38v0h93a19.3,19.3,0,0,0,1.8-38.52,32.52,32.52,0,0,0-63-10.18,19.08,19.08,0,0,0-8.63-2A19.31,19.31,0,0,0,338,94.79a16.68,16.68,0,0,0-2.67-.22A16.43,16.43,0,0,0,318.91,111Z" style="fill: #93DB82; transform-origin: 382.683px 92.413px;" id="elbia36sz8n8j" class="animable"></path><path d="M376.24,127.42h22.13a0,0,0,0,1,0,0v17.67a4.46,4.46,0,0,1-4.46,4.46H380.7a4.46,4.46,0,0,1-4.46-4.46V127.42A0,0,0,0,1,376.24,127.42Z" style="fill: rgb(55, 71, 79); transform-origin: 387.305px 138.485px;" id="ely6id5aebhsq" class="animable"></path><rect x="382.08" y="149.55" width="10.46" height="3.23" style="fill: rgb(69, 90, 100); transform-origin: 387.31px 151.165px;" id="elff2fipwkmw" class="animable"></rect><path d="M385.37,142.07a2,2,0,1,1-2-2A2,2,0,0,1,385.37,142.07Z" style="fill: rgb(255, 255, 255); transform-origin: 383.37px 142.07px;" id="ela09fz4hibfh" class="animable"></path><path d="M393.24,142.07a2,2,0,1,1-2-2A2,2,0,0,1,393.24,142.07Z" style="fill: #93DB82; transform-origin: 391.24px 142.07px;" id="elbhjosf8ispr" class="animable"></path><polygon points="388.43 130.62 386.04 134.18 387.23 134.18 386.04 137.25 388.58 133.55 387.26 133.55 388.43 130.62" style="fill: rgb(255, 255, 255); transform-origin: 387.31px 133.935px;" id="ellodp7puqh3s" class="animable"></polygon><path d="M382.68,311.28H348v-3h34.65a3.13,3.13,0,0,0,3.13-3.13V152.79h3V305.15A6.14,6.14,0,0,1,382.68,311.28Z" style="fill: #93DB82; transform-origin: 368.39px 232.035px;" id="elj8cco4k2m19" class="animable"></path></g><g id="freepik--Server--inject-38" class="animable" style="transform-origin: 257.14px 318.01px;"><rect x="164.57" y="198.91" width="65.18" height="245.78" style="fill: rgb(38, 50, 56); transform-origin: 197.16px 321.8px;" id="el5jv7zrnvwk" class="animable"></rect><rect x="229.75" y="198.91" width="119.96" height="245.78" style="fill: rgb(55, 71, 79); transform-origin: 289.73px 321.8px;" id="elr9imzy5ahj" class="animable"></rect><rect x="238.75" y="412.81" width="103.47" height="23.89" style="fill: rgb(55, 71, 79); transform-origin: 290.485px 424.755px;" id="elb306yvs8f7f" class="animable"></rect><rect x="243.1" y="416.76" width="58.89" height="2.02" style="fill: rgb(69, 90, 100); transform-origin: 272.545px 417.77px;" id="el1cy392zwnom" class="animable"></rect><rect x="243.1" y="420.25" width="58.89" height="2.02" style="fill: rgb(69, 90, 100); transform-origin: 272.545px 421.26px;" id="elexx5j2eqikc" class="animable"></rect><rect x="243.1" y="423.75" width="58.89" height="2.02" style="fill: rgb(69, 90, 100); transform-origin: 272.545px 424.76px;" id="elxvh69bssngp" class="animable"></rect><rect x="243.1" y="427.25" width="58.89" height="2.02" style="fill: rgb(69, 90, 100); transform-origin: 272.545px 428.26px;" id="elvwb2t3aj8r" class="animable"></rect><rect x="243.1" y="430.74" width="58.89" height="2.02" style="fill: rgb(69, 90, 100); transform-origin: 272.545px 431.75px;" id="el6q3xy2y4v9l" class="animable"></rect><circle cx="310.73" cy="418.76" r="2" style="fill: #93DB82; transform-origin: 310.73px 418.76px;" id="elgqjgp262wd" class="animable"></circle><path d="M319.33,418.76a2,2,0,1,1-2-2A2,2,0,0,1,319.33,418.76Z" style="fill: #93DB82; transform-origin: 317.33px 418.76px;" id="elb9talh1hh6m" class="animable"></path><path d="M325.92,418.76a2,2,0,1,1-2-2A2,2,0,0,1,325.92,418.76Z" style="fill: #93DB82; transform-origin: 323.92px 418.76px;" id="elrlfhwi8f1kf" class="animable"></path><circle cx="330.51" cy="418.76" r="2" style="fill: rgb(235, 235, 235); transform-origin: 330.51px 418.76px;" id="elocf8xrcx0z" class="animable"></circle><path d="M339.11,418.76a2,2,0,1,1-2-2A2,2,0,0,1,339.11,418.76Z" style="fill: #93DB82; transform-origin: 337.11px 418.76px;" id="elflv1p2ik9p" class="animable"></path><path d="M312.73,424.76a2,2,0,1,1-2-2A2,2,0,0,1,312.73,424.76Z" style="fill: rgb(235, 235, 235); transform-origin: 310.73px 424.76px;" id="elxl0a2qw1u5" class="animable"></path><path d="M319.33,424.76a2,2,0,1,1-2-2A2,2,0,0,1,319.33,424.76Z" style="fill: #93DB82; transform-origin: 317.33px 424.76px;" id="el3setx21rbjo" class="animable"></path><path d="M325.92,424.76a2,2,0,1,1-2-2A2,2,0,0,1,325.92,424.76Z" style="fill: #93DB82; transform-origin: 323.92px 424.76px;" id="el4cesevyj44z" class="animable"></path><path d="M332.51,424.76a2,2,0,1,1-2-2A2,2,0,0,1,332.51,424.76Z" style="fill: rgb(235, 235, 235); transform-origin: 330.51px 424.76px;" id="elurtgpc0adsc" class="animable"></path><path d="M339.11,424.76a2,2,0,1,1-2-2A2,2,0,0,1,339.11,424.76Z" style="fill: rgb(235, 235, 235); transform-origin: 337.11px 424.76px;" id="el0w49p7wq8lz" class="animable"></path><circle cx="310.73" cy="430.76" r="2" style="fill: #93DB82; transform-origin: 310.73px 430.76px;" id="elt2x3xcr52sa" class="animable"></circle><path d="M319.33,430.76a2,2,0,1,1-2-2A2,2,0,0,1,319.33,430.76Z" style="fill: rgb(235, 235, 235); transform-origin: 317.33px 430.76px;" id="elcoshf3ecnbv" class="animable"></path><path d="M325.92,430.76a2,2,0,1,1-2-2A2,2,0,0,1,325.92,430.76Z" style="fill: #93DB82; transform-origin: 323.92px 430.76px;" id="elewqrz0shw7u" class="animable"></path><circle cx="330.51" cy="430.76" r="2" style="fill: #93DB82; transform-origin: 330.51px 430.76px;" id="elzto8pp8v0xn" class="animable"></circle><path d="M339.11,430.76a2,2,0,1,1-2-2A2,2,0,0,1,339.11,430.76Z" style="fill: #93DB82; transform-origin: 337.11px 430.76px;" id="elso9gk8izjt" class="animable"></path><rect x="304.94" y="416.76" width="1.15" height="16" style="fill: rgb(38, 50, 56); transform-origin: 305.515px 424.76px;" id="elifji25wuv0s" class="animable"></rect><rect x="238.75" y="384.01" width="103.47" height="23.89" style="fill: rgb(55, 71, 79); transform-origin: 290.485px 395.955px;" id="el3h61821disq" class="animable"></rect><rect x="243.1" y="387.96" width="58.89" height="2.02" style="fill: rgb(69, 90, 100); transform-origin: 272.545px 388.97px;" id="elsmrjk7ea62" class="animable"></rect><rect x="243.1" y="391.46" width="58.89" height="2.02" style="fill: rgb(69, 90, 100); transform-origin: 272.545px 392.47px;" id="elo3xckebz6mi" class="animable"></rect><rect x="243.1" y="394.95" width="58.89" height="2.02" style="fill: rgb(69, 90, 100); transform-origin: 272.545px 395.96px;" id="el38n0zlxkzrx" class="animable"></rect><rect x="243.1" y="398.45" width="58.89" height="2.02" style="fill: rgb(69, 90, 100); transform-origin: 272.545px 399.46px;" id="el3j96xwrbvkw" class="animable"></rect><rect x="243.1" y="401.94" width="58.89" height="2.02" style="fill: rgb(69, 90, 100); transform-origin: 272.545px 402.95px;" id="ely8vqqidb3t" class="animable"></rect><path d="M312.73,390a2,2,0,1,1-2-2A2,2,0,0,1,312.73,390Z" style="fill: rgb(235, 235, 235); transform-origin: 310.73px 390px;" id="elvhedrhzlk8" class="animable"></path><path d="M319.33,390a2,2,0,1,1-2-2A2,2,0,0,1,319.33,390Z" style="fill: #93DB82; transform-origin: 317.33px 390px;" id="elvqqg4mjex3q" class="animable"></path><path d="M325.92,390a2,2,0,1,1-2-2A2,2,0,0,1,325.92,390Z" style="fill: #93DB82; transform-origin: 323.92px 390px;" id="el4yqpalsx8nh" class="animable"></path><path d="M332.51,390a2,2,0,1,1-2-2A2,2,0,0,1,332.51,390Z" style="fill: rgb(235, 235, 235); transform-origin: 330.51px 390px;" id="el3zsvdfttbul" class="animable"></path><path d="M339.11,390a2,2,0,1,1-2-2A2,2,0,0,1,339.11,390Z" style="fill: #93DB82; transform-origin: 337.11px 390px;" id="el909pw6l007" class="animable"></path><path d="M312.73,396a2,2,0,1,1-2-2A2,2,0,0,1,312.73,396Z" style="fill: #93DB82; transform-origin: 310.73px 396px;" id="eljomrsoktfsf" class="animable"></path><path d="M319.33,396a2,2,0,1,1-2-2A2,2,0,0,1,319.33,396Z" style="fill: #93DB82; transform-origin: 317.33px 396px;" id="elf0i26xmegdg" class="animable"></path><path d="M325.92,396a2,2,0,1,1-2-2A2,2,0,0,1,325.92,396Z" style="fill: rgb(235, 235, 235); transform-origin: 323.92px 396px;" id="elukjqqvz3yk" class="animable"></path><path d="M332.51,396a2,2,0,1,1-2-2A2,2,0,0,1,332.51,396Z" style="fill: rgb(235, 235, 235); transform-origin: 330.51px 396px;" id="ele8vqv0z48xt" class="animable"></path><path d="M339.11,396a2,2,0,1,1-2-2A2,2,0,0,1,339.11,396Z" style="fill: #93DB82; transform-origin: 337.11px 396px;" id="elfma29jeexy4" class="animable"></path><path d="M312.73,402a2,2,0,1,1-2-2A2,2,0,0,1,312.73,402Z" style="fill: #93DB82; transform-origin: 310.73px 402px;" id="el9m1eh4rvnkb" class="animable"></path><path d="M319.33,402a2,2,0,1,1-2-2A2,2,0,0,1,319.33,402Z" style="fill: rgb(235, 235, 235); transform-origin: 317.33px 402px;" id="el6tbb04wuh2v" class="animable"></path><path d="M325.92,402a2,2,0,1,1-2-2A2,2,0,0,1,325.92,402Z" style="fill: #93DB82; transform-origin: 323.92px 402px;" id="el0zedaasf5c1a" class="animable"></path><path d="M332.51,402a2,2,0,1,1-2-2A2,2,0,0,1,332.51,402Z" style="fill: #93DB82; transform-origin: 330.51px 402px;" id="eluqaenadeh0c" class="animable"></path><path d="M339.11,402a2,2,0,1,1-2-2A2,2,0,0,1,339.11,402Z" style="fill: rgb(235, 235, 235); transform-origin: 337.11px 402px;" id="el269qkpc2giq" class="animable"></path><rect x="304.94" y="387.96" width="1.15" height="16" style="fill: rgb(38, 50, 56); transform-origin: 305.515px 395.96px;" id="elgnf345wudqc" class="animable"></rect><rect x="238.75" y="355.21" width="103.47" height="23.89" style="fill: rgb(55, 71, 79); transform-origin: 290.485px 367.155px;" id="el9r0zjxsf7h7" class="animable"></rect><rect x="243.1" y="359.16" width="58.89" height="2.02" style="fill: rgb(69, 90, 100); transform-origin: 272.545px 360.17px;" id="elwfl3gkrro8" class="animable"></rect><rect x="243.1" y="362.66" width="58.89" height="2.02" style="fill: rgb(69, 90, 100); transform-origin: 272.545px 363.67px;" id="eltnfuzvmzms" class="animable"></rect><rect x="243.1" y="366.15" width="58.89" height="2.02" style="fill: rgb(69, 90, 100); transform-origin: 272.545px 367.16px;" id="ely80su5dvd7" class="animable"></rect><rect x="243.1" y="369.65" width="58.89" height="2.02" style="fill: rgb(69, 90, 100); transform-origin: 272.545px 370.66px;" id="elyzrce9crp5k" class="animable"></rect><rect x="243.1" y="373.15" width="58.89" height="2.02" style="fill: rgb(69, 90, 100); transform-origin: 272.545px 374.16px;" id="el5c9m2tp16dm" class="animable"></rect><circle cx="310.73" cy="361.16" r="2" style="fill: rgb(235, 235, 235); transform-origin: 310.73px 361.16px;" id="el4uv1efdyv5r" class="animable"></circle><path d="M319.33,361.16a2,2,0,1,1-2-2A2,2,0,0,1,319.33,361.16Z" style="fill: #93DB82; transform-origin: 317.33px 361.16px;" id="elgdmdk164hsw" class="animable"></path><path d="M325.92,361.16a2,2,0,1,1-2-2A2,2,0,0,1,325.92,361.16Z" style="fill: rgb(235, 235, 235); transform-origin: 323.92px 361.16px;" id="elsbc9bnj6apk" class="animable"></path><circle cx="330.51" cy="361.16" r="2" style="fill: #93DB82; transform-origin: 330.51px 361.16px;" id="elt5183b6as1f" class="animable"></circle><path d="M339.11,361.16a2,2,0,1,1-2-2A2,2,0,0,1,339.11,361.16Z" style="fill: #93DB82; transform-origin: 337.11px 361.16px;" id="elu56rt9lk1w" class="animable"></path><path d="M312.73,367.16a2,2,0,1,1-2-2A2,2,0,0,1,312.73,367.16Z" style="fill: #93DB82; transform-origin: 310.73px 367.16px;" id="elj2xm18sch8q" class="animable"></path><path d="M319.33,367.16a2,2,0,1,1-2-2A2,2,0,0,1,319.33,367.16Z" style="fill: rgb(235, 235, 235); transform-origin: 317.33px 367.16px;" id="el7rfzya0rtyy" class="animable"></path><path d="M325.92,367.16a2,2,0,1,1-2-2A2,2,0,0,1,325.92,367.16Z" style="fill: rgb(235, 235, 235); transform-origin: 323.92px 367.16px;" id="eldtzea45tst" class="animable"></path><path d="M332.51,367.16a2,2,0,1,1-2-2A2,2,0,0,1,332.51,367.16Z" style="fill: #93DB82; transform-origin: 330.51px 367.16px;" id="eldsnl7v2wcam" class="animable"></path><path d="M339.11,367.16a2,2,0,1,1-2-2A2,2,0,0,1,339.11,367.16Z" style="fill: rgb(235, 235, 235); transform-origin: 337.11px 367.16px;" id="el6lkc3ayt6z" class="animable"></path><path d="M312.73,373.16a2,2,0,1,1-2-2A2,2,0,0,1,312.73,373.16Z" style="fill: rgb(235, 235, 235); transform-origin: 310.73px 373.16px;" id="ellcup0wceh0h" class="animable"></path><path d="M319.33,373.16a2,2,0,1,1-2-2A2,2,0,0,1,319.33,373.16Z" style="fill: #93DB82; transform-origin: 317.33px 373.16px;" id="elyzxcx6z453" class="animable"></path><path d="M325.92,373.16a2,2,0,1,1-2-2A2,2,0,0,1,325.92,373.16Z" style="fill: #93DB82; transform-origin: 323.92px 373.16px;" id="elt5yka57izj9" class="animable"></path><path d="M332.51,373.16a2,2,0,1,1-2-2A2,2,0,0,1,332.51,373.16Z" style="fill: rgb(235, 235, 235); transform-origin: 330.51px 373.16px;" id="eluvdrbn6b34s" class="animable"></path><path d="M339.11,373.16a2,2,0,1,1-2-2A2,2,0,0,1,339.11,373.16Z" style="fill: #93DB82; transform-origin: 337.11px 373.16px;" id="elg6g9gts42z" class="animable"></path><rect x="304.94" y="359.16" width="1.15" height="16" style="fill: rgb(38, 50, 56); transform-origin: 305.515px 367.16px;" id="el1cgar0rwl7g" class="animable"></rect><rect x="238.75" y="326.42" width="103.47" height="23.89" style="fill: rgb(55, 71, 79); transform-origin: 290.485px 338.365px;" id="elebwsy2vuejm" class="animable"></rect><rect x="243.1" y="330.36" width="58.89" height="2.02" style="fill: rgb(69, 90, 100); transform-origin: 272.545px 331.37px;" id="elel8s68foyxk" class="animable"></rect><rect x="243.1" y="333.86" width="58.89" height="2.02" style="fill: rgb(69, 90, 100); transform-origin: 272.545px 334.87px;" id="el1n4cfbw4fjl" class="animable"></rect><rect x="243.1" y="337.35" width="58.89" height="2.02" style="fill: rgb(69, 90, 100); transform-origin: 272.545px 338.36px;" id="eliy7psmvrkc" class="animable"></rect><rect x="243.1" y="340.85" width="58.89" height="2.02" style="fill: rgb(69, 90, 100); transform-origin: 272.545px 341.86px;" id="el2l77k2tgj6q" class="animable"></rect><rect x="243.1" y="344.35" width="58.89" height="2.02" style="fill: rgb(69, 90, 100); transform-origin: 272.545px 345.36px;" id="elb3yilp5w6j9" class="animable"></rect><path d="M312.73,332.36a2,2,0,1,1-2-2A2,2,0,0,1,312.73,332.36Z" style="fill: #93DB82; transform-origin: 310.73px 332.36px;" id="el24rxou4z11i" class="animable"></path><path d="M319.33,332.36a2,2,0,1,1-2-2A2,2,0,0,1,319.33,332.36Z" style="fill: #93DB82; transform-origin: 317.33px 332.36px;" id="elv3j8dlhnu1g" class="animable"></path><path d="M325.92,332.36a2,2,0,1,1-2-2A2,2,0,0,1,325.92,332.36Z" style="fill: #93DB82; transform-origin: 323.92px 332.36px;" id="elxygsxwz0ok" class="animable"></path><path d="M332.51,332.36a2,2,0,1,1-2-2A2,2,0,0,1,332.51,332.36Z" style="fill: #93DB82; transform-origin: 330.51px 332.36px;" id="elhufo4p66ok7" class="animable"></path><path d="M339.11,332.36a2,2,0,1,1-2-2A2,2,0,0,1,339.11,332.36Z" style="fill: rgb(235, 235, 235); transform-origin: 337.11px 332.36px;" id="eld3dyel4c6s9" class="animable"></path><circle cx="310.73" cy="338.36" r="2" style="fill: rgb(235, 235, 235); transform-origin: 310.73px 338.36px;" id="elzmclf5vgpvd" class="animable"></circle><path d="M319.33,338.36a2,2,0,1,1-2-2A2,2,0,0,1,319.33,338.36Z" style="fill: rgb(235, 235, 235); transform-origin: 317.33px 338.36px;" id="elgd2tfrrvu5" class="animable"></path><path d="M325.92,338.36a2,2,0,1,1-2-2A2,2,0,0,1,325.92,338.36Z" style="fill: #93DB82; transform-origin: 323.92px 338.36px;" id="elmebsndqsq" class="animable"></path><circle cx="330.51" cy="338.36" r="2" style="fill: rgb(235, 235, 235); transform-origin: 330.51px 338.36px;" id="elg6oqndedkrr" class="animable"></circle><path d="M339.11,338.36a2,2,0,1,1-2-2A2,2,0,0,1,339.11,338.36Z" style="fill: #93DB82; transform-origin: 337.11px 338.36px;" id="el1mrovvuai8y" class="animable"></path><path d="M312.73,344.36a2,2,0,1,1-2-2A2,2,0,0,1,312.73,344.36Z" style="fill: #93DB82; transform-origin: 310.73px 344.36px;" id="el0d499quo3p3" class="animable"></path><path d="M319.33,344.36a2,2,0,1,1-2-2A2,2,0,0,1,319.33,344.36Z" style="fill: #93DB82; transform-origin: 317.33px 344.36px;" id="elw7b4kwv5qmn" class="animable"></path><path d="M325.92,344.36a2,2,0,1,1-2-2A2,2,0,0,1,325.92,344.36Z" style="fill: rgb(235, 235, 235); transform-origin: 323.92px 344.36px;" id="eljqm6t76ovs" class="animable"></path><path d="M332.51,344.36a2,2,0,1,1-2-2A2,2,0,0,1,332.51,344.36Z" style="fill: #93DB82; transform-origin: 330.51px 344.36px;" id="el3e4hln62s7x" class="animable"></path><path d="M339.11,344.36a2,2,0,1,1-2-2A2,2,0,0,1,339.11,344.36Z" style="fill: rgb(235, 235, 235); transform-origin: 337.11px 344.36px;" id="el8wh4dqywvzn" class="animable"></path><rect x="304.94" y="330.36" width="1.15" height="16" style="fill: rgb(38, 50, 56); transform-origin: 305.515px 338.36px;" id="el0lxe2uz6hlu" class="animable"></rect><rect x="238.75" y="297.62" width="103.47" height="23.89" style="fill: rgb(55, 71, 79); transform-origin: 290.485px 309.565px;" id="el16msk3iwbiv" class="animable"></rect><rect x="243.1" y="301.56" width="58.89" height="2.02" style="fill: rgb(69, 90, 100); transform-origin: 272.545px 302.57px;" id="el1pae6r3qhgz" class="animable"></rect><rect x="243.1" y="305.06" width="58.89" height="2.02" style="fill: rgb(69, 90, 100); transform-origin: 272.545px 306.07px;" id="el2nxg8n27eoj" class="animable"></rect><rect x="243.1" y="308.56" width="58.89" height="2.02" style="fill: rgb(69, 90, 100); transform-origin: 272.545px 309.57px;" id="el7mutsoytfw" class="animable"></rect><rect x="243.1" y="312.05" width="58.89" height="2.02" style="fill: rgb(69, 90, 100); transform-origin: 272.545px 313.06px;" id="elp9v3hpad7o" class="animable"></rect><rect x="243.1" y="315.55" width="58.89" height="2.02" style="fill: rgb(69, 90, 100); transform-origin: 272.545px 316.56px;" id="ele4hpniswps" class="animable"></rect><path d="M312.73,303.56a2,2,0,1,1-2-2A2,2,0,0,1,312.73,303.56Z" style="fill: #93DB82; transform-origin: 310.73px 303.56px;" id="el3i4liy2v9m7" class="animable"></path><path d="M319.33,303.56a2,2,0,1,1-2-2A2,2,0,0,1,319.33,303.56Z" style="fill: #93DB82; transform-origin: 317.33px 303.56px;" id="elw64zsx3oqtf" class="animable"></path><path d="M325.92,303.56a2,2,0,1,1-2-2A2,2,0,0,1,325.92,303.56Z" style="fill: #93DB82; transform-origin: 323.92px 303.56px;" id="el6pq2i0g25mw" class="animable"></path><path d="M332.51,303.56a2,2,0,1,1-2-2A2,2,0,0,1,332.51,303.56Z" style="fill: #93DB82; transform-origin: 330.51px 303.56px;" id="elty4tkag5zw" class="animable"></path><path d="M339.11,303.56a2,2,0,1,1-2-2A2,2,0,0,1,339.11,303.56Z" style="fill: rgb(235, 235, 235); transform-origin: 337.11px 303.56px;" id="eldggu37drc4" class="animable"></path><path d="M312.73,309.56a2,2,0,1,1-2-2A2,2,0,0,1,312.73,309.56Z" style="fill: rgb(235, 235, 235); transform-origin: 310.73px 309.56px;" id="elko6nte79zm" class="animable"></path><path d="M319.33,309.56a2,2,0,1,1-2-2A2,2,0,0,1,319.33,309.56Z" style="fill: #93DB82; transform-origin: 317.33px 309.56px;" id="elznyd8bj7w6c" class="animable"></path><path d="M325.92,309.56a2,2,0,1,1-2-2A2,2,0,0,1,325.92,309.56Z" style="fill: #93DB82; transform-origin: 323.92px 309.56px;" id="elu68hbrdey1e" class="animable"></path><path d="M332.51,309.56a2,2,0,1,1-2-2A2,2,0,0,1,332.51,309.56Z" style="fill: rgb(235, 235, 235); transform-origin: 330.51px 309.56px;" id="elk2x68soz5x" class="animable"></path><path d="M339.11,309.56a2,2,0,1,1-2-2A2,2,0,0,1,339.11,309.56Z" style="fill: #93DB82; transform-origin: 337.11px 309.56px;" id="elon3n3e491yp" class="animable"></path><path d="M312.73,315.56a2,2,0,1,1-2-2A2,2,0,0,1,312.73,315.56Z" style="fill: rgb(235, 235, 235); transform-origin: 310.73px 315.56px;" id="elnrjdp2gqd1k" class="animable"></path><path d="M319.33,315.56a2,2,0,1,1-2-2A2,2,0,0,1,319.33,315.56Z" style="fill: rgb(235, 235, 235); transform-origin: 317.33px 315.56px;" id="elkrovnvo1igm" class="animable"></path><path d="M325.92,315.56a2,2,0,1,1-2-2A2,2,0,0,1,325.92,315.56Z" style="fill: #93DB82; transform-origin: 323.92px 315.56px;" id="elm3qja4tknfb" class="animable"></path><path d="M332.51,315.56a2,2,0,1,1-2-2A2,2,0,0,1,332.51,315.56Z" style="fill: #93DB82; transform-origin: 330.51px 315.56px;" id="elr9mt8s3mlw" class="animable"></path><path d="M339.11,315.56a2,2,0,1,1-2-2A2,2,0,0,1,339.11,315.56Z" style="fill: rgb(235, 235, 235); transform-origin: 337.11px 315.56px;" id="elmq16xuibskr" class="animable"></path><rect x="304.94" y="301.56" width="1.15" height="16" style="fill: rgb(38, 50, 56); transform-origin: 305.515px 309.56px;" id="ele4jsrjjgej5" class="animable"></rect><rect x="238.75" y="268.82" width="103.47" height="23.89" style="fill: rgb(55, 71, 79); transform-origin: 290.485px 280.765px;" id="elhk0fkoouru" class="animable"></rect><rect x="243.1" y="272.77" width="58.89" height="2.02" style="fill: rgb(69, 90, 100); transform-origin: 272.545px 273.78px;" id="ela9x3dveb5uu" class="animable"></rect><rect x="243.1" y="276.26" width="58.89" height="2.02" style="fill: rgb(69, 90, 100); transform-origin: 272.545px 277.27px;" id="elr247vx64k5c" class="animable"></rect><rect x="243.1" y="279.76" width="58.89" height="2.02" style="fill: rgb(69, 90, 100); transform-origin: 272.545px 280.77px;" id="elo4pifymqrp" class="animable"></rect><rect x="243.1" y="283.25" width="58.89" height="2.02" style="fill: rgb(69, 90, 100); transform-origin: 272.545px 284.26px;" id="el548h5x1ypzk" class="animable"></rect><rect x="243.1" y="286.75" width="58.89" height="2.02" style="fill: rgb(69, 90, 100); transform-origin: 272.545px 287.76px;" id="elg0qsfwlasy7" class="animable"></rect><path d="M312.73,274.77a2,2,0,1,1-2-2A2,2,0,0,1,312.73,274.77Z" style="fill: rgb(235, 235, 235); transform-origin: 310.73px 274.77px;" id="el6pu0sh98bme" class="animable"></path><path d="M319.33,274.77a2,2,0,1,1-2-2A2,2,0,0,1,319.33,274.77Z" style="fill: #93DB82; transform-origin: 317.33px 274.77px;" id="elw93rd626cz" class="animable"></path><path d="M325.92,274.77a2,2,0,1,1-2-2A2,2,0,0,1,325.92,274.77Z" style="fill: #93DB82; transform-origin: 323.92px 274.77px;" id="elwzavjdmb8vk" class="animable"></path><path d="M332.51,274.77a2,2,0,1,1-2-2A2,2,0,0,1,332.51,274.77Z" style="fill: rgb(235, 235, 235); transform-origin: 330.51px 274.77px;" id="elr5whl7z50xm" class="animable"></path><path d="M339.11,274.77a2,2,0,1,1-2-2A2,2,0,0,1,339.11,274.77Z" style="fill: #93DB82; transform-origin: 337.11px 274.77px;" id="el5onuyprqtkq" class="animable"></path><path d="M312.73,280.77a2,2,0,1,1-2-2A2,2,0,0,1,312.73,280.77Z" style="fill: #93DB82; transform-origin: 310.73px 280.77px;" id="elahapmuahvzc" class="animable"></path><path d="M319.33,280.77a2,2,0,1,1-2-2A2,2,0,0,1,319.33,280.77Z" style="fill: rgb(235, 235, 235); transform-origin: 317.33px 280.77px;" id="elxzc2wdnomx" class="animable"></path><path d="M325.92,280.77a2,2,0,1,1-2-2A2,2,0,0,1,325.92,280.77Z" style="fill: #93DB82; transform-origin: 323.92px 280.77px;" id="elbw5bf83dl39" class="animable"></path><path d="M332.51,280.77a2,2,0,1,1-2-2A2,2,0,0,1,332.51,280.77Z" style="fill: #93DB82; transform-origin: 330.51px 280.77px;" id="elim4rdl4s9mh" class="animable"></path><path d="M339.11,280.77a2,2,0,1,1-2-2A2,2,0,0,1,339.11,280.77Z" style="fill: rgb(235, 235, 235); transform-origin: 337.11px 280.77px;" id="elibg9ejahhgi" class="animable"></path><path d="M312.73,286.77a2,2,0,1,1-2-2A2,2,0,0,1,312.73,286.77Z" style="fill: #93DB82; transform-origin: 310.73px 286.77px;" id="el0sgmt1903vfa" class="animable"></path><path d="M319.33,286.77a2,2,0,1,1-2-2A2,2,0,0,1,319.33,286.77Z" style="fill: #93DB82; transform-origin: 317.33px 286.77px;" id="ell901mxr64p" class="animable"></path><path d="M325.92,286.77a2,2,0,1,1-2-2A2,2,0,0,1,325.92,286.77Z" style="fill: rgb(235, 235, 235); transform-origin: 323.92px 286.77px;" id="el2b43e3zttpw" class="animable"></path><path d="M332.51,286.77a2,2,0,1,1-2-2A2,2,0,0,1,332.51,286.77Z" style="fill: rgb(235, 235, 235); transform-origin: 330.51px 286.77px;" id="el0lybzqne9pj" class="animable"></path><path d="M339.11,286.77a2,2,0,1,1-2-2A2,2,0,0,1,339.11,286.77Z" style="fill: #93DB82; transform-origin: 337.11px 286.77px;" id="el3ss1y22scwf" class="animable"></path><rect x="304.94" y="272.77" width="1.15" height="16" style="fill: rgb(38, 50, 56); transform-origin: 305.515px 280.77px;" id="el8hn26vei4os" class="animable"></rect><rect x="238.75" y="211.22" width="103.47" height="23.89" style="fill: rgb(69, 90, 100); transform-origin: 290.485px 223.165px;" id="elcr23ilx8qd" class="animable"></rect><rect x="248.39" y="220.53" width="52.47" height="5.27" style="fill: rgb(255, 255, 255); transform-origin: 274.625px 223.165px;" id="elxvgy935u3f" class="animable"></rect><rect x="248.39" y="220.53" width="32.17" height="5.27" style="fill: #93DB82; transform-origin: 264.475px 223.165px;" id="elvtjxceakqdo" class="animable"></rect><path d="M313.64,223.17a2.78,2.78,0,1,1-2.78-2.78A2.78,2.78,0,0,1,313.64,223.17Z" style="fill: #93DB82; transform-origin: 310.86px 223.17px;" id="eluddfd9jovhr" class="animable"></path><path d="M324.28,223.17a2.78,2.78,0,1,1-2.78-2.78A2.78,2.78,0,0,1,324.28,223.17Z" style="fill: rgb(255, 255, 255); transform-origin: 321.5px 223.17px;" id="elioh3wxib1hl" class="animable"></path><path d="M334.92,223.17a2.78,2.78,0,1,1-2.77-2.78A2.78,2.78,0,0,1,334.92,223.17Z" style="fill: rgb(255, 255, 255); transform-origin: 332.14px 223.17px;" id="elemg4kci8cxl" class="animable"></path><rect x="238.75" y="240.02" width="103.47" height="23.89" style="fill: rgb(69, 90, 100); transform-origin: 290.485px 251.965px;" id="elay1bpm482co" class="animable"></rect><rect x="248.39" y="249.33" width="52.47" height="5.27" style="fill: rgb(255, 255, 255); transform-origin: 274.625px 251.965px;" id="elyxevk6yezcn" class="animable"></rect><rect x="248.39" y="249.33" width="42.08" height="5.27" style="fill: #93DB82; transform-origin: 269.43px 251.965px;" id="elvbndef2z00p" class="animable"></rect><path d="M313.64,252a2.78,2.78,0,1,1-2.78-2.78A2.77,2.77,0,0,1,313.64,252Z" style="fill: #93DB82; transform-origin: 310.86px 252px;" id="elg5e7wnr9goi" class="animable"></path><path d="M324.28,252a2.78,2.78,0,1,1-2.78-2.78A2.77,2.77,0,0,1,324.28,252Z" style="fill: rgb(255, 255, 255); transform-origin: 321.5px 252px;" id="elnsiqek0dvsm" class="animable"></path><path d="M334.92,252a2.78,2.78,0,1,1-2.77-2.78A2.77,2.77,0,0,1,334.92,252Z" style="fill: rgb(255, 255, 255); transform-origin: 332.14px 252px;" id="elf2i8j9w62w" class="animable"></path><rect x="238.75" y="268.82" width="103.47" height="23.89" style="fill: rgb(69, 90, 100); transform-origin: 290.485px 280.765px;" id="elrdwhbl37rh" class="animable"></rect><rect x="248.39" y="278.13" width="52.47" height="5.27" style="fill: rgb(255, 255, 255); transform-origin: 274.625px 280.765px;" id="el3up2vk5d7ja" class="animable"></rect><rect x="248.39" y="278.13" width="8.85" height="5.27" style="fill: #93DB82; transform-origin: 252.815px 280.765px;" id="el5olzh2fh73d" class="animable"></rect><path d="M313.64,280.77a2.78,2.78,0,1,1-2.78-2.78A2.77,2.77,0,0,1,313.64,280.77Z" style="fill: #93DB82; transform-origin: 310.86px 280.77px;" id="el4r7221nz875" class="animable"></path><path d="M324.28,280.77A2.78,2.78,0,1,1,321.5,278,2.77,2.77,0,0,1,324.28,280.77Z" style="fill: rgb(255, 255, 255); transform-origin: 321.5px 280.78px;" id="el6fel2v89hch" class="animable"></path><path d="M334.92,280.77a2.78,2.78,0,1,1-2.77-2.78A2.77,2.77,0,0,1,334.92,280.77Z" style="fill: rgb(255, 255, 255); transform-origin: 332.14px 280.77px;" id="elakbzlkmy5vo" class="animable"></path><rect x="238.75" y="297.62" width="103.47" height="23.89" style="fill: rgb(69, 90, 100); transform-origin: 290.485px 309.565px;" id="elz3mu0iltru" class="animable"></rect><rect x="248.39" y="306.93" width="52.47" height="5.27" style="fill: rgb(255, 255, 255); transform-origin: 274.625px 309.565px;" id="eltfytgmxfl0q" class="animable"></rect><rect x="248.39" y="306.93" width="32.17" height="5.27" style="fill: #93DB82; transform-origin: 264.475px 309.565px;" id="elnw5bsxhpbhs" class="animable"></rect><path d="M313.64,309.56a2.78,2.78,0,1,1-2.78-2.77A2.77,2.77,0,0,1,313.64,309.56Z" style="fill: #93DB82; transform-origin: 310.86px 309.57px;" id="elf6hftrta1pq" class="animable"></path><path d="M324.28,309.56a2.78,2.78,0,1,1-2.78-2.77A2.77,2.77,0,0,1,324.28,309.56Z" style="fill: rgb(255, 255, 255); transform-origin: 321.5px 309.57px;" id="ely4g73ja26rh" class="animable"></path><path d="M334.92,309.56a2.78,2.78,0,1,1-2.77-2.77A2.77,2.77,0,0,1,334.92,309.56Z" style="fill: rgb(255, 255, 255); transform-origin: 332.14px 309.57px;" id="ely8b76qgyr5" class="animable"></path><rect x="238.75" y="326.42" width="103.47" height="23.89" style="fill: rgb(69, 90, 100); transform-origin: 290.485px 338.365px;" id="el8w6o2mp0a0a" class="animable"></rect><rect x="248.39" y="335.73" width="52.47" height="5.27" style="fill: rgb(255, 255, 255); transform-origin: 274.625px 338.365px;" id="eljuxwi2aade" class="animable"></rect><rect x="248.39" y="335.73" width="43.73" height="5.27" style="fill: #93DB82; transform-origin: 270.255px 338.365px;" id="el29puryavffw" class="animable"></rect><path d="M313.64,338.36a2.78,2.78,0,1,1-2.78-2.77A2.77,2.77,0,0,1,313.64,338.36Z" style="fill: #93DB82; transform-origin: 310.86px 338.37px;" id="elwi5lqtujozl" class="animable"></path><path d="M324.28,338.36a2.78,2.78,0,1,1-2.78-2.77A2.77,2.77,0,0,1,324.28,338.36Z" style="fill: rgb(255, 255, 255); transform-origin: 321.5px 338.37px;" id="elbzmw9eqg2gu" class="animable"></path><path d="M334.92,338.36a2.78,2.78,0,1,1-2.77-2.77A2.77,2.77,0,0,1,334.92,338.36Z" style="fill: rgb(255, 255, 255); transform-origin: 332.14px 338.37px;" id="eljw8q01a76dk" class="animable"></path><rect x="238.75" y="355.21" width="103.47" height="23.89" style="fill: rgb(69, 90, 100); transform-origin: 290.485px 367.155px;" id="elu5doxxhpag" class="animable"></rect><rect x="248.39" y="364.53" width="52.47" height="5.27" style="fill: rgb(255, 255, 255); transform-origin: 274.625px 367.165px;" id="eltwk3qxubaf" class="animable"></rect><rect x="248.39" y="364.53" width="35.91" height="5.27" style="fill: #93DB82; transform-origin: 266.345px 367.165px;" id="elwus9w7t18d" class="animable"></rect><path d="M313.64,367.16a2.78,2.78,0,1,1-2.78-2.78A2.78,2.78,0,0,1,313.64,367.16Z" style="fill: #93DB82; transform-origin: 310.86px 367.16px;" id="el3o299qcyg51" class="animable"></path><path d="M324.28,367.16a2.78,2.78,0,1,1-2.78-2.78A2.78,2.78,0,0,1,324.28,367.16Z" style="fill: rgb(255, 255, 255); transform-origin: 321.5px 367.16px;" id="elo6sp56aage" class="animable"></path><path d="M334.92,367.16a2.78,2.78,0,1,1-2.77-2.78A2.78,2.78,0,0,1,334.92,367.16Z" style="fill: rgb(255, 255, 255); transform-origin: 332.14px 367.16px;" id="el4d37jxp5ejy" class="animable"></path><rect x="238.75" y="384.01" width="103.47" height="23.89" style="fill: rgb(69, 90, 100); transform-origin: 290.485px 395.955px;" id="el267elp5nbtl" class="animable"></rect><rect x="248.39" y="393.33" width="52.47" height="5.27" style="fill: rgb(255, 255, 255); transform-origin: 274.625px 395.965px;" id="elvphox9uxozg" class="animable"></rect><rect x="248.39" y="393.33" width="18.97" height="5.27" style="fill: #93DB82; transform-origin: 257.875px 395.965px;" id="elmjtvqi56eio" class="animable"></rect><path d="M313.64,396a2.78,2.78,0,1,1-2.78-2.78A2.78,2.78,0,0,1,313.64,396Z" style="fill: #93DB82; transform-origin: 310.86px 396px;" id="el9bu3pcd55kp" class="animable"></path><path d="M324.28,396a2.78,2.78,0,1,1-2.78-2.78A2.78,2.78,0,0,1,324.28,396Z" style="fill: rgb(255, 255, 255); transform-origin: 321.5px 396px;" id="elyney74zd29h" class="animable"></path><path d="M334.92,396a2.78,2.78,0,1,1-2.77-2.78A2.78,2.78,0,0,1,334.92,396Z" style="fill: rgb(255, 255, 255); transform-origin: 332.14px 396px;" id="el0u90yglqngyo" class="animable"></path><rect x="238.75" y="412.81" width="103.47" height="23.89" style="fill: rgb(69, 90, 100); transform-origin: 290.485px 424.755px;" id="el16by9vum2gm" class="animable"></rect><rect x="248.39" y="422.12" width="52.47" height="5.27" style="fill: rgb(255, 255, 255); transform-origin: 274.625px 424.755px;" id="eljt4li07d51" class="animable"></rect><rect x="248.39" y="422.12" width="37.19" height="5.27" style="fill: #93DB82; transform-origin: 266.985px 424.755px;" id="elymlg9vf988m" class="animable"></rect><path d="M313.64,424.76a2.78,2.78,0,1,1-2.78-2.78A2.78,2.78,0,0,1,313.64,424.76Z" style="fill: #93DB82; transform-origin: 310.86px 424.76px;" id="el7n4ptrio6dl" class="animable"></path><path d="M324.28,424.76A2.78,2.78,0,1,1,321.5,422,2.78,2.78,0,0,1,324.28,424.76Z" style="fill: rgb(255, 255, 255); transform-origin: 321.5px 424.78px;" id="elf0fxba02ztl" class="animable"></path><path d="M334.92,424.76a2.78,2.78,0,1,1-2.77-2.78A2.78,2.78,0,0,1,334.92,424.76Z" style="fill: rgb(255, 255, 255); transform-origin: 332.14px 424.76px;" id="elun2hw455d3h" class="animable"></path><rect x="188.95" y="191.33" width="136.39" height="7.58" style="fill: rgb(38, 50, 56); transform-origin: 257.145px 195.12px;" id="elxng4ha3bvje" class="animable"></rect></g><g id="freepik--Folder--inject-38" class="animable" style="transform-origin: 393.995px 408.915px;"><polygon points="348.27 444.69 442.05 444.69 431.79 379.86 338 379.86 348.27 444.69" style="fill: #93DB82; transform-origin: 390.025px 412.275px;" id="elhjnrrv1xrrp" class="animable"></polygon><polygon points="397.58 373.14 430.72 373.14 431.79 379.86 396.74 379.86 397.58 373.14" style="fill: #93DB82; transform-origin: 414.265px 376.5px;" id="eluobvvz8q0js" class="animable"></polygon><g id="eld0io1j3oyb8"><g style="opacity: 0.1; transform-origin: 390.025px 408.915px;" class="animable" id="el4qrjzrkbwkg"><polygon points="348.27 444.69 442.05 444.69 431.79 379.86 338 379.86 348.27 444.69" id="el35b0qhpucby" class="animable" style="transform-origin: 390.025px 412.275px;"></polygon><polygon points="397.58 373.14 430.72 373.14 431.79 379.86 396.74 379.86 397.58 373.14" id="eljzwgnkd6ky" class="animable" style="transform-origin: 414.265px 376.5px;"></polygon></g></g><polygon points="348.22 444.69 442.01 444.69 449.24 385.24 355.46 385.24 348.22 444.69" style="fill: #93DB82; transform-origin: 398.73px 414.965px;" id="eloumy5d0j5w" class="animable"></polygon><polygon points="416.85 379.08 449.99 379.08 449.24 385.24 414.2 385.24 416.85 379.08" style="fill: #93DB82; transform-origin: 432.095px 382.16px;" id="elrt67mzpup1q" class="animable"></polygon></g><g id="freepik--Character--inject-38" class="animable" style="transform-origin: 159.006px 264.068px;"><path d="M94,444.51c2.27.74,68.71.13,71.16-1.45.94-.59-4-63.58-4-63.58l-42.27.27,4.4,42.15s-24.66,11.31-27.16,13.34S91.73,443.78,94,444.51Z" style="fill: rgb(247, 169, 160); transform-origin: 129.132px 412.151px;" id="elobrchqin5b" class="animable"></path><path d="M94,444.51c2.26.73,68.71.13,71.15-1.46.3-.18.47-6.56-.48-14.9-12.07,1.87-55.15,7.93-58.47,5.92-2.32-1.4-.23-3.52,1.7-4.94-5.52,2.67-10.68,5.24-11.74,6.11C93.67,437.26,91.74,443.78,94,444.51Z" style="fill: #93DB82; transform-origin: 129.192px 436.484px;" id="elyc1qhme4ig" class="animable"></path><g id="ells06jy1doxc"><path d="M126.5,444.69c18.15-.23,37.37-.8,38.66-1.64.29-.17.46-6.56-.5-14.9-4,.62-11.45,1.71-19.72,2.8Z" style="fill: rgb(2, 1, 0); opacity: 0.1; transform-origin: 145.944px 436.42px;" class="animable" id="el64eo8uf2wvc"></path></g><path d="M120,411.77H166.6s-8.77-99.18-8.4-101.08c.46-2.43,3.21-13.44,6.87-27.83,1.15-4.5,2.39-9.33,3.68-14.34,3.47-13.53,7.3-28.32,10.63-41.2,5-19.28,8.92-34.26,8.92-34.26H148.82s-4.6,14.59-10.4,33.56c-9.45,30.84-22.07,73.29-23.32,83.61C113.08,326.89,120,411.77,120,411.77Z" style="fill: rgb(69, 90, 100); transform-origin: 151.515px 302.415px;" id="elb54irgx83ac" class="animable"></path><path d="M122.08,403.82c7.12-.14,5.07-.2,12.19-.27,3.48,0,26.36-.23,29.61.3a.08.08,0,0,1,0,.15c-3.25.54-26.13.34-29.61.31-7.12-.07-5.07-.13-12.19-.28C122,404,122,403.83,122.08,403.82Z" style="fill: rgb(38, 50, 56); transform-origin: 142.976px 403.936px;" id="elwkrrifxjaqa" class="animable"></path><path d="M149.43,304c1.53-6.73,3.81-13.33,5.8-19.94q6.06-20.14,12.18-40.27,3.06-10.07,6.15-20.11,1.56-5.08,3.14-10.15c1-3.31,2.22-6.58,3.15-9.92.38-1.36.59-.61.1,1.11-1,3.48-1.95,7-3,10.42q-3,10.29-6.06,20.58-6.06,20.48-12.22,40.91-3.08,10.24-6.16,20.5a80.82,80.82,0,0,0-2.52,9.91,45.38,45.38,0,0,0-.41,10.61c.44,7.13,1.27,14.24,1.93,21.35s1.32,14.25,2,21.38c1.32,14.18,2,18.74,3.3,32.93.16,1.79.32,3.59.45,5.39,0,.6-.86.56-.92,0-1.54-14-2.1-18.48-3.42-32.52L149,324.28c-.32-3.51-.7-7-.7-10.55A43.93,43.93,0,0,1,149.43,304Z" style="fill: rgb(38, 50, 56); transform-origin: 164.268px 301.022px;" id="el544ngg4rwft" class="animable"></path><path d="M153.3,193.06c2.74,21.2,8,61,11.77,89.8,8.91-35,23.23-89.8,23.23-89.8Z" style="fill: rgb(38, 50, 56); transform-origin: 170.8px 237.96px;" id="el21dpf8k0w83" class="animable"></path><path d="M140.14,445.28c2.27.74,68.71.14,71.16-1.45.94-.59-1-63.58-1-63.58l-42.28.28,1.48,42.15S144.81,434,142.3,436,137.88,444.55,140.14,445.28Z" style="fill: rgb(247, 169, 160); transform-origin: 175.346px 412.922px;" id="elok8vtyiajj" class="animable"></path><path d="M140.14,445.28c2.27.74,68.71.14,71.16-1.45.29-.18.3-6.4.18-14.9-12.07,1.87-55.82,7.93-59.14,5.92-2.32-1.4-.23-3.52,1.71-4.94-5.53,2.67-10.68,5.23-11.75,6.11C139.81,438,137.88,444.56,140.14,445.28Z" style="fill: #93DB82; transform-origin: 175.345px 437.262px;" id="elf798wfkom17" class="animable"></path><path d="M150.1,193.06s.91,18.89,5.23,33.85c.35,1.24.72,2.45,1.13,3.62a70,70,0,0,1,11.38,5.85s.45,15.19.91,32.14c.5,19-2.44,40.08-2.54,44.57-.4,16.77,1.64,98.49,1.64,98.49l46.57.19s-8-92.49-7.91-98.64c.09-9.87-3.38-78.57-2.8-80.11,7.5-19.6-2.41-40-2.41-40Z" style="fill: rgb(69, 90, 100); transform-origin: 182.26px 302.395px;" id="elm924sx5m9k" class="animable"></path><path d="M169.45,403.3c7.11-.12,5.07-.19,12.18-.22,3.48,0,26.37-.13,29.62.43a.07.07,0,0,1,0,.14c-3.26.53-26.14.23-29.62.18-7.12-.1-5.07-.15-12.18-.32A.11.11,0,1,1,169.45,403.3Z" style="fill: rgb(38, 50, 56); transform-origin: 190.314px 403.513px;" id="el056zdr8g890f" class="animable"></path><path d="M154.52,229.41a85.56,85.56,0,0,1,13.31,7,.15.15,0,0,1-.13.27c-4.5-2.18-9.08-4.28-13.45-6.71A.3.3,0,0,1,154.52,229.41Z" style="fill: rgb(38, 50, 56); transform-origin: 160.992px 233.036px;" id="elvfvc4yi0xz" class="animable"></path><path d="M161.53,223.07q-.21-3.19-.49-6.39c-.43-4.85-.93-9.72-1.78-14.51-.07-.38-.6-.24-.57.12.33,3.77.76,7.53,1.11,11.3s.81,7.52.87,11.26c0,1.13,0,3.05-1.44,3.36-1.86.42-2.74-2-3.19-3.36a62.33,62.33,0,0,1-2.34-10.27c-.61-4-.94-8-1.32-11.94,0-.15-.25-.12-.25,0,0,7.9.09,16.17,3,23.63.58,1.45,1.58,2.93,3.27,3.13h.08a.32.32,0,0,0,0,.14c0,.22.09.44.13.66s.07.37.11.55c.08.38.14.77.23,1.15a.29.29,0,0,0,.58-.06.26.26,0,0,0,.16-.24,6.19,6.19,0,0,0-.51-2.23,2.81,2.81,0,0,0,2-1.72C161.86,226.24,161.63,224.58,161.53,223.07Z" style="fill: rgb(38, 50, 56); transform-origin: 156.89px 217.053px;" id="el7d7j1pa030e" class="animable"></path><path d="M199,233a87.71,87.71,0,0,1,2-9.71c1.72-7.23.56-17.07-1.3-24.14,0-.19.26-.26.32-.07,1.86,6,3.21,14.72,2.48,21-.34,3-2.76,12.14-2.68,15.4.15,6.43-.36,61.26.07,83.65.28,14.69,3.33,63.95,3.79,78.64,0,.13-.22.13-.23,0-1.7-26.18-3.92-52.93-4.27-78.59C198.87,294.29,198.57,236.59,199,233Z" style="fill: rgb(38, 50, 56); transform-origin: 201.233px 298.418px;" id="el5kgsscmc7lc" class="animable"></path><path d="M176,200.78c.2,2.25.29,4.51.62,6.75a9,9,0,0,0,2.52,5.46,13.37,13.37,0,0,0,5.24,3c2.56.77,10.34.78,13,.4.67-.09.61.42-.65.7a79.28,79.28,0,0,1-8.59.62,19,19,0,0,1-4.19-.29,11.79,11.79,0,0,1-6.07-3.16,9.79,9.79,0,0,1-2.5-6.12,36.84,36.84,0,0,1,.28-7.35C175.68,200.59,176,200.6,176,200.78Z" style="fill: rgb(38, 50, 56); transform-origin: 186.557px 209.184px;" id="elc23pe8jdjd" class="animable"></path><path d="M203.73,113.36c.74,3.66,1.5,7.33,2.1,11,.37,2.25.6,4.5.76,6.76a14,14,0,0,1-2.22,2.51c0-.57-.08-1.14-.12-1.7-.18-2.71-.59-5.35-1-8,0-.09-.13-.05-.12,0,.36,2.75.52,5.57.66,8.35,0,.6,0,1.21,0,1.82a20.34,20.34,0,0,1-2.5,1.78c0-.66,0-1.33-.07-2-.06-1.54-.15-3.07-.28-4.6a87.17,87.17,0,0,0-1.26-9c0-.12-.17-.06-.16.06.41,3.08.72,6.19.94,9.29.1,1.47.18,3,.23,4.42,0,.71,0,1.42,0,2.14a31.11,31.11,0,0,1-5,2.26c-4.94,1.76-10.4,1.68-15.52.89a26.89,26.89,0,0,1-12.46-5.22,29.58,29.58,0,0,0,2.4-7.65c0-.09-.08-.12-.11,0q-.81,2.55-1.81,5c-.31.77-.66,1.52-1,2.27l-.17-.14c-.36-.29-.74-.61-1.11-.95a47.74,47.74,0,0,0,1.69-4.79,43,43,0,0,0,1.64-7c0-.16-.16-.22-.21-.07-.67,2.24-1.29,4.51-2,6.74-.5,1.57-1.09,3.11-1.62,4.66a6.17,6.17,0,0,1-2.07-4.17,12.1,12.1,0,0,1,.94-4c.48-1.44.89-2.92,1.23-4.42a50,50,0,0,0,1.24-9.47c.1-3-.24-6-.09-8.91A11.06,11.06,0,0,1,169,94.43a10.55,10.55,0,0,1,4.7-3.13c0-.07,8.36-9.17,20.07-4.45,9.56,3.86,15,34,15,37a12.67,12.67,0,0,1-1.65,6.35c-.15-1.91-.43-3.81-.73-5.65-.63-3.82-1.58-7.53-2.56-11.25C203.85,113.19,203.7,113.24,203.73,113.36Z" style="fill: rgb(38, 50, 56); transform-origin: 186.055px 112.684px;" id="elyyf7kw20xij" class="animable"></path><path d="M182,139.31c-17.84,15.78-37.5,26.51-44.83,23.63s-23.52-29.63-24.28-37.74c-.33-3.5,19.67-17.59,21.67-14.42,2.36,3.74,11.42,26,13,27.64,1.18,1.18,17.8-5.82,30.44-9.63C186.06,126.36,191.35,131,182,139.31Z" style="fill: rgb(247, 169, 160); transform-origin: 149.927px 136.863px;" id="eliv0xzh9kra8" class="animable"></path><path d="M166,154l-2.62-20.85A156.81,156.81,0,0,1,179,128c7.61-1.75,11.65.64,6,8.4C181.29,141.61,166,154,166,154Z" style="fill: #93DB82; transform-origin: 175.514px 140.728px;" id="eluhzw3pwb4wa" class="animable"></path><path d="M165.47,132.34a7.54,7.54,0,0,0-.29,1.6,7.83,7.83,0,0,0,1-1.86Zm18.32,4.81a8.76,8.76,0,0,0-1.33-2.12,9,9,0,0,0,.74,2.38c.13.26.25.52.4.77.15-.17.3-.33.42-.48C183.94,137.5,183.86,137.33,183.79,137.15Z" style="fill: rgb(255, 255, 255); transform-origin: 174.6px 135.13px;" id="elolx0yhz5zb" class="animable"></path><path d="M167.72,151.61c-.17-3.07-.38-6.12-.73-9.16-.18-1.52-.38-3-.6-4.55s-.6-3-.79-4.52c0-.08-.15-.06-.13,0,.28,1.5.35,3,.55,4.56s.38,3,.56,4.56c.36,3,.72,6.07,1,9.11C167.6,151.71,167.73,151.69,167.72,151.61Z" style="fill: rgb(38, 50, 56); transform-origin: 166.594px 142.502px;" id="elcau1qa7f2nd" class="animable"></path><g id="eldv4di1miwy"><path d="M185.05,136.42c-3.76,5.19-19,17.55-19,17.55l-1.84-14.57,22.56-11C188.29,129.68,188,132.29,185.05,136.42Z" style="fill: rgb(2, 1, 0); opacity: 0.1; transform-origin: 175.941px 141.185px;" class="animable" id="elfmk1zg6tn1s"></path></g><path d="M103.44,114.43c2.33,5.08,11.16,13.61,14.08,14.85s17.91-13.28,17.55-16.52S125.55,93,120.45,90.47,101,109.17,103.44,114.43Z" style="fill: rgb(247, 169, 160); transform-origin: 119.12px 109.808px;" id="el67vt9zg8i1o" class="animable"></path><path d="M134,109.68a46.56,46.56,0,0,1,1.32-13.42c1.48-5.17,4.26-12.69,1.51-13.59-5.65-1.85-12.59,16.9-12.59,16.9s-1.73,8.77,3.71,11.1A5.86,5.86,0,0,0,134,109.68Z" style="fill: rgb(247, 169, 160); transform-origin: 130.988px 96.8239px;" id="elx1shoj0buq" class="animable"></path><path d="M127.5,96c-.34,2.94-3.61.86-3.61.86s4,4.13,2.47,7-5.34.14-5.62-.05c.21.22,3.77,4.11,2,6.87s-5.33-.47-5.55-.69c.13.27,1.82,3.87,0,5.65-3.21,3-7.78-6-11.22-7,0,0-2.34,5.65-2.44,5.8,0,0-4.52-8.55-2.94-13.13a3.1,3.1,0,0,1,3.25-2.11s-1.76-2.6-.39-4.81c.71-1.14,3.15-1,3.15-1a3.87,3.87,0,0,1,0-4c1.06-1.51,3.35-1.16,3.35-1.16s-.32-2.64,1.27-3.83C114.36,81.92,128.21,89.68,127.5,96Z" style="fill: rgb(247, 169, 160); transform-origin: 113.891px 100.088px;" id="eldm47ck1wwa" class="animable"></path><path d="M110.25,88.17s0-.09,0-.07a27.54,27.54,0,0,1,13.8,8.84c.11.13-.07.37-.22.24A56.77,56.77,0,0,0,110.25,88.17Z" style="fill: rgb(38, 50, 56); transform-origin: 117.167px 92.6573px;" id="el4p00kdo1czq" class="animable"></path><path d="M106.46,93.3c-.06,0,0-.12.05-.1A25.75,25.75,0,0,1,121,103.78c.12.18,0,.46-.11.26C118.38,100.66,111.13,95.42,106.46,93.3Z" style="fill: rgb(38, 50, 56); transform-origin: 113.742px 98.6534px;" id="el1mvibfge3l5" class="animable"></path><path d="M117.24,110.46c-3.37-5-8-8.4-13.26-11.22-.07,0,0-.13,0-.11,3,.67,6.12,2.82,8.44,4.69a15.89,15.89,0,0,1,5,6.52C117.46,110.44,117.32,110.56,117.24,110.46Z" style="fill: rgb(38, 50, 56); transform-origin: 110.688px 104.813px;" id="elc02sh9o308" class="animable"></path><path d="M124,96.84c.13.16-.26.17-.13.34.53.72,3.38,5.32,2.12,6.78-1,1.17-3.29.61-4.08.05l-2-1.4,1.37,2a9.82,9.82,0,0,1,1.39,2.9,3.51,3.51,0,0,1-.23,2.89,2,2,0,0,1-2.37,1,6.15,6.15,0,0,1-2.58-1.68l-2-2.05,1.23,2.59a9.35,9.35,0,0,1,.74,2.26,3.82,3.82,0,0,1-.14,2.21,1.84,1.84,0,0,1-1.58,1.11,4.07,4.07,0,0,1-2.11-.82,31.91,31.91,0,0,1-3.75-3.28c-.61-.59-1.22-1.17-1.86-1.72a6,6,0,0,0-2.13-1.35,6.32,6.32,0,0,1,2,1.52c.59.59,1.15,1.22,1.72,1.84a26.75,26.75,0,0,0,3.65,3.56,4.81,4.81,0,0,0,2.5,1.07,2.61,2.61,0,0,0,2.39-1.55,4.76,4.76,0,0,0,.25-2.75,10,10,0,0,0-.79-2.53l-.79.54a7.16,7.16,0,0,0,3,2,2.91,2.91,0,0,0,2-.09,3.35,3.35,0,0,0,1.47-1.31,4.45,4.45,0,0,0,.3-3.66A11,11,0,0,0,122,104.1l-.61.61c1,.67,3.5,1.57,5.31,0C128.72,102.22,124.77,97.63,124,96.84Z" style="fill: rgb(38, 50, 56); transform-origin: 116.579px 106.75px;" id="elly62riqkupj" class="animable"></path><path d="M123.89,96.84a6,6,0,0,0,1.77.4,1.37,1.37,0,0,0,1.26-.6,2.72,2.72,0,0,0,.27-1.56q-.06-.9-.21-1.86a4.65,4.65,0,0,1,.85,1.76,2.78,2.78,0,0,1-.21,2.11,2,2,0,0,1-.92.73,2.05,2.05,0,0,1-1.12.06A3.12,3.12,0,0,1,123.89,96.84Z" style="fill: rgb(38, 50, 56); transform-origin: 125.919px 95.5755px;" id="elzhb1ptfe7u" class="animable"></path><path d="M158.78,166.38l-11.86,29.88s43.11.91,56.38.77c0,0,8.34-48.46-5-64.74-6.65-8.14-12.45-7.68-18.09-2.6-1.43,1.29-20.28,15.64-22.45,23.65A20.41,20.41,0,0,0,158.78,166.38Z" style="fill: #93DB82; transform-origin: 176.397px 161.522px;" id="el2c5xwxhauic" class="animable"></path><path d="M168.2,164.9a55.81,55.81,0,0,1,8,1.39c1.31.35,2.59.76,3.87,1.19.64.22,1.28.41,1.92.6a8.73,8.73,0,0,0,2.07.41.05.05,0,0,1,0,.1,14.85,14.85,0,0,1-2-.06,13.43,13.43,0,0,1-1.89-.37c-1.33-.34-2.64-.74-4-1.1-2.67-.71-5.34-1.42-8.06-1.93A.12.12,0,0,1,168.2,164.9Z" style="fill: rgb(38, 50, 56); transform-origin: 176.071px 166.746px;" id="el25zjknyxzce" class="animable"></path><path d="M161.49,167.24a57.82,57.82,0,0,1,6.71-.26c1.13,0,2.24.11,3.35.23.54,0,1.07.12,1.6.19s1.16.24,1.74.31c.06,0,.06.1,0,.1-.55-.05-1.12,0-1.67,0l-1.68-.06c-1.12,0-2.23-.06-3.35-.11-2.24-.09-4.47-.17-6.71-.18A.1.1,0,0,1,161.49,167.24Z" style="fill: rgb(38, 50, 56); transform-origin: 168.155px 167.39px;" id="elsrzpaxlkdrc" class="animable"></path><path d="M181.3,159a8.69,8.69,0,0,0-2.43-.56,8.45,8.45,0,0,0,2.2,1.16,8.54,8.54,0,0,0,2.42.56A8.55,8.55,0,0,0,181.3,159Zm11.22,30.53a8.66,8.66,0,0,0-2.44-.55,9,9,0,0,0,2.21,1.15,8.54,8.54,0,0,0,2.42.56A8.87,8.87,0,0,0,192.52,189.55Zm-29.68-44a2,2,0,0,0-.19.22c.21,0,.41.06.63.07C163.13,145.69,163,145.6,162.84,145.51Zm6.55,44A8.6,8.6,0,0,0,167,189a8.72,8.72,0,0,0,2.2,1.15,8.54,8.54,0,0,0,2.42.56A8.87,8.87,0,0,0,169.39,189.55Zm30-49A8.54,8.54,0,0,0,197,140a8.65,8.65,0,0,0,2.21,1.16,8.37,8.37,0,0,0,2.42.55A9,9,0,0,0,199.41,140.51Zm-8.33-14c-.16.33-.29.66-.42,1a8.52,8.52,0,0,0-.55,2.43,8.62,8.62,0,0,0,1.15-2.21,7.2,7.2,0,0,0,.31-1A4.14,4.14,0,0,0,191.08,126.52Zm-9.91,53.2a8.94,8.94,0,0,0-.54,2.43,8.62,8.62,0,0,0,1.15-2.21,8.72,8.72,0,0,0,.56-2.42A9.15,9.15,0,0,0,181.17,179.72ZM192,151.59a8.89,8.89,0,0,0-.56,2.42,8.59,8.59,0,0,0,1.17-2.19,9.33,9.33,0,0,0,.56-2.44A9,9,0,0,0,192,151.59Zm-34.92,44.87h.5a6,6,0,0,0,.15-1.06A7.27,7.27,0,0,0,157.11,196.46Zm43.23-17a8.66,8.66,0,0,0-2.11,1.32,8.68,8.68,0,0,0,2.38-.74,8.14,8.14,0,0,0,2.1-1.32A8.61,8.61,0,0,0,200.34,179.5Zm-31.43-4.71a8.8,8.8,0,0,0-2.1,1.32,9.72,9.72,0,0,0,4.48-2.06A8.45,8.45,0,0,0,168.91,174.79Zm6.76-27.23a8.72,8.72,0,0,0-2.1,1.32,8.6,8.6,0,0,0,2.37-.73,9,9,0,0,0,2.11-1.32A8.66,8.66,0,0,0,175.67,147.56Zm6.07,47.92a6.52,6.52,0,0,0,.35,1.4h.6A7.42,7.42,0,0,0,181.74,195.48Zm-26.26-13.06a8.94,8.94,0,0,0-1.31-2.11,8.56,8.56,0,0,0,.73,2.38,8.66,8.66,0,0,0,1.32,2.11A8.68,8.68,0,0,0,155.48,182.42Zm10.85-21.85a8.66,8.66,0,0,0-1.32-2.11,9.41,9.41,0,0,0,.73,2.38,8.65,8.65,0,0,0,1.33,2.1A9,9,0,0,0,166.33,160.57Zm26,7.36a8.48,8.48,0,0,0-1.32-2.11,8.68,8.68,0,0,0,.74,2.38,8.86,8.86,0,0,0,1.32,2.11A8.25,8.25,0,0,0,192.31,167.93Zm-8.52-30.78a8.76,8.76,0,0,0-1.33-2.12,9,9,0,0,0,.74,2.38,8.59,8.59,0,0,0,1.33,2.11A9,9,0,0,0,183.79,137.15Z" style="fill: rgb(255, 255, 255); transform-origin: 178.41px 161.68px;" id="ely5y334auldt" class="animable"></path><path d="M206.77,139.46c10,12.13,20.88,33.89,17.69,45-3.06,10.72-50.72,9.19-58.79,8.05-3.48-.5.47-24.58,4.23-24.32,6.19.44,31.56-1.71,32-1.71,0,0-3.88-11.44-6.77-23.83C191.21,125.78,199.72,130.88,206.77,139.46Z" style="fill: rgb(247, 169, 160); transform-origin: 194.676px 162.405px;" id="ela5og0kn8bp9" class="animable"></path><path d="M201.68,166.27a22.16,22.16,0,0,1,5.55,2.2A20.34,20.34,0,0,1,212,172c-1.75-1-3.43-1.95-5.16-2.88S203.41,167.26,201.68,166.27Z" style="fill: rgb(38, 50, 56); transform-origin: 206.84px 169.135px;" id="ela8cjtbwanoc" class="animable"></path><rect x="156.29" y="180.08" width="61.5" height="2.76" style="fill: rgb(199, 199, 199); transform-origin: 187.04px 181.46px;" id="elpae0ojxbbl" class="animable"></rect><rect x="156.29" y="180.08" width="30.95" height="2.76" style="fill: rgb(166, 166, 166); transform-origin: 171.765px 181.46px;" id="elfmo7znv8vw" class="animable"></rect><polygon points="183.91 182.84 123.98 182.84 116.14 142.13 176.08 142.13 183.91 182.84" style="fill: rgb(199, 199, 199); transform-origin: 150.025px 162.485px;" id="elkoz47pkpe8t" class="animable"></polygon><path d="M153.68,162.48a3.3,3.3,0,0,1-3.33,3.65,4.06,4.06,0,0,1-4-3.65,3.29,3.29,0,0,1,3.33-3.65A4.08,4.08,0,0,1,153.68,162.48Z" style="fill: rgb(255, 255, 255); transform-origin: 150.014px 162.48px;" id="elo4ajod6lhu8" class="animable"></path><path d="M176.91,185.08c-4.06,2-9,7.07-12.38,7.55a3.88,3.88,0,0,1-4.14-2.06s-1.59,3.39-4.7,3.32c-1.6,0-2.95-2.61-2.95-2.61s-1.39,2.65-4.15,2.43c-2.2-.19-3.22-2.75-3.22-2.75s-2.53,1.93-4.71,1c-4.41-1.83-4.85-20.76,2.05-23.84,3.22-1.44,3.07,3.19,3.07,3.19s1.82-6.61,5.71-6.8,3.35,5.81,3.35,5.81,1.82-6.38,5.88-6.17c4.23.22,2.65,6.13,2.65,6.13s2.75-4.28,5.83-3.4c5.07,1.44-1,11.13.06,15.27l6.76.2Z" style="fill: rgb(247, 169, 160); transform-origin: 157.166px 179.018px;" id="eludjfu0tnkx" class="animable"></path><path d="M171.05,188.61c4-1.6,5.82,1.28,10,.86,4.61-.46,3.28-5.9-4.76-7.09l-7-.2Z" style="fill: rgb(247, 169, 160); transform-origin: 176.49px 185.846px;" id="el6qgnhimx8w9" class="animable"></path><path d="M145.15,190.58c0,.07-.08.09-.1,0a32.83,32.83,0,0,1,.71-19.52c.07-.19.43-.16.39.08A67,67,0,0,0,145.15,190.58Z" style="fill: rgb(38, 50, 56); transform-origin: 145.026px 180.788px;" id="elfdu0vis31ck" class="animable"></path><path d="M152.7,191.37c0,.07-.11.09-.13,0-1.68-6.39-1.37-14.62,2.1-21.25.12-.22.45-.31.33,0C153,174.68,152,185.29,152.7,191.37Z" style="fill: rgb(38, 50, 56); transform-origin: 153.303px 180.675px;" id="elk3nyynm1b1" class="animable"></path><path d="M163.77,169.9c-3.07,6.49-3.76,13.31-3.47,20.41,0,.1-.12.09-.15,0-1.09-3.44-.81-8-.29-11.51a18.87,18.87,0,0,1,3.69-9C163.63,169.69,163.84,169.76,163.77,169.9Z" style="fill: rgb(38, 50, 56); transform-origin: 161.593px 180.064px;" id="elk1kptz2vpvi" class="animable"></path><path d="M165.28,192.46a14.48,14.48,0,0,0,3.37-1.83c1.06-.73,2-1.56,3.15-2.26a3,3,0,0,1,.94-.44,3.12,3.12,0,0,1,1.06,0c.65.11,1.28.27,1.91.44a27.51,27.51,0,0,0,3.71.84c1.21.14,2.55.12,3.34-.68a2.26,2.26,0,0,0,.63-1.5,2.31,2.31,0,0,0-.63-1.53,8.3,8.3,0,0,0-3.07-2.09,12.27,12.27,0,0,0-3.67-1.05,10.45,10.45,0,0,1,3.82.69,8.61,8.61,0,0,1,3.39,2,2.79,2.79,0,0,1,0,3.93,3.19,3.19,0,0,1-1.91.94,7.23,7.23,0,0,1-2,0,26,26,0,0,1-3.8-.94c-.62-.18-1.22-.39-1.83-.52a2.65,2.65,0,0,0-.86-.08,3,3,0,0,0-.82.35C169.89,190.08,167.8,191.8,165.28,192.46Z" style="fill: rgb(38, 50, 56); transform-origin: 174.66px 187.41px;" id="elxa9osgksort" class="animable"></path><path d="M218.59,153.33l-21.72.77a161.79,161.79,0,0,1-3.82-16.55c-1.11-8,1.61-10.29,9.08-3.8C207.14,138.1,218.59,153.33,218.59,153.33Z" style="fill: #93DB82; transform-origin: 205.701px 142.04px;" id="eldbok34uoq9d" class="animable"></path><path d="M209.86,151.69a10.55,10.55,0,0,1-2.57-.81,10.05,10.05,0,0,1-2.31-1.37,12.23,12.23,0,0,1,4.88,2.18Zm-5.28-15.53a12.3,12.3,0,0,0-4.67,1.86,10.53,10.53,0,0,0,2.61-.66,11.22,11.22,0,0,0,2.16-1.09Z" style="fill: rgb(255, 255, 255); transform-origin: 204.885px 143.925px;" id="elmnqyth1hhd" class="animable"></path><path d="M199,154a18.9,18.9,0,0,0-2.13,0c-.32-1.25-.63-2.5-1-3.74-.17-.62-.35-1.24-.53-1.85s-.41-1.46-.59-2.06c0-.09-.15-.07-.13,0,.16.8.3,1.39.45,2.09q.15.74.33,1.47l-.18-.35c-.32-.63-.69-1.22-1-1.87,0-.08-.17,0-.13.05.32.64.54,1.31.84,1.94a10.14,10.14,0,0,0,.73,1.43c.25,1.06.41,2.27.72,3.28a16.65,16.65,0,0,0,2.55-.34S199.05,154.05,199,154Z" style="fill: rgb(38, 50, 56); transform-origin: 196.548px 150.34px;" id="ele6mk49vtnre" class="animable"></path><path d="M216.31,151.35c-3.17-.11-6.33-.17-9.5-.09-1.58,0-7.89.53-9.47.6-.08,0-.07.13,0,.13,2,.11,8.22-.1,9.8-.15,3.16-.09,6-.34,9.17-.36C216.41,151.48,216.4,151.35,216.31,151.35Z" style="fill: rgb(38, 50, 56); transform-origin: 206.832px 151.622px;" id="el78kzakuawnm" class="animable"></path><path d="M193.22,132.21c-.52.95-7.19,6.13-11.74,4.61-1.48-.5.88-8.71.88-8.71l0-.64.51-9,11.79-3.57,1.68-.44s-.3,2.46-.71,5.53c0,.14,0,.28,0,.43s0,.34-.06.5l-.18,1.39c0,.36-.1.7-.17,1.07s-.12.73-.17,1.11A57.22,57.22,0,0,1,193.22,132.21Z" style="fill: rgb(247, 169, 160); transform-origin: 188.666px 125.779px;" id="elfd0utdz4o1" class="animable"></path><path d="M196.38,114.42s-.3,2.46-.71,5.53c0,.14,0,.28,0,.43s0,.34-.06.5l-.18,1.39c0,.36-.1.7-.17,1.07s-.12.73-.17,1.11c-.2,1.16-.44,2.32-.67,3.38-6.64,0-10.67-4.74-11.66-6l.19-3.35,11.8-3.57Z" style="fill: rgb(38, 50, 56); transform-origin: 189.57px 121.125px;" id="ell0qgp76avd8" class="animable"></path><path d="M204.45,105.92c1.21,15.84-8.14,18.35-11.55,18.61-3.1.23-13.69.63-16.53-15s4.14-21.2,11.2-22.11S203.24,90.09,204.45,105.92Z" style="fill: rgb(247, 169, 160); transform-origin: 190.139px 105.941px;" id="eljeehrhsru2m" class="animable"></path><path d="M201,102.15c-.38,0-.72-.1-1.1-.15a1.85,1.85,0,0,1-1.08-.37.57.57,0,0,1-.05-.7,1.41,1.41,0,0,1,1.37-.42,2.1,2.1,0,0,1,1.35.64A.61.61,0,0,1,201,102.15Z" style="fill: rgb(38, 50, 56); transform-origin: 200.152px 101.311px;" id="eljgkpkh13lb9" class="animable"></path><path d="M190.46,104c.37-.06.71-.18,1.07-.27a1.81,1.81,0,0,0,1-.49.57.57,0,0,0,0-.69,1.41,1.41,0,0,0-1.41-.28,2,2,0,0,0-1.27.79A.61.61,0,0,0,190.46,104Z" style="fill: rgb(38, 50, 56); transform-origin: 191.197px 103.099px;" id="elm9ctvzshjl" class="animable"></path><path d="M193.08,106.79s-.08.06-.08.11c.11,1.08,0,2.34-.92,2.77a0,0,0,0,0,0,.06C193.28,109.48,193.35,107.81,193.08,106.79Z" style="fill: rgb(38, 50, 56); transform-origin: 192.645px 108.26px;" id="elqhx6b04ji1" class="animable"></path><path d="M192,105.72c-1.76,0-1.68,3.5,0,3.52S193.51,105.74,192,105.72Z" style="fill: rgb(38, 50, 56); transform-origin: 191.953px 107.48px;" id="elqrlvnkxlkhs" class="animable"></path><path d="M191.35,105.92c-.3.21-.6.57-1,.61s-.77-.31-1-.65c0,0-.06,0-.06,0,0,.67.28,1.36,1,1.44s1.13-.53,1.28-1.21C191.59,106,191.47,105.84,191.35,105.92Z" style="fill: rgb(38, 50, 56); transform-origin: 190.431px 106.604px;" id="eljku66stsllh" class="animable"></path><path d="M199.38,106s.09,0,.09.09c0,1.09.21,2.34,1.21,2.66a0,0,0,0,1,0,.06C199.46,108.71,199.22,107.05,199.38,106Z" style="fill: rgb(38, 50, 56); transform-origin: 200.008px 107.405px;" id="elcc6pygxaguu" class="animable"></path><path d="M200.3,104.84c1.75-.21,2,3.3.42,3.49S198.84,105,200.3,104.84Z" style="fill: rgb(38, 50, 56); transform-origin: 200.563px 106.584px;" id="eld4c34luq7r5" class="animable"></path><path d="M201.05,105c.3.16.6.48.93.47s.64-.41.86-.79c0,0,0,0,0,0,.08.67-.09,1.39-.72,1.57s-1.06-.38-1.27-1C200.86,105.14,200.94,104.94,201.05,105Z" style="fill: rgb(38, 50, 56); transform-origin: 201.854px 105.482px;" id="elgsqane0yxuv" class="animable"></path><path d="M193,115.29c.26.26.51.62.9.66a2.84,2.84,0,0,0,1.18-.25,0,0,0,0,1,0,.06,1.48,1.48,0,0,1-1.4.56,1.16,1.16,0,0,1-.84-1A.06.06,0,0,1,193,115.29Z" style="fill: rgb(38, 50, 56); transform-origin: 193.959px 115.781px;" id="elcacvaykf83m" class="animable"></path><path d="M197.91,111s.28,1.63.31,2.4a4.15,4.15,0,0,1-4.09-1.1c-.06-.07,0-.16.11-.11a5.58,5.58,0,0,0,3.39.84c0-.22-.58-2.77-.46-2.79a6.65,6.65,0,0,1,1.76.34c-.49-3.41-1.53-6.71-2-10.11a.11.11,0,0,1,.2-.06,55.69,55.69,0,0,1,2.59,10.8C199.83,111.63,198.22,111.11,197.91,111Z" style="fill: rgb(38, 50, 56); transform-origin: 196.916px 106.958px;" id="elsjxtyadeyu9" class="animable"></path><path d="M177.33,111.14c3,.29,3.6-6.65,3.6-6.65s12.81-2.58,13.58-13.1a17.75,17.75,0,0,0,9.25,9.44s-.81-11.48-10-13.44c0,0-11.43-3.77-17.51,5.4S175.29,111,177.33,111.14Z" style="fill: rgb(38, 50, 56); transform-origin: 188.565px 98.8856px;" id="elvnop7jlh3gc" class="animable"></path><path d="M194.53,90.62a11.35,11.35,0,0,1-.43,4.8,11.91,11.91,0,0,1-2.3,4.31,10.06,10.06,0,0,1-.84.89l-.44.44c-.15.13-.31.26-.48.38s-.64.51-1,.74l-1.06.62c-.18.09-.35.2-.54.29l-.56.24-1.11.47c-.78.24-1.56.44-2.33.63.73-.35,1.48-.62,2.19-1l1.05-.55.52-.28c.17-.1.33-.22.49-.33l1-.65c.31-.24.6-.5.9-.75l.45-.37.4-.42a9.15,9.15,0,0,0,.79-.86,14.32,14.32,0,0,0,3-6.28A13.26,13.26,0,0,0,194.53,90.62Z" style="fill: rgb(38, 50, 56); transform-origin: 189.029px 97.525px;" id="el08oe49d299xy" class="animable"></path><path d="M179,110.56s-3.42-5-5.68-3.78.27,8.43,2.9,9.44a2.7,2.7,0,0,0,3.62-1.41Z" style="fill: rgb(247, 169, 160); transform-origin: 176.142px 111.528px;" id="elm95ts34upfn" class="animable"></path><path d="M174.08,108.83s-.05.06,0,.07c1.85.77,2.81,2.5,3.47,4.28a1.47,1.47,0,0,0-2.21-.42s0,.11.05.1a1.64,1.64,0,0,1,1.81.59,7.48,7.48,0,0,1,.85,1.48c.09.17.39.08.33-.11l0,0C178.41,112.42,176.61,109.09,174.08,108.83Z" style="fill: rgb(38, 50, 56); transform-origin: 176.223px 111.925px;" id="elyd5f28gq5z" class="animable"></path></g><defs>     <filter id="active" height="200%">         <feMorphology in="SourceAlpha" result="DILATED" operator="dilate" radius="2"></feMorphology>                <feFlood flood-color="#32DFEC" flood-opacity="1" result="PINK"></feFlood>        <feComposite in="PINK" in2="DILATED" operator="in" result="OUTLINE"></feComposite>        <feMerge>            <feMergeNode in="OUTLINE"></feMergeNode>            <feMergeNode in="SourceGraphic"></feMergeNode>        </feMerge>    </filter>    <filter id="hover" height="200%">        <feMorphology in="SourceAlpha" result="DILATED" operator="dilate" radius="2"></feMorphology>                <feFlood flood-color="#ff0000" flood-opacity="0.5" result="PINK"></feFlood>        <feComposite in="PINK" in2="DILATED" operator="in" result="OUTLINE"></feComposite>        <feMerge>            <feMergeNode in="OUTLINE"></feMergeNode>            <feMergeNode in="SourceGraphic"></feMergeNode>        </feMerge>            <feColorMatrix type="matrix" values="0   0   0   0   0                0   1   0   0   0                0   0   0   0   0                0   0   0   1   0 "></feColorMatrix>    </filter></defs></svg>