<svg xmlns="http://www.w3.org/2000/svg" width="224.863" height="52.793" viewBox="0 0 224.863 52.793">
  <path id="Path_167606" data-name="Path 167606" d="M11.5,22.051q.381,0,.381.469,0,.488-1.084,1.4a8.6,8.6,0,0,1-2.5,1.445,7.421,7.421,0,0,1-2.6.537,4.907,4.907,0,0,1-3.149-1.143,4,4,0,0,1-1.421-3.311,11.431,11.431,0,0,1,3.4-7.7Q7.93,10,11.084,10a2.516,2.516,0,0,1,1.89.728,2.354,2.354,0,0,1,.708,1.694,7.649,7.649,0,0,1-.1,1.416,1.381,1.381,0,0,1-.62.874,1.633,1.633,0,0,1-.83.356.5.5,0,0,1-.391-.2.788.788,0,0,1-.166-.527,5.383,5.383,0,0,1,.166-.937,5.062,5.062,0,0,0,.166-1.045q0-1-.869-1A5.939,5.939,0,0,0,7.7,12.915a13.562,13.562,0,0,0-3.374,3.926,8.823,8.823,0,0,0-1.387,4.38,3.2,3.2,0,0,0,.8,2.222,2.9,2.9,0,0,0,2.271.884A6.466,6.466,0,0,0,8.071,23.9,9.067,9.067,0,0,0,10.3,22.764,4.416,4.416,0,0,1,11.5,22.051Zm6.24,3.438a2.778,2.778,0,0,1-2.207-1.016,3.726,3.726,0,0,1-.869-2.51A8.646,8.646,0,0,1,16.362,17a4.883,4.883,0,0,1,4.058-2.446,3.105,3.105,0,0,1,2.534,1.2,4.408,4.408,0,0,1,.972,2.861,6.811,6.811,0,0,1-2.007,4.707A5.745,5.745,0,0,1,17.744,25.488Zm-1.357-3.779A2.86,2.86,0,0,0,16.8,23.32a1.265,1.265,0,0,0,1.1.625,4.092,4.092,0,0,0,2.92-1.6,5.131,5.131,0,0,0,1.465-3.55,3.159,3.159,0,0,0-.562-1.948,1.791,1.791,0,0,0-1.509-.747,3.207,3.207,0,0,0-2.7,1.929A7.311,7.311,0,0,0,16.387,21.709ZM32.852,17.49a1.625,1.625,0,0,0-1.108.664,17.547,17.547,0,0,0-1.831,2.979,19.7,19.7,0,0,1-2.095,3.535,1.329,1.329,0,0,1-.786.43,1,1,0,0,1-1.152-1.113,7.989,7.989,0,0,1,.156-1.328,34.687,34.687,0,0,0,.537-6.221,1.484,1.484,0,0,1,.317-.825q.317-.454.6-.454a.814.814,0,0,1,.723.313,2.472,2.472,0,0,1,.215,1.26,27.9,27.9,0,0,1-.586,4.063,9.5,9.5,0,0,0-.2,1.289q0,.156.078.156A11.226,11.226,0,0,0,29.082,19.9a15.238,15.238,0,0,1,2.139-3.34,2.748,2.748,0,0,1,2.021-.967,1.671,1.671,0,0,1,1.431.8,7,7,0,0,1,.806,2.92,17.475,17.475,0,0,0,.493,3q.22.591.7.591a1.894,1.894,0,0,0,.762-.215.3.3,0,0,1,.117-.039q.42,0,.42.488a1.3,1.3,0,0,1-.576.913,2.087,2.087,0,0,1-1.387.483,1.469,1.469,0,0,1-1.284-.659A9.5,9.5,0,0,1,34,20.361Q33.73,17.49,32.852,17.49Zm11.523,5.273q0-.635-1.562-1.445a14.758,14.758,0,0,1-2.681-1.626,1.788,1.788,0,0,1-.7-1.362,3.767,3.767,0,0,1,1.948-3.223,6.333,6.333,0,0,1,3.179-1.279,1.9,1.9,0,0,1,1.147.273,1.124,1.124,0,0,1,.356.947.652.652,0,0,1-.259.518.749.749,0,0,1-.405.215,1.3,1.3,0,0,1-.42-.146,1.4,1.4,0,0,0-.41-.137,6.23,6.23,0,0,0-1.982.713q-1.494.713-1.494,1.611a1.286,1.286,0,0,0,.527.991A9.431,9.431,0,0,0,43.516,19.9a7.262,7.262,0,0,1,1.763,1.128,1.852,1.852,0,0,1,.659,1.411q0,1.494-2.061,2.339a10.372,10.372,0,0,1-3.936.845q-1.582,0-1.582-1.074A.576.576,0,0,1,38.716,24a1.609,1.609,0,0,1,.718-.176,2.973,2.973,0,0,1,.557.1,2.9,2.9,0,0,0,.527.1,8.332,8.332,0,0,0,2.324-.361A2.484,2.484,0,0,0,44.375,22.764Zm6.719-10.84q-.205,0-.312-.439a2.889,2.889,0,0,0-.107-.3,2.953,2.953,0,0,1-.264-1.1,1.11,1.11,0,0,1,.464-.8,1.529,1.529,0,0,1,1.03-.405,1.229,1.229,0,0,1,.635.22q.352.22.352.425a4.352,4.352,0,0,1-.239,1.094,1.634,1.634,0,0,1-.762,1.04A1.967,1.967,0,0,1,51.094,11.924ZM49.814,22.832a7.815,7.815,0,0,0,.205,1.67,1.4,1.4,0,0,1,.039.293q0,.176-.322.454a1.032,1.032,0,0,1-.684.278q-.947,0-.947-1.738a34.1,34.1,0,0,1,.742-5.684,13.672,13.672,0,0,0,.254-1.67,2.263,2.263,0,0,1,.225-1.05.7.7,0,0,1,.635-.435,1.193,1.193,0,0,1,.786.239.688.688,0,0,1,.288.532,2.963,2.963,0,0,1-.137.771,36.357,36.357,0,0,0-.908,3.691A17.232,17.232,0,0,0,49.814,22.832Zm8.828-.068q0-.635-1.562-1.445A14.758,14.758,0,0,1,54.4,19.692a1.788,1.788,0,0,1-.7-1.362,3.767,3.767,0,0,1,1.948-3.223,6.333,6.333,0,0,1,3.179-1.279,1.9,1.9,0,0,1,1.147.273,1.124,1.124,0,0,1,.356.947.652.652,0,0,1-.259.518.749.749,0,0,1-.405.215,1.3,1.3,0,0,1-.42-.146,1.4,1.4,0,0,0-.41-.137,6.23,6.23,0,0,0-1.982.713q-1.494.713-1.494,1.611a1.286,1.286,0,0,0,.527.991A9.431,9.431,0,0,0,57.783,19.9a7.262,7.262,0,0,1,1.763,1.128,1.852,1.852,0,0,1,.659,1.411q0,1.494-2.061,2.339a10.372,10.372,0,0,1-3.936.845q-1.582,0-1.582-1.074A.576.576,0,0,1,52.983,24a1.609,1.609,0,0,1,.718-.176,2.973,2.973,0,0,1,.557.1,2.9,2.9,0,0,0,.527.1,8.332,8.332,0,0,0,2.324-.361A2.484,2.484,0,0,0,58.643,22.764Zm7.549-7.617q1.006-.078,1.895-.186a13.691,13.691,0,0,1,1.465-.1,1.968,1.968,0,0,1,.938.137.544.544,0,0,1,.2.479q0,.791-1.1.859-1.416.088-2.607.244a4.349,4.349,0,0,0-1.284.259,17.779,17.779,0,0,0-.591,2.324,17.564,17.564,0,0,0-.5,2.886,2.48,2.48,0,0,0,.283,1.431,1.019,1.019,0,0,0,.85.356,4.3,4.3,0,0,0,2.334-1.26,1.63,1.63,0,0,1,.889-.518q.42,0,.42.449,0,.7-1.353,1.821a4.321,4.321,0,0,1-2.769,1.118q-2.363,0-2.363-2.783a15.456,15.456,0,0,1,.488-3.115,18.6,18.6,0,0,0,.479-2.52q0-.146-.234-.146l-1.016.088q-1.25,0-1.25-1a.5.5,0,0,1,.576-.566h2.012a.463.463,0,0,0,.361-.186,4.791,4.791,0,0,0,.459-1.245q.3-1.06.537-2.095t.918-1.025a.791.791,0,0,1,.654.293.9.9,0,0,1,.234.547,12.96,12.96,0,0,1-.352,1.4Zm13.76,6.543q0,1-1.763,2.4A5.779,5.779,0,0,1,74.551,25.5a3.134,3.134,0,0,1-2.427-.928,3.677,3.677,0,0,1-.854-2.588,8.731,8.731,0,0,1,1.885-5.312q1.885-2.52,4.121-2.52a1.61,1.61,0,0,1,1.66,1.631,3.966,3.966,0,0,1-1.475,2.881,18.9,18.9,0,0,1-3.945,2.705.78.78,0,0,0-.508.684,1.8,1.8,0,0,0,.469,1.3,1.836,1.836,0,0,0,1.387.488q2.1,0,4.287-2.324.322-.322.488-.322Q79.951,21.191,79.951,21.689Zm-6.787-1.523Q77.3,17.705,77.3,16.211q0-.586-.527-.586a3.007,3.007,0,0,0-2.026,1.318A7.611,7.611,0,0,0,73.164,20.166ZM88.643,17.49a1.625,1.625,0,0,0-1.108.664A17.547,17.547,0,0,0,85.7,21.133a19.7,19.7,0,0,1-2.095,3.535,1.329,1.329,0,0,1-.786.43,1,1,0,0,1-1.152-1.113,7.989,7.989,0,0,1,.156-1.328,34.687,34.687,0,0,0,.537-6.221,1.484,1.484,0,0,1,.317-.825q.317-.454.6-.454a.814.814,0,0,1,.723.313,2.472,2.472,0,0,1,.215,1.26,27.9,27.9,0,0,1-.586,4.063,9.5,9.5,0,0,0-.2,1.289q0,.156.078.156A11.226,11.226,0,0,0,84.873,19.9a15.238,15.238,0,0,1,2.139-3.34,2.748,2.748,0,0,1,2.021-.967,1.671,1.671,0,0,1,1.431.8,7,7,0,0,1,.806,2.92,17.474,17.474,0,0,0,.493,3q.22.591.7.591a1.894,1.894,0,0,0,.762-.215.3.3,0,0,1,.117-.039q.42,0,.42.488a1.3,1.3,0,0,1-.576.913,2.087,2.087,0,0,1-1.387.483,1.469,1.469,0,0,1-1.284-.659,9.5,9.5,0,0,1-.718-3.521Q89.521,17.49,88.643,17.49Zm10.586-2.344q1.006-.078,1.895-.186a13.691,13.691,0,0,1,1.465-.1,1.968,1.968,0,0,1,.938.137.544.544,0,0,1,.2.479q0,.791-1.1.859-1.416.088-2.607.244a4.349,4.349,0,0,0-1.284.259,17.779,17.779,0,0,0-.591,2.324,17.564,17.564,0,0,0-.5,2.886,2.48,2.48,0,0,0,.283,1.431,1.019,1.019,0,0,0,.85.356,4.3,4.3,0,0,0,2.334-1.26,1.63,1.63,0,0,1,.889-.518q.42,0,.42.449,0,.7-1.353,1.821a4.321,4.321,0,0,1-2.769,1.118q-2.363,0-2.363-2.783a15.456,15.456,0,0,1,.488-3.115,18.6,18.6,0,0,0,.479-2.52q0-.146-.234-.146l-1.016.088q-1.25,0-1.25-1a.5.5,0,0,1,.576-.566h2.012a.463.463,0,0,0,.361-.186,4.791,4.791,0,0,0,.459-1.245q.3-1.06.537-2.095t.918-1.025a.791.791,0,0,1,.654.293.9.9,0,0,1,.234.547,12.96,12.96,0,0,1-.352,1.4Zm8.818-6.68q.7,0,.7.9a19.925,19.925,0,0,1-.85,3.809,28.768,28.768,0,0,0-.83,4.18,29.978,29.978,0,0,0-.293,3.584,25.042,25.042,0,0,0,.205,3.2,3.877,3.877,0,0,1,.039.439,1.181,1.181,0,0,1-.332.84.967.967,0,0,1-.7.352q-.518,0-.718-.645a7.707,7.707,0,0,1-.2-2.08,52.051,52.051,0,0,1,.786-8.105,26.873,26.873,0,0,1,1.25-5.654Q107.568,8.467,108.047,8.467Zm9.521,13.086a17.04,17.04,0,0,1-3.159,2.271,5.092,5.092,0,0,1-2.085.708,1.65,1.65,0,0,1-1.479-.806,3.426,3.426,0,0,1-.513-1.88,14.442,14.442,0,0,1,.61-3.716,11.9,11.9,0,0,1,.908-2.627,1.092,1.092,0,0,1,.952-.415.515.515,0,0,1,.449.322,1.5,1.5,0,0,1,.176.732,1.378,1.378,0,0,1-.225.635,10.986,10.986,0,0,0-.552,1.016q-.024.1-.376,1.177A6.557,6.557,0,0,0,111.924,21a5.2,5.2,0,0,0,.161,1.035q.161.7.669.7a3.587,3.587,0,0,0,1.323-.327,8.462,8.462,0,0,0,1.772-1.069,6.992,6.992,0,0,0,1.328-1.2,2.849,2.849,0,0,0,.483-1.045,15.87,15.87,0,0,0,.2-2.539q.059-1.953.947-1.953.527,0,.684.278a2.424,2.424,0,0,1,.156,1.06q0,.645-.088,1.611-.107,1.221-.137,1.738a35.443,35.443,0,0,1-.7,5.4,14.83,14.83,0,0,1-1.636,4.531,3.3,3.3,0,0,1-2.959,1.821,5.959,5.959,0,0,1-3.4-1q-1.489-1-1.489-1.694a1.442,1.442,0,0,1,.151-.635q.151-.313.386-.312.117,0,.254.186a4.456,4.456,0,0,0,4.023,1.963q1.416,0,2.378-2.485a14.819,14.819,0,0,0,1.06-4.663Q117.51,21.973,117.568,21.553Zm19.6-.6a12.232,12.232,0,0,1-2.773,3.237,4.538,4.538,0,0,1-2.7,1.138,1.781,1.781,0,0,1-1.5-.728,3.129,3.129,0,0,1-.552-1.938,8.347,8.347,0,0,1,2.007-5.068q2.007-2.6,4.331-2.6a2.631,2.631,0,0,1,1.885.869l1.367-6.387a1.259,1.259,0,0,1,.542-.879,1.4,1.4,0,0,1,.62-.225q.684,0,.684,1.211a10.258,10.258,0,0,1-.449,1.6,46.886,46.886,0,0,0-1.353,5.278,26.421,26.421,0,0,0-.64,5.024q0,1.953.85,1.953a2.161,2.161,0,0,0,1.133-.361.8.8,0,0,1,.459-.176q.312,0,.313.41,0,.5-.874,1.152a2.962,2.962,0,0,1-1.792.654q-1.611,0-1.611-3.105Q137.119,21.494,137.168,20.957Zm-1.279-4.57q-1.582,0-3.135,2.144a6.919,6.919,0,0,0-1.553,3.96q0,1.221.811,1.221a3.36,3.36,0,0,0,1.851-.8,9.9,9.9,0,0,0,2.241-2.554,5.668,5.668,0,0,0,1.152-2.632,1.368,1.368,0,0,0-.4-.884A1.24,1.24,0,0,0,135.889,16.387Zm15.859,5.3q0,1-1.763,2.4a5.779,5.779,0,0,1-3.638,1.406,3.134,3.134,0,0,1-2.427-.928,3.677,3.677,0,0,1-.854-2.588,8.731,8.731,0,0,1,1.885-5.312q1.885-2.52,4.121-2.52a1.61,1.61,0,0,1,1.66,1.631,3.966,3.966,0,0,1-1.475,2.881,18.9,18.9,0,0,1-3.945,2.705.78.78,0,0,0-.508.684,1.8,1.8,0,0,0,.469,1.3,1.836,1.836,0,0,0,1.387.488q2.1,0,4.287-2.324.322-.322.488-.322Q151.748,21.191,151.748,21.689Zm-6.787-1.523q4.141-2.461,4.141-3.955,0-.586-.527-.586a3.007,3.007,0,0,0-2.026,1.318A7.611,7.611,0,0,0,144.961,20.166Zm12.246-11.7q.7,0,.7.9a19.925,19.925,0,0,1-.85,3.809,28.767,28.767,0,0,0-.83,4.18,29.978,29.978,0,0,0-.293,3.584,25.042,25.042,0,0,0,.205,3.2,3.875,3.875,0,0,1,.039.439,1.181,1.181,0,0,1-.332.84.967.967,0,0,1-.7.352q-.518,0-.718-.645a7.706,7.706,0,0,1-.2-2.08,52.05,52.05,0,0,1,.786-8.105,26.873,26.873,0,0,1,1.25-5.654Q156.729,8.467,157.207,8.467Zm5.449,3.457q-.205,0-.312-.439a2.889,2.889,0,0,0-.107-.3,2.953,2.953,0,0,1-.264-1.1,1.11,1.11,0,0,1,.464-.8,1.529,1.529,0,0,1,1.03-.405,1.229,1.229,0,0,1,.635.22q.352.22.352.425a4.352,4.352,0,0,1-.239,1.094,1.634,1.634,0,0,1-.762,1.04A1.967,1.967,0,0,1,162.656,11.924Zm-1.279,10.908a7.815,7.815,0,0,0,.205,1.67,1.4,1.4,0,0,1,.039.293q0,.176-.322.454a1.032,1.032,0,0,1-.684.278q-.947,0-.947-1.738a34.1,34.1,0,0,1,.742-5.684,13.673,13.673,0,0,0,.254-1.67,2.263,2.263,0,0,1,.225-1.05.7.7,0,0,1,.635-.435,1.193,1.193,0,0,1,.786.239.688.688,0,0,1,.288.532,2.963,2.963,0,0,1-.137.771,36.357,36.357,0,0,0-.908,3.691A17.232,17.232,0,0,0,161.377,22.832Zm5.791,2.285a12.043,12.043,0,0,0-.83-2.93,21.729,21.729,0,0,1-1.611-6.133q0-1.377.918-1.377.9,0,.9,1.23a14.247,14.247,0,0,0,.063,1.548,15.9,15.9,0,0,0,.464,1.982q.4,1.44.879,2.671.244.645.352.986.205-.313.527-.859,1.719-2.891,2.739-4.453a19.551,19.551,0,0,1,1.665-2.275,3.936,3.936,0,0,1,.947-.854,1.439,1.439,0,0,1,.615-.142.729.729,0,0,1,.6.273.97.97,0,0,1,.22.625q0,.459-.8,1a11.545,11.545,0,0,0-2.217,2.549,48.1,48.1,0,0,0-3.164,5.205q-.869,1.6-1.338,1.6Q167.686,25.762,167.168,25.117Zm17.4-3.428q0,1-1.763,2.4A5.779,5.779,0,0,1,179.17,25.5a3.134,3.134,0,0,1-2.427-.928,3.677,3.677,0,0,1-.854-2.588,8.731,8.731,0,0,1,1.885-5.312q1.885-2.52,4.121-2.52a1.61,1.61,0,0,1,1.66,1.631,3.966,3.966,0,0,1-1.475,2.881,18.9,18.9,0,0,1-3.945,2.705.78.78,0,0,0-.508.684,1.8,1.8,0,0,0,.469,1.3,1.836,1.836,0,0,0,1.387.488q2.1,0,4.287-2.324.322-.322.488-.322Q184.57,21.191,184.57,21.689Zm-6.787-1.523q4.141-2.461,4.141-3.955,0-.586-.527-.586a3.007,3.007,0,0,0-2.026,1.318A7.611,7.611,0,0,0,177.783,20.166Zm10.8.957q.1-.176.234-.488a17.368,17.368,0,0,1,1.221-2.388,15.863,15.863,0,0,1,1.226-1.655,7.691,7.691,0,0,1,1.221-1.2,4,4,0,0,1,1-.571,2.568,2.568,0,0,1,.869-.161,1.926,1.926,0,0,1,1.387.513,1.6,1.6,0,0,1,.537,1.2.867.867,0,0,1-.19.547.691.691,0,0,1-.581.244,1.021,1.021,0,0,1-.752-.361,1.026,1.026,0,0,0-.732-.361q-1.016,0-2.812,2.461a11.646,11.646,0,0,0-2.187,5.42,1.651,1.651,0,0,1-.371,1.006,1.119,1.119,0,0,1-.771.244q-.479,0-.693-.713a9.327,9.327,0,0,1-.215-2.4q0-.459.049-2.021a25.5,25.5,0,0,1,.234-2.979q.029-.186.1-.869a4.982,4.982,0,0,1,.171-1.045,1.242,1.242,0,0,1,.42-.547,1.08,1.08,0,0,1,.688-.254.648.648,0,0,1,.542.229.782.782,0,0,1,.181.493,4.285,4.285,0,0,1-.2,1.074A8.757,8.757,0,0,0,188.9,17.6a5.627,5.627,0,0,1-.107.693,18.461,18.461,0,0,0-.2,2.207l-.01.361Zm11.553-9.2q-.205,0-.312-.439a2.889,2.889,0,0,0-.107-.3,2.953,2.953,0,0,1-.264-1.1,1.11,1.11,0,0,1,.464-.8,1.529,1.529,0,0,1,1.03-.405,1.229,1.229,0,0,1,.635.22q.352.22.352.425a4.352,4.352,0,0,1-.239,1.094,1.634,1.634,0,0,1-.762,1.04A1.967,1.967,0,0,1,200.137,11.924Zm-1.279,10.908a7.815,7.815,0,0,0,.205,1.67,1.4,1.4,0,0,1,.039.293q0,.176-.322.454a1.032,1.032,0,0,1-.684.278q-.947,0-.947-1.738a34.1,34.1,0,0,1,.742-5.684,13.673,13.673,0,0,0,.254-1.67,2.263,2.263,0,0,1,.225-1.05.7.7,0,0,1,.635-.435,1.193,1.193,0,0,1,.786.239.688.688,0,0,1,.288.532,2.963,2.963,0,0,1-.137.771,36.357,36.357,0,0,0-.908,3.691A17.232,17.232,0,0,0,198.857,22.832Zm10.566-5.342a1.625,1.625,0,0,0-1.108.664,17.547,17.547,0,0,0-1.831,2.979,19.7,19.7,0,0,1-2.095,3.535,1.329,1.329,0,0,1-.786.43,1,1,0,0,1-1.152-1.113,7.988,7.988,0,0,1,.156-1.328,34.686,34.686,0,0,0,.537-6.221,1.484,1.484,0,0,1,.317-.825q.317-.454.6-.454a.814.814,0,0,1,.723.313,2.472,2.472,0,0,1,.215,1.26,27.9,27.9,0,0,1-.586,4.063,9.5,9.5,0,0,0-.2,1.289q0,.156.078.156a11.227,11.227,0,0,0,1.357-2.334,15.238,15.238,0,0,1,2.139-3.34,2.748,2.748,0,0,1,2.021-.967,1.671,1.671,0,0,1,1.431.8,7,7,0,0,1,.806,2.92,17.475,17.475,0,0,0,.493,3q.22.591.7.591A1.894,1.894,0,0,0,214,22.7a.3.3,0,0,1,.117-.039q.42,0,.42.488a1.3,1.3,0,0,1-.576.913,2.087,2.087,0,0,1-1.387.483,1.469,1.469,0,0,1-1.284-.659,9.5,9.5,0,0,1-.718-3.521Q210.3,17.49,209.424,17.49Zm13.516,3.975q-.117-.088-.654.547a8.759,8.759,0,0,1-2.271,1.855,5.13,5.13,0,0,1-2.563.811,1.761,1.761,0,0,1-1.377-.552,2.2,2.2,0,0,1-.5-1.528,6.6,6.6,0,0,1,1.143-3.374,10.678,10.678,0,0,1,3.2-3.247,6.738,6.738,0,0,1,3.6-1.387,2.287,2.287,0,0,1,1.426.469q.146.117.254.2a1.175,1.175,0,0,1,.332.513,1.763,1.763,0,0,1,.156.62,1.517,1.517,0,0,1-.107.449,19.081,19.081,0,0,0-.811,2.686q-.215,1.064-.469,3.584a32.116,32.116,0,0,1-.508,3.486,7.579,7.579,0,0,1-.986,2.363,4.917,4.917,0,0,1-1.709,1.714,4.072,4.072,0,0,1-2.051.571,6.182,6.182,0,0,1-3.6-1.26q-1.777-1.26-1.777-2.021,0-.479.361-.479a3.644,3.644,0,0,1,1.045.576A7.67,7.67,0,0,0,219.2,29.59a2.631,2.631,0,0,0,2.437-1.709,15.222,15.222,0,0,0,1.138-5.107Q222.842,22,222.939,21.465Zm-.02-5.361a3.955,3.955,0,0,0-2.075.859,10.057,10.057,0,0,0-2.417,2.52,5.216,5.216,0,0,0-1.172,2.783.785.785,0,0,0,.771.82,4.613,4.613,0,0,0,2.271-.9,7.947,7.947,0,0,0,2.412-2.5,5.268,5.268,0,0,0,1.011-2.5Q223.721,16.1,222.92,16.1ZM8.018,51.816q-.049-.02-.254.215a12.5,12.5,0,0,1-2.607,2.28,4.519,4.519,0,0,1-2.363.767,1.676,1.676,0,0,1-1.436-.757A3.254,3.254,0,0,1,.82,52.393a8.824,8.824,0,0,1,2.441-5.562Q5.7,43.926,8.193,43.926q.918,0,1.172,1.055a.456.456,0,0,0,.381.361q.908.215.908,1A13.1,13.1,0,0,1,10.2,48.73q-.322,1.279-.986,4.8A37.115,37.115,0,0,0,8.5,58.77Q8.457,59.9,8.428,60.3a.838.838,0,0,1-.337.635,1.181,1.181,0,0,1-.737.234.757.757,0,0,1-.645-.317,1.3,1.3,0,0,1-.234-.8q0-.3.313-2.075t.674-3.364Q7.881,52.7,8.018,51.816Zm.752-4.678q0-1.523-1.162-1.523-1.426,0-3.3,2.339a7.117,7.117,0,0,0-1.875,4.292q0,1.2.791,1.2,1.475,0,3.511-2.192A6.3,6.3,0,0,0,8.77,47.139Zm10.889,3.613A13.531,13.531,0,0,1,17.1,54a3.831,3.831,0,0,1-2.432,1.152,1.841,1.841,0,0,1-1.313-.752,3.406,3.406,0,0,1-.669-2.314,17.244,17.244,0,0,1,.615-3.77,14.3,14.3,0,0,0,.518-2.92.933.933,0,0,1,.889-.586.814.814,0,0,1,.654.288.92.92,0,0,1,.244.6,6,6,0,0,1-.479,1.943,12.469,12.469,0,0,0-.908,4.209q0,1.6.742,1.6.947,0,2.412-1.611a13.452,13.452,0,0,0,2.51-4.492,6.7,6.7,0,0,1,.669-1.5.826.826,0,0,1,.7-.347q.664,0,.664.879a4.377,4.377,0,0,1-.186.713,15.321,15.321,0,0,0-.586,4.043q0,2.285.752,2.959.391.361.391.586,0,.273-.4.5a1.482,1.482,0,0,1-.718.225q-.684,0-1.1-1.016a8.22,8.22,0,0,1-.42-3v-.322Q19.648,50.918,19.658,50.752Zm11.885.693A11.959,11.959,0,0,1,28.838,54.2a4.441,4.441,0,0,1-2.451.918,1.663,1.663,0,0,1-1.3-.635,2.41,2.41,0,0,1-.547-1.631,9.266,9.266,0,0,1,2.295-5.532q2.295-2.964,4.561-2.964a1.3,1.3,0,0,1,1.221.938.424.424,0,0,0,.4.313q.781,0,.781.605a4.849,4.849,0,0,1-.1.83,26.361,26.361,0,0,0-.527,4.063q0,2.363.9,2.832a.676.676,0,0,1,.43.576.823.823,0,0,1-.42.61,1.382,1.382,0,0,1-.811.308q-.752,0-1.24-1.035A7.1,7.1,0,0,1,31.543,51.445Zm-.6-5.5q-1.289,0-3,2.417a7.566,7.566,0,0,0-1.709,4.009q0,1.123.742,1.123,1.074,0,2.979-2.168a6.323,6.323,0,0,0,1.9-3.984Q31.865,45.947,30.947,45.947Zm9.17-7.48q.7,0,.7.9a19.925,19.925,0,0,1-.85,3.809,28.768,28.768,0,0,0-.83,4.18,29.978,29.978,0,0,0-.293,3.584,25.042,25.042,0,0,0,.205,3.2,3.876,3.876,0,0,1,.039.439,1.181,1.181,0,0,1-.332.84.967.967,0,0,1-.7.352q-.518,0-.718-.645a7.707,7.707,0,0,1-.2-2.08,52.051,52.051,0,0,1,.786-8.105,26.873,26.873,0,0,1,1.25-5.654Q39.639,38.467,40.117,38.467Zm5.449,3.457q-.205,0-.312-.439a2.889,2.889,0,0,0-.107-.3,2.953,2.953,0,0,1-.264-1.1,1.11,1.11,0,0,1,.464-.8,1.529,1.529,0,0,1,1.03-.405,1.229,1.229,0,0,1,.635.22q.352.22.352.425a4.352,4.352,0,0,1-.239,1.094,1.634,1.634,0,0,1-.762,1.04A1.967,1.967,0,0,1,45.566,41.924ZM44.287,52.832a7.815,7.815,0,0,0,.205,1.67,1.4,1.4,0,0,1,.039.293q0,.176-.322.454a1.032,1.032,0,0,1-.684.278q-.947,0-.947-1.738a34.1,34.1,0,0,1,.742-5.684,13.672,13.672,0,0,0,.254-1.67,2.263,2.263,0,0,1,.225-1.05.7.7,0,0,1,.635-.435,1.193,1.193,0,0,1,.786.239.688.688,0,0,1,.288.532,2.963,2.963,0,0,1-.137.771,36.357,36.357,0,0,0-.908,3.691A17.231,17.231,0,0,0,44.287,52.832Zm7.891-7.686q1.006-.078,1.895-.186a13.691,13.691,0,0,1,1.465-.1,1.968,1.968,0,0,1,.938.137.544.544,0,0,1,.2.479q0,.791-1.1.859-1.416.088-2.607.244a4.349,4.349,0,0,0-1.284.259,17.779,17.779,0,0,0-.591,2.324,17.564,17.564,0,0,0-.5,2.886,2.48,2.48,0,0,0,.283,1.431,1.019,1.019,0,0,0,.85.356,4.3,4.3,0,0,0,2.334-1.26,1.63,1.63,0,0,1,.889-.518q.42,0,.42.449,0,.7-1.353,1.821a4.321,4.321,0,0,1-2.769,1.118q-2.363,0-2.363-2.783a15.456,15.456,0,0,1,.488-3.115,18.6,18.6,0,0,0,.479-2.52q0-.146-.234-.146l-1.016.088q-1.25,0-1.25-1a.5.5,0,0,1,.576-.566h2.012a.463.463,0,0,0,.361-.186,4.792,4.792,0,0,0,.459-1.245q.3-1.06.537-2.095t.918-1.025a.791.791,0,0,1,.654.293.9.9,0,0,1,.234.547,12.96,12.96,0,0,1-.352,1.4Zm12.617,6.406a17.04,17.04,0,0,1-3.159,2.271,5.092,5.092,0,0,1-2.085.708,1.65,1.65,0,0,1-1.479-.806,3.426,3.426,0,0,1-.513-1.88,14.442,14.442,0,0,1,.61-3.716,11.9,11.9,0,0,1,.908-2.627,1.092,1.092,0,0,1,.952-.415.515.515,0,0,1,.449.322,1.5,1.5,0,0,1,.176.732,1.378,1.378,0,0,1-.225.635,10.988,10.988,0,0,0-.552,1.016q-.024.1-.376,1.177A6.557,6.557,0,0,0,59.15,51a5.2,5.2,0,0,0,.161,1.035q.161.7.669.7a3.587,3.587,0,0,0,1.323-.327,8.462,8.462,0,0,0,1.772-1.069,6.992,6.992,0,0,0,1.328-1.2,2.849,2.849,0,0,0,.483-1.045,15.87,15.87,0,0,0,.2-2.539q.059-1.953.947-1.953.527,0,.684.278a2.424,2.424,0,0,1,.156,1.06q0,.645-.088,1.611-.107,1.221-.137,1.738a35.443,35.443,0,0,1-.7,5.4,14.83,14.83,0,0,1-1.636,4.531,3.3,3.3,0,0,1-2.959,1.821,5.959,5.959,0,0,1-3.4-1q-1.489-1-1.489-1.694a1.442,1.442,0,0,1,.151-.635q.151-.312.386-.312.117,0,.254.186a4.456,4.456,0,0,0,4.023,1.963q1.416,0,2.378-2.485a14.819,14.819,0,0,0,1.06-4.663Q64.736,51.973,64.795,51.553ZM82.3,52.764q0-.635-1.562-1.445a14.758,14.758,0,0,1-2.681-1.626,1.788,1.788,0,0,1-.7-1.362,3.767,3.767,0,0,1,1.948-3.223,6.333,6.333,0,0,1,3.179-1.279,1.9,1.9,0,0,1,1.147.273,1.124,1.124,0,0,1,.356.947.652.652,0,0,1-.259.518.749.749,0,0,1-.405.215,1.3,1.3,0,0,1-.42-.146,1.4,1.4,0,0,0-.41-.137,6.23,6.23,0,0,0-1.982.713q-1.494.713-1.494,1.611a1.286,1.286,0,0,0,.527.991A9.431,9.431,0,0,0,81.445,49.9a7.262,7.262,0,0,1,1.763,1.128,1.852,1.852,0,0,1,.659,1.411q0,1.494-2.061,2.339a10.372,10.372,0,0,1-3.936.845q-1.582,0-1.582-1.074A.576.576,0,0,1,76.646,54a1.609,1.609,0,0,1,.718-.176,2.973,2.973,0,0,1,.557.1,2.9,2.9,0,0,0,.527.1,8.331,8.331,0,0,0,2.324-.361A2.484,2.484,0,0,0,82.3,52.764Zm6.426,2.725a2.778,2.778,0,0,1-2.207-1.016,3.726,3.726,0,0,1-.869-2.51A8.646,8.646,0,0,1,87.349,47a4.883,4.883,0,0,1,4.058-2.446,3.105,3.105,0,0,1,2.534,1.2,4.408,4.408,0,0,1,.972,2.861,6.811,6.811,0,0,1-2.007,4.707A5.745,5.745,0,0,1,88.73,55.488Zm-1.357-3.779a2.86,2.86,0,0,0,.415,1.611,1.265,1.265,0,0,0,1.1.625,4.092,4.092,0,0,0,2.92-1.6,5.131,5.131,0,0,0,1.465-3.55,3.159,3.159,0,0,0-.562-1.948A1.791,1.791,0,0,0,91.2,46.1a3.207,3.207,0,0,0-2.7,1.929A7.311,7.311,0,0,0,87.373,51.709Zm13.232-13.242q.7,0,.7.9a19.925,19.925,0,0,1-.85,3.809,28.768,28.768,0,0,0-.83,4.18,29.978,29.978,0,0,0-.293,3.584,25.042,25.042,0,0,0,.205,3.2,3.877,3.877,0,0,1,.039.439,1.181,1.181,0,0,1-.332.84.967.967,0,0,1-.7.352q-.518,0-.718-.645a7.707,7.707,0,0,1-.2-2.08,52.051,52.051,0,0,1,.786-8.105,26.873,26.873,0,0,1,1.25-5.654Q100.127,38.467,100.605,38.467Zm9.2,12.285A13.531,13.531,0,0,1,107.246,54a3.831,3.831,0,0,1-2.432,1.152A1.841,1.841,0,0,1,103.5,54.4a3.406,3.406,0,0,1-.669-2.314,17.244,17.244,0,0,1,.615-3.77,14.3,14.3,0,0,0,.518-2.92.933.933,0,0,1,.889-.586.814.814,0,0,1,.654.288.92.92,0,0,1,.244.6,6,6,0,0,1-.479,1.943,12.469,12.469,0,0,0-.908,4.209q0,1.6.742,1.6.947,0,2.412-1.611a13.452,13.452,0,0,0,2.51-4.492,6.7,6.7,0,0,1,.669-1.5.826.826,0,0,1,.7-.347q.664,0,.664.879a4.377,4.377,0,0,1-.186.713,15.321,15.321,0,0,0-.586,4.043q0,2.285.752,2.959.391.361.391.586,0,.273-.4.5a1.482,1.482,0,0,1-.718.225q-.684,0-1.1-1.016a8.22,8.22,0,0,1-.42-3v-.322Q109.795,50.918,109.8,50.752Zm9.277-5.605q1.006-.078,1.895-.186a13.691,13.691,0,0,1,1.465-.1,1.968,1.968,0,0,1,.938.137.544.544,0,0,1,.2.479q0,.791-1.1.859-1.416.088-2.607.244a4.349,4.349,0,0,0-1.284.259,17.778,17.778,0,0,0-.591,2.324,17.564,17.564,0,0,0-.5,2.886,2.48,2.48,0,0,0,.283,1.431,1.019,1.019,0,0,0,.85.356,4.3,4.3,0,0,0,2.334-1.26,1.63,1.63,0,0,1,.889-.518q.42,0,.42.449,0,.7-1.353,1.821a4.321,4.321,0,0,1-2.769,1.118q-2.363,0-2.363-2.783a15.455,15.455,0,0,1,.488-3.115,18.6,18.6,0,0,0,.479-2.52q0-.146-.234-.146l-1.016.088q-1.25,0-1.25-1a.5.5,0,0,1,.576-.566h2.012a.463.463,0,0,0,.361-.186,4.792,4.792,0,0,0,.459-1.245q.3-1.06.537-2.095t.918-1.025a.791.791,0,0,1,.654.293A.9.9,0,0,1,120,41.7a12.96,12.96,0,0,1-.352,1.4Zm8.545-3.223q-.205,0-.312-.439a2.889,2.889,0,0,0-.107-.3,2.953,2.953,0,0,1-.264-1.1,1.11,1.11,0,0,1,.464-.8,1.529,1.529,0,0,1,1.03-.405,1.229,1.229,0,0,1,.635.22q.352.22.352.425a4.352,4.352,0,0,1-.239,1.094,1.634,1.634,0,0,1-.762,1.04A1.967,1.967,0,0,1,127.627,41.924Zm-1.279,10.908a7.815,7.815,0,0,0,.205,1.67,1.4,1.4,0,0,1,.039.293q0,.176-.322.454a1.032,1.032,0,0,1-.684.278q-.947,0-.947-1.738a34.1,34.1,0,0,1,.742-5.684,13.671,13.671,0,0,0,.254-1.67,2.263,2.263,0,0,1,.225-1.05.7.7,0,0,1,.635-.435,1.193,1.193,0,0,1,.786.239.688.688,0,0,1,.288.532,2.963,2.963,0,0,1-.137.771,36.357,36.357,0,0,0-.908,3.691A17.231,17.231,0,0,0,126.348,52.832Zm6.768,2.656a2.778,2.778,0,0,1-2.207-1.016,3.726,3.726,0,0,1-.869-2.51A8.646,8.646,0,0,1,131.733,47a4.883,4.883,0,0,1,4.058-2.446,3.105,3.105,0,0,1,2.534,1.2,4.408,4.408,0,0,1,.972,2.861,6.811,6.811,0,0,1-2.007,4.707A5.745,5.745,0,0,1,133.115,55.488Zm-1.357-3.779a2.86,2.86,0,0,0,.415,1.611,1.265,1.265,0,0,0,1.1.625,4.092,4.092,0,0,0,2.92-1.6,5.131,5.131,0,0,0,1.465-3.55,3.159,3.159,0,0,0-.562-1.948,1.791,1.791,0,0,0-1.509-.747,3.207,3.207,0,0,0-2.7,1.929A7.311,7.311,0,0,0,131.758,51.709Zm16.465-4.219a1.625,1.625,0,0,0-1.108.664,17.547,17.547,0,0,0-1.831,2.979,19.7,19.7,0,0,1-2.095,3.535,1.329,1.329,0,0,1-.786.43,1,1,0,0,1-1.152-1.113,7.989,7.989,0,0,1,.156-1.328,34.686,34.686,0,0,0,.537-6.221,1.484,1.484,0,0,1,.317-.825q.317-.454.6-.454a.814.814,0,0,1,.723.313,2.472,2.472,0,0,1,.215,1.26,27.9,27.9,0,0,1-.586,4.063,9.5,9.5,0,0,0-.2,1.289q0,.156.078.156a11.227,11.227,0,0,0,1.357-2.334,15.238,15.238,0,0,1,2.139-3.34,2.748,2.748,0,0,1,2.021-.967,1.671,1.671,0,0,1,1.431.8,7,7,0,0,1,.806,2.92,17.475,17.475,0,0,0,.493,3q.22.591.7.591a1.894,1.894,0,0,0,.762-.215.3.3,0,0,1,.117-.039q.42,0,.42.488a1.3,1.3,0,0,1-.576.913,2.087,2.087,0,0,1-1.387.483,1.469,1.469,0,0,1-1.284-.659,9.5,9.5,0,0,1-.718-3.521Q149.1,47.49,148.223,47.49Zm11.523,5.273q0-.635-1.562-1.445a14.758,14.758,0,0,1-2.681-1.626,1.788,1.788,0,0,1-.7-1.362,3.767,3.767,0,0,1,1.948-3.223,6.333,6.333,0,0,1,3.179-1.279,1.9,1.9,0,0,1,1.147.273,1.124,1.124,0,0,1,.356.947.652.652,0,0,1-.259.518.749.749,0,0,1-.405.215,1.3,1.3,0,0,1-.42-.146,1.4,1.4,0,0,0-.41-.137,6.23,6.23,0,0,0-1.982.713q-1.494.713-1.494,1.611a1.286,1.286,0,0,0,.527.991,9.431,9.431,0,0,0,1.895,1.089,7.262,7.262,0,0,1,1.763,1.128,1.852,1.852,0,0,1,.659,1.411q0,1.494-2.061,2.339a10.372,10.372,0,0,1-3.936.845q-1.582,0-1.582-1.074a.576.576,0,0,1,.356-.547,1.609,1.609,0,0,1,.718-.176,2.973,2.973,0,0,1,.557.1,2.9,2.9,0,0,0,.527.1,8.331,8.331,0,0,0,2.324-.361A2.484,2.484,0,0,0,159.746,52.764Z" transform="translate(-0.82 -8.379)" fill="#fff"/>
</svg>
